<svg width="28" height="6" viewBox="0 0 28 6" fill="none" xmlns="http://www.w3.org/2000/svg">
<g clip-path="url(#clip0_2868_45276)">
<mask id="mask0_2868_45276" style="mask-type:luminance" maskUnits="userSpaceOnUse" x="0" y="0" width="28" height="5">
<path d="M27.6837 0.0752563H0.919922V4.93568H27.6837V0.0752563Z" fill="white"/>
</mask>
<g mask="url(#mask0_2868_45276)">
<path d="M1.2198 3.70308C1.60648 4.39132 2.28119 4.82292 3.01116 4.93568C2.98353 4.18135 2.36405 3.42312 1.42497 3.09261C1.26714 3.03817 1.10932 2.9954 0.951488 2.96818C1.00278 3.22093 1.08959 3.46589 1.2198 3.70308ZM3.39388 3.08483C3.36233 3.76529 3.57933 4.3952 3.96602 4.90069C4.17907 4.85014 4.3882 4.77237 4.58944 4.6635C5.78892 4.01026 6.22297 2.52491 5.56008 1.34285C5.41804 1.08622 5.23654 0.868477 5.02346 0.685725C4.10412 1.10567 3.44518 2.01165 3.39388 3.08483ZM2.19044 0.382434C1.44076 0.79071 0.990945 1.52561 0.919922 2.31106C1.11326 2.33827 1.31055 2.34605 1.51572 2.32661C2.75468 2.22162 3.70953 1.26898 3.82397 0.11414C3.68193 0.0908097 3.53592 0.0752563 3.38993 0.0752563C2.98353 0.0752563 2.57318 0.172465 2.19044 0.382434Z" fill="url(#paint0_linear_2868_45276)"/>
<path d="M14.7728 0.428894H14.0586V4.50387H14.7728V0.428894Z" fill="black"/>
<path d="M16.9306 1.54486C16.5755 1.54486 16.2322 1.67706 16.0152 2.0309V1.60707H15.3721V4.50388H16.0626V2.97187C16.0626 2.85133 16.0744 2.73857 16.0941 2.65303C16.1731 2.34196 16.398 2.15921 16.7294 2.15921C17.0608 2.15921 17.27 2.3303 17.3331 2.66858C17.3489 2.75024 17.3568 2.86689 17.3568 2.97187V4.50777H18.0433V2.78912C18.0433 2.59859 18.0236 2.42362 17.9802 2.27586C17.8303 1.78205 17.4317 1.54486 16.9306 1.54486Z" fill="black"/>
<path d="M20.8845 2.3264C21.1607 2.11643 21.2791 1.87147 21.2791 1.52541C21.2791 1.00437 20.9517 0.615534 20.4545 0.483331C20.3242 0.448336 20.1151 0.428894 19.8705 0.428894H18.5645V4.50387H20.0283C20.3124 4.50387 20.5057 4.47665 20.6913 4.41055C21.1804 4.23946 21.5198 3.86618 21.5198 3.31404C21.5237 2.85521 21.2988 2.52859 20.8845 2.3264ZM19.2747 1.07047H19.9099C20.0559 1.07047 20.2098 1.08991 20.3085 1.13657C20.482 1.21434 20.5729 1.36209 20.5729 1.57984C20.5729 1.79759 20.4742 1.95312 20.2966 2.03089C20.2098 2.06977 20.0796 2.08921 19.9336 2.08921H19.2747V1.07047ZM20.3479 3.83896C20.2729 3.85452 20.1506 3.86229 20.0678 3.86229H19.2747V2.71523H20.127C20.2019 2.71523 20.2887 2.72301 20.3519 2.73468C20.6872 2.80855 20.8135 3.06907 20.8135 3.28682C20.8135 3.57845 20.6282 3.77675 20.3479 3.83896Z" fill="black"/>
<path d="M26.9413 1.60712L26.2074 3.67572L25.4617 1.60712H24.7158L25.8799 4.50394H26.5192L27.6831 1.60712H26.9413Z" fill="black"/>
<path d="M23.2638 1.54486C22.4273 1.54486 21.7764 2.20976 21.7764 3.07297C21.7764 3.87397 22.4156 4.5622 23.2914 4.5622C23.9306 4.5622 24.4277 4.20059 24.6803 3.61345H23.978C23.8202 3.84675 23.607 3.97118 23.3033 3.97118C22.8456 3.97118 22.5496 3.70677 22.4589 3.29849H24.7514C24.7671 3.20128 24.7751 3.11963 24.7712 3.02242C24.7632 2.24864 24.1595 1.54486 23.2638 1.54486ZM22.4589 2.828C22.5101 2.41195 22.8495 2.13588 23.2677 2.13588C23.7057 2.13588 24.0372 2.41973 24.0884 2.828H22.4589Z" fill="black"/>
<path d="M12.993 2.3304C13.2889 2.11654 13.3954 1.7938 13.3954 1.52162C13.3954 1.00058 13.0679 0.61175 12.5708 0.479547C12.4406 0.444552 12.2315 0.42511 11.9868 0.42511H10.6808V2.14376C10.3178 2.1982 9.96267 2.28374 9.62729 2.39261L8.81447 0.428998H8.15948L6.4707 4.50398H7.15726C7.75306 3.88573 8.4633 3.43858 9.20114 3.14306L9.71803 4.50398H10.4993L9.84429 2.92531C10.1244 2.84755 10.4046 2.78922 10.6808 2.75034V4.50398H11.0359H12.2827C13.1626 4.50398 13.6361 3.99461 13.6361 3.31415C13.6401 2.90198 13.4309 2.55203 12.993 2.3304ZM7.55579 3.57856L8.47513 1.23388L9.00781 2.64147C8.4554 2.89032 7.96219 3.20916 7.55579 3.57856ZM11.391 1.07057H11.9987C12.1368 1.07057 12.2551 1.08613 12.334 1.11335C12.5668 1.18722 12.6892 1.35831 12.6892 1.63438C12.6892 1.89101 12.559 2.05822 12.3498 2.13598C12.1525 2.10488 11.9316 2.08543 11.6869 2.08543C11.5962 2.08543 11.4936 2.08543 11.391 2.08932V1.07057ZM12.2433 3.8624H11.391V2.69201C11.4975 2.68813 11.6041 2.68424 11.7067 2.68424C12.48 2.6959 12.9298 2.91754 12.9298 3.31026C12.9338 3.67188 12.6102 3.8624 12.2433 3.8624Z" fill="black"/>
</g>
</g>
<defs>
<linearGradient id="paint0_linear_2868_45276" x1="0.919922" y1="2.50547" x2="5.87334" y2="2.50547" gradientUnits="userSpaceOnUse">
<stop stop-color="#D3A238"/>
<stop offset="0.06" stop-color="#D7AA31"/>
<stop offset="0.26" stop-color="#E4C11C"/>
<stop offset="0.47" stop-color="#EDD20E"/>
<stop offset="0.71" stop-color="#F3DC05"/>
<stop offset="1" stop-color="#F5E003"/>
</linearGradient>
<clipPath id="clip0_2868_45276">
<rect width="26.9591" height="5.05484" fill="white" transform="translate(0.837891 0.032959)"/>
</clipPath>
</defs>
</svg>
