<svg width="156" height="157" viewBox="0 0 156 157" fill="none" xmlns="http://www.w3.org/2000/svg">
<circle cx="77.9351" cy="78.9038" r="76.4351" fill="white" stroke="#2B586B" stroke-width="3"/>
<path d="M84 85C75.99 85 60 88.99 60 97V103H108V97C108 88.99 92.01 85 84 85ZM57 73V64H51V73H42V79H51V88H57V79H66V73M84 79C87.1826 79 90.2348 77.7357 92.4853 75.4853C94.7357 73.2348 96 70.1826 96 67C96 63.8174 94.7357 60.7652 92.4853 58.5147C90.2348 56.2643 87.1826 55 84 55C80.8174 55 77.7652 56.2643 75.5147 58.5147C73.2643 60.7652 72 63.8174 72 67C72 70.1826 73.2643 73.2348 75.5147 75.4853C77.7652 77.7357 80.8174 79 84 79Z" fill="#2B586B"/>
</svg>
