<svg width="51" height="57" viewBox="0 0 51 57" fill="none" xmlns="http://www.w3.org/2000/svg">
<g clip-path="url(#clip0_4446_6943)">
<path d="M29.8701 37.5162L29.9319 37.7854L29.8385 38.1912L29.9434 38.5956L29.8296 38.9114L29.8657 39.1932L28.4378 39.101L28.3 41.7766L28.7329 42.4902L29.1465 43.042L27.8938 43.3144L26.2738 43.0953L25.8019 42.6786L23.0797 42.5976L22.9568 42.6519L22.5764 42.2606L22.1388 42.2331L21.7227 42.3532L21.4039 42.5056L21.3398 41.9786L21.4501 41.2358L21.708 40.481L21.7391 40.1154L21.9742 39.3588L22.1529 39.0261L22.5585 38.4798L22.7887 38.1048L22.8763 37.4901L22.8374 37.0036L22.6454 36.6888L22.4572 36.1683L22.3178 35.6642L22.3462 35.4886L22.5776 35.1572L22.3692 34.3278L22.2548 33.7663L21.9134 33.2137L21.9666 33.0537L22.2705 32.9593L22.4715 32.9797L22.7253 32.8845L24.7638 32.9574L24.9216 33.5953L25.1073 34.1175L25.2742 34.4041L25.5109 34.8557L25.9881 34.8044L26.217 34.6977L26.588 34.8339L26.6952 34.6334L26.8882 34.1434L27.3402 34.138L27.3708 33.9927L27.7217 34.0121L27.6602 34.3028L28.4864 34.3508L28.4895 34.8807L28.6259 35.2127L28.5046 35.7205L28.533 36.2375L28.743 36.5743L28.651 37.5697L28.8274 37.507L29.1239 37.5406L29.5749 37.4523L29.8701 37.5162ZM21.871 32.7871L21.7058 32.1524L21.9902 31.7935L22.2201 31.668L22.4673 31.9532L22.2114 32.1218L22.081 32.3381L22.049 32.7038L21.871 32.7871Z" fill="#2B586B"/>
<path d="M33.7861 30.9774L34.2127 31.0727L34.4702 30.6118L34.8211 30.7016L34.8506 31.0413L34.9903 31.2445L34.9736 31.507L34.7848 31.6808L34.48 32.094L34.2101 32.3641L33.9304 32.3838L33.9404 31.3717L33.7861 30.9774Z" fill="#2B586B"/>
<path d="M13.8327 18.9313L14.097 18.8317L14.226 18.4875L14.5976 18.415L14.755 18.1676L14.9929 17.9474L15.2594 17.9316L15.8213 18.392L15.7958 18.652L15.9571 19.118L15.8258 19.4353L15.9062 19.6557L15.5383 20.1421L15.3286 20.3933L15.2 20.8954L15.2035 21.4123L15.1859 22.7198L14.5854 22.8103L14.3972 22.2625L14.4051 20.402L14.2716 20.2509L14.2409 19.8494L13.9732 19.5764L13.7319 19.3454L13.8327 18.9313Z" fill="#2B586B"/>
<path d="M9.20649 19.5423L9.13867 19.0762L9.34036 18.7394L9.30558 18.4803L9.87073 17.8066L9.96123 17.2611L10.1694 17.0654L10.5199 17.1632L10.8364 16.9923L10.9381 16.7873L11.4924 16.4372L11.6209 16.1929L12.3124 15.8571L12.7406 15.7422L12.9316 15.8854L13.3885 15.8646L13.3406 16.2396L13.4535 16.6L13.8889 17.0923L13.8938 17.471L14.7501 17.6374L14.7549 18.1681L14.5975 18.4155L14.2258 18.4881L14.0969 18.8322L13.8326 18.9318L13.1954 18.928L12.8493 18.8655L12.6126 18.9936L12.2932 18.9452L10.9943 19.0178L11.005 19.4582L11.0988 20.0641L10.5918 19.8706L10.2491 19.9086L10.0172 20.1238L9.6688 19.955L9.52888 19.6968L9.20649 19.5423Z" fill="#2B586B"/>
<path d="M33.0842 47.1462L32.1131 47.6834L31.4797 48.2489L31.2335 48.7721L31.0251 49.0695L30.6657 49.1L30.5244 49.4873L30.4388 49.7362L30.0025 49.8895L29.4608 49.8105L29.165 49.5646L28.8859 49.4475L28.5689 49.6119L28.3839 49.9965L28.0653 50.2174L27.7177 50.5634L27.2426 50.6212L27.1138 50.3326L27.2064 49.8437L26.8375 49.0446L26.6768 48.9083L26.7735 46.5105L27.4213 46.517L27.5681 43.5576L28.0538 43.5567L29.109 43.3309L29.3593 43.6968L29.8116 43.3923L30.0056 43.4056L30.4032 43.2441L30.5216 43.3109L30.7291 43.9957L30.8658 44.1657L31.0576 44.6592L31.7538 45.6251L32.0375 45.7342L32.0197 46.0362L32.1808 46.5682L32.7004 46.7401L33.0842 47.1462Z" fill="#2B586B"/>
<path d="M30.0109 19.1841L30.0716 19.5328L30.4665 20.0559L30.4484 20.3883L30.3253 20.7149L30.3652 20.9548L30.5885 21.2068L31.1195 21.5921L31.5198 21.9426L31.5047 22.2092L31.9761 22.666L32.242 23.0391L32.395 23.5473L32.9215 23.9002L33.0089 24.1779L32.7706 24.2452L32.306 24.1817L31.7664 24.0568L31.5032 24.1094L31.3886 24.3011L31.1539 24.3134L30.8778 24.1233L30.0532 24.483L29.7205 24.3764L29.64 24.4285L29.3833 24.9131L28.8729 24.7253L28.3327 24.6087L27.9046 24.2854L27.3191 23.9699L26.9191 24.2207L26.6183 24.62L26.5456 25.1888L26.0815 25.1243L25.5945 24.9597L25.1404 25.3847L24.756 26.1305L24.6853 25.8977L24.6704 25.5238L24.342 25.239L24.095 24.8008L24.0249 24.5127L23.6987 24.074L23.7574 23.8198L23.7144 23.4775L23.7835 22.8426L23.944 22.7067L24.3335 21.9033L24.9384 21.8554L25.0757 21.6642L25.2064 21.6834L25.3838 21.873L26.312 21.6038L26.6391 21.2964L27.0178 21.0346L26.9764 20.7534L27.164 20.6788L27.8717 20.7699L28.5726 20.431L29.1414 19.6026L29.5279 19.2933L30.0109 19.1841Z" fill="#2B586B"/>
<path d="M7.6906 24.4653L7.71876 23.7802L7.79333 23.6775L7.75593 23.3526L7.43106 23.0271L7.19426 22.9813L6.97754 22.7794L7.12028 22.4056L7.02676 22.0156L7.06995 21.7747L7.17475 21.7698L7.21384 21.4174L7.1292 21.2672L7.20367 21.1519L7.46267 21.0424L7.28046 20.4094L7.08294 20.085L7.12529 19.8198L7.281 19.7436L7.38398 19.6699L7.57365 19.7861L8.15474 19.7617L8.27858 19.5218L8.41177 19.5442L8.62005 19.4395L8.73738 19.7804L8.8923 19.664L9.20606 19.542L9.52846 19.6966L9.66838 19.9548L10.0167 20.1235L10.2487 19.9083L10.5914 19.8703L11.0984 20.0638L11.3352 21.199L11.0353 21.8797L10.8733 22.8L11.2023 23.4987L11.1831 23.8116L10.8452 23.8355L10.347 23.6944L9.87849 23.7098L9.02402 23.8827L8.53767 24.1439L7.82073 24.4737L7.6906 24.4653Z" fill="#2B586B"/>
<path d="M21.3504 26.0403L20.1891 26.0034L20.3009 25.3452L20.0227 24.797L19.713 24.6496L19.5612 24.2767L19.3804 24.1605L19.3826 23.9329L19.5707 23.3532L19.9189 22.5804L20.1283 22.5694L20.5797 22.1122L20.8681 22.1035L21.2555 22.4351L21.7577 22.1788L21.8429 21.8434L22.0068 21.5248L22.1203 21.1219L22.5223 20.7973L22.6934 20.2456L22.8561 20.0697L22.972 19.6578L23.1704 19.1533L23.7972 18.5684L23.858 18.3104L23.9423 18.1629L23.6586 17.8405L23.6924 17.597L23.907 17.563L24.1851 18.0618L24.2218 18.596L24.1793 19.1163L24.554 19.8469L24.1313 19.8322L23.9184 19.8805L23.6036 19.7873L23.435 20.1561L23.8439 20.6417L24.1559 20.7915L24.2517 21.1158L24.4713 21.6837L24.3336 21.9034L23.9441 22.7069L23.7835 22.8427L23.7144 23.4777L23.7575 23.82L23.6988 24.0741L24.025 24.5129L24.095 24.801L24.3421 25.2392L24.6704 25.5239L24.6854 25.8978L24.756 26.1306L24.6911 26.5889L24.1301 26.3661L23.5428 26.1299L22.6409 26.0588L22.5644 26.0135L22.1234 26.1165L21.6869 25.9906L21.3504 26.0403Z" fill="#2B586B"/>
<path d="M34.2689 29.7455L34.0515 29.9605L33.9952 30.4676L33.8903 30.5172L33.7864 30.977L33.9407 31.3713L33.9306 32.3834L34.0098 33.1695L33.9081 33.6022L34.0295 34.0986L34.4005 34.6176L34.7094 35.7068L34.4407 35.594L33.5098 35.6598L33.3045 35.7455L33.0741 36.2715L33.2021 36.6507L33.0207 37.6375L32.8977 38.4815L33.0867 38.6445L33.5353 39.0214L33.7421 38.8774L33.7364 39.7891L33.2203 39.7446L32.9525 39.2514L32.7263 38.8795L32.2151 38.7202L32.0672 38.2522L31.6572 38.4998L31.0955 38.3396L30.8925 37.9419L30.4517 37.8218L30.1287 37.8286L30.1166 37.5628L29.8703 37.5164L29.5752 37.4524L29.1242 37.5407L28.8278 37.5072L28.6513 37.5698L28.7434 36.5745L28.5333 36.2377L28.505 35.7207L28.6262 35.2129L28.4898 34.8808L28.4867 34.351L27.6605 34.3029L27.722 34.0123L27.3711 33.9928L27.3405 34.1382L26.8885 34.1435L26.6955 34.6335L26.5883 34.834L26.2173 34.6979L25.9884 34.8045L25.5112 34.8559L25.2746 34.4042L25.1076 34.1177L24.922 33.5955L24.7641 32.9575L22.7256 32.8847L22.4718 32.9798L22.2708 32.9594L21.967 33.0538L21.8711 32.7872L22.049 32.7039L22.0811 32.3382L22.2114 32.1219L22.4674 31.9534L22.6423 32.0464L22.9018 31.7321L23.2806 31.7589L23.3256 31.9948L23.5746 32.1498L23.9919 31.6374L24.4328 31.2442L24.6174 30.9882L24.6116 30.2866L24.9403 29.4832L25.2588 29.0743L25.7566 28.6889L25.8422 28.4167L25.8778 28.1136L25.9898 27.8288L25.9797 27.365L26.0816 26.6331L26.254 26.1225L26.4761 25.6873L26.5459 25.1886L26.6186 24.6198L26.9194 24.2205L27.3194 23.9697L27.9049 24.2853L28.333 24.6085L28.8731 24.7251L29.3836 24.9129L29.6403 24.4283L29.7208 24.3762L30.0535 24.4829L30.8781 24.1231L31.1542 24.3132L31.3889 24.3009L31.5035 24.1092L31.7667 24.0566L32.3062 24.1815L32.7709 24.245L33.0091 24.1777L33.4083 24.8811L33.7379 25.0079L33.9277 24.8801L34.2598 24.9649L34.6583 24.8266L34.8155 25.1986L35.3976 25.7961L35.3076 26.7549L35.582 26.8954L35.3311 27.1767L35.0352 27.3676L34.7513 27.7777L34.5732 28.1543L34.4802 28.8156L34.3075 29.1213L34.2689 29.7455Z" fill="#2B586B"/>
<path d="M21.7059 32.153L21.1392 31.2466L21.679 30.7914L21.4346 30.2307L21.6669 30.032L22.152 29.9425L22.2103 29.5651L22.5839 29.9838L23.219 30.0326L23.4318 29.6459L23.5471 29.0966L23.4863 28.4406L23.1396 27.9362L23.4963 26.9787L23.3201 26.8142L22.7785 26.8552L22.5816 26.4314L22.6412 26.059L23.543 26.1301L24.1304 26.3663L24.6913 26.5891L24.7563 26.1308L25.1408 25.385L25.5948 24.96L26.0818 25.1245L26.546 25.189L26.4762 25.6878L26.2541 26.123L26.0817 26.6336L25.9797 27.3655L25.9899 27.8292L25.8779 28.1141L25.8423 28.4172L25.7566 28.6894L25.2588 29.0748L24.9403 29.4836L24.6117 30.287L24.6174 30.9886L24.4329 31.2447L23.9919 31.6378L23.5747 32.1503L23.3257 31.9953L23.2806 31.7594L22.9018 31.7326L22.6424 32.0469L22.4674 31.9539L22.2202 31.6686L21.9903 31.7942L21.7059 32.153Z" fill="#2B586B"/>
<path d="M44.8126 20.2995L44.5072 20.6958L44.3655 20.5385L44.1775 20.5717L43.7883 20.511L43.7877 20.2593L43.7583 20.0326L44.0579 19.6924L44.3293 19.3777L44.6354 19.484L44.8912 19.3208L45.0211 19.5866L44.9609 19.8992L44.5232 20.0408L44.8126 20.2995Z" fill="#2B586B"/>
<path d="M16.3121 12.6563L15.466 12.7369L15.4353 12.2629L15.106 12.1502L14.6107 11.9378L14.442 11.5968L11.8206 10.0719L9.15569 8.59762L6.15574 7.04568L6.14628 6.90526L6.14311 6.85855L6.08838 6.071L7.32893 5.54476L8.11706 5.4168L8.73242 5.22845L9.02739 4.89356L9.9275 4.61318L9.96056 4.13588L10.417 4.07041L10.7509 3.83295L11.8114 3.70372L11.9463 3.46243L11.7102 3.33665L11.4216 2.68875L11.3465 2.32056L11.0358 1.93968L11.7807 1.59609L12.6565 1.48071L13.1771 1.23954L13.9668 1.04903L15.3515 0.938765L16.7098 0.884977L17.1232 0.975654L17.893 0.746094L18.7804 0.750043L19.1029 0.882499L19.6649 0.856655L19.4804 1.14781L19.6136 1.71145L19.3976 2.19796L18.8954 2.54124L18.9458 2.99872L19.6046 3.36949L19.6014 3.52099L20.1148 3.77642L20.4015 4.931L20.6434 5.51021L20.6926 5.80742L20.5374 6.34614L20.5864 6.66024L20.4652 7.02091L20.5399 7.44592L20.225 7.72629L20.6623 8.23387L20.6835 8.53495L20.9534 8.92641L21.3184 8.81114L21.9221 9.13838L22.2424 9.58542L19.5864 10.9071L17.3781 12.3229L16.3121 12.6563Z" fill="#2B586B"/>
<path d="M41.0986 11.7559L38.123 11.4871L35.1877 11.2552L32.1309 11.0495L32.3496 8.4475L32.5807 6.04061L32.4101 5.50381L32.6513 5.10849L32.5677 4.83359L32.8862 4.5376L33.936 4.5858L34.679 4.79817L35.4166 5.03576L35.7695 5.16039L36.3871 4.99779L36.7493 4.84195L37.4324 4.8329L37.9831 4.95098L38.1603 5.2924L38.3595 5.09146L38.9523 5.29474L39.5621 5.37593L39.979 5.23799L40.3093 6.40439L40.0488 6.65156L39.8104 7.14963L39.5689 7.48549L39.3599 7.58737L39.1412 7.34359L38.8207 7.02226L38.4239 6.0227L38.3324 6.07356L38.5423 6.8004L38.9228 7.51608L39.3629 8.63449L39.6173 9.03393L39.786 9.45354L40.372 10.2869L40.221 10.3981L40.1915 10.8723L40.9816 11.5916L41.0986 11.7559Z" fill="#2B586B"/>
<path d="M40.17 17.4347L40.1206 17.1171L40.5511 16.0129L40.6824 15.5172L40.9199 15.301L41.4911 15.2394L41.9108 14.8442L42.2407 15.759L42.3765 16.4865L42.7327 16.9043L43.654 17.757L44.0011 18.2358L44.3443 18.7444L44.5518 19.0317L44.8911 19.3221L44.6353 19.4852L44.3292 19.3789L44.1216 19.091L43.8568 18.5903L43.5682 18.3091L43.4132 18.0169L42.8151 17.6346L42.3161 17.5657L42.1484 17.3838L41.7072 17.5269L41.2941 17.1292L40.9986 17.6837L40.17 17.4347Z" fill="#2B586B"/>
<path d="M44.3288 19.3782L44.0575 19.6929L43.7578 20.0331L43.7873 20.2598L43.7879 20.5115L44.1771 20.5722L44.365 20.539L44.5068 20.6963L44.322 20.9543L44.5359 21.4305L44.781 21.8559L45.0112 22.1677L47.2579 23.4435L47.8513 23.5106L45.5926 25.6909L44.6661 25.6134L43.9709 26.1028L43.5086 26.0593L43.3054 26.2944L42.819 26.2347L42.5362 25.9259L41.8648 26.1928L41.6297 26.5124L41.1494 26.3843L41.003 26.2808L40.848 26.2776L40.6173 26.2515L39.777 25.4519L39.2627 25.3967L39.0528 25.1014L39.0895 24.646L38.714 24.4638L38.3715 23.5292L38.0492 23.312L37.9451 22.9749L37.6125 22.5456L37.1748 22.4473L37.4709 22.0093L37.8626 22.0328L37.987 21.7911L38.0196 21.0636L38.3239 20.2545L38.6831 20.0668L38.764 19.7412L39.1319 19.1682L39.6131 18.8299L39.9746 18.0833L40.1696 17.434L40.9983 17.6829L41.2937 17.1284L41.7068 17.5261L42.1481 17.383L42.3158 17.5649L42.8147 17.6338L43.4129 18.016L43.5678 18.3083L43.8564 18.5895L44.1212 19.0901L44.3288 19.3782Z" fill="#2B586B"/>
<path d="M20.0733 27.0526L20.3052 27.0132L21.3338 27.0336L21.3504 26.0399L21.6869 25.9902L22.1234 26.1162L22.5644 26.0132L22.6409 26.0585L22.5813 26.4309L22.7783 26.8547L23.3198 26.8137L23.496 26.9782L23.1393 27.9357L23.4861 28.4401L23.5468 29.0961L23.4316 29.6454L23.2188 30.032L22.5836 29.9833L22.21 29.5646L22.1518 29.9419L21.6666 30.0315L21.4343 30.2302L21.6788 30.7909L21.1389 31.2461L20.4408 30.3845L19.9659 29.691L19.5415 28.8118L19.5698 28.5363L19.7261 28.2628L19.912 27.6716L20.0733 27.0526Z" fill="#2B586B"/>
<path d="M11.1833 23.8111L11.2025 23.4982L10.8735 22.7995L11.0355 21.8793L11.3354 21.1986L11.0986 20.0633L11.0048 19.4574L10.9941 19.0171L12.293 18.9445L12.6123 18.9929L12.849 18.8647L13.1952 18.9272L13.1457 19.1618L13.4433 19.5703L13.4514 20.1513L13.5391 20.7755L13.7272 21.0655L13.5789 21.7957L13.6365 22.2023L13.8259 22.7069L13.9861 23.0013L12.8707 23.4874L12.4586 23.7798L11.8126 24.0364L11.1833 23.8111Z" fill="#2B586B"/>
<path d="M5.73587 21.266L5.52784 21.3191L5.54093 21.0246L5.4001 20.8227L5.41557 20.5848L5.24222 20.2603L5.01831 19.9948L4.43777 20.0137L4.28738 20.1751L4.07814 20.2152L3.95513 20.3894L3.88772 20.6162L3.51195 20.9883L3.17138 20.5353L2.86523 20.2488L2.67479 20.1501L2.4818 20.0101L2.38187 19.6564L2.26664 19.4981L2.04736 19.3747L2.34124 18.969L2.57996 18.9671L2.75787 18.8318L2.91661 18.8217L3.01618 18.7055L2.94827 18.4492L3.02304 18.3623L3.00727 18.0899L3.3796 18.0806L3.92091 18.2395L4.07938 18.2166L4.12737 18.1182L4.52919 18.1636L4.63329 18.1169L4.70101 18.4002L4.80711 18.3944L4.9874 18.2751L5.12146 18.2953L5.34304 18.4751L5.66459 18.5269L5.84271 18.3536L6.07669 18.2327L6.25776 18.1146L6.39125 18.1219L6.58497 18.2903L6.674 18.505L6.9795 18.8201L6.85551 19.0319L6.83984 19.2942L6.96875 19.2056L7.0785 19.2971L7.03505 19.5336L7.28161 19.7437L7.12589 19.8199L7.08354 20.0851L7.28106 20.4095L7.46327 21.0426L7.20427 21.1521L7.1298 21.2674L7.21444 21.4175L7.17535 21.7699L7.07055 21.7748L6.86041 21.7706L6.71607 22.1009L6.50677 22.1111L6.36905 21.9492L6.4076 21.6102L6.07225 21.1368L5.89272 21.2439L5.73587 21.266Z" fill="#2B586B"/>
<path d="M0.670898 17.8102L0.753128 17.4505L1.54959 17.3812L1.69692 17.1814L1.9356 17.1519L2.24026 17.3215L2.47974 17.306L2.71192 17.1693L2.85802 17.377L2.54944 17.5731L2.22964 17.5802L1.90045 17.4389L1.64595 17.6328L1.51402 17.6554L1.36176 17.7748L0.670898 17.8102Z" fill="#2B586B"/>
<path d="M0.84375 18.3987L1.20551 18.236L1.47221 18.2447L1.65251 18.1503L3.0068 18.0889L3.02257 18.3613L2.9478 18.4482L3.01571 18.7045L2.91614 18.8206L2.7574 18.8308L2.57949 18.9661L2.34077 18.968L2.04689 19.3737L1.6307 19.0712L1.31031 19.0385L1.13775 18.8306L1.12979 18.7074L0.907506 18.5586L0.84375 18.3987Z" fill="#2B586B"/>
<path d="M20.1895 26.0034L21.3508 26.0404L21.3343 27.034L20.3057 27.0136L20.0737 27.053L19.9209 26.9207L20.1895 26.0034Z" fill="#2B586B"/>
<path d="M42.6835 30.9312L42.1747 31.2062L41.9681 31.5338L41.6858 31.5584L41.5346 32.1435L41.2801 32.4516L41.1085 32.9911L40.8096 33.2357L39.8711 32.2873L39.8599 31.7858L37.4337 29.8095L37.3384 29.7122L37.3766 28.8253L37.6056 28.4986L38.0033 27.9861L38.3044 27.407L38.0691 26.427L38.0237 26.0036L37.707 25.3957L38.2078 24.9574L38.7146 24.4644L39.0901 24.6466L39.0534 25.102L39.2633 25.3973L39.7776 25.4525L40.6179 26.2521L40.8486 26.2782L41.0036 26.2814L41.15 26.3849L41.6303 26.513L41.8654 26.1934L42.5368 25.9265L42.8196 26.2353L43.306 26.295L42.5807 27.1628L42.3398 30.1842L42.6835 30.9312Z" fill="#2B586B"/>
<path d="M4.90479 22.6184L5.0759 22.3547L5.09109 22.1143L5.41158 21.6608L5.73561 21.265L5.89244 21.2429L6.07198 21.1357L6.40732 21.6091L6.36878 21.9481L6.50649 22.1101L6.7158 22.0999L6.86014 21.7696L7.07028 21.7738L7.02709 22.0147L7.12061 22.4047L6.97787 22.7785L7.19459 22.9805L7.43138 23.0262L7.75626 23.3517L7.79366 23.6766L7.71909 23.7794L7.69093 24.4644L7.50937 24.4726L6.74256 24.124L6.06788 23.5323L5.42373 23.1128L4.90479 22.6184Z" fill="#2B586B"/>
<path d="M22.2415 9.58544L21.9212 9.1384L21.3175 8.81116L20.9525 8.92643L20.6826 8.53496L20.6614 8.23389L20.2241 7.72631L20.539 7.44593L20.4643 7.02093L20.5855 6.66026L20.5365 6.34615L20.6917 5.80743L20.6425 5.51022L20.4006 4.93102L20.8049 4.77948L20.8699 4.51282L20.7916 4.24586L21.345 4.01156L21.6108 3.81854L22.0211 3.64003L22.0693 3.16504L23.0132 3.3985L23.3334 3.3512L24.0206 3.4642L25.0403 3.77334L25.3781 4.34396L26.085 4.48761L27.2065 4.80462L28.0075 5.14964L28.4185 4.99686L28.8124 4.72123L28.6834 4.22665L28.9395 3.92859L29.5398 3.65818L30.0928 3.59494L31.1664 3.77532L31.3938 4.06089L31.7061 4.08741L31.9515 4.19924L32.7106 4.31662L32.8851 4.53744L32.5666 4.83343L32.6502 5.10833L32.409 5.50365L32.5796 6.04045L32.3486 8.44734L32.1298 11.0493L32.0183 12.505L31.1487 12.4521L31.1263 12.7723L28.1892 11.2031L25.2316 9.7159L24.4125 10.0851L23.8775 10.3301L23.45 9.92203L22.2415 9.58544Z" fill="#2B586B"/>
<path d="M32.4276 52.6777L32.6439 52.9447L32.4061 53.3127L32.2708 53.564L31.9125 53.6598L31.7788 53.897L31.5404 53.9612L31.0928 53.3084L31.4758 52.8391L31.848 52.5486L32.1629 52.4204L32.4276 52.6777Z" fill="#2B586B"/>
<path d="M11.036 1.9391L11.3466 2.31999L11.4217 2.68817L11.7103 3.33607L11.9465 3.46186L11.8115 3.70314L10.751 3.83237L10.4171 4.06983L9.96068 4.1353L9.92762 4.6126L9.02751 4.89298L8.73254 5.22787L8.11718 5.41622L7.32905 5.54418L6.0885 6.07042L6.14323 6.85797L6.03087 6.86243L6.08352 7.22452L5.6088 7.26758L5.36759 7.43146L5.00394 7.44732L4.71816 7.37727L4.08059 7.47794L3.87103 8.0242L3.6242 8.08437L3.33153 8.98145L2.31386 9.79737L2.14326 10.7903L1.86737 11.1336L1.77848 11.4042L0.0927626 11.5761L0.0644531 11.5654L0.091007 11.2344L0.34683 11.0156L0.560927 10.6251L0.513188 10.3909L0.716072 9.86877L1.11683 9.3881L1.3555 9.26333L1.51299 8.83919L1.50882 8.4759L1.74791 8.02899L2.22648 7.75128L2.66756 7.0292L2.69553 7.02773L3.06505 6.75086L3.75943 6.635L4.34077 6.15543L4.72057 5.95424L5.32732 5.38027L5.06305 4.59211L5.32979 4.02763L5.4159 3.69561L5.89642 3.25456L6.65143 2.94891L7.23808 2.67415L7.73996 2.02781L7.94463 1.65914L8.55854 1.64258L9.04445 1.88877L9.83036 1.82884L10.6848 1.93544L11.036 1.9391Z" fill="#2B586B"/>
<path d="M47.3307 40.7404L47.4652 41.1289L47.5795 41.7058L47.5969 42.7231L47.7265 43.1388L47.6118 43.5176L47.4637 43.7446L47.2947 43.2361L47.1469 43.4635L47.2046 44.0869L47.0933 44.4359L46.9033 44.598L46.7797 45.2944L46.4106 46.2146L45.9513 47.292L45.375 48.7778L45.0119 49.8691L44.5977 50.7629L44.0288 50.8845L43.4218 51.1433L43.0626 50.8993L42.5705 50.5396L42.4474 50.099L42.4728 49.3771L42.2988 48.6984L42.2856 48.095L42.4626 47.5283L42.789 47.4262L42.8156 47.1558L43.1903 46.5691L43.3146 46.0497L43.2073 45.6439L43.1119 45.1082L43.1361 44.3392L43.4243 43.8953L43.571 43.3882L43.8904 43.4015L44.297 43.2806L44.5562 43.1547L44.8488 43.1949L45.2864 42.7717L45.9005 42.3296L46.1386 41.9372L46.1001 41.5786L46.3594 41.7188L46.8106 41.195L46.8624 40.6865L47.1222 40.3408L47.3307 40.7404Z" fill="#2B586B"/>
<path d="M9.15521 8.59717L11.8201 10.0714L14.4415 11.5964L14.6102 11.9373L15.1055 12.1497L15.4349 12.2624L15.4656 12.7364L16.3116 12.6558L16.3162 14.3825L15.8852 14.884L15.8334 15.3605L15.1603 15.4841L14.1373 15.5605L13.8716 15.8302L13.3878 15.8638L12.9309 15.8847L12.74 15.7414L12.3117 15.8563L11.6202 16.1921L11.4918 16.4364L10.9375 16.7866L10.8357 16.9916L10.5193 17.1625L10.1688 17.0647L9.96057 17.2603L9.87007 17.8059L9.30492 18.4796L9.33969 18.7387L9.13801 19.0754L9.20583 19.5416L8.89207 19.6635L8.73715 19.7799L8.61982 19.439L8.41154 19.5437L8.27836 19.5213L8.15451 19.7613L7.57342 19.7856L7.38375 19.6694L7.28078 19.7431L7.03422 19.533L7.07767 19.2965L6.96793 19.205L6.83901 19.2936L6.85468 19.0313L6.97867 18.8195L6.67316 18.5044L6.58414 18.2897L6.39041 18.1213L6.25692 18.114L6.07585 18.2321L5.84188 18.353L5.66375 18.5263L5.34221 18.4745L5.12063 18.2947L4.98657 18.2745L4.80628 18.3938L4.70018 18.3996L4.63246 18.1163L4.64641 17.87L4.57698 17.561L4.29925 17.3593L4.11509 16.9232L4.06152 16.4413L4.29476 16.2939L4.40354 15.8328L4.64411 15.8064L5.16478 15.9929L5.58562 15.8113L5.88336 15.8501L5.98226 15.6719L8.96494 15.5355L9.10764 15.0002L8.99644 14.9115L8.48918 11.7036L7.98624 8.64665L9.15521 8.59717Z" fill="#2B586B"/>
<path d="M41.1897 38.0811L41.2567 38.4731L41.162 39.3027L41.1975 40.059L41.1103 41.3729L41.1977 41.795L40.9266 42.3636L40.6087 42.9113L40.1506 43.3835L39.4919 43.6282L38.7061 43.9479L37.8839 44.7607L37.6066 44.8764L37.1021 45.4184L36.7984 45.5755L36.7055 46.1592L36.9694 46.8213L37.0512 47.3191L37.056 47.5639L37.1791 47.5336L37.0902 48.3413L36.9411 48.6973L37.0966 48.856L36.9736 49.1853L36.664 49.4523L36.096 49.6653L35.279 50.0256L34.9721 50.2937L34.9927 50.6484L35.1538 50.7198L35.074 51.1344L34.5795 51.0747L34.5351 50.7189L34.4677 50.3462L34.4422 50.047L34.6269 49.156L34.5022 48.5605L34.2488 47.3779L35.0329 46.5149L35.2438 45.9284L35.3451 45.8657L35.4521 45.3838L35.3729 45.1297L35.4406 44.5117L35.6021 43.9452L35.6758 42.8871L35.3529 42.5928L35.0402 42.5046L34.9076 42.2873L34.603 42.0687L34.0411 42.0324L34.0116 41.7222L33.9756 41.1179L36.1024 40.6277L36.4669 41.0608L36.6435 41.0052L36.8981 41.2368L36.9218 41.5915L36.7479 41.9549L36.7535 42.5559L37.1533 43.1236L37.4157 42.5661L37.7224 42.4083L37.7301 41.324L37.5051 40.6978L37.2801 40.3948L37.0336 40.3838L36.9152 39.2678L37.1583 38.6446L37.6808 38.6404L38.4775 38.9622L38.6579 38.8789L39.1535 38.9048L39.4197 38.6843L39.8134 38.7443L40.6048 38.5126L41.1897 38.0811Z" fill="#2B586B"/>
<path d="M0.80337 15.4828L0.693348 15.0785L0.881288 14.6951L0.936018 13.9685L0.772162 13.2368L0.662996 12.8817L0.715092 12.5046L0.497449 12.173L0.0634766 11.8831L0.206572 11.6317L3.18039 11.4487L2.96864 10.4178L3.10602 10.0375L3.81753 9.93794L3.68493 8.15309L6.22245 8.07438L6.15536 7.04492L9.15531 8.59686L7.98638 8.64637L8.48931 11.7034L8.99657 14.9112L9.10778 14.9999L8.96507 15.5352L5.98239 15.6717L5.8835 15.8498L5.58576 15.811L5.16492 15.9926L4.64424 15.8062L4.40368 15.8325L4.29489 16.2936L4.06166 16.441L3.55009 15.9476L3.0598 15.4032L2.53728 15.2358L2.17347 15.0332L1.77153 15.0723L1.40675 15.2555L1.02663 15.2148L0.80337 15.4828Z" fill="#2B586B"/>
<path d="M36.1019 40.6276L35.749 40.3725L35.9992 39.6027L36.2407 39.3321L36.1655 38.6176L36.3351 37.9564L36.4749 37.7344L36.3507 36.9993L36.0528 36.6011L36.7132 36.8143L36.8458 37.0638L37.0411 37.4821L37.1578 38.6445L36.9148 39.2677L37.0331 40.3838L37.2796 40.3947L37.5046 40.6977L37.7296 41.3239L37.7219 42.4083L37.4152 42.566L37.1528 43.1236L36.7531 42.5558L36.7474 41.9548L36.9213 41.5914L36.8977 41.2367L36.643 41.0051L36.4664 41.0607L36.1019 40.6276Z" fill="#2B586B"/>
<path d="M21.4043 42.5054L21.7232 42.353L22.1392 42.2329L22.5768 42.2604L22.9573 42.6517L23.0801 42.5974L25.8023 42.6784L26.2742 43.0951L27.8942 43.3142L29.147 43.0418L29.7145 42.8898L30.1496 42.9636L30.4072 43.1714L30.4035 43.244L30.0058 43.4055L29.8118 43.3922L29.3595 43.6967L29.1092 43.3308L28.054 43.5566L27.5683 43.5575L27.4215 46.5169L26.7737 46.5104L26.677 48.9082L26.5504 51.9005L25.9484 52.2743L25.595 52.3272L25.1803 52.1556L24.9022 52.0741L24.7973 51.7353L24.5473 51.5016L24.2291 51.8935L23.7567 51.2613L23.5159 50.6637L23.3971 49.8708L23.248 49.2714L23.0675 48.0137L23.0927 47.0271L23.0085 46.5648L22.7532 46.2257L22.4331 45.5238L22.0932 44.5158L21.9588 43.9898L21.4415 43.1621L21.4043 42.5054Z" fill="#2B586B"/>
<path d="M13.3882 15.8642L13.872 15.8306L14.1377 15.5609L15.1607 15.4845L15.8338 15.3609L15.8856 14.8844L16.3166 14.3829L16.312 12.6562L17.378 12.323L19.5863 10.9071L22.2423 9.58545L23.4508 9.92198L23.8783 10.33L24.4132 10.0851L24.561 11.2012L24.8552 11.3998L24.8459 11.6272L25.164 11.8918L24.9867 12.2044L24.6286 13.7015L24.5659 14.6818L23.5714 15.3646L23.2193 16.3685L23.5327 16.6597L23.5182 17.1582L23.972 17.1858L23.9071 17.5631L23.6925 17.597L23.6588 17.8406L23.5251 17.8501L23.0416 16.9824L22.855 16.9503L22.2831 17.3681L21.7 17.1382L21.3 17.0757L21.084 17.1796L20.6567 17.1449L20.2239 17.4762L19.8231 17.484L18.9454 17.0816L18.5961 17.2679L18.1952 17.2516L17.9292 16.953L17.18 16.6679L16.3761 16.7489L16.189 16.9245L16.0835 17.3708L15.871 17.6835L15.8208 18.3922L15.259 17.9319L14.9925 17.9476L14.7546 18.1678L14.7498 17.6372L13.8935 17.4707L13.8886 17.092L13.4532 16.5997L13.3403 16.2393L13.3882 15.8642Z" fill="#2B586B"/>
<path d="M15.1851 22.7196L15.2026 21.4121L15.1992 20.8952L15.3277 20.3932L15.5375 20.1419L15.9053 19.6555L15.825 19.4351L15.9562 19.1178L15.795 18.6519L15.8204 18.3918L15.8706 17.6831L16.083 17.3704L16.1886 16.9241L16.3757 16.7485L17.1796 16.6675L17.9288 16.9526L18.1948 17.2512L18.5957 17.2675L18.9449 17.0813L19.8227 17.4836L20.2235 17.4758L20.6563 17.1445L21.0836 17.1792L21.2996 17.0753L21.6996 17.1377L22.2826 17.3677L22.8546 16.9499L23.0412 16.982L23.5247 17.8497L23.6583 17.8402L23.942 18.1626L23.8577 18.3101L23.797 18.568L23.1701 19.153L22.9717 19.6575L22.8558 20.0694L22.6931 20.2452L22.522 20.797L22.12 21.1215L22.0065 21.5245L21.8426 21.8431L21.7575 22.1784L21.2552 22.4348L20.8678 22.1032L20.5794 22.1119L20.1281 22.5691L19.9187 22.58L19.5705 23.3529L19.3823 23.9325L18.6257 24.2235L18.3661 24.1787L18.0792 24.362L17.5078 24.3451L17.1186 23.8319L16.8843 23.2359L16.3615 22.6993L15.8125 22.7155L15.1851 22.7196Z" fill="#2B586B"/>
<path d="M34.8211 30.7016L34.4702 30.6118L34.2127 31.0728L33.7861 30.9774L33.8901 30.5177L33.995 30.4681L34.0512 29.961L34.2687 29.7459L34.4157 29.8464L34.8641 29.623L35.1127 30.1278L35.0302 30.6179L34.8211 30.7016Z" fill="#2B586B"/>
<path d="M6.14273 6.8584L6.14589 6.90512L6.15536 7.04554L6.22245 8.07499L3.68493 8.15371L3.81753 9.93855L3.10602 10.0381L2.96864 10.4185L3.18039 11.4493L0.206572 11.6323L0.0634766 11.8837L0.0640116 11.5658L0.0923211 11.5765L1.77804 11.4046L1.86693 11.134L2.14282 10.7907L2.31342 9.79777L3.33108 8.98186L3.62376 8.08477L3.87058 8.02461L4.08015 7.47835L4.71772 7.37767L5.0035 7.44773L5.36715 7.43187L5.60835 7.26798L6.08308 7.22493L6.03042 6.86284L6.14273 6.8584Z" fill="#2B586B"/>
<path d="M30.0108 19.1839L30.0211 18.9917L29.7683 18.7567L29.7932 18.2922L29.6501 17.9834L29.3823 18.0091L29.4772 17.7283L29.681 17.4139L29.6189 17.0853L29.8716 16.8701L29.722 16.6727L29.9632 16.2027L30.3443 15.6634L30.9575 15.7536L31.1268 12.7719L31.1491 12.4517L32.0187 12.5045L32.1302 11.0488L35.187 11.2546L38.1223 11.4864L41.098 11.7553L41.2554 12.5015L41.0793 12.6132L41.1007 13.3806L41.269 14.3018L41.5425 14.5143L41.9104 14.8435L41.4907 15.2387L40.9195 15.3003L40.682 15.5165L40.5507 16.0122L40.1202 17.1164L40.1696 17.434L39.9746 18.0834L39.6131 18.83L39.1319 19.1683L38.764 19.7413L38.6831 20.0669L38.3239 20.2546L38.0196 21.0637L38.0117 21.1611L37.9084 21.1371L37.9673 20.7367L37.9116 20.4519L37.5435 20.1106L37.5121 19.5245L37.6388 18.9559L37.301 18.8697L37.26 19.0451L36.8091 19.0458L36.9757 19.2817L36.9896 19.7676L36.5612 20.1736L36.1509 20.7089L35.7781 20.76L35.1834 20.2351L34.909 20.3794L34.8136 20.6085L34.436 20.7312L34.3983 20.8959L33.6646 20.8377L33.5707 20.6628L33.0477 20.5952L32.7765 20.7146L32.5709 20.6298L32.2322 20.1321L32.1133 19.9155L31.581 19.9759L31.3749 20.3371L31.1499 21.0475L30.8799 21.1695L30.6386 21.2519L30.5884 21.2066L30.3651 20.9546L30.3252 20.7148L30.4483 20.3881L30.4664 20.0557L30.0716 19.5327L30.0108 19.1839Z" fill="#2B586B"/>
<path d="M38.7145 24.4643L38.2077 24.9574L37.7069 25.3957L37.2407 25.7384L36.7519 25.6913L36.1727 25.824L35.7223 25.5955L35.3978 25.7966L34.8157 25.1991L34.6585 24.8271L34.26 24.9654L33.9279 24.8806L33.7382 25.0084L33.4085 24.8816L33.0094 24.1782L32.922 23.9005L32.3955 23.5476L32.2425 23.0395L31.9766 22.6663L31.5052 22.2095L31.5203 21.9429L31.1199 21.5924L30.6392 21.2523L30.8804 21.17L31.1504 21.0479L31.3755 20.3376L31.5815 19.9763L32.1139 19.9159L32.2328 20.1325L32.5715 20.6302L32.7771 20.715L33.0483 20.5956L33.5713 20.6632L33.6651 20.8381L34.3988 20.8963L34.4365 20.7317L34.8142 20.609L34.9096 20.3798L35.1839 20.2356L35.7786 20.7605L36.1514 20.7093L36.5618 20.1741L36.9902 19.7681L36.9763 19.2821L36.8097 19.0462L37.2606 19.0456L37.3016 18.8701L37.6393 18.9563L37.5127 19.525L37.5441 20.111L37.9121 20.4524L37.9679 20.7371L37.9089 21.1375L38.0123 21.1615L37.9875 21.7917L37.8632 22.0333L37.4715 22.0098L37.1754 22.4478L37.613 22.5462L37.9457 22.9754L38.0498 23.3125L38.372 23.5297L38.7145 24.4643Z" fill="#2B586B"/>
<path d="M0.803639 15.4828L1.0269 15.2148L1.40702 15.2555L1.77181 15.0723L2.17374 15.0332L2.53756 15.2358L3.06008 15.4032L3.55036 15.9476L4.06193 16.441L4.1155 16.9229L4.29966 17.359L4.57739 17.5607L4.64681 17.8697L4.63286 18.116L4.52877 18.1627L4.12694 18.1173L4.07896 18.2157L3.92049 18.2386L3.37918 18.0797L3.00685 18.089L1.65256 18.1504L1.47225 18.2449L1.20556 18.2361L0.843798 18.3989L0.671145 17.8101L1.36196 17.7747L1.51421 17.6553L1.64614 17.6327L1.90065 17.4388L2.22983 17.5801L2.54963 17.573L2.85821 17.3769L2.71211 17.1692L2.47993 17.306L2.24045 17.3214L1.93579 17.1518L1.69711 17.1813L1.54978 17.3811L0.753321 17.4504L0.392085 16.8669L0 16.6257L0.335859 16.453L0.644767 15.8943L0.803639 15.4828Z" fill="#2B586B"/>
<path d="M3.51172 20.9881L3.88749 20.616L3.9549 20.3892L4.07791 20.215L4.28715 20.1749L4.43753 20.0134L5.01808 19.9946L5.24199 20.2601L5.41534 20.5846L5.39987 20.8225L5.5407 21.0244L5.52761 21.3188L5.73563 21.2658L5.41161 21.6616L5.09112 22.115L5.07593 22.3555L4.90481 22.6192L4.7195 22.5734L4.18172 22.2806L3.76779 21.8694L3.62179 21.5834L3.51172 20.9881Z" fill="#2B586B"/>
<path d="M47.8516 23.5109L47.2582 23.4438L45.0115 22.168L44.7813 21.8562L44.5362 21.4308L44.3223 20.9546L44.5071 20.6966L44.8124 20.3003L45.0306 20.481L45.1528 20.8185L45.4276 21.2043L45.7909 21.2505L46.4878 21.1294L47.3023 21.1383L47.9524 20.9725L48.3199 20.9803L48.5966 20.8636L49.0141 20.8933L48.9866 20.9035L48.9476 21.2359L48.854 22.0424L48.806 22.4613L48.4413 22.9081L47.8516 23.5109Z" fill="#2B586B"/>
<path d="M42.683 30.931L42.3394 30.1838L42.5802 27.1624L43.3056 26.2947L43.5088 26.0596L43.971 26.103L44.6662 25.6137L45.5927 25.6912L47.8515 23.5109L48.4411 22.908L48.8058 22.4612L48.8538 22.0423L48.9474 21.2358L48.9865 20.9035L49.014 20.8932L49.2227 20.9083L49.574 20.8311L49.9721 20.8031L50.3404 20.5889L50.6249 20.6298L50.5977 20.8507L50.4903 21.2999L50.44 21.7165L50.2503 21.9863L49.9421 22.8226L49.5026 23.6872L48.9507 24.6554L48.2047 25.775L47.4951 26.602L46.5379 27.6176L45.7852 28.1856L44.6389 28.8654L43.9198 29.4156L43.0681 30.3331L42.8525 30.7465L42.683 30.931Z" fill="#2B586B"/>
<path d="M34.4671 50.3455L34.5344 50.7182L34.5789 51.074L34.4099 51.4236L34.0267 51.4734L33.6577 51.0061L33.6778 50.7265L33.8891 50.4349L33.9526 50.2146L34.146 50.1753L34.4671 50.3455Z" fill="#2B586B"/>
<path d="M24.4136 10.0846L25.2328 9.71533L28.1904 11.2025L31.1275 12.7718L30.9582 15.7536L30.3451 15.6633L29.964 16.2027L29.7228 16.6726L29.8724 16.87L29.6196 17.0852L29.6818 17.4138L29.478 17.7282L29.3831 18.009L29.6509 17.9833L29.794 18.2921L29.7691 18.7566L30.0219 18.9916L30.0116 19.1838L29.5286 19.2931L29.142 19.6023L28.5733 20.4307L27.8723 20.7696L27.1646 20.6785L26.9771 20.7532L27.0184 21.0343L26.6397 21.2962L26.3127 21.6036L25.3845 21.8727L25.2071 21.6831L25.0764 21.6639L24.939 21.8551L24.3342 21.903L24.4719 21.6833L24.2523 21.1154L24.1565 20.7911L23.8445 20.6412L23.4356 20.1557L23.6042 19.7869L23.919 19.88L24.132 19.8318L24.5547 19.8465L24.1799 19.1158L24.2224 18.5956L24.1857 18.0613L23.9076 17.5626L23.9725 17.1853L23.5187 17.1577L23.5332 16.6592L23.2197 16.368L23.5719 15.3641L24.5664 14.6813L24.6291 13.701L24.9872 12.2039L25.1644 11.8913L24.8464 11.6267L24.8557 11.3993L24.5615 11.2007L24.4136 10.0846Z" fill="#2B586B"/>
<path d="M13.195 18.9277L13.8321 18.9316L13.7313 19.3457L13.9726 19.5768L14.2403 19.8497L14.271 20.2512L14.4045 20.4024L14.3966 22.2628L14.5848 22.8106L13.9859 23.0018L13.8257 22.7074L13.6363 22.2028L13.5786 21.7962L13.7269 21.066L13.5388 20.776L13.4512 20.1518L13.443 19.5708L13.1455 19.1623L13.195 18.9277Z" fill="#2B586B"/>
<path d="M19.6645 0.856903L20.5592 0.625488L21.1482 0.702462L21.1068 0.993213L21.7948 0.791575L21.8486 0.902882L21.4234 1.17968L21.4118 1.45478L21.6991 1.60264L21.5604 2.11872L21.0241 2.41518L21.1576 2.75556L21.5927 2.77261L21.7843 3.06392L22.0698 3.16531L22.0216 3.6403L21.6113 3.81881L21.3455 4.01183L20.7921 4.24613L20.8704 4.51309L20.8055 4.77975L20.4012 4.93129L20.1144 3.77671L19.601 3.52128L19.6043 3.36978L18.9454 2.99901L18.895 2.54153L19.3972 2.19825L19.6132 1.71174L19.4801 1.1481L19.6645 0.856903Z" fill="#2B586B"/>
<path d="M40.8089 33.2354L40.3991 34.2347L40.4102 34.7232L40.8098 35.0804L40.8168 35.3028L40.6006 35.7942L40.6053 36.0459L40.5223 36.4498L40.7277 37.006L40.9563 37.8755L41.1891 38.0809L40.6041 38.5124L39.8127 38.744L39.419 38.684L39.1528 38.9046L38.6572 38.8787L38.4768 38.962L37.6801 38.6402L37.1576 38.6444L37.0409 37.482L36.8456 37.0637L36.713 36.8142L36.0526 36.601L35.6725 36.2986L35.2334 36.1241L34.969 35.952L34.7089 35.7069L34.4001 34.6177L34.0291 34.0987L33.9077 33.6023L34.0094 33.1697L33.9302 32.3835L34.2099 32.3638L34.4798 32.0937L34.7847 31.6805L34.9734 31.5068L34.9901 31.2442L34.8504 31.041L34.821 30.7013L35.0301 30.6176L35.1125 30.1275L34.8639 29.6227L35.1245 29.5439L35.886 29.6288L37.3377 29.7118L37.433 29.8091L39.8592 31.7854L39.8705 32.2869L40.8089 33.2354Z" fill="#2B586B"/>
<path d="M34.8644 29.6229L34.4161 29.8463L34.269 29.7458L34.3076 29.1216L34.4804 28.8159L34.5733 28.1546L34.7515 27.778L35.0353 27.3679L35.3313 27.177L35.5821 26.8957L35.3077 26.7552L35.3978 25.7964L35.7223 25.5953L36.1726 25.8238L36.7519 25.6911L37.2406 25.7382L37.7069 25.3955L38.0235 26.0034L38.0689 26.4267L38.3042 27.4067L38.0031 27.9858L37.6055 28.4984L37.3765 28.8251L37.3383 29.712L35.8865 29.629L35.1251 29.5441L34.8644 29.6229Z" fill="#2B586B"/>
<path d="M24.2295 51.8939L24.5477 51.502L24.7976 51.7357L24.9026 52.0745L25.1806 52.156L25.5954 52.3275L25.9488 52.2747L26.5508 51.9009L26.6773 48.9086L26.838 49.0449L27.207 49.844L27.1143 50.3329L27.2432 50.6215L27.7183 50.5637L28.0658 50.2176L28.3845 49.9968L28.5695 49.6121L28.8865 49.4478L29.1656 49.5649L29.4613 49.8107L30.0031 49.8898L30.4394 49.7364L30.525 49.4876L30.6663 49.1003L31.0256 49.0698L31.2341 48.7724L31.4803 48.2492L32.1136 47.6836L33.0848 47.1465L33.3711 47.1853L33.6737 47.3408L33.9188 47.2762L34.249 47.3776L34.5024 48.5601L34.6271 49.1557L34.4424 50.0467L34.468 50.3458L34.1469 50.1756L33.9535 50.215L33.89 50.4353L33.6787 50.7269L33.6586 51.0065L34.0276 51.4738L34.4108 51.4239L34.5798 51.0743L35.0742 51.134L34.8635 51.7033L34.7406 52.3619L34.5245 52.7038L34.0482 53.0634L33.9227 53.1631L33.6116 53.5366L33.4167 53.9329L33.0015 54.4602L32.1979 55.2131L31.7247 55.6373L31.2149 55.9502L30.5254 56.2103L30.2006 56.2281L30.0942 56.4356L29.7116 56.2893L29.3804 56.4153L28.7006 56.2252L28.3045 56.2954L28.0543 56.2405L27.3717 56.5106L26.8383 56.6028L26.4114 56.8749L26.1363 56.8749L25.8751 56.5822L25.6697 56.5594L25.4097 56.2128L25.3592 56.3178L25.2997 56.1005L25.3194 55.6436L25.1337 55.1214L25.3474 54.9815L25.3492 54.3824L24.9613 53.6258L24.6603 52.9517L24.6609 52.9379L24.2295 51.8939ZM32.4288 52.6775L32.164 52.4203L31.8492 52.5485L31.477 52.839L31.094 53.3082L31.5416 53.9611L31.78 53.8969L31.9137 53.6597L32.272 53.5638L32.4073 53.3126L32.6451 52.9446L32.4288 52.6775Z" fill="#2B586B"/>
<path d="M36.1016 40.6276L33.9748 41.1177L34.0108 41.722L33.4909 41.7935L33.0804 42.0951L32.9899 42.3801L32.743 42.4179L32.1188 43.0682L31.7002 43.5746L31.4812 43.5723L31.2677 43.4686L30.5212 43.3114L30.4028 43.2447L30.4065 43.172L30.149 42.9642L29.7139 42.8904L29.1463 43.0424L28.7327 42.4906L28.2998 41.777L28.4376 39.1014L29.8655 39.1936L29.8294 38.9118L29.9432 38.596L29.8383 38.1916L29.9317 37.7858L29.8699 37.5166L30.1161 37.563L30.1282 37.8288L30.4512 37.822L30.892 37.9421L31.095 38.3398L31.6567 38.5001L32.0667 38.2524L32.2146 38.7205L32.7258 38.8797L32.952 39.2516L33.2198 39.7448L33.7359 39.7894L33.7416 38.8777L33.5348 39.0216L33.0862 38.6448L32.8972 38.4817L33.0202 37.6377L33.2016 36.6509L33.0736 36.2717L33.304 35.7457L33.5093 35.66L34.4402 35.5942L34.7089 35.707L34.9689 35.9521L35.2333 36.1242L35.6724 36.2987L36.0525 36.6011L36.3504 36.9993L36.4747 37.7344L36.3348 37.9564L36.1653 38.6176L36.2404 39.3321L35.9989 39.6027L35.7488 40.3725L36.1016 40.6276Z" fill="#2B586B"/>
<path d="M33.0845 47.1463L32.7008 46.7403L32.1812 46.5684L32.0201 46.0363L32.0379 45.7344L31.7542 45.6253L31.058 44.6594L30.8662 44.1659L30.7295 43.9959L30.522 43.3111L31.2685 43.4682L31.482 43.5719L31.701 43.5743L32.1196 43.0678L32.7438 42.4176L32.9907 42.3797L33.0812 42.0948L33.4917 41.7932L34.0116 41.7217L34.0412 42.0319L34.6031 42.0682L34.9076 42.2868L35.0403 42.5041L35.353 42.5923L35.6758 42.8866L35.6021 43.9446L35.4406 44.5112L35.373 45.1292L35.4522 45.3833L35.3452 45.8652L35.2438 45.9279L35.0329 46.5144L34.2488 47.3774L33.9186 47.2761L33.6735 47.3406L33.3709 47.1851L33.0845 47.1463Z" fill="#2B586B"/>
</g>
<defs>
<clipPath id="clip0_4446_6943">
<rect width="50.625" height="56.25" fill="white" transform="translate(0 0.625)"/>
</clipPath>
</defs>
</svg>
