<svg width="156" height="157" viewBox="0 0 156 157" fill="none" xmlns="http://www.w3.org/2000/svg">
<circle cx="77.9351" cy="78.9038" r="76.4351" fill="white" stroke="#2B586B" stroke-width="3"/>
<path d="M61.7998 78.7684C77.0188 50.4064 95.9698 50.0794 103.539 53.4604C106.92 61.0324 106.593 79.9804 78.2308 95.1994C77.9368 93.5074 76.3018 89.0794 72.1108 84.8884C67.9198 80.6974 63.4918 79.0624 61.7998 78.7684Z" stroke="#2B586B" stroke-width="5" stroke-linecap="round" stroke-linejoin="round"/>
<path d="M82.05 93.8498C87.567 96.5498 88.155 101.392 88.92 106C88.92 106 100.47 97.4618 93.081 85.7498M63.15 75.1808C60.45 69.6638 55.608 69.0758 51 68.3108C51 68.3108 59.541 56.7608 71.25 64.1498M60.054 87.7358C58.518 89.2688 55.908 93.7238 57.75 99.2498C63.279 101.092 67.731 98.4818 69.27 96.9488M93.9 68.3498C93.9 66.9574 93.3469 65.622 92.3623 64.6374C91.3777 63.6529 90.0424 63.0998 88.65 63.0998C87.2576 63.0998 85.9223 63.6529 84.9377 64.6374C83.9531 65.622 83.4 66.9574 83.4 68.3498C83.4 69.7421 83.9531 71.0775 84.9377 72.0621C85.9223 73.0466 87.2576 73.5998 88.65 73.5998C90.0424 73.5998 91.3777 73.0466 92.3623 72.0621C93.3469 71.0775 93.9 69.7421 93.9 68.3498Z" stroke="#2B586B" stroke-width="5" stroke-linecap="round" stroke-linejoin="round"/>
</svg>
