<svg width="17" height="17" viewBox="0 0 17 17" fill="none" xmlns="http://www.w3.org/2000/svg">
<circle cx="8.3349" cy="8.42401" r="8.11615" fill="#2B586B"/>
<path d="M13.9675 8.78343C14.1137 8.63714 14.1137 8.39997 13.9675 8.25368L11.5836 5.86979C11.4373 5.72351 11.2001 5.72351 11.0538 5.86979C10.9075 6.01608 10.9075 6.25326 11.0538 6.39954L13.1728 8.51855L11.0538 10.6376C10.9075 10.7839 10.9075 11.021 11.0538 11.1673C11.2001 11.3136 11.4373 11.3136 11.5836 11.1673L13.9675 8.78343ZM13.2031 8.89315L13.7026 8.89315L13.7026 8.14396L13.2031 8.14396L13.2031 8.89315Z" fill="white"/>
<path d="M2.95051 8.78343C2.80422 8.63714 2.80422 8.39997 2.95051 8.25368L5.3344 5.86979C5.48068 5.72351 5.71786 5.72351 5.86415 5.86979C6.01044 6.01608 6.01044 6.25326 5.86415 6.39954L3.74514 8.51855L5.86415 10.6376C6.01044 10.7839 6.01044 11.021 5.86415 11.1673C5.71786 11.3136 5.48069 11.3136 5.3344 11.1673L2.95051 8.78343ZM3.71484 8.89315L3.21539 8.89315L3.21539 8.14396L3.71484 8.14396L3.71484 8.89315Z" fill="white"/>
<path d="M7.06348 11.7029L9.65972 5.30226" stroke="white" stroke-width="0.749183" stroke-linecap="round"/>
</svg>
