<svg width="64" height="64" viewBox="0 0 64 64" fill="none" xmlns="http://www.w3.org/2000/svg">
<path d="M14.2224 14.5776H42.6668V17.4221H14.2224V14.5776ZM14.2224 28.7999H28.5975V31.6443H14.2224V28.7999ZM41.5611 21.6887H14.2224V24.5332H38.7184L41.5611 21.6887ZM22.7451 51.6834C23.2231 52.2315 23.8297 52.6522 24.5105 52.9079C25.1913 53.1636 25.9249 53.2462 26.6455 53.1483H40.5193C40.8493 53.1483 41.1659 53.0172 41.3992 52.7838C41.6326 52.5504 41.7637 52.2339 41.7637 51.9039C41.7637 51.5738 41.6326 51.2573 41.3992 51.0239C41.1659 50.7905 40.8493 50.6594 40.5193 50.6594H26.6455C25.0259 50.631 25.3139 49.2247 25.5415 48.7892C25.8382 48.278 26.0693 47.7315 26.2295 47.1625C26.3358 46.7047 26.2857 46.2246 26.0872 45.7986C25.8887 45.3726 25.5533 45.0254 25.1344 44.8123C24.4614 44.5091 23.7076 44.4348 22.9884 44.6008C22.2692 44.7668 21.6242 45.1639 21.1522 45.7314C20.5406 46.3625 19.6908 47.3279 18.8766 48.2665C19.3797 46.295 20.0322 43.7652 20.6722 41.2976C20.8556 40.7354 20.8191 40.1245 20.57 39.5881C20.3209 39.0517 19.8778 38.6297 19.3299 38.407C18.7232 38.1988 18.0601 38.2285 17.4744 38.4902C16.8888 38.7518 16.4242 39.2259 16.1744 39.8167C15.4064 41.2941 9.32639 51.4825 9.26595 51.5856C9.18213 51.7259 9.12678 51.8814 9.10304 52.0431C9.0793 52.2048 9.08765 52.3696 9.1276 52.5281C9.20828 52.8481 9.4128 53.123 9.69617 53.2923C9.97954 53.4616 10.3185 53.5113 10.6386 53.4307C10.9587 53.35 11.2336 53.1455 11.4028 52.8621C11.6304 52.4799 16.4837 44.3501 18.0144 41.6354C16.8624 46.0799 15.5931 51.0256 15.5184 51.4701C15.4343 51.7968 15.4596 52.1421 15.5902 52.4532C15.7209 52.7643 15.9498 53.024 16.2419 53.1927C16.5674 53.3541 16.9373 53.4026 17.2933 53.3305C17.6493 53.2584 17.9712 53.0698 18.2082 52.7945C18.4322 52.5919 18.8517 52.1101 19.9095 50.8816C20.895 49.7225 21.9044 48.5839 22.9371 47.4665C23.3246 47.0576 23.5593 47.239 23.3317 47.6407C22.8866 48.2032 22.5979 48.8733 22.4949 49.5832C22.3919 50.2931 22.4782 51.0176 22.7451 51.6834Z" fill="#375C71"/>
<path d="M49.7779 38.569V56.889H7.11122V7.11122H49.7779V15.9877L52.1423 13.6232C52.5063 13.2642 52.9053 12.9426 53.3334 12.6632V5.33344C53.3334 4.86195 53.1461 4.40976 52.8127 4.07636C52.4793 3.74297 52.0272 3.55566 51.5557 3.55566H5.33344C4.86195 3.55566 4.40976 3.74297 4.07636 4.07636C3.74297 4.40976 3.55566 4.86195 3.55566 5.33344V58.6668C3.55566 59.1383 3.74297 59.5905 4.07636 59.9239C4.40976 60.2573 4.86195 60.4445 5.33344 60.4445H51.5557C52.0272 60.4445 52.4793 60.2573 52.8127 59.9239C53.1461 59.5905 53.3334 59.1383 53.3334 58.6668V38.0926C52.243 38.6704 50.982 38.8393 49.7779 38.569Z" fill="#375C71"/>
<path d="M60.6718 21.086L59.742 20.1562C60.2172 19.5282 60.4578 18.7538 60.422 17.9671C60.3863 17.1804 60.0766 16.431 59.5464 15.8486C58.8583 15.2421 57.9584 14.9321 57.0427 14.986C56.127 15.0399 55.2697 15.4535 54.6575 16.1366L32.3909 38.3997L30.9029 43.9855C30.8793 44.0586 30.8764 44.1368 30.8946 44.2114C30.9127 44.286 30.9512 44.3541 31.0057 44.4083C31.0601 44.4624 31.1285 44.5003 31.2033 44.518C31.278 44.5356 31.3562 44.5322 31.4291 44.5082L36.9953 43.0024L57.7811 22.2166L58.6593 23.0966C58.7206 23.1579 58.7693 23.2306 58.8025 23.3107C58.8357 23.3908 58.8528 23.4766 58.8528 23.5633C58.8528 23.65 58.8357 23.7358 58.8025 23.8159C58.7693 23.896 58.7206 23.9687 58.6593 24.03L49.918 32.7713C49.6513 33.0382 49.5016 33.4 49.5018 33.7773C49.502 34.1545 49.652 34.5162 49.9189 34.7828C50.1857 35.0495 50.5476 35.1992 50.9248 35.199C51.3021 35.1988 51.6638 35.0488 51.9304 34.782L60.6718 26.0406C61.3288 25.3832 61.6978 24.4918 61.6978 23.5624C61.6978 22.633 61.3288 21.7416 60.6718 21.0842" fill="#375C71"/>
</svg>
