<svg width="34" height="5" viewBox="0 0 34 5" fill="none" xmlns="http://www.w3.org/2000/svg">
<path d="M5.42184 2.47269C5.42184 1.14152 6.47023 0.0649741 7.78108 0.0649741C9.10109 0.0649741 10.1498 1.14212 10.1498 2.47269C10.1498 3.79399 9.10109 4.89028 7.78108 4.89028C6.47023 4.89028 5.42184 3.79279 5.42184 2.47269ZM9.01694 2.47269C9.01694 1.80725 8.46455 1.21991 7.78108 1.21991C7.10705 1.21991 6.55466 1.80725 6.55466 2.47269C6.55466 3.148 7.10705 3.73534 7.78108 3.73534C8.4657 3.73534 9.01694 3.148 9.01694 2.47269ZM29.2129 2.51189C29.2129 1.05355 30.3457 0.0649741 31.3758 0.0649741C32.0779 0.0649741 32.4806 0.289978 32.7519 0.720835L32.8598 0.152342H33.9128V4.80201H32.8598L32.7238 4.32328C32.415 4.67575 32.0309 4.89178 31.3758 4.89178C30.3646 4.89028 29.2129 3.96035 29.2129 2.51189ZM32.808 2.50201C32.8054 1.79807 32.2507 1.22036 31.5773 1.22036C30.9021 1.22036 30.3466 1.80115 30.3466 2.50695V2.51189C30.3466 3.15787 30.899 3.73534 31.5733 3.73534C32.2559 3.73534 32.808 3.15787 32.808 2.50201ZM27.9189 0.691214V0.152642H26.7675V4.80201H27.9189V2.29676C27.9189 1.54306 28.275 1.15169 28.892 1.15169C28.933 1.15169 28.9719 1.15468 29.01 1.15857L29.2235 0.0362503C28.6233 0.0395415 28.1882 0.254671 27.9189 0.691214ZM16.3482 0.691513V0.152941L15.1968 0.155634L15.2066 4.80441L16.358 4.80172L16.3517 2.29676C16.35 1.54335 16.7052 1.15109 17.3228 1.1496C17.3622 1.14972 17.4016 1.15202 17.4407 1.15648L17.6531 0.032959C17.052 0.0380455 16.6164 0.254073 16.3482 0.691513ZM10.5487 3.00109V0.152941H11.6999V2.85448C11.6999 3.4514 12.0182 3.80386 12.5705 3.80386C13.1885 3.80386 13.5437 3.4122 13.5437 2.6585V0.152941H14.6954V4.80201H13.5445V4.26344C13.2732 4.70387 12.833 4.9193 12.2245 4.9193C11.1947 4.9196 10.5487 4.13658 10.5487 3.00109ZM21.7608 2.47808C21.7634 1.17623 22.6546 0.0622812 24.0682 0.0649741C25.3791 0.067667 26.3038 1.16546 26.3007 2.45863C26.301 2.58648 26.2912 2.71415 26.2721 2.84042L22.883 2.83383C23.013 3.39185 23.4523 3.79399 24.1172 3.79548C24.5196 3.79548 24.9506 3.64049 25.2134 3.28863L25.9987 3.94688C25.5949 4.5432 24.8825 4.89417 24.1246 4.89267C22.7866 4.88789 21.7585 3.83857 21.7608 2.47808ZM25.1415 1.99516C25.0768 1.5254 24.6095 1.16217 24.0571 1.16127C23.5233 1.16127 23.0922 1.49219 22.9228 1.99097L25.1415 1.99516ZM17.66 3.7886L18.6834 3.22849C18.8526 3.61177 19.1909 3.83767 19.6703 3.83767C20.1119 3.83767 20.2811 3.69046 20.2811 3.48401C20.2811 2.73599 17.8566 3.18929 17.8566 1.47932C17.8566 0.536225 18.646 0.0353526 19.6231 0.0353526C20.3655 0.0353526 21.0232 0.379141 21.3804 1.01765L20.3661 1.57866C20.2158 1.26419 19.9339 1.08736 19.5767 1.08736C19.2293 1.08736 19.0598 1.21512 19.0598 1.43115C19.0598 2.15822 21.4843 1.69655 21.4843 3.43584C21.4843 4.33974 20.7797 4.88968 19.6425 4.88968C18.6746 4.88878 17.998 4.55487 17.66 3.7886ZM0.849609 2.47269C0.849609 1.13195 1.898 0.0551003 3.20885 0.0551003C4.00873 0.0492358 4.7596 0.46612 5.20289 1.16217L4.22004 1.75818C4.10626 1.58835 3.95487 1.44981 3.7788 1.35436C3.60273 1.25892 3.40719 1.2094 3.20885 1.21004C2.53482 1.21004 1.98243 1.79738 1.98243 2.47269C1.98243 3.148 2.53482 3.73534 3.20885 3.73534C3.41653 3.73663 3.62107 3.68232 3.80299 3.57757C3.9849 3.47282 4.13813 3.32112 4.24808 3.13693L5.2212 3.74372C4.7831 4.46047 4.02192 4.8936 3.20828 4.88908C1.898 4.89028 0.849609 3.79279 0.849609 2.47269Z" fill="#0056D2"/>
</svg>
