<svg width="97" height="97" viewBox="0 0 97 97" fill="none" xmlns="http://www.w3.org/2000/svg">
<rect x="1.11504" y="1.11504" width="94.4068" height="94.4068" rx="13.7522" stroke="#375C71" stroke-width="2.23008"/>
<rect x="15" y="15" width="66" height="66" rx="12" fill="white"/>
<path d="M74.3868 67.6012H70.0146V67.6342H74.3868V67.6012Z" fill="#EBEBEB"/>
<path d="M58.7212 67.9595H57.5737V67.9925H58.7212V67.9595Z" fill="#EBEBEB"/>
<path d="M69.8825 66.3755H67.3491V66.4085H69.8825V66.3755Z" fill="#EBEBEB"/>
<path d="M27.6263 66.5972H21.9248V66.6302H27.6263V66.5972Z" fill="#EBEBEB"/>
<path d="M29.6372 66.5972H28.8013V66.6302H29.6372V66.5972Z" fill="#EBEBEB"/>
<path d="M44.7192 67.1547H32.354V67.1877H44.7192V67.1547Z" fill="#EBEBEB"/>
<path d="M46.4691 59.5896H20.98C20.5646 59.5896 20.2266 59.2516 20.2266 58.8361V23.0071C20.2266 22.5917 20.5646 22.2537 20.98 22.2537H46.4691C46.8844 22.2537 47.2224 22.5917 47.2224 23.0071V58.8361C47.2224 59.2516 46.8844 59.5896 46.4691 59.5896ZM20.98 22.2868C20.5827 22.2868 20.2596 22.6099 20.2596 23.0073V58.8363C20.2596 59.2336 20.5827 59.5567 20.98 59.5567H46.4691C46.8663 59.5567 47.1894 59.2336 47.1894 58.8363V23.0071C47.1894 22.6099 46.8663 22.2867 46.4691 22.2867L20.98 22.2868Z" fill="#EBEBEB"/>
<path d="M75.0202 59.5896H49.5312C49.1159 59.5896 48.7778 59.2516 48.7778 58.8361V23.0071C48.7778 22.5917 49.1159 22.2537 49.5312 22.2537H75.0202C75.4358 22.2537 75.7737 22.5917 75.7737 23.0071V58.8361C75.7737 59.2516 75.4356 59.5896 75.0202 59.5896ZM49.5312 22.2868C49.134 22.2868 48.8108 22.6099 48.8108 23.0073V58.8363C48.8108 59.2336 49.134 59.5567 49.5312 59.5567H75.0202C75.4175 59.5567 75.7407 59.2336 75.7407 58.8363V23.0071C75.7407 22.6099 75.4175 22.2867 75.0202 22.2867L49.5312 22.2868Z" fill="#EBEBEB"/>
<path d="M81 65.4765H15V65.5095H81V65.4765Z" fill="#EBEBEB"/>
<path d="M62.2188 57.8501C62.2188 57.8501 64.0612 56.7545 63.0385 55.4751C62.0156 54.1959 64.5021 53.4039 63.2006 52.0389C61.8991 50.6739 63.845 49.963 63.1046 48.7751C62.3642 47.5872 63.4147 45.9616 62.2603 45.3315C61.106 44.7013 61.018 47.3439 60.1371 47.9819C59.2563 48.6199 60.705 50.3797 59.9551 51.5012C59.2052 52.6226 61.0925 54.4292 60.3474 54.9911C59.6024 55.5529 61.0451 57.3604 62.2188 57.8501Z" fill="#E0E0E0"/>
<path d="M62.5156 58.5496C62.5156 58.5496 60.9733 52.7926 61.5567 47.0529C61.5567 47.0529 60.3812 49.4879 62.1869 58.7647L62.5156 58.5496Z" fill="#F0F0F0"/>
<path d="M65.6903 58.0098C65.6903 58.0098 67.8334 58.0598 67.6461 56.4327C67.4586 54.8055 69.9862 55.4548 69.6081 53.607C69.2301 51.7591 71.2565 52.1899 71.2598 50.7903C71.2631 49.3906 73.0165 48.571 72.373 47.4239C71.7295 46.277 70.2516 48.4696 69.1664 48.5425C68.0813 48.6154 68.3743 50.8759 67.1435 51.4279C65.9126 51.9801 66.5526 54.513 65.6229 54.5935C64.693 54.6739 64.9558 56.9716 65.6903 58.0098Z" fill="#F0F0F0"/>
<path d="M65.5704 58.76C65.5704 58.76 67.3205 53.0627 70.8627 48.5089C70.8627 48.5089 68.5736 49.9479 65.1777 58.7678L65.5704 58.76Z" fill="#E0E0E0"/>
<path d="M63.5205 57.9911C63.5205 57.9911 65.5812 57.4008 64.9179 55.9032C64.2546 54.4057 66.8608 54.2732 65.9499 52.6216C65.039 50.97 67.1017 50.7781 66.6883 49.4409C66.2749 48.1036 67.7047 46.7992 66.7489 45.8958C65.7931 44.9924 65.035 47.5256 64.0207 47.9182C63.0064 48.3107 63.9592 50.3814 62.9484 51.2749C61.9376 52.1684 63.3027 54.3961 62.439 54.7497C61.5753 55.1033 62.5101 57.2187 63.5205 57.9911Z" fill="#EBEBEB"/>
<path d="M63.629 58.7431C63.629 58.7431 63.6038 52.7833 65.6297 47.3813C65.6297 47.3813 63.8727 49.4366 63.2563 58.8674L63.629 58.7431Z" fill="#E0E0E0"/>
<path d="M61.1337 58.1048C61.1337 58.1048 58.9901 58.1233 59.2013 56.4992C59.4125 54.8749 56.8759 55.4872 57.281 53.6451C57.6861 51.803 55.6536 52.2041 55.6707 50.8045C55.6879 49.4049 53.9468 48.5595 54.6071 47.4221C55.2673 46.2846 56.7129 48.4987 57.7968 48.5875C58.8808 48.6762 58.5547 50.9322 59.7772 51.5022C60.9998 52.0723 60.3229 54.5956 61.2514 54.6897C62.1798 54.784 61.8834 57.0776 61.1337 58.1048Z" fill="#E6E6E6"/>
<path d="M61.243 58.8568C61.243 58.8568 59.5766 53.1346 56.1016 48.5293C56.1016 48.5293 58.3695 50.0018 61.6355 58.8704L61.243 58.8568Z" fill="#E0E0E0"/>
<path d="M62.1101 58.3269H65.0474H67.3994L66.4165 63.7567C66.2251 64.8139 65.3047 65.5826 64.2303 65.5826H62.9274C61.853 65.5826 60.9326 64.8139 60.7412 63.7567L59.7583 58.3269H62.1101Z" fill="#EBEBEB"/>
<path d="M60.1043 60.2381L59.7583 58.3269H62.1103H65.0475H67.3995L67.0535 60.2381H60.1043Z" fill="#E0E0E0"/>
<path d="M59.7781 59.9143H67.3795C67.6512 59.9143 67.8714 59.694 67.8714 59.4223V58.6884C67.8714 58.4166 67.6511 58.1964 67.3795 58.1964H59.7781C59.5063 58.1964 59.2861 58.4167 59.2861 58.6884V59.4223C59.2861 59.694 59.5064 59.9143 59.7781 59.9143Z" fill="#EBEBEB"/>
<path d="M34.1205 29.4652C34.7825 29.1909 35.0968 28.432 34.8226 27.7699C34.5484 27.1079 33.7894 26.7936 33.1274 27.0678C32.4654 27.342 32.151 28.101 32.4252 28.763C32.6995 29.425 33.4584 29.7394 34.1205 29.4652Z" fill="#F5F5F5"/>
<path d="M29.0698 28.7396L33.6232 24.1861L38.1766 28.7396H29.0698Z" fill="#EBEBEB"/>
<path d="M34.7919 28.7396L33.623 24.1861L36.6027 28.7396H34.7919Z" fill="#FAFAFA"/>
<path d="M33.6607 24.5869H33.5859C33.4796 24.5869 33.3936 24.5008 33.3936 24.3946V22.2538H33.8529V24.3947C33.8529 24.5008 33.7669 24.5869 33.6607 24.5869Z" fill="#E0E0E0"/>
<path d="M62.5965 29.4646C63.2586 29.1904 63.5729 28.4314 63.2987 27.7694C63.0245 27.1074 62.2655 26.793 61.6035 27.0673C60.9415 27.3415 60.6271 28.1005 60.9013 28.7625C61.1755 29.4245 61.9345 29.7389 62.5965 29.4646Z" fill="#F5F5F5"/>
<path d="M57.5454 28.7396L62.0989 24.1861L66.6522 28.7396H57.5454Z" fill="#EBEBEB"/>
<path d="M63.268 28.7396L62.0991 24.1861L65.0788 28.7396H63.268Z" fill="#FAFAFA"/>
<path d="M62.1363 24.5869H62.0615C61.9552 24.5869 61.8691 24.5008 61.8691 24.3946V22.2538H62.3285V24.3947C62.3286 24.5008 62.2424 24.5869 62.1363 24.5869Z" fill="#E0E0E0"/>
<path d="M33.4901 39.1643H22.8569V65.5095H33.4901V39.1643Z" fill="#E6E6E6"/>
<path d="M53.3772 39.1643H31.168V65.5095H53.3772V39.1643Z" fill="#F5F5F5"/>
<path d="M52.3202 64.2015H42.9287V42.8046C42.9287 41.7126 43.814 40.8272 44.9061 40.8272H50.343C51.4351 40.8272 52.3204 41.7126 52.3204 42.8046V64.2015H52.3202Z" fill="#EBEBEB"/>
<path d="M41.8339 64.2015H32.4424V42.8046C32.4424 41.7126 33.3277 40.8272 34.4197 40.8272H39.8567C40.9487 40.8272 41.8341 41.7126 41.8341 42.8046V64.2015H41.8339Z" fill="#EBEBEB"/>
<path d="M42.9285 49.5784H51.186V48.3598H42.9285V49.5784Z" fill="#E0E0E0"/>
<path d="M32.4422 49.5784H40.6997V48.3598H32.4422V49.5784Z" fill="#E0E0E0"/>
<path d="M42.9285 56.8516H51.186V55.6329H42.9285V56.8516Z" fill="#E0E0E0"/>
<path d="M32.4422 56.8516H40.6997V55.6329H32.4422V56.8516Z" fill="#E0E0E0"/>
<path d="M48.2359 64.2015H49.1338V57.5314H48.2359V64.2015Z" fill="#FAFAFA"/>
<path d="M47.338 64.2015H48.2358V58.1081H47.338V64.2015Z" fill="#E0E0E0"/>
<path d="M43.9303 64.2015H44.6279V58.1081H43.9303V64.2015Z" fill="#E0E0E0"/>
<path d="M42.9288 64.2015H43.9307V57.6374H42.9288V64.2015Z" fill="#F0F0F0"/>
<path d="M45.983 64.2015H47.3379V58.1081H45.983V64.2015Z" fill="#F5F5F5"/>
<path d="M44.6281 64.2015H45.9829V57.726H44.6281V64.2015Z" fill="#E6E6E6"/>
<path d="M37.7496 64.2015H38.6475V57.5314H37.7496V64.2015Z" fill="#E0E0E0"/>
<path d="M36.8516 64.2015H37.7495V58.1081H36.8516V64.2015Z" fill="#E0E0E0"/>
<path d="M33.4445 64.2015H34.1421V58.1081H33.4445V64.2015Z" fill="#E0E0E0"/>
<path d="M32.4425 64.2015H33.4443V57.6374H32.4425V64.2015Z" fill="#F0F0F0"/>
<path d="M35.4967 64.2015H36.8516V58.1081H35.4967V64.2015Z" fill="#F5F5F5"/>
<path d="M34.1422 64.2015H35.4971V57.726H34.1422V64.2015Z" fill="#E6E6E6"/>
<path d="M43.8266 50.1076H42.9287V55.6721H43.8266V50.1076Z" fill="#FAFAFA"/>
<path d="M44.7245 50.5887H43.8267V55.672H44.7245V50.5887Z" fill="#E0E0E0"/>
<path d="M48.1322 50.5887H47.4346V55.672H48.1322V50.5887Z" fill="#E0E0E0"/>
<path d="M49.1337 50.1961H48.1318V55.672H49.1337V50.1961Z" fill="#F0F0F0"/>
<path d="M46.0795 50.5887H44.7246V55.672H46.0795V50.5887Z" fill="#F5F5F5"/>
<path d="M47.4344 50.27H46.0796V55.6721H47.4344V50.27Z" fill="#E6E6E6"/>
<path d="M33.2919 50.1076H32.394V55.6721H33.2919V50.1076Z" fill="#E0E0E0"/>
<path d="M34.1899 50.5887H33.292V55.672H34.1899V50.5887Z" fill="#E6E6E6"/>
<path d="M37.597 50.5887H36.8994V55.672H37.597V50.5887Z" fill="#E0E0E0"/>
<path d="M38.599 50.1961H37.5972V55.672H38.599V50.1961Z" fill="#F0F0F0"/>
<path d="M35.5448 50.5887H34.1899V55.672H35.5448V50.5887Z" fill="#F5F5F5"/>
<path d="M36.8998 50.27H35.5449V55.6721H36.8998V50.27Z" fill="#E6E6E6"/>
<path d="M43.8266 43.7685H42.9287V48.3598H43.8266V43.7685Z" fill="#FAFAFA"/>
<path d="M44.7245 43.2766H43.8267V48.36H44.7245V43.2766Z" fill="#E0E0E0"/>
<path d="M48.1322 43.2766H47.4346V48.36H48.1322V43.2766Z" fill="#E0E0E0"/>
<path d="M49.1337 42.8839H48.1318V48.3598H49.1337V42.8839Z" fill="#F0F0F0"/>
<path d="M46.0795 43.2766H44.7246V48.36H46.0795V43.2766Z" fill="#F5F5F5"/>
<path d="M47.4344 42.9579H46.0796V48.36H47.4344V42.9579Z" fill="#E6E6E6"/>
<path d="M37.7496 48.3599H38.6475V43.7686H37.7496V48.3599Z" fill="#FAFAFA"/>
<path d="M36.8516 48.3598H37.7495V43.2765H36.8516V48.3598Z" fill="#E0E0E0"/>
<path d="M33.4445 48.3598H34.1421V43.2765H33.4445V48.3598Z" fill="#E0E0E0"/>
<path d="M32.4425 48.3599H33.4443V44.1911H32.4425V48.3599Z" fill="#E0E0E0"/>
<path d="M35.4967 48.3598H36.8516V43.2765H35.4967V48.3598Z" fill="#F5F5F5"/>
<path d="M34.1422 48.3599H35.4971V42.9578H34.1422V48.3599Z" fill="#E6E6E6"/>
<path d="M48.0001 71.3661C62.1349 71.3661 73.5934 70.6969 73.5934 69.8715C73.5934 69.046 62.1349 68.3768 48.0001 68.3768C33.8653 68.3768 22.4067 69.046 22.4067 69.8715C22.4067 70.6969 33.8653 71.3661 48.0001 71.3661Z" fill="#F5F5F5"/>
<path d="M49.5985 46.4555H41.9609L42.9084 35.6257H50.546L49.5985 46.4555Z" fill="#2B586B"/>
<path opacity="0.7" d="M49.5985 46.4555H41.9609L42.9084 35.6257H50.546L49.5985 46.4555Z" fill="white"/>
<path d="M48.1915 42.0078H44.1549C44.0874 42.0078 44.0375 41.9531 44.0434 41.8857C44.0494 41.8182 44.1088 41.7635 44.1762 41.7635H48.2129C48.2804 41.7635 48.3303 41.8182 48.3243 41.8857C48.3184 41.9531 48.259 42.0078 48.1915 42.0078Z" fill="#263238"/>
<path d="M48.2415 42.6354H43.3243C43.2568 42.6354 43.2071 42.5808 43.2129 42.5133C43.2188 42.4459 43.2782 42.3912 43.3457 42.3912H48.2629C48.3304 42.3912 48.3803 42.4459 48.3743 42.5133C48.3684 42.5808 48.3089 42.6354 48.2415 42.6354Z" fill="#263238"/>
<path d="M48.3957 43.2632H43.2691C43.2017 43.2632 43.1518 43.2086 43.1577 43.1411C43.1636 43.0737 43.223 43.019 43.2905 43.019H48.4171C48.4846 43.019 48.5345 43.0737 48.5285 43.1411C48.5226 43.2086 48.4632 43.2632 48.3957 43.2632Z" fill="#263238"/>
<path d="M47.8174 43.8909H43.2139C43.1465 43.8909 43.0967 43.8362 43.1025 43.7688C43.1085 43.7013 43.1679 43.6467 43.2353 43.6467H47.8388C47.9063 43.6467 47.9562 43.7013 47.9502 43.7688C47.9443 43.8362 47.8847 43.8909 47.8174 43.8909Z" fill="#263238"/>
<path d="M47.8673 44.5186H43.9351C43.8677 44.5186 43.8179 44.464 43.8237 44.3965C43.8296 44.3291 43.889 44.2744 43.9565 44.2744H47.8886C47.9561 44.2744 48.006 44.3291 48.0001 44.3965C47.9941 44.464 47.9347 44.5186 47.8673 44.5186Z" fill="#263238"/>
<path d="M48.5445 45.1465H43.1041C43.0366 45.1465 42.9867 45.0918 42.9927 45.0244C42.9986 44.9569 43.058 44.9023 43.1255 44.9023H48.5658C48.6333 44.9023 48.6832 44.9569 48.6772 45.0244C48.6713 45.0918 48.6119 45.1465 48.5445 45.1465Z" fill="#263238"/>
<path d="M47.8621 45.7741H43.0494C42.9819 45.7741 42.9322 45.7195 42.938 45.652C42.9439 45.5846 43.0033 45.5299 43.0708 45.5299H47.8835C47.9509 45.5299 48.0008 45.5846 47.9949 45.652C47.9889 45.7195 47.9294 45.7741 47.8621 45.7741Z" fill="#263238"/>
<g opacity="0.3">
<path d="M48.1915 42.0078H44.1549C44.0874 42.0078 44.0375 41.9531 44.0434 41.8857C44.0494 41.8182 44.1088 41.7635 44.1762 41.7635H48.2129C48.2804 41.7635 48.3303 41.8182 48.3243 41.8857C48.3184 41.9531 48.259 42.0078 48.1915 42.0078Z" fill="white"/>
<path d="M48.2415 42.6354H43.3243C43.2568 42.6354 43.2071 42.5808 43.2129 42.5133C43.2188 42.4459 43.2782 42.3912 43.3457 42.3912H48.2629C48.3304 42.3912 48.3803 42.4459 48.3743 42.5133C48.3684 42.5808 48.3089 42.6354 48.2415 42.6354Z" fill="white"/>
<path d="M48.3957 43.2632H43.2691C43.2017 43.2632 43.1518 43.2086 43.1577 43.1411C43.1636 43.0737 43.223 43.019 43.2905 43.019H48.4171C48.4846 43.019 48.5345 43.0737 48.5285 43.1411C48.5226 43.2086 48.4632 43.2632 48.3957 43.2632Z" fill="white"/>
<path d="M47.8174 43.8909H43.2139C43.1465 43.8909 43.0967 43.8362 43.1025 43.7688C43.1085 43.7013 43.1679 43.6467 43.2353 43.6467H47.8388C47.9063 43.6467 47.9562 43.7013 47.9502 43.7688C47.9443 43.8362 47.8847 43.8909 47.8174 43.8909Z" fill="white"/>
<path d="M47.8673 44.5186H43.9351C43.8677 44.5186 43.8179 44.464 43.8237 44.3965C43.8296 44.3291 43.889 44.2744 43.9565 44.2744H47.8886C47.9561 44.2744 48.006 44.3291 48.0001 44.3965C47.9941 44.464 47.9347 44.5186 47.8673 44.5186Z" fill="white"/>
<path d="M48.5445 45.1465H43.1041C43.0366 45.1465 42.9867 45.0918 42.9927 45.0244C42.9986 44.9569 43.058 44.9023 43.1255 44.9023H48.5658C48.6333 44.9023 48.6832 44.9569 48.6772 45.0244C48.6713 45.0918 48.6119 45.1465 48.5445 45.1465Z" fill="white"/>
<path d="M47.8621 45.7741H43.0494C42.9819 45.7741 42.9322 45.7195 42.938 45.652C42.9439 45.5846 43.0033 45.5299 43.0708 45.5299H47.8835C47.9509 45.5299 48.0008 45.5846 47.9949 45.652C47.9889 45.7195 47.9294 45.7741 47.8621 45.7741Z" fill="white"/>
</g>
<path d="M46.5614 37.6226C46.8118 37.6226 46.9447 37.4196 46.9666 37.1691C46.9885 36.9187 46.891 36.7157 46.6407 36.7157C46.3903 36.7157 46.2574 36.9187 46.2354 37.1691C46.2134 37.4197 46.3109 37.6226 46.5614 37.6226Z" fill="#2B586B"/>
<path d="M47.4513 39.0835L47.3182 37.9473C47.302 37.8091 47.1891 37.7098 47.048 37.7098H46.0594C45.9183 37.7098 45.7881 37.8091 45.7477 37.9473L45.4158 39.0835C45.3915 39.1666 45.4482 39.2442 45.5329 39.2442C45.5964 39.2442 45.6551 39.1994 45.6733 39.1373L45.9491 38.1928L45.7194 40.8177C45.7124 40.8973 45.7713 40.9618 45.8509 40.9618C45.9249 40.9618 45.9919 40.9057 46.0056 40.832L46.2658 39.4401C46.2788 39.3698 46.3426 39.3164 46.4131 39.3164C46.4836 39.3164 46.5379 39.3698 46.5389 39.4401L46.5555 40.832C46.5564 40.9057 46.6135 40.9618 46.6875 40.9618C46.7671 40.9618 46.8372 40.8973 46.8442 40.8177L47.0739 38.1929L47.1845 39.1373C47.1917 39.1996 47.2427 39.2442 47.3062 39.2442C47.3908 39.2442 47.4609 39.1666 47.4513 39.0835Z" fill="#2B586B"/>
<path d="M44.5034 38.0227C44.7238 38.0227 44.8408 37.8439 44.86 37.6236C44.8793 37.4032 44.7935 37.2246 44.5732 37.2246C44.3528 37.2246 44.2358 37.4032 44.2165 37.6236C44.1971 37.8441 44.2829 38.0227 44.5034 38.0227Z" fill="#263238"/>
<path d="M45.2869 39.3086L45.1698 38.3084C45.1555 38.1867 45.0561 38.0993 44.9319 38.0993H44.0618C43.9375 38.0993 43.8228 38.1867 43.7873 38.3084L43.4952 39.3086C43.4738 39.3816 43.5237 39.45 43.5982 39.45C43.6541 39.45 43.7058 39.4106 43.7219 39.3558L43.9646 38.5245L43.7625 40.8349C43.7564 40.9049 43.8082 40.9616 43.8781 40.9616C43.9434 40.9616 44.0021 40.9123 44.0142 40.8474L44.2433 39.6224C44.2547 39.5606 44.3108 39.5136 44.373 39.5136C44.4351 39.5136 44.483 39.5606 44.4836 39.6224L44.4983 40.8476C44.4991 40.9124 44.5492 40.9618 44.6144 40.9618C44.6845 40.9618 44.7462 40.905 44.7523 40.835L44.9543 38.5248L45.0516 39.356C45.0581 39.4108 45.1028 39.4501 45.1588 39.4501C45.2335 39.45 45.2953 39.3816 45.2869 39.3086Z" fill="#263238"/>
<path d="M48.5576 38.0227C48.7781 38.0227 48.895 37.8439 48.9143 37.6236C48.9336 37.4032 48.8478 37.2246 48.6273 37.2246C48.4069 37.2246 48.2899 37.4032 48.2707 37.6236C48.2515 37.8441 48.3373 38.0227 48.5576 38.0227Z" fill="#263238"/>
<path d="M49.341 39.3086L49.224 38.3084C49.2097 38.1867 49.1103 38.0993 48.9861 38.0993H48.116C47.9917 38.0993 47.877 38.1867 47.8415 38.3084L47.5494 39.3086C47.528 39.3816 47.5779 39.45 47.6524 39.45C47.7083 39.45 47.76 39.4106 47.7759 39.3558L48.0187 38.5245L47.8166 40.8349C47.8104 40.9049 47.8623 40.9616 47.9322 40.9616C47.9974 40.9616 48.0562 40.9123 48.0683 40.8474L48.2973 39.6224C48.3088 39.5606 48.3649 39.5136 48.427 39.5136C48.489 39.5136 48.5369 39.5606 48.5376 39.6224L48.5522 40.8476C48.553 40.9124 48.6032 40.9618 48.6684 40.9618C48.7385 40.9618 48.8001 40.905 48.8062 40.835L49.0083 38.5248L49.1056 39.356C49.112 39.4108 49.1568 39.4501 49.2127 39.4501C49.2877 39.45 49.3495 39.3816 49.341 39.3086Z" fill="#263238"/>
<path d="M58.1796 43.3432H50.4766L51.4321 32.4204H59.1352L58.1796 43.3432Z" fill="#2B586B"/>
<path opacity="0.7" d="M58.1796 43.3432H50.4766L51.4321 32.4204H59.1352L58.1796 43.3432Z" fill="white"/>
<path d="M57.5789 36.9578H52.8982C52.8406 36.9578 52.798 36.9111 52.8032 36.8535L52.8065 36.8158C52.8115 36.7582 52.8623 36.7115 52.9198 36.7115H57.6006C57.6581 36.7115 57.7008 36.7582 57.6956 36.8158L57.6923 36.8535C57.6872 36.9112 57.6365 36.9578 57.5789 36.9578Z" fill="#263238"/>
<path d="M56.7851 37.591H51.9989C51.9413 37.591 51.8987 37.5443 51.9037 37.4867L51.907 37.449C51.912 37.3914 51.9629 37.3447 52.0204 37.3447H56.8066C56.8642 37.3447 56.9068 37.3914 56.9016 37.449L56.8983 37.4867C56.8935 37.5443 56.8426 37.591 56.7851 37.591Z" fill="#263238"/>
<path d="M57.468 38.2241H51.9431C51.8856 38.2241 51.8429 38.1773 51.8481 38.1198L51.8514 38.082C51.8564 38.0245 51.9072 37.9778 51.9648 37.9778H57.4896C57.5472 37.9778 57.5898 38.0245 57.5848 38.082L57.5815 38.1198C57.5763 38.1775 57.5255 38.2241 57.468 38.2241Z" fill="#263238"/>
<path d="M56.7794 38.8572H52.6703C52.6127 38.8572 52.5701 38.8104 52.5751 38.7529L52.5784 38.7151C52.5834 38.6576 52.6342 38.6108 52.6918 38.6108H56.801C56.8585 38.6108 56.9011 38.6576 56.8961 38.7151L56.8928 38.7529C56.8878 38.8106 56.837 38.8572 56.7794 38.8572Z" fill="#263238"/>
<path d="M56.8296 39.4904H51.8324C51.7748 39.4904 51.7322 39.4436 51.7372 39.3861L51.7405 39.3483C51.7455 39.2908 51.7964 39.244 51.8539 39.244H56.8512C56.9087 39.244 56.9514 39.2908 56.9463 39.3483L56.943 39.3861C56.938 39.4436 56.8872 39.4904 56.8296 39.4904Z" fill="#263238"/>
<path d="M56.9854 40.1234H51.7771C51.7196 40.1234 51.6769 40.0767 51.6821 40.0191L51.6854 39.9814C51.6904 39.9238 51.7412 39.8771 51.7988 39.8771H57.0071C57.0646 39.8771 57.1073 39.9238 57.1021 39.9814L57.0988 40.0191C57.0938 40.0768 57.043 40.1234 56.9854 40.1234Z" fill="#263238"/>
<path d="M56.4026 40.7566H51.7219C51.6644 40.7566 51.6217 40.7099 51.6269 40.6523L51.6302 40.6146C51.6352 40.557 51.686 40.5103 51.7436 40.5103H56.4243C56.4818 40.5103 56.5245 40.557 56.5195 40.6146L56.5162 40.6523C56.5109 40.7099 56.4602 40.7566 56.4026 40.7566Z" fill="#263238"/>
<path d="M56.4526 41.3897H52.4491C52.3915 41.3897 52.3489 41.343 52.3539 41.2854L52.3572 41.2477C52.3622 41.1901 52.4131 41.1434 52.4706 41.1434H56.4742C56.5317 41.1434 56.5744 41.1901 56.5693 41.2477L56.566 41.2854C56.561 41.3431 56.5102 41.3897 56.4526 41.3897Z" fill="#263238"/>
<path d="M57.1356 42.0229H51.6107C51.5532 42.0229 51.5105 41.9762 51.5155 41.9186L51.5188 41.8809C51.5239 41.8233 51.5747 41.7766 51.6322 41.7766H57.1571C57.2146 41.7766 57.2573 41.8233 57.2521 41.8809L57.2488 41.9186C57.2439 41.9762 57.1933 42.0229 57.1356 42.0229Z" fill="#263238"/>
<path d="M56.4472 42.656H51.5554C51.4979 42.656 51.4552 42.6093 51.4604 42.5517L51.4637 42.5139C51.4687 42.4564 51.5195 42.4097 51.5771 42.4097H56.4689C56.5264 42.4097 56.569 42.4564 56.564 42.5139L56.5607 42.5517C56.5556 42.6093 56.5049 42.656 56.4472 42.656Z" fill="#263238"/>
<g opacity="0.3">
<path d="M57.5789 36.9578H52.8982C52.8406 36.9578 52.798 36.9111 52.8032 36.8535L52.8065 36.8158C52.8115 36.7582 52.8623 36.7115 52.9198 36.7115H57.6006C57.6581 36.7115 57.7008 36.7582 57.6956 36.8158L57.6923 36.8535C57.6872 36.9112 57.6365 36.9578 57.5789 36.9578Z" fill="white"/>
<path d="M56.7851 37.591H51.9989C51.9413 37.591 51.8987 37.5443 51.9037 37.4867L51.907 37.449C51.912 37.3914 51.9629 37.3447 52.0204 37.3447H56.8066C56.8642 37.3447 56.9068 37.3914 56.9016 37.449L56.8983 37.4867C56.8935 37.5443 56.8426 37.591 56.7851 37.591Z" fill="white"/>
<path d="M57.468 38.2241H51.9431C51.8856 38.2241 51.8429 38.1773 51.8481 38.1198L51.8514 38.082C51.8564 38.0245 51.9072 37.9778 51.9648 37.9778H57.4896C57.5472 37.9778 57.5898 38.0245 57.5848 38.082L57.5815 38.1198C57.5763 38.1775 57.5255 38.2241 57.468 38.2241Z" fill="white"/>
<path d="M56.7794 38.8572H52.6703C52.6127 38.8572 52.5701 38.8104 52.5751 38.7529L52.5784 38.7151C52.5834 38.6576 52.6342 38.6108 52.6918 38.6108H56.801C56.8585 38.6108 56.9011 38.6576 56.8961 38.7151L56.8928 38.7529C56.8878 38.8106 56.837 38.8572 56.7794 38.8572Z" fill="white"/>
<path d="M56.8296 39.4904H51.8324C51.7748 39.4904 51.7322 39.4436 51.7372 39.3861L51.7405 39.3483C51.7455 39.2908 51.7964 39.244 51.8539 39.244H56.8512C56.9087 39.244 56.9514 39.2908 56.9463 39.3483L56.943 39.3861C56.938 39.4436 56.8872 39.4904 56.8296 39.4904Z" fill="white"/>
<path d="M56.9854 40.1234H51.7771C51.7196 40.1234 51.6769 40.0767 51.6821 40.0191L51.6854 39.9814C51.6904 39.9238 51.7412 39.8771 51.7988 39.8771H57.0071C57.0646 39.8771 57.1073 39.9238 57.1021 39.9814L57.0988 40.0191C57.0938 40.0768 57.043 40.1234 56.9854 40.1234Z" fill="white"/>
<path d="M56.4026 40.7566H51.7219C51.6644 40.7566 51.6217 40.7099 51.6269 40.6523L51.6302 40.6146C51.6352 40.557 51.686 40.5103 51.7436 40.5103H56.4243C56.4818 40.5103 56.5245 40.557 56.5195 40.6146L56.5162 40.6523C56.5109 40.7099 56.4602 40.7566 56.4026 40.7566Z" fill="white"/>
<path d="M56.4526 41.3897H52.4491C52.3915 41.3897 52.3489 41.343 52.3539 41.2854L52.3572 41.2477C52.3622 41.1901 52.4131 41.1434 52.4706 41.1434H56.4742C56.5317 41.1434 56.5744 41.1901 56.5693 41.2477L56.566 41.2854C56.561 41.3431 56.5102 41.3897 56.4526 41.3897Z" fill="white"/>
<path d="M57.1356 42.0229H51.6107C51.5532 42.0229 51.5105 41.9762 51.5155 41.9186L51.5188 41.8809C51.5239 41.8233 51.5747 41.7766 51.6322 41.7766H57.1571C57.2146 41.7766 57.2573 41.8233 57.2521 41.8809L57.2488 41.9186C57.2439 41.9762 57.1933 42.0229 57.1356 42.0229Z" fill="white"/>
<path d="M56.4472 42.656H51.5554C51.4979 42.656 51.4552 42.6093 51.4604 42.5517L51.4637 42.5139C51.4687 42.4564 51.5195 42.4097 51.5771 42.4097H56.4689C56.5264 42.4097 56.569 42.4564 56.564 42.5139L56.5607 42.5517C56.5556 42.6093 56.5049 42.656 56.4472 42.656Z" fill="white"/>
</g>
<path d="M57.1089 33.0492H57.0297H56.1532H56.074H55.1977H55.1186H54.2421H54.1629H53.2864H53.2072H52.2517L52.1681 34.0047L52.1613 34.0839L52.0846 34.9604L52.0777 35.0396L51.9941 35.9951H52.9497H53.0288H53.9052H53.9844H54.8608H54.94H55.8163H55.8955H56.772H56.8512H57.8068L57.8903 35.0396L57.8972 34.9604L57.9739 34.0839L57.9807 34.0047L58.0643 33.0492H57.1089ZM56.1465 33.1284H57.0229L56.9463 34.0047H56.0698L56.1465 33.1284ZM56.8626 34.9603H55.9861L56.0628 34.0838H56.9393L56.8626 34.9603ZM53.1963 34.0838H54.0727L53.9961 34.9603H53.1196L53.1963 34.0838ZM54.1518 34.0838H55.0283L54.9516 34.9603H54.0753L54.1518 34.0838ZM55.1074 34.0838H55.9837L55.907 34.9603H55.0307L55.1074 34.0838ZM55.1909 33.1284H56.0673L55.9906 34.0047H55.1142L55.1909 33.1284ZM54.2354 33.1284H55.1119L55.0352 34.0047H54.1587L54.2354 33.1284ZM53.2798 33.1284H54.1563L54.0796 34.0047H53.2033L53.2798 33.1284ZM52.3243 33.1284H53.2008L53.1241 34.0047H52.2477L52.3243 33.1284ZM52.2407 34.0838H53.1172L53.0405 34.9603H52.164L52.2407 34.0838ZM52.9568 35.9158H52.0805L52.1572 35.0393H53.0335L52.9568 35.9158ZM53.9124 35.9158H53.0359L53.1126 35.0393H53.9891L53.9124 35.9158ZM54.8679 35.9158H53.9914L54.0681 35.0393H54.9446L54.8679 35.9158ZM55.8235 35.9158H54.9471L55.0238 35.0393H55.9002L55.8235 35.9158ZM56.779 35.9158H55.9027L55.9794 35.0393H56.8557L56.779 35.9158ZM57.7346 35.9158H56.8581L56.9348 35.0393H57.8111L57.7346 35.9158ZM57.8181 34.9603H56.9416L57.0183 34.0838H57.8948L57.8181 34.9603ZM57.0253 34.0047L57.102 33.1284H57.9785L57.9018 34.0047H57.0253Z" fill="#2B586B"/>
<path d="M53.2038 35.9554H52.5825L52.681 34.8298H53.3023L53.2038 35.9554Z" fill="#263238"/>
<path d="M54.1594 35.9554H53.5381L53.6635 34.522H54.2848L54.1594 35.9554Z" fill="#263238"/>
<path d="M55.162 35.9554H54.5405L54.6659 34.522H55.2874L55.162 35.9554Z" fill="#263238"/>
<path d="M56.0705 35.9554H55.4492L55.6437 33.7325H56.2651L56.0705 35.9554Z" fill="#263238"/>
<path d="M57.0261 35.9554H56.4048L56.6137 33.5665H57.2352L57.0261 35.9554Z" fill="#263238"/>
<path d="M66.2847 44.9381H58.5815L59.5372 34.0154H67.2402L66.2847 44.9381Z" fill="#2B586B"/>
<path opacity="0.7" d="M66.2847 44.9381H58.5815L59.5372 34.0154H67.2402L66.2847 44.9381Z" fill="white"/>
<path d="M65.684 38.5527H61.0033C60.9457 38.5527 60.9031 38.506 60.9081 38.4485L60.9114 38.4107C60.9164 38.3532 60.9673 38.3064 61.0248 38.3064H65.7055C65.7631 38.3064 65.8057 38.3532 65.8006 38.4107L65.7973 38.4485C65.7924 38.5061 65.7416 38.5527 65.684 38.5527Z" fill="#263238"/>
<path d="M64.8901 39.1859H60.1039C60.0463 39.1859 60.0037 39.1392 60.0087 39.0817L60.012 39.0439C60.017 38.9864 60.0678 38.9396 60.1254 38.9396H64.9116C64.9691 38.9396 65.0118 38.9864 65.0066 39.0439L65.0033 39.0817C64.9983 39.1392 64.9476 39.1859 64.8901 39.1859Z" fill="#263238"/>
<path d="M65.573 39.819H60.0481C59.9905 39.819 59.9479 39.7723 59.9531 39.7147L59.9564 39.677C59.9614 39.6194 60.0122 39.5727 60.0697 39.5727H65.5946C65.6522 39.5727 65.6948 39.6194 65.6896 39.677L65.6863 39.7147C65.6813 39.7724 65.6305 39.819 65.573 39.819Z" fill="#263238"/>
<path d="M64.8848 40.4522H60.7756C60.7181 40.4522 60.6754 40.4055 60.6806 40.3479L60.6839 40.3102C60.6889 40.2526 60.7397 40.2059 60.7973 40.2059H64.9064C64.964 40.2059 65.0066 40.2526 65.0015 40.3102L64.9982 40.3479C64.993 40.4055 64.9423 40.4522 64.8848 40.4522Z" fill="#263238"/>
<path d="M64.9346 41.0853H59.9374C59.8798 41.0853 59.8372 41.0386 59.8422 40.981L59.8455 40.9433C59.8505 40.8857 59.9013 40.839 59.9589 40.839H64.9561C65.0137 40.839 65.0563 40.8857 65.0513 40.9433L65.048 40.981C65.0429 41.0387 64.9922 41.0853 64.9346 41.0853Z" fill="#263238"/>
<path d="M65.0905 41.7185H59.8822C59.8246 41.7185 59.782 41.6718 59.787 41.6142L59.7903 41.5765C59.7953 41.5189 59.8462 41.4722 59.9037 41.4722H65.112C65.1696 41.4722 65.2122 41.5189 65.2071 41.5765L65.2038 41.6142C65.1988 41.6718 65.1481 41.7185 65.0905 41.7185Z" fill="#263238"/>
<path d="M64.5076 42.3516H59.8269C59.7694 42.3516 59.7267 42.3048 59.7319 42.2473L59.7352 42.2095C59.7402 42.152 59.791 42.1053 59.8486 42.1053H64.5293C64.5868 42.1053 64.6295 42.152 64.6243 42.2095L64.621 42.2473C64.616 42.3048 64.5652 42.3516 64.5076 42.3516Z" fill="#263238"/>
<path d="M64.5576 42.9847H60.5541C60.4965 42.9847 60.4539 42.9379 60.4589 42.8804L60.4622 42.8426C60.4672 42.7851 60.518 42.7383 60.5756 42.7383H64.5791C64.6367 42.7383 64.6793 42.7851 64.6743 42.8426L64.671 42.8804C64.666 42.9381 64.6152 42.9847 64.5576 42.9847Z" fill="#263238"/>
<path d="M65.2409 43.6178H59.7161C59.6585 43.6178 59.6159 43.5711 59.621 43.5136L59.6243 43.4758C59.6293 43.4182 59.6802 43.3715 59.7377 43.3715H65.2626C65.3201 43.3715 65.3628 43.4182 65.3576 43.4758L65.3543 43.5136C65.3493 43.5711 65.2985 43.6178 65.2409 43.6178Z" fill="#263238"/>
<path d="M64.5523 44.2509H59.6605C59.603 44.2509 59.5603 44.2042 59.5653 44.1466L59.5686 44.1089C59.5737 44.0513 59.6245 44.0046 59.682 44.0046H64.5738C64.6314 44.0046 64.674 44.0513 64.6689 44.1089L64.6656 44.1466C64.6607 44.2043 64.6099 44.2509 64.5523 44.2509Z" fill="#263238"/>
<g opacity="0.3">
<path d="M65.684 38.5527H61.0033C60.9457 38.5527 60.9031 38.506 60.9081 38.4485L60.9114 38.4107C60.9164 38.3532 60.9673 38.3064 61.0248 38.3064H65.7055C65.7631 38.3064 65.8057 38.3532 65.8006 38.4107L65.7973 38.4485C65.7924 38.5061 65.7416 38.5527 65.684 38.5527Z" fill="white"/>
<path d="M64.8901 39.1859H60.1039C60.0463 39.1859 60.0037 39.1392 60.0087 39.0817L60.012 39.0439C60.017 38.9864 60.0678 38.9396 60.1254 38.9396H64.9116C64.9691 38.9396 65.0118 38.9864 65.0066 39.0439L65.0033 39.0817C64.9983 39.1392 64.9476 39.1859 64.8901 39.1859Z" fill="white"/>
<path d="M65.573 39.819H60.0481C59.9905 39.819 59.9479 39.7723 59.9531 39.7147L59.9564 39.677C59.9614 39.6194 60.0122 39.5727 60.0697 39.5727H65.5946C65.6522 39.5727 65.6948 39.6194 65.6896 39.677L65.6863 39.7147C65.6813 39.7724 65.6305 39.819 65.573 39.819Z" fill="white"/>
<path d="M64.8848 40.4522H60.7756C60.7181 40.4522 60.6754 40.4055 60.6806 40.3479L60.6839 40.3102C60.6889 40.2526 60.7397 40.2059 60.7973 40.2059H64.9064C64.964 40.2059 65.0066 40.2526 65.0015 40.3102L64.9982 40.3479C64.993 40.4055 64.9423 40.4522 64.8848 40.4522Z" fill="white"/>
<path d="M64.9346 41.0853H59.9374C59.8798 41.0853 59.8372 41.0386 59.8422 40.981L59.8455 40.9433C59.8505 40.8857 59.9013 40.839 59.9589 40.839H64.9561C65.0137 40.839 65.0563 40.8857 65.0513 40.9433L65.048 40.981C65.0429 41.0387 64.9922 41.0853 64.9346 41.0853Z" fill="white"/>
<path d="M65.0905 41.7185H59.8822C59.8246 41.7185 59.782 41.6718 59.787 41.6142L59.7903 41.5765C59.7953 41.5189 59.8462 41.4722 59.9037 41.4722H65.112C65.1696 41.4722 65.2122 41.5189 65.2071 41.5765L65.2038 41.6142C65.1988 41.6718 65.1481 41.7185 65.0905 41.7185Z" fill="white"/>
<path d="M64.5076 42.3516H59.8269C59.7694 42.3516 59.7267 42.3048 59.7319 42.2473L59.7352 42.2095C59.7402 42.152 59.791 42.1053 59.8486 42.1053H64.5293C64.5868 42.1053 64.6295 42.152 64.6243 42.2095L64.621 42.2473C64.616 42.3048 64.5652 42.3516 64.5076 42.3516Z" fill="white"/>
<path d="M64.5576 42.9847H60.5541C60.4965 42.9847 60.4539 42.9379 60.4589 42.8804L60.4622 42.8426C60.4672 42.7851 60.518 42.7383 60.5756 42.7383H64.5791C64.6367 42.7383 64.6793 42.7851 64.6743 42.8426L64.671 42.8804C64.666 42.9381 64.6152 42.9847 64.5576 42.9847Z" fill="white"/>
<path d="M65.2409 43.6178H59.7161C59.6585 43.6178 59.6159 43.5711 59.621 43.5136L59.6243 43.4758C59.6293 43.4182 59.6802 43.3715 59.7377 43.3715H65.2626C65.3201 43.3715 65.3628 43.4182 65.3576 43.4758L65.3543 43.5136C65.3493 43.5711 65.2985 43.6178 65.2409 43.6178Z" fill="white"/>
<path d="M64.5523 44.2509H59.6605C59.603 44.2509 59.5603 44.2042 59.5653 44.1466L59.5686 44.1089C59.5737 44.0513 59.6245 44.0046 59.682 44.0046H64.5738C64.6314 44.0046 64.674 44.0513 64.6689 44.1089L64.6656 44.1466C64.6607 44.2043 64.6099 44.2509 64.5523 44.2509Z" fill="white"/>
</g>
<path d="M62.479 36.2459C62.4244 36.8707 61.8736 37.3773 61.2487 37.3773C60.6239 37.3773 60.1617 36.8708 60.2163 36.2459C60.2709 35.621 60.8218 35.1145 61.4467 35.1145L61.3477 36.2459H62.479Z" fill="#2B586B"/>
<path opacity="0.3" d="M62.479 36.2459C62.4244 36.8707 61.8736 37.3773 61.2487 37.3773C60.6239 37.3773 60.1617 36.8708 60.2163 36.2459C60.2709 35.621 60.8218 35.1145 61.4467 35.1145L61.3477 36.2459H62.479Z" fill="black"/>
<path d="M61.6854 34.9221C62.3103 34.9221 62.7724 35.4286 62.7178 36.0535H61.5864L61.6854 34.9221Z" fill="#2B586B"/>
<path d="M64.7374 37.1699C64.1127 37.1699 63.6504 36.6634 63.7051 36.0385C63.7597 35.4136 64.3106 34.9072 64.9354 34.9072C65.5602 34.9072 66.0225 35.4136 65.9678 36.0385H64.8364L64.7374 37.1699Z" fill="#2B586B"/>
<path opacity="0.3" d="M64.7374 37.1699C64.1127 37.1699 63.6504 36.6634 63.7051 36.0385C63.7597 35.4136 64.3106 34.9072 64.9354 34.9072C65.5602 34.9072 66.0225 35.4136 65.9678 36.0385H64.8364L64.7374 37.1699Z" fill="white"/>
<path d="M66.141 36.2607C66.0864 36.8856 65.5355 37.3921 64.9106 37.3921L65.0096 36.2607H66.141Z" fill="#2B586B"/>
<path d="M67.7806 67.5419V68.4205C67.7806 68.6563 67.5895 68.8474 67.3537 68.8474C67.118 68.8474 66.9268 68.6563 66.9268 68.4205V68.0884C66.9268 67.9601 66.8228 67.8562 66.6946 67.8562H58.8531C58.7247 67.8562 58.6209 67.9602 58.6209 68.0884V68.4205C58.6209 68.6563 58.4297 68.8474 58.194 68.8474C57.9582 68.8474 57.7671 68.6563 57.7671 68.4205V67.5419C57.7671 67.2304 58.0196 66.9779 58.3311 66.9779H67.2168C67.5281 66.9779 67.7806 67.2304 67.7806 67.5419Z" fill="#263238"/>
<path opacity="0.5" d="M67.7806 67.5419V68.4205C67.7806 68.6563 67.5895 68.8474 67.3537 68.8474C67.118 68.8474 66.9268 68.6563 66.9268 68.4205V68.0884C66.9268 67.9601 66.8228 67.8562 66.6946 67.8562H58.8531C58.7247 67.8562 58.6209 67.9602 58.6209 68.0884V68.4205C58.6209 68.6563 58.4297 68.8474 58.194 68.8474C57.9582 68.8474 57.7671 68.6563 57.7671 68.4205V67.5419C57.7671 67.2304 58.0196 66.9779 58.3311 66.9779H67.2168C67.5281 66.9779 67.7806 67.2304 67.7806 67.5419Z" fill="white"/>
<path d="M58.0849 70.1053C58.4322 70.1053 58.7138 69.8237 58.7138 69.4764C58.7138 69.1291 58.4322 68.8476 58.0849 68.8476C57.7376 68.8476 57.4561 69.1291 57.4561 69.4764C57.4561 69.8237 57.7376 70.1053 58.0849 70.1053Z" fill="#263238"/>
<path d="M67.4619 70.1053C67.8092 70.1053 68.0907 69.8237 68.0907 69.4764C68.0907 69.1291 67.8092 68.8476 67.4619 68.8476C67.1146 68.8476 66.833 69.1291 66.833 69.4764C66.833 69.8237 67.1146 70.1053 67.4619 70.1053Z" fill="#263238"/>
<path d="M62.122 67.8563H63.4248V53.6837H62.122V67.8563Z" fill="#263238"/>
<path opacity="0.5" d="M62.122 67.8563H63.4248V53.6837H62.122V67.8563Z" fill="white"/>
<path opacity="0.2" d="M63.4249 53.7401H62.1221V54.6808H63.4249V53.7401Z" fill="black"/>
<g opacity="0.2">
<path d="M63.7695 66.9779H63.4253V67.8562H63.7695V66.9779Z" fill="black"/>
<path d="M62.1221 66.9779H61.7778V67.8562H62.1221V66.9779Z" fill="black"/>
</g>
<path d="M47.1831 67.5419V68.4205C47.1831 68.6563 46.9919 68.8474 46.7561 68.8474C46.5203 68.8474 46.3292 68.6563 46.3292 68.4205V68.0884C46.3292 67.9601 46.2252 67.8562 46.097 67.8562H38.2554C38.1272 67.8562 38.0232 67.9602 38.0232 68.0884V68.4205C38.0232 68.6563 37.8321 68.8474 37.5963 68.8474C37.3606 68.8474 37.1694 68.6563 37.1694 68.4205V67.5419C37.1694 67.2304 37.4219 66.9779 37.7335 66.9779H46.6192C46.9306 66.9779 47.1831 67.2304 47.1831 67.5419Z" fill="#263238"/>
<path opacity="0.5" d="M47.1831 67.5419V68.4205C47.1831 68.6563 46.9919 68.8474 46.7561 68.8474C46.5203 68.8474 46.3292 68.6563 46.3292 68.4205V68.0884C46.3292 67.9601 46.2252 67.8562 46.097 67.8562H38.2554C38.1272 67.8562 38.0232 67.9602 38.0232 68.0884V68.4205C38.0232 68.6563 37.8321 68.8474 37.5963 68.8474C37.3606 68.8474 37.1694 68.6563 37.1694 68.4205V67.5419C37.1694 67.2304 37.4219 66.9779 37.7335 66.9779H46.6192C46.9306 66.9779 47.1831 67.2304 47.1831 67.5419Z" fill="white"/>
<path d="M37.4877 70.1053C37.835 70.1053 38.1166 69.8237 38.1166 69.4764C38.1166 69.1291 37.835 68.8476 37.4877 68.8476C37.1404 68.8476 36.8589 69.1291 36.8589 69.4764C36.8589 69.8237 37.1404 70.1053 37.4877 70.1053Z" fill="#263238"/>
<path d="M46.8647 70.1053C47.212 70.1053 47.4935 69.8237 47.4935 69.4764C47.4935 69.1291 47.212 68.8476 46.8647 68.8476C46.5174 68.8476 46.2358 69.1291 46.2358 69.4764C46.2358 69.8237 46.5174 70.1053 46.8647 70.1053Z" fill="#263238"/>
<path d="M41.5248 67.8563H42.8276V53.6837H41.5248V67.8563Z" fill="#263238"/>
<path opacity="0.5" d="M41.5248 67.8563H42.8276V53.6837H41.5248V67.8563Z" fill="white"/>
<path opacity="0.2" d="M42.8277 53.7401H41.5249V54.6808H42.8277V53.7401Z" fill="black"/>
<g opacity="0.2">
<path d="M43.1719 66.9779H42.8276V67.8562H43.1719V66.9779Z" fill="black"/>
<path d="M41.5249 66.9779H41.1807V67.8562H41.5249V66.9779Z" fill="black"/>
</g>
<path d="M56.0909 52.0486L70.5639 45.0358H50.1307L35.6577 52.0486H56.0909Z" fill="#375C71"/>
<path opacity="0.4" d="M56.0909 52.0486L70.5639 45.0358H50.1307L35.6577 52.0486H56.0909Z" fill="white"/>
<path d="M56.0909 52.0486H35.6577V52.9257H56.0909V52.0486Z" fill="#375C71"/>
<path d="M70.5638 45.9129L56.0908 52.9257V52.0486L70.5638 45.0358V45.9129Z" fill="#375C71"/>
<path opacity="0.2" d="M70.5638 45.9129L56.0908 52.9257V52.0486L70.5638 45.0358V45.9129Z" fill="white"/>
<path d="M56.0909 52.8828H70.8678V53.7601H56.0909H35.6577V52.8828H56.0909Z" fill="#263238"/>
<path opacity="0.5" d="M56.0909 52.8828H70.8678V53.7601H56.0909H35.6577V52.8828H56.0909Z" fill="white"/>
<path opacity="0.4" d="M64.6662 52.8828H70.8677V53.7601H64.6662H56.0908V52.8828H64.6662Z" fill="white"/>
<path d="M60.6909 53.3215H60.8014C60.9746 53.3215 61.1149 53.1811 61.1149 53.008V50.3662C61.1149 50.1931 60.9746 50.0527 60.8014 50.0527H60.6909C60.5178 50.0527 60.3774 50.1931 60.3774 50.3662V53.008C60.3774 53.1811 60.5179 53.3215 60.6909 53.3215Z" fill="#375C71"/>
<path opacity="0.2" d="M60.6909 53.3215H60.8014C60.9746 53.3215 61.1149 53.1811 61.1149 53.008V50.3662C61.1149 50.1931 60.9746 50.0527 60.8014 50.0527H60.6909C60.5178 50.0527 60.3774 50.1931 60.3774 50.3662V53.008C60.3774 53.1811 60.5179 53.3215 60.6909 53.3215Z" fill="black"/>
<path opacity="0.6" d="M60.5908 50.4603C60.5908 50.5461 60.6603 50.6156 60.7461 50.6156C60.8319 50.6156 60.9013 50.5461 60.9013 50.4603C60.9013 50.3745 60.8317 50.3051 60.7461 50.3051C60.6604 50.3051 60.5908 50.3745 60.5908 50.4603Z" fill="white"/>
<path opacity="0.6" d="M60.5908 52.8828C60.5908 52.9686 60.6603 53.038 60.7461 53.038C60.8319 53.038 60.9013 52.9685 60.9013 52.8828C60.9013 52.7971 60.8317 52.7276 60.7461 52.7276C60.6604 52.7276 60.5908 52.7971 60.5908 52.8828Z" fill="white"/>
<path d="M47.1826 50.6009H40.1616L47.3981 47.0945H54.4192L47.1826 50.6009Z" fill="#263238"/>
<path opacity="0.9" d="M47.1826 50.6009H40.1616L47.3981 47.0945H54.4192L47.1826 50.6009Z" fill="white"/>
<path d="M47.4348 47.7761H51.8741C51.9148 47.7761 51.948 47.743 51.948 47.7022C51.948 47.6614 51.9148 47.6283 51.8741 47.6283H47.4348C47.394 47.6283 47.3608 47.6614 47.3608 47.7022C47.3608 47.743 47.394 47.7761 47.4348 47.7761Z" fill="#263238"/>
<path d="M47.3273 48.158H51.086C51.1268 48.158 51.16 48.1249 51.16 48.0841C51.16 48.0433 51.1268 48.0102 51.086 48.0102H47.3273C47.2866 48.0102 47.2534 48.0433 47.2534 48.0841C47.2534 48.1249 47.2864 48.158 47.3273 48.158Z" fill="#263238"/>
<path d="M45.8586 48.5397H50.2979C50.3387 48.5397 50.3718 48.5066 50.3718 48.4658C50.3718 48.425 50.3387 48.3919 50.2979 48.3919H45.8586C45.8178 48.3919 45.7847 48.425 45.7847 48.4658C45.7847 48.5067 45.8178 48.5397 45.8586 48.5397Z" fill="#263238"/>
<path d="M45.592 48.9216H49.5097C49.5505 48.9216 49.5837 48.8885 49.5837 48.8477C49.5837 48.8069 49.5505 48.7738 49.5097 48.7738H45.592C45.5512 48.7738 45.5181 48.8069 45.5181 48.8477C45.5181 48.8885 45.5512 48.9216 45.592 48.9216Z" fill="#263238"/>
<path d="M43.923 49.3035H48.7218C48.7626 49.3035 48.7957 49.2704 48.7957 49.2296C48.7957 49.1888 48.7626 49.1557 48.7218 49.1557H43.923C43.8823 49.1557 43.8491 49.1888 43.8491 49.2296C43.8491 49.2704 43.8823 49.3035 43.923 49.3035Z" fill="#263238"/>
<path d="M43.4948 49.6853H47.9341C47.9749 49.6853 48.008 49.6521 48.008 49.6113C48.008 49.5705 47.9749 49.5374 47.9341 49.5374H43.4948C43.454 49.5374 43.4209 49.5705 43.4209 49.6113C43.4209 49.6523 43.4539 49.6853 43.4948 49.6853Z" fill="#263238"/>
<path d="M43.176 50.0671H47.1459C47.1867 50.0671 47.2198 50.034 47.2198 49.9932C47.2198 49.9524 47.1867 49.9193 47.1459 49.9193H43.176C43.1352 49.9193 43.1021 49.9524 43.1021 49.9932C43.1021 50.034 43.1352 50.0671 43.176 50.0671Z" fill="#263238"/>
<g opacity="0.4">
<path d="M47.4348 47.7761H51.8741C51.9148 47.7761 51.948 47.743 51.948 47.7022C51.948 47.6614 51.9148 47.6283 51.8741 47.6283H47.4348C47.394 47.6283 47.3608 47.6614 47.3608 47.7022C47.3608 47.743 47.394 47.7761 47.4348 47.7761Z" fill="white"/>
<path d="M47.3273 48.158H51.086C51.1268 48.158 51.16 48.1249 51.16 48.0841C51.16 48.0433 51.1268 48.0102 51.086 48.0102H47.3273C47.2866 48.0102 47.2534 48.0433 47.2534 48.0841C47.2534 48.1249 47.2864 48.158 47.3273 48.158Z" fill="white"/>
<path d="M45.8586 48.5397H50.2979C50.3387 48.5397 50.3718 48.5066 50.3718 48.4658C50.3718 48.425 50.3387 48.3919 50.2979 48.3919H45.8586C45.8178 48.3919 45.7847 48.425 45.7847 48.4658C45.7847 48.5067 45.8178 48.5397 45.8586 48.5397Z" fill="white"/>
<path d="M45.592 48.9216H49.5097C49.5505 48.9216 49.5837 48.8885 49.5837 48.8477C49.5837 48.8069 49.5505 48.7738 49.5097 48.7738H45.592C45.5512 48.7738 45.5181 48.8069 45.5181 48.8477C45.5181 48.8885 45.5512 48.9216 45.592 48.9216Z" fill="white"/>
<path d="M43.923 49.3035H48.7218C48.7626 49.3035 48.7957 49.2704 48.7957 49.2296C48.7957 49.1888 48.7626 49.1557 48.7218 49.1557H43.923C43.8823 49.1557 43.8491 49.1888 43.8491 49.2296C43.8491 49.2704 43.8823 49.3035 43.923 49.3035Z" fill="white"/>
<path d="M43.4948 49.6853H47.9341C47.9749 49.6853 48.008 49.6521 48.008 49.6113C48.008 49.5705 47.9749 49.5374 47.9341 49.5374H43.4948C43.454 49.5374 43.4209 49.5705 43.4209 49.6113C43.4209 49.6523 43.4539 49.6853 43.4948 49.6853Z" fill="white"/>
<path d="M43.176 50.0671H47.1459C47.1867 50.0671 47.2198 50.034 47.2198 49.9932C47.2198 49.9524 47.1867 49.9193 47.1459 49.9193H43.176C43.1352 49.9193 43.1021 49.9524 43.1021 49.9932C43.1021 50.034 43.1352 50.0671 43.176 50.0671Z" fill="white"/>
</g>
<path d="M56.0196 50.9089H48.9985L56.2352 47.4024H63.2561L56.0196 50.9089Z" fill="#263238"/>
<path opacity="0.7" d="M56.0196 50.9089H48.9985L56.2352 47.4024H63.2561L56.0196 50.9089Z" fill="white"/>
<path d="M56.2722 48.0841H60.7115C60.7522 48.0841 60.7854 48.051 60.7854 48.0102C60.7854 47.9694 60.7522 47.9362 60.7115 47.9362H56.2722C56.2314 47.9362 56.1982 47.9694 56.1982 48.0102C56.1982 48.051 56.2314 48.0841 56.2722 48.0841Z" fill="#263238"/>
<path d="M56.1647 48.466H59.9234C59.9642 48.466 59.9974 48.4328 59.9974 48.392C59.9974 48.3512 59.9642 48.3181 59.9234 48.3181H56.1647C56.124 48.3181 56.0908 48.3512 56.0908 48.392C56.0908 48.4328 56.124 48.466 56.1647 48.466Z" fill="#263238"/>
<path d="M54.696 48.8477H59.1353C59.1761 48.8477 59.2092 48.8146 59.2092 48.7738C59.2092 48.733 59.1761 48.6999 59.1353 48.6999H54.696C54.6552 48.6999 54.6221 48.733 54.6221 48.7738C54.6221 48.8147 54.6552 48.8477 54.696 48.8477Z" fill="#263238"/>
<path d="M54.4294 49.2296H58.3471C58.3879 49.2296 58.4211 49.1965 58.4211 49.1557C58.4211 49.1149 58.3879 49.0818 58.3471 49.0818H54.4294C54.3886 49.0818 54.3555 49.1149 54.3555 49.1557C54.3555 49.1965 54.3885 49.2296 54.4294 49.2296Z" fill="#263238"/>
<path d="M52.7604 49.6115H57.5592C57.6 49.6115 57.6331 49.5783 57.6331 49.5375C57.6331 49.4968 57.6 49.4636 57.5592 49.4636H52.7604C52.7197 49.4636 52.6865 49.4968 52.6865 49.5375C52.6865 49.5783 52.7197 49.6115 52.7604 49.6115Z" fill="#263238"/>
<path d="M52.3317 49.9932H56.771C56.8118 49.9932 56.8449 49.9601 56.8449 49.9193C56.8449 49.8785 56.8118 49.8454 56.771 49.8454H52.3317C52.2909 49.8454 52.2578 49.8785 52.2578 49.9193C52.2578 49.9601 52.2909 49.9932 52.3317 49.9932Z" fill="#263238"/>
<path d="M52.0134 50.375H55.9833C56.0241 50.375 56.0572 50.3418 56.0572 50.301C56.0572 50.2602 56.0241 50.2271 55.9833 50.2271H52.0134C51.9726 50.2271 51.9395 50.2602 51.9395 50.301C51.9395 50.342 51.9725 50.375 52.0134 50.375Z" fill="#263238"/>
<g opacity="0.4">
<path d="M56.2722 48.0841H60.7115C60.7522 48.0841 60.7854 48.051 60.7854 48.0102C60.7854 47.9694 60.7522 47.9362 60.7115 47.9362H56.2722C56.2314 47.9362 56.1982 47.9694 56.1982 48.0102C56.1982 48.051 56.2314 48.0841 56.2722 48.0841Z" fill="white"/>
<path d="M56.1647 48.466H59.9234C59.9642 48.466 59.9974 48.4328 59.9974 48.392C59.9974 48.3512 59.9642 48.3181 59.9234 48.3181H56.1647C56.124 48.3181 56.0908 48.3512 56.0908 48.392C56.0908 48.4328 56.124 48.466 56.1647 48.466Z" fill="white"/>
<path d="M54.696 48.8477H59.1353C59.1761 48.8477 59.2092 48.8146 59.2092 48.7738C59.2092 48.733 59.1761 48.6999 59.1353 48.6999H54.696C54.6552 48.6999 54.6221 48.733 54.6221 48.7738C54.6221 48.8147 54.6552 48.8477 54.696 48.8477Z" fill="white"/>
<path d="M54.4294 49.2296H58.3471C58.3879 49.2296 58.4211 49.1965 58.4211 49.1557C58.4211 49.1149 58.3879 49.0818 58.3471 49.0818H54.4294C54.3886 49.0818 54.3555 49.1149 54.3555 49.1557C54.3555 49.1965 54.3885 49.2296 54.4294 49.2296Z" fill="white"/>
<path d="M52.7604 49.6115H57.5592C57.6 49.6115 57.6331 49.5783 57.6331 49.5375C57.6331 49.4968 57.6 49.4636 57.5592 49.4636H52.7604C52.7197 49.4636 52.6865 49.4968 52.6865 49.5375C52.6865 49.5783 52.7197 49.6115 52.7604 49.6115Z" fill="white"/>
<path d="M52.3317 49.9932H56.771C56.8118 49.9932 56.8449 49.9601 56.8449 49.9193C56.8449 49.8785 56.8118 49.8454 56.771 49.8454H52.3317C52.2909 49.8454 52.2578 49.8785 52.2578 49.9193C52.2578 49.9601 52.2909 49.9932 52.3317 49.9932Z" fill="white"/>
<path d="M52.0134 50.375H55.9833C56.0241 50.375 56.0572 50.3418 56.0572 50.301C56.0572 50.2602 56.0241 50.2271 55.9833 50.2271H52.0134C51.9726 50.2271 51.9395 50.2602 51.9395 50.301C51.9395 50.342 51.9725 50.375 52.0134 50.375Z" fill="white"/>
</g>
<path d="M57.7916 49.6315H50.7705L58.007 46.1251H65.0281L57.7916 49.6315Z" fill="#263238"/>
<path opacity="0.9" d="M57.7916 49.6315H50.7705L58.007 46.1251H65.0281L57.7916 49.6315Z" fill="white"/>
<path d="M58.0436 46.8067H62.4829C62.5237 46.8067 62.5569 46.7736 62.5569 46.7328C62.5569 46.692 62.5237 46.6589 62.4829 46.6589H58.0436C58.0029 46.6589 57.9697 46.692 57.9697 46.7328C57.9697 46.7736 58.0029 46.8067 58.0436 46.8067Z" fill="#263238"/>
<path d="M57.9362 47.1887H61.6949C61.7357 47.1887 61.7688 47.1556 61.7688 47.1148C61.7688 47.074 61.7357 47.0409 61.6949 47.0409H57.9362C57.8954 47.0409 57.8623 47.074 57.8623 47.1148C57.8623 47.1556 57.8954 47.1887 57.9362 47.1887Z" fill="#263238"/>
<path d="M56.4675 47.5705H60.9068C60.9476 47.5705 60.9807 47.5373 60.9807 47.4966C60.9807 47.4558 60.9476 47.4226 60.9068 47.4226H56.4675C56.4267 47.4226 56.3936 47.4558 56.3936 47.4966C56.3936 47.5373 56.4267 47.5705 56.4675 47.5705Z" fill="#263238"/>
<path d="M56.2009 47.9522H60.1186C60.1594 47.9522 60.1926 47.9191 60.1926 47.8783C60.1926 47.8375 60.1594 47.8044 60.1186 47.8044H56.2009C56.1601 47.8044 56.127 47.8375 56.127 47.8783C56.127 47.9191 56.1601 47.9522 56.2009 47.9522Z" fill="#263238"/>
<path d="M54.5319 48.3341H59.3307C59.3714 48.3341 59.4046 48.301 59.4046 48.2602C59.4046 48.2194 59.3714 48.1862 59.3307 48.1862H54.5319C54.4911 48.1862 54.458 48.2194 54.458 48.2602C54.458 48.3011 54.4911 48.3341 54.5319 48.3341Z" fill="#263238"/>
<path d="M54.1037 48.716H58.5431C58.5839 48.716 58.617 48.6828 58.617 48.642C58.617 48.6012 58.5839 48.5681 58.5431 48.5681H54.1037C54.0629 48.5681 54.0298 48.6012 54.0298 48.642C54.0298 48.6828 54.0628 48.716 54.1037 48.716Z" fill="#263238"/>
<path d="M53.7849 49.0977H57.7548C57.7955 49.0977 57.8287 49.0646 57.8287 49.0238C57.8287 48.983 57.7955 48.9499 57.7548 48.9499H53.7849C53.7441 48.9499 53.7109 48.983 53.7109 49.0238C53.7109 49.0646 53.7441 49.0977 53.7849 49.0977Z" fill="#263238"/>
<g opacity="0.4">
<path d="M58.0436 46.8067H62.4829C62.5237 46.8067 62.5569 46.7736 62.5569 46.7328C62.5569 46.692 62.5237 46.6589 62.4829 46.6589H58.0436C58.0029 46.6589 57.9697 46.692 57.9697 46.7328C57.9697 46.7736 58.0029 46.8067 58.0436 46.8067Z" fill="white"/>
<path d="M57.9362 47.1887H61.6949C61.7357 47.1887 61.7688 47.1556 61.7688 47.1148C61.7688 47.074 61.7357 47.0409 61.6949 47.0409H57.9362C57.8954 47.0409 57.8623 47.074 57.8623 47.1148C57.8623 47.1556 57.8954 47.1887 57.9362 47.1887Z" fill="white"/>
<path d="M56.4675 47.5705H60.9068C60.9476 47.5705 60.9807 47.5373 60.9807 47.4966C60.9807 47.4558 60.9476 47.4226 60.9068 47.4226H56.4675C56.4267 47.4226 56.3936 47.4558 56.3936 47.4966C56.3936 47.5373 56.4267 47.5705 56.4675 47.5705Z" fill="white"/>
<path d="M56.2009 47.9522H60.1186C60.1594 47.9522 60.1926 47.9191 60.1926 47.8783C60.1926 47.8375 60.1594 47.8044 60.1186 47.8044H56.2009C56.1601 47.8044 56.127 47.8375 56.127 47.8783C56.127 47.9191 56.1601 47.9522 56.2009 47.9522Z" fill="white"/>
<path d="M54.5319 48.3341H59.3307C59.3714 48.3341 59.4046 48.301 59.4046 48.2602C59.4046 48.2194 59.3714 48.1862 59.3307 48.1862H54.5319C54.4911 48.1862 54.458 48.2194 54.458 48.2602C54.458 48.3011 54.4911 48.3341 54.5319 48.3341Z" fill="white"/>
<path d="M54.1037 48.716H58.5431C58.5839 48.716 58.617 48.6828 58.617 48.642C58.617 48.6012 58.5839 48.5681 58.5431 48.5681H54.1037C54.0629 48.5681 54.0298 48.6012 54.0298 48.642C54.0298 48.6828 54.0628 48.716 54.1037 48.716Z" fill="white"/>
<path d="M53.7849 49.0977H57.7548C57.7955 49.0977 57.8287 49.0646 57.8287 49.0238C57.8287 48.983 57.7955 48.9499 57.7548 48.9499H53.7849C53.7441 48.9499 53.7109 48.983 53.7109 49.0238C53.7109 49.0646 53.7441 49.0977 53.7849 49.0977Z" fill="white"/>
</g>
<path d="M44.5673 48.7354L44.9605 48.8415L44.8544 48.4483L42.5799 46.1738C42.5006 46.0945 42.3721 46.0945 42.2928 46.1738C42.2136 46.253 42.2136 46.3816 42.2928 46.4609L44.5673 48.7354Z" fill="#263238"/>
<path opacity="0.8" d="M44.5673 48.7354L44.9605 48.8415L44.8544 48.4483L42.5799 46.1738C42.5006 46.0945 42.3721 46.0945 42.2928 46.1738C42.2136 46.253 42.2136 46.3816 42.2928 46.4609L44.5673 48.7354Z" fill="white"/>
<path opacity="0.2" d="M42.5801 46.1739L44.8546 48.4484L44.9607 48.8416L42.293 46.1739C42.3723 46.0946 42.5007 46.0946 42.5801 46.1739Z" fill="black"/>
<path d="M42.8017 46.3962L42.5146 46.6832L42.6306 46.7991L42.9176 46.5121L42.8017 46.3962Z" fill="#00425F"/>
<path d="M41.5107 66.0997L41.3602 68.8819L40.351 68.9595L40.0854 66.1169L41.5107 66.0997Z" fill="#FF8B7B"/>
<path d="M41.5622 68.8711C41.5515 68.8695 41.5429 68.8614 41.5404 68.8509C41.5387 68.8399 41.5434 68.829 41.5528 68.8229C41.5698 68.8135 41.9534 68.5916 42.1365 68.6397C42.1706 68.6489 42.1999 68.6704 42.2187 68.7003C42.2429 68.7342 42.2429 68.7797 42.2187 68.8137C42.1255 68.8816 42.0106 68.9127 41.8959 68.9006C41.7841 68.9006 41.6723 68.8907 41.5622 68.8711ZM41.646 68.8353C41.851 68.8601 42.1288 68.8555 42.1801 68.7841C42.1801 68.7747 42.194 68.7593 42.1801 68.7267C42.1694 68.7075 42.1505 68.6943 42.1288 68.6909C42.1123 68.6885 42.0956 68.6885 42.0792 68.6909C41.927 68.7116 41.7801 68.7606 41.646 68.8353Z" fill="#00425F"/>
<path d="M41.5422 68.8695C41.5344 68.8643 41.5298 68.8555 41.5298 68.8462C41.5401 68.6897 41.5994 68.5404 41.699 68.4194C41.7386 68.3846 41.791 68.3683 41.8434 68.3744C41.9148 68.3744 41.9381 68.4163 41.9412 68.4458C41.9645 68.57 41.7022 68.8106 41.5718 68.8696C41.5718 68.8696 41.5718 68.8696 41.5609 68.8696C41.5547 68.8717 41.5481 68.8717 41.5422 68.8695ZM41.8263 68.4239C41.7933 68.4235 41.7613 68.4351 41.7362 68.4565C41.6551 68.5522 41.6046 68.67 41.5918 68.7949C41.7284 68.7141 41.9023 68.5263 41.893 68.4502C41.893 68.4502 41.893 68.4254 41.8418 68.4223L41.8263 68.4239Z" fill="#00425F"/>
<path d="M41.4487 68.7189H40.2998C40.2548 68.7193 40.2161 68.7509 40.2066 68.7949L39.997 69.7746C39.9749 69.8575 40.0242 69.9425 40.107 69.9645C40.1107 69.9655 40.1144 69.9664 40.1181 69.967H40.1523C40.5854 69.9562 40.9115 69.9391 41.4503 69.936C42.0868 69.936 41.9253 70.009 42.6737 70.0136C43.1255 70.0136 43.2031 69.5044 43.0121 69.4796C42.1365 69.3756 42.0434 69.1131 41.7033 68.8027C41.6315 68.7446 41.541 68.7149 41.4487 68.7189Z" fill="#263238"/>
<path opacity="0.1" d="M41.4099 67.9581L40.2579 67.9612L40.1523 66.8388L41.4719 66.8232L41.4099 67.9581Z" fill="black"/>
<path d="M30.6742 53.8395C30.6742 53.8395 30.0858 56.7613 32.5373 57.3064C34.9888 57.8514 39.5438 57.2598 39.5438 57.2598C39.5438 57.2598 39.0237 58.8464 40.1649 67.4117H41.5233C41.5233 67.4117 42.7871 57.786 41.9658 56.2832C41.1446 54.7803 36.1935 54.0677 30.6742 53.8395Z" fill="#577AFA"/>
<path d="M30.6742 53.8395C30.6742 53.8395 30.0858 56.7613 32.5373 57.3064C34.9888 57.8514 39.5438 57.2598 39.5438 57.2598C39.5438 57.2598 39.0237 58.8464 40.1649 67.4117H41.5233C41.5233 67.4117 42.7871 57.786 41.9658 56.2832C41.1446 54.7803 36.1935 54.0677 30.6742 53.8395Z" fill="#00425F"/>
<path d="M41.6537 67.0374L41.5776 67.5763L40.0856 67.5793L40.0127 67.0623L41.6537 67.0374Z" fill="#00425F"/>
<path opacity="0.3" d="M41.6537 67.0374L41.5776 67.5763L40.0856 67.5793L40.0127 67.0623L41.6537 67.0374Z" fill="white"/>
<path opacity="0.1" d="M42.2138 57.7248H42.2233C42.1893 57.0589 42.1096 56.5462 41.9659 56.283C41.1446 54.7802 36.1935 54.0675 30.6742 53.8393C30.6742 53.8393 30.0859 56.7611 32.5372 57.3061C34.9887 57.851 39.5438 57.2595 39.5438 57.2595C39.5438 57.2595 39.5433 57.2613 39.5431 57.2619C39.5422 57.2627 39.5408 57.2642 39.5408 57.2642C39.5408 57.2642 39.4538 57.5312 39.429 58.4317C40.4055 58.4829 41.0762 58.5264 41.0762 58.5264C41.0762 58.5264 41.0156 59.329 42.0325 62.5257C42.1769 60.8055 42.278 58.9881 42.2138 57.7248Z" fill="black"/>
<path d="M33.5397 45.5304L33.6528 45.9141C33.6928 46.046 33.7356 46.1773 33.7799 46.3081C33.8657 46.5708 33.9594 46.8301 34.0583 47.0844C34.1603 47.3368 34.2615 47.5899 34.3812 47.8259C34.4412 47.9434 34.4985 48.0631 34.5636 48.1738L34.6118 48.2576C34.6267 48.283 34.6468 48.3207 34.6556 48.3313L34.6877 48.3813L34.7269 48.4299C34.9426 48.6992 35.4285 48.9081 35.9383 49.0262C36.4511 49.1469 37.0243 49.2065 37.569 49.2311L37.5885 49.2321C37.788 49.2412 37.9423 49.4101 37.9332 49.6096C37.9256 49.775 37.8076 49.9095 37.654 49.9453C37.3375 50.0189 37.0406 50.0577 36.7273 50.0845C36.4169 50.1072 36.1017 50.1121 35.78 50.0868C35.4582 50.063 35.1301 50.0057 34.7947 49.9009C34.6278 49.844 34.4595 49.7741 34.2925 49.6844C34.1263 49.5919 33.9605 49.4786 33.8098 49.3357L33.6994 49.2236C33.6646 49.1835 33.6309 49.1417 33.5972 49.0999C33.5593 49.0539 33.543 49.0277 33.517 48.9925L33.4449 48.8924C33.3954 48.8259 33.3513 48.7582 33.3076 48.6903C33.2638 48.6226 33.2177 48.5546 33.1792 48.4852C33.0135 48.2096 32.8702 47.9294 32.7408 47.6441C32.61 47.3598 32.4961 47.071 32.3939 46.779C32.3446 46.6323 32.2973 46.4852 32.2527 46.3367C32.2065 46.1855 32.1681 46.0444 32.129 45.8745C32.0391 45.4838 32.2829 45.0943 32.6736 45.0044C33.0492 44.9179 33.4237 45.1399 33.532 45.5043L33.5397 45.5304Z" fill="#FF8B7B"/>
<path d="M37.4046 49.2727L38.495 48.8605L38.1655 50.0379C38.1655 50.0379 37.2926 50.1599 37.2671 49.7045L37.4046 49.2727Z" fill="#FF8B7B"/>
<path d="M39.3954 49.4714L38.9699 50.2716L38.1655 50.0379L38.4949 48.8605L39.3954 49.4714Z" fill="#FF8B7B"/>
<path d="M32.4971 47.8297L34.3871 47.2088C34.3871 47.2088 33.9624 43.9925 32.5393 44.3315C30.9553 44.709 32.4971 47.8297 32.4971 47.8297Z" fill="#00425F"/>
<path d="M37.4106 41.2407L37.7886 41.9725C37.6143 42.061 37.4083 42.0622 37.2329 41.9759L37.4106 41.2407Z" fill="#FF5652"/>
<path d="M37.7841 41.1376C37.7284 41.1363 37.6731 41.1176 37.6279 41.0849C37.6438 41.0766 37.657 41.0692 37.6727 41.0609C37.7106 41.084 37.7463 41.1145 37.7841 41.1376Z" fill="#263238"/>
<path d="M37.7054 41.1974C37.6926 41.2865 37.6466 41.3552 37.5876 41.3514C37.5286 41.3476 37.4839 41.2659 37.4928 41.181C37.502 41.096 37.5516 41.0231 37.6105 41.0285C37.6692 41.0338 37.7118 41.1089 37.7054 41.1974Z" fill="#263238"/>
<path d="M37.3458 40.7308C37.3574 40.7415 37.3737 40.7455 37.389 40.7416C37.5036 40.7092 37.6267 40.7342 37.7198 40.8085C37.7386 40.8259 37.7681 40.8249 37.7856 40.8059L37.7858 40.8057C37.8024 40.7865 37.8012 40.7576 37.7831 40.7397C37.6675 40.6444 37.5129 40.6105 37.368 40.6488C37.3426 40.6554 37.3272 40.6811 37.3334 40.7066C37.3351 40.7157 37.3395 40.724 37.3458 40.7308Z" fill="#263238"/>
<path d="M34.3358 40.3423C34.1897 41.5243 34.0949 42.0204 34.5798 42.7299C35.3682 43.5096 36.7901 43.7216 37.2813 42.6048C37.7278 41.6024 37.8926 39.8427 36.835 39.1576C36.0815 38.6696 35.075 38.8849 34.587 39.6383C34.4498 39.8503 34.3637 40.0912 34.3358 40.3423Z" fill="#FF8B7B"/>
<path opacity="0.2" d="M35.7412 43.3451L35.7495 43.2868C35.7802 43.161 35.9287 42.9345 36.0508 42.9803L36.5068 43.3108C36.2583 43.3849 35.9953 43.3966 35.7412 43.3451Z" fill="#263238"/>
<path d="M35.812 43.0495L35.2385 44.7725L33.6406 44.3219L34.4511 42.4229L35.812 43.0495Z" fill="#FF8B7B"/>
<path d="M33.2062 44.1616C33.2062 44.1616 33.144 43.2246 33.7908 43.2014C34.4378 43.1783 36.5327 43.2831 36.0161 44.0659L33.2062 44.1616Z" fill="#00425F"/>
<path d="M45.4339 65.5828L45.8624 68.3774L44.8331 68.5744L43.9233 65.9709L45.4339 65.5828Z" fill="#FF8B7B"/>
<path d="M46.0537 68.3586C46.0425 68.3549 46.0342 68.3454 46.0319 68.3338C46.0307 68.3234 46.0356 68.3132 46.0443 68.3074C46.0645 68.298 46.521 68.0822 46.7274 68.1522C46.766 68.1643 46.7983 68.1911 46.8174 68.2268C46.8452 68.2641 46.8452 68.3152 46.8174 68.3526C46.7039 68.4197 46.5702 68.4446 46.4402 68.4224C46.3098 68.4122 46.1805 68.391 46.0537 68.3586ZM46.1531 68.326C46.3875 68.3694 46.7058 68.3881 46.7742 68.312C46.7835 68.3027 46.7928 68.2856 46.7742 68.2484C46.7635 68.226 46.7427 68.2099 46.7183 68.205C46.7004 68.1984 46.6815 68.1947 46.6625 68.1942C46.4857 68.2058 46.3131 68.2505 46.1531 68.326Z" fill="#00425F"/>
<path d="M46.0443 68.3556C46.0361 68.3494 46.032 68.3393 46.0335 68.3292C46.0335 68.3136 46.0925 67.9861 46.2617 67.8635C46.311 67.8277 46.3726 67.8136 46.4325 67.8247C46.5133 67.8387 46.5365 67.8805 46.5381 67.9131C46.5552 68.0529 46.2277 68.2982 46.0723 68.354H46.0599C46.055 68.3558 46.0496 68.3564 46.0443 68.3556ZM46.4077 67.8898C46.3701 67.8865 46.3326 67.8969 46.3021 67.9193C46.2015 68.0175 46.1338 68.1444 46.1081 68.2826C46.2633 68.2034 46.4853 68.0093 46.4823 67.9255C46.4823 67.9177 46.4823 67.8961 46.4249 67.8883L46.4077 67.8898Z" fill="#00425F"/>
<path d="M45.937 68.1786L44.5584 68.0886C44.5074 68.0854 44.4606 68.1175 44.4451 68.1662L44.1206 69.2375C44.0926 69.3329 44.1474 69.433 44.2428 69.461L44.2432 69.4611C44.2562 69.4624 44.2691 69.4624 44.282 69.4611C44.7803 69.4859 45.2229 69.4875 45.8346 69.5295C46.5643 69.5777 46.3733 69.6491 47.2318 69.7173C47.7489 69.7577 47.8823 69.1941 47.6649 69.1522C46.6698 68.9644 46.586 68.6632 46.2241 68.2889C46.1438 68.2206 46.0425 68.1818 45.937 68.1786Z" fill="#263238"/>
<path opacity="0.1" d="M44.1221 66.5422L45.5007 66.0253L45.7087 67.3806L44.521 67.6833L44.1221 66.5422Z" fill="black"/>
<path d="M31.418 54.0241C31.418 54.0241 31.1075 57.2843 33.6179 57.2347C36.1284 57.1851 41.3387 57.5142 41.3387 57.5142C41.3387 57.5142 41.2099 59.1784 44.3537 67.2269L45.6719 66.9054C45.6719 66.9054 44.6069 57.2517 43.4533 55.9911C42.2997 54.7305 36.8411 52.9249 31.418 54.0241Z" fill="#00425F"/>
<path d="M45.7166 66.5034L45.7725 67.0452L44.324 67.4023L44.1284 66.918L45.7166 66.5034Z" fill="#00425F"/>
<path opacity="0.3" d="M45.7166 66.5034L45.7725 67.0452L44.324 67.4023L44.1284 66.918L45.7166 66.5034Z" fill="white"/>
<path d="M30.5469 54.1219C30.5469 54.1219 35.4136 53.9331 36.6288 53.6296C36.6288 53.6296 36.0476 52.2062 36.2843 50.0449C36.5209 47.8837 37.2972 48.5667 37.142 46.5519C36.9868 44.5372 37.5142 43.8671 34.8391 43.84C32.0723 43.8121 31.5448 44.8304 31.0054 47.426C30.4661 50.0217 30.6277 51.8314 30.5469 54.1219Z" fill="#00425F"/>
<path opacity="0.5" d="M30.5469 54.1219C30.5469 54.1219 35.4136 53.9331 36.6288 53.6296C36.6288 53.6296 36.0476 52.2062 36.2843 50.0449C36.5209 47.8837 37.2972 48.5667 37.142 46.5519C36.9868 44.5372 37.5142 43.8671 34.8391 43.84C32.0723 43.8121 31.5448 44.8304 31.0054 47.426C30.4661 50.0217 30.6277 51.8314 30.5469 54.1219Z" fill="white"/>
<path d="M37.4577 45.2994L37.6831 45.6299C37.7616 45.7431 37.8425 45.8551 37.9249 45.966C38.0871 46.1896 38.2558 46.4077 38.4279 46.6195C38.6026 46.8285 38.7763 47.0382 38.9627 47.2262C39.056 47.3195 39.1472 47.416 39.243 47.5014L39.3146 47.5664C39.3366 47.5859 39.3673 47.6157 39.3789 47.623L39.4248 47.6608L39.4771 47.6949C39.765 47.885 40.2915 47.9349 40.8129 47.891C41.3382 47.8486 41.9019 47.7294 42.4278 47.5859L42.4467 47.5808C42.6393 47.5282 42.8381 47.6418 42.8906 47.8343C42.9342 47.9942 42.8631 48.1583 42.7277 48.2396C42.4489 48.4067 42.1783 48.5347 41.8885 48.6562C41.5999 48.773 41.3013 48.8742 40.9874 48.9488C40.6738 49.0248 40.3441 49.0709 39.9927 49.0741C39.8162 49.0712 39.6347 49.0563 39.4483 49.0221C39.2618 48.9849 39.0692 48.9281 38.8819 48.8382L38.7425 48.7653C38.6971 48.7377 38.6521 48.7083 38.6073 48.679C38.5572 48.6468 38.5335 48.6269 38.4979 48.6014L38.3986 48.5283C38.3312 48.4801 38.2685 48.4293 38.2059 48.378C38.1435 48.327 38.0788 48.2764 38.0209 48.2222C37.7786 48.0106 37.5564 47.7879 37.3457 47.5561C37.134 47.3256 36.937 47.0856 36.7502 46.8391C36.6584 46.7146 36.5682 46.5891 36.4802 46.4614C36.3899 46.3318 36.31 46.2092 36.2208 46.0595C36.0154 45.7152 36.128 45.2696 36.4724 45.0643C36.8033 44.867 37.2278 44.9633 37.4427 45.2768L37.4577 45.2994Z" fill="#FF8B7B"/>
<path d="M42.2836 47.6972L43.3356 47.0442L43.2333 48.339C43.2333 48.339 42.3484 48.6448 42.2285 48.1753L42.2836 47.6972Z" fill="#FF8B7B"/>
<path d="M44.3995 47.4966L44.1198 48.4178L43.2334 48.339L43.3357 47.0442L44.3995 47.4966Z" fill="#FF8B7B"/>
<path d="M36.9573 47.534L38.5658 46.3634C38.5658 46.3634 37.1753 43.4323 35.9247 44.1915C34.5328 45.0363 36.9573 47.534 36.9573 47.534Z" fill="#00425F"/>
<g opacity="0.6">
<path d="M33.1938 47.5088V47.283C33.1911 47.2803 33.1895 47.2787 33.1868 47.276H32.9679C32.8587 47.276 32.7703 47.1875 32.7703 47.0784V46.8595C32.7677 46.8569 32.7661 46.8553 32.7633 46.8525L32.5443 46.8524C32.4351 46.8524 32.3467 46.7639 32.3467 46.6548V46.4359C32.3439 46.4333 32.3425 46.4317 32.3397 46.4289H32.1139C32.0612 46.4289 32.0186 46.3863 32.0186 46.3336C32.0186 46.2809 32.0612 46.2383 32.1139 46.2383H32.3397C32.4489 46.2383 32.5373 46.3268 32.5373 46.4359V46.6548C32.54 46.6574 32.5415 46.659 32.5443 46.6618L32.7633 46.6619C32.8725 46.6619 32.9609 46.7503 32.9609 46.8595V47.0784C32.9635 47.0811 32.9651 47.0826 32.9679 47.0854L33.1869 47.0855C33.2961 47.0855 33.3845 47.1739 33.3845 47.2831V47.5089C33.3845 47.5616 33.3419 47.6042 33.2892 47.6042C33.2364 47.6041 33.1938 47.5613 33.1938 47.5088Z" fill="white"/>
<path d="M35.6688 51.7522V51.5264C35.6662 51.5237 35.6646 51.5221 35.6619 51.5194L35.443 51.5192C35.3338 51.5192 35.2454 51.4307 35.2454 51.3216V51.1028C35.2426 51.1001 35.2412 51.0986 35.2384 51.0958H35.0194C34.9102 51.0958 34.8218 51.0073 34.8218 50.8982V50.6793C34.8192 50.6766 34.8176 50.6751 34.8148 50.6723H34.589C34.5363 50.6723 34.4937 50.6297 34.4937 50.577C34.4937 50.5244 34.5363 50.4817 34.589 50.4817H34.8148C34.924 50.4817 35.0124 50.5702 35.0124 50.6793V50.8982C35.0151 50.901 35.0166 50.9024 35.0194 50.9052H35.2384C35.3476 50.9052 35.436 50.9936 35.436 51.1028V51.3216C35.4388 51.3243 35.4402 51.3259 35.443 51.3286L35.662 51.3288C35.7711 51.3288 35.8596 51.4172 35.8596 51.5264V51.7522C35.8596 51.8049 35.817 51.8475 35.7643 51.8475C35.7116 51.8475 35.6688 51.8049 35.6688 51.7522Z" fill="white"/>
<path d="M34.3615 44.848L34.2018 44.6882C34.198 44.6882 34.1957 44.6882 34.1921 44.6882L34.0372 44.8429C33.96 44.92 33.8349 44.92 33.7578 44.8429L33.6029 44.6882C33.5991 44.6882 33.5969 44.6882 33.5932 44.6882L33.4383 44.8429C33.3611 44.92 33.2361 44.92 33.1589 44.8429L33.0041 44.6882C33.0002 44.6882 32.998 44.6882 32.9943 44.6882L32.8346 44.848C32.7973 44.8852 32.737 44.8852 32.6998 44.848C32.6626 44.8107 32.6626 44.7504 32.6998 44.7132L32.8595 44.5535C32.9367 44.4762 33.0617 44.4762 33.139 44.5535L33.2938 44.7082C33.2976 44.7082 33.2999 44.7082 33.3037 44.7082L33.4585 44.5535C33.5357 44.4764 33.6608 44.4764 33.738 44.5535L33.8928 44.7082C33.8966 44.7082 33.8987 44.7082 33.9026 44.7082L34.0574 44.5533C34.1346 44.4762 34.2596 44.4762 34.3369 44.5533L34.4966 44.713C34.5338 44.7503 34.5338 44.8106 34.4966 44.8478C34.4591 44.8852 34.3988 44.8852 34.3615 44.848Z" fill="white"/>
<path d="M32.7732 50.7868L32.6134 50.627C32.6096 50.627 32.6075 50.627 32.6037 50.627L32.4488 50.7817C32.3716 50.8588 32.2465 50.8588 32.1694 50.7817L32.0146 50.627C32.0107 50.627 32.0086 50.627 32.0048 50.627L31.85 50.7819C31.7727 50.859 31.6477 50.859 31.5705 50.7819L31.4157 50.6272C31.4118 50.6272 31.4096 50.6272 31.4059 50.6272L31.2462 50.7869C31.209 50.8241 31.1486 50.8241 31.1114 50.7869C31.0742 50.7497 31.0742 50.6893 31.1114 50.6521L31.2711 50.4924C31.3484 50.4152 31.4734 50.4152 31.5506 50.4924L31.7054 50.6471C31.7092 50.6471 31.7114 50.6471 31.7152 50.6471L31.87 50.4924C31.9472 50.4153 32.0722 50.4153 32.1495 50.4924L32.3043 50.6471C32.3081 50.6471 32.3104 50.6471 32.3141 50.6471L32.4689 50.4924C32.5461 50.4153 32.6711 50.4153 32.7483 50.4924L32.9081 50.6521C32.9453 50.6893 32.9453 50.7497 32.9081 50.7869C32.8708 50.8238 32.8105 50.824 32.7732 50.7868Z" fill="white"/>
<path d="M31.3716 48.9983V47.8783H31.4669C31.7756 47.8783 32.0268 48.1295 32.0268 48.4382C32.0268 48.747 31.7756 48.9982 31.4669 48.9982L31.3716 48.9983ZM31.5622 48.0814V48.7951C31.7198 48.753 31.8361 48.609 31.8361 48.4383C31.8361 48.2677 31.7198 48.1235 31.5622 48.0814Z" fill="white"/>
<path d="M35.3989 49.9676V48.8476H35.4942C35.803 48.8476 36.0542 49.0988 36.0542 49.4075C36.0542 49.7163 35.803 49.9675 35.4942 49.9675H35.3989V49.9676ZM35.5895 49.0508V49.7644C35.747 49.7223 35.8634 49.5783 35.8634 49.4076C35.8636 49.237 35.7471 49.093 35.5895 49.0508Z" fill="white"/>
<path d="M34.085 46.8253V45.7053H34.1803C34.489 45.7053 34.7402 45.9565 34.7402 46.2652C34.7402 46.574 34.489 46.8252 34.1803 46.8252L34.085 46.8253ZM34.2756 45.9084V46.6222C34.433 46.5801 34.5495 46.436 34.5495 46.2654C34.5495 46.0947 34.4332 45.9507 34.2756 45.9084Z" fill="white"/>
<path d="M33.8601 52.1304H32.7402V52.0351C32.7402 51.7264 32.9914 51.4752 33.3002 51.4752C33.6089 51.4752 33.8601 51.7264 33.8601 52.0351V52.1304ZM32.9433 51.9397H33.6568C33.6147 51.7822 33.4707 51.6658 33.3 51.6658C33.1294 51.6658 32.9854 51.7822 32.9433 51.9397Z" fill="white"/>
<path d="M31.7783 53.2474L30.9863 52.4555L31.0538 52.3881C31.2721 52.1697 31.6273 52.1697 31.8456 52.3881C32.064 52.6064 32.064 52.9616 31.8456 53.1799L31.7783 53.2474ZM31.2648 52.4643L31.7695 52.969C31.8511 52.8279 31.8315 52.6436 31.7109 52.523C31.5902 52.4022 31.4061 52.3826 31.2648 52.4643Z" fill="white"/>
<path d="M35.8492 47.7963H35.3639C35.2779 47.7963 35.1986 47.7495 35.1571 47.674C35.1157 47.5985 35.1186 47.5063 35.1646 47.4337L35.4072 47.052C35.4508 46.9835 35.5253 46.9424 35.6064 46.9424C35.6876 46.9424 35.7621 46.9833 35.8056 47.0518L36.0482 47.4337C36.0944 47.5064 36.0973 47.5986 36.0559 47.674C36.0144 47.7495 35.9352 47.7963 35.8492 47.7963ZM35.3255 47.536C35.3126 47.5565 35.3203 47.5751 35.3241 47.5822C35.328 47.5893 35.3397 47.6057 35.3638 47.6057H35.849C35.8732 47.6057 35.8848 47.5892 35.8888 47.5822C35.8926 47.5751 35.9003 47.5565 35.8873 47.536L35.6447 47.1543C35.6331 47.1361 35.6157 47.1333 35.6064 47.1333C35.5971 47.1333 35.5798 47.1361 35.5681 47.1544L35.3255 47.536Z" fill="white"/>
<path d="M33.8658 49.4076H33.3805C33.2945 49.4076 33.2152 49.3606 33.1737 49.2853C33.1323 49.2098 33.1352 49.1176 33.1812 49.045L33.4238 48.6633C33.4674 48.5948 33.5419 48.5539 33.623 48.5539C33.7042 48.5539 33.7787 48.5948 33.8222 48.6633L34.0648 49.0452C34.111 49.1179 34.1139 49.21 34.0725 49.2854C34.0312 49.3608 33.952 49.4076 33.8658 49.4076ZM33.3423 49.1472C33.3293 49.1677 33.3369 49.1863 33.3408 49.1934C33.3448 49.2005 33.3564 49.2169 33.3805 49.2169H33.8658C33.8899 49.2169 33.9017 49.2004 33.9055 49.1934C33.9093 49.1863 33.917 49.1677 33.9041 49.1472L33.6614 48.7655C33.6498 48.7472 33.6324 48.7445 33.6232 48.7445C33.6139 48.7445 33.5965 48.7472 33.5849 48.7656L33.3423 49.1472Z" fill="white"/>
<path d="M35.2149 53.4346H34.7297C34.6436 53.4346 34.5643 53.3877 34.5228 53.3122C34.4814 53.2367 34.4843 53.1446 34.5305 53.0718L34.7731 52.6901C34.8166 52.6216 34.8911 52.5807 34.9723 52.5807C35.0535 52.5807 35.1279 52.6216 35.1715 52.6901L35.4141 53.072C35.4603 53.1447 35.4632 53.2368 35.4217 53.3123C35.3803 53.3876 35.3011 53.4346 35.2149 53.4346ZM34.6914 53.1741C34.6784 53.1946 34.686 53.2132 34.6899 53.2203C34.6939 53.2275 34.7055 53.244 34.7297 53.244H35.2149C35.239 53.244 35.2508 53.2275 35.2546 53.2203C35.2584 53.2132 35.2661 53.1946 35.2532 53.1741L35.0106 52.7924C34.9989 52.7742 34.9815 52.7714 34.9723 52.7714C34.9629 52.7714 34.9456 52.7742 34.934 52.7925L34.6914 53.1741Z" fill="white"/>
</g>
<path d="M34.3521 42.5628C34.5396 42.5619 34.9266 42.5134 35.293 42.6487C35.4186 42.6951 35.5557 42.6895 35.6382 42.5839C35.8429 42.3222 36.1938 41.9572 36.3829 41.5243C36.3829 41.5243 36.9603 41.4425 36.9913 40.7714C37.0224 40.1003 37.2713 40.0291 37.4187 40.2531C37.733 40.7306 38.2042 38.3979 35.7413 38.7472C35.7413 38.7472 34.387 38.7472 34.0242 40.3844C33.9116 40.8926 34.0485 41.452 34.1475 41.6813C34.2847 41.9988 34.2236 42.5633 34.3521 42.5628Z" fill="#263238"/>
<path d="M36.708 41.0357C36.7605 41.2733 36.7163 41.522 36.5852 41.727C36.41 41.9966 36.2614 41.9063 36.1283 41.6315C36.0073 41.382 35.9591 40.9422 36.2227 40.7668C36.4863 40.5914 36.6398 40.7451 36.708 41.0357Z" fill="#FF8B7B"/>
<path d="M37.0859 39.9106C37.0859 39.9106 38.4243 39.3099 38.1777 40.2363C37.9311 41.1627 38.1949 39.6915 37.0859 39.9106Z" fill="#263238"/>
<path d="M34.4434 39.5866C34.4434 39.5866 34.6507 40.1783 35.2897 39.7603C35.9288 39.3422 35.8321 38.8317 35.5174 38.7473L34.4434 39.5866Z" fill="#00425F"/>
<path d="M34.0187 37.7539C34.0187 37.7539 33.0326 37.1026 32.7676 38.3389C32.6321 38.9707 32.4096 39.3339 32.2244 39.5381C32.1016 39.6736 32.2459 39.8906 32.4124 39.8149C32.497 39.7765 32.5813 39.7091 32.6562 39.5973C32.6562 39.5973 32.5899 40.1955 32.2055 40.4149C32.097 40.4768 32.0434 40.5803 32.0226 40.697C31.9905 40.8757 32.2214 40.9723 32.3281 40.8254C32.3949 40.7334 32.4836 40.6492 32.6012 40.5911C33.0345 40.377 33.2088 39.9817 33.2088 39.9817C33.2088 39.9817 33.1769 40.3485 32.9635 40.683C32.8853 40.8056 33.0215 40.9464 33.1459 40.8709C33.2595 40.802 33.3766 40.7024 33.4789 40.5584C33.4789 40.5584 33.4037 40.7243 33.3703 40.9191C33.3436 41.0747 33.5641 41.1382 33.6249 40.9925C33.7173 40.7711 33.8669 40.5095 34.1021 40.3146C34.5992 39.9023 36.146 39.1178 35.3595 38.4168C35.3595 38.4168 35.3224 37.5489 34.0187 37.7539Z" fill="#263238"/>
<path d="M33.3551 66.4477V57.8789H32.3209V66.4675L29.6855 67.1627C29.2314 67.2826 28.915 67.6932 28.915 68.1629V68.3751C28.915 68.5895 29.0888 68.7632 29.3031 68.7632C29.5175 68.7632 29.6912 68.5895 29.6912 68.3751C29.6912 68.1264 29.8587 67.9089 30.0992 67.8455L32.3208 67.2595V68.3753C32.3208 68.5896 32.4945 68.7633 32.7089 68.7633H32.9668C33.1811 68.7633 33.3549 68.5896 33.3549 68.3753V67.2423L35.5674 67.855C35.8072 67.9214 35.972 68.141 35.969 68.3896C35.9663 68.604 36.1379 68.7798 36.3523 68.7825C36.5667 68.7851 36.7425 68.6135 36.7451 68.3991L36.7478 68.1869C36.7536 67.7172 36.4422 67.3028 35.9896 67.1774L33.3551 66.4477Z" fill="#263238"/>
<path opacity="0.5" d="M33.3551 66.4477V57.8789H32.3209V66.4675L29.6855 67.1627C29.2314 67.2826 28.915 67.6932 28.915 68.1629V68.3751C28.915 68.5895 29.0888 68.7632 29.3031 68.7632C29.5175 68.7632 29.6912 68.5895 29.6912 68.3751C29.6912 68.1264 29.8587 67.9089 30.0992 67.8455L32.3208 67.2595V68.3753C32.3208 68.5896 32.4945 68.7633 32.7089 68.7633H32.9668C33.1811 68.7633 33.3549 68.5896 33.3549 68.3753V67.2423L35.5674 67.855C35.8072 67.9214 35.972 68.141 35.969 68.3896C35.9663 68.604 36.1379 68.7798 36.3523 68.7825C36.5667 68.7851 36.7425 68.6135 36.7451 68.3991L36.7478 68.1869C36.7536 67.7172 36.4422 67.3028 35.9896 67.1774L33.3551 66.4477Z" fill="white"/>
<path d="M29.2914 70.1052C29.6387 70.1052 29.9203 69.8237 29.9203 69.4764C29.9203 69.1291 29.6387 68.8475 29.2914 68.8475C28.9441 68.8475 28.6626 69.1291 28.6626 69.4764C28.6626 69.8237 28.9441 70.1052 29.2914 70.1052Z" fill="#263238"/>
<path d="M36.372 70.1052C36.7193 70.1052 37.0009 69.8237 37.0009 69.4764C37.0009 69.1291 36.7193 68.8475 36.372 68.8475C36.0247 68.8475 35.7432 69.1291 35.7432 69.4764C35.7432 69.8237 36.0247 70.1052 36.372 70.1052Z" fill="#263238"/>
<path d="M32.8315 70.1052C33.1788 70.1052 33.4603 69.8237 33.4603 69.4764C33.4603 69.1291 33.1788 68.8475 32.8315 68.8475C32.4842 68.8475 32.2026 69.1291 32.2026 69.4764C32.2026 69.8237 32.4842 70.1052 32.8315 70.1052Z" fill="#263238"/>
<path opacity="0.2" d="M33.355 57.8789H32.3208V59.1818H33.355V57.8789Z" fill="black"/>
<path opacity="0.2" d="M31.5498 67.4629L32.2029 67.2906V66.4986L31.5498 66.6709V67.4629Z" fill="black"/>
<path opacity="0.2" d="M34.1136 66.6577L33.4604 66.4768V67.2713L34.1136 67.4523V66.6577Z" fill="black"/>
<path d="M26.0996 56.9282C27.2678 56.632 28.4656 56.4675 29.6705 56.4376C30.9125 56.4066 35.5407 56.4376 36.6414 56.4376C37.9828 56.436 39.319 56.6025 40.619 56.9329C41.4357 57.1409 41.1826 58.3208 40.4451 58.3301C40.3799 58.3301 26.3776 58.3301 26.3264 58.3301C25.547 58.3628 25.2645 57.141 26.0996 56.9282Z" fill="#2E353A"/>
<path d="M40.2309 58.3038C37.8697 57.7045 35.3961 57.7045 33.0349 58.3038C32.1454 58.5304 31.7665 57.1549 32.6561 56.9282C35.2664 56.2653 38.001 56.2653 40.6112 56.9282C41.4993 57.1549 41.122 58.532 40.2309 58.3038Z" fill="#2E353A"/>
<path opacity="0.1" d="M40.2309 58.3038C37.8697 57.7045 35.3961 57.7045 33.0349 58.3038C32.1454 58.5304 31.7665 57.1549 32.6561 56.9282C35.2664 56.2653 38.001 56.2653 40.6112 56.9282C41.4993 57.1549 41.122 58.532 40.2309 58.3038Z" fill="white"/>
<path d="M29.7807 46.7235C29.9439 46.719 30.0958 46.8067 30.1736 46.9501C32.0589 50.1085 32.7362 53.843 32.08 57.4624C32.0589 57.6512 31.9036 57.7967 31.7136 57.8054C31.428 57.824 26.3433 57.8054 26.1602 57.8054C25.8774 57.8118 25.6428 57.5876 25.6365 57.3047C25.6358 57.2728 25.6381 57.2407 25.6432 57.2092C26.2371 53.8372 25.5944 50.3642 23.833 47.4282C23.6155 47.0664 23.9354 46.728 24.2598 46.7218C24.4074 46.7205 29.4563 46.7297 29.7807 46.7235Z" fill="#2E353A"/>
<path opacity="0.1" d="M29.7807 46.7235C29.9439 46.719 30.0958 46.8067 30.1736 46.9501C32.0589 50.1085 32.7362 53.843 32.08 57.4624C32.0589 57.6512 31.9036 57.7967 31.7136 57.8054C31.428 57.824 26.3433 57.8054 26.1602 57.8054C25.8774 57.8118 25.6428 57.5876 25.6365 57.3047C25.6358 57.2728 25.6381 57.2407 25.6432 57.2092C26.2371 53.8372 25.5944 50.3642 23.833 47.4282C23.6155 47.0664 23.9354 46.728 24.2598 46.7218C24.4074 46.7205 29.4563 46.7297 29.7807 46.7235Z" fill="white"/>
<path d="M31.1627 57.2046C31.7581 53.8327 31.1153 50.3591 29.3524 47.4237C29.0419 46.8974 29.8585 46.4192 30.1737 46.944C32.0605 50.1041 32.7378 53.8411 32.0802 57.4624C31.9715 58.0649 31.0555 57.8102 31.1627 57.211V57.2046Z" fill="#2E353A"/>
</svg>
