<svg width="58" height="58" viewBox="0 0 58 58" fill="none" xmlns="http://www.w3.org/2000/svg">
<path d="M4.7998 29.1748C4.7998 25.8548 5.4302 22.7348 6.691 19.8148C7.9518 16.8948 9.6614 14.3548 11.8198 12.1948C13.9782 10.0348 16.5182 8.3252 19.4398 7.066C22.3614 5.8068 25.4814 5.1764 28.7998 5.1748C33.8798 5.1748 38.4102 6.5748 42.391 9.3748C46.3718 12.1748 49.2614 15.7948 51.0598 20.2348C51.3398 20.9148 51.3502 21.5948 51.091 22.2748C50.8318 22.9548 50.3614 23.4148 49.6798 23.6548C49.0398 23.8548 48.4302 23.7948 47.851 23.4748C47.2718 23.1548 46.8614 22.6748 46.6198 22.0348C45.6598 19.6348 44.2798 17.5148 42.4798 15.6748C40.6798 13.8348 38.5198 12.4148 35.9998 11.4148V12.3748C35.9998 13.6948 35.5302 14.8252 34.591 15.766C33.6518 16.7068 32.5214 17.1764 31.1998 17.1748H26.3998V21.9748C26.3998 22.6548 26.1694 23.2252 25.7086 23.686C25.2478 24.1468 24.6782 24.3764 23.9998 24.3748H19.1998V29.1748H21.5998C22.2798 29.1748 22.8502 29.4052 23.311 29.866C23.7718 30.3268 24.0014 30.8964 23.9998 31.5748V36.3748H21.5998L10.0798 24.8548C9.9598 25.5748 9.8502 26.2948 9.751 27.0148C9.6518 27.7348 9.6014 28.4548 9.5998 29.1748C9.5998 34.0548 11.2102 38.3148 14.431 41.9548C17.6518 45.5948 21.7014 47.6948 26.5798 48.2548C27.2198 48.3348 27.7502 48.6052 28.171 49.066C28.5918 49.5268 28.8014 50.0964 28.7998 50.7748C28.7982 51.4532 28.5678 52.0236 28.1086 52.486C27.6494 52.9484 27.0998 53.138 26.4598 53.0548C20.3398 52.4548 15.1998 49.8948 11.0398 45.3748C6.8798 40.8548 4.7998 35.4548 4.7998 29.1748ZM48.9598 50.2948L42.9598 44.2948C42.1198 44.7748 41.2198 45.1748 40.2598 45.4948C39.2998 45.8148 38.2798 45.9748 37.1998 45.9748C34.1998 45.9748 31.6502 44.9252 29.551 42.826C27.4518 40.7268 26.4014 38.1764 26.3998 35.1748C26.3982 32.1732 27.4486 29.6236 29.551 27.526C31.6534 25.4284 34.203 24.378 37.1998 24.3748C40.1966 24.3716 42.747 25.422 44.851 27.526C46.955 29.63 48.0046 32.1796 47.9998 35.1748C47.9998 36.2548 47.8398 37.2748 47.5198 38.2348C47.1998 39.1948 46.7998 40.0948 46.3198 40.9348L52.3198 46.9348C52.7598 47.3748 52.9798 47.9348 52.9798 48.6148C52.9798 49.2948 52.7598 49.8548 52.3198 50.2948C51.8798 50.7348 51.3198 50.9548 50.6398 50.9548C49.9598 50.9548 49.3998 50.7348 48.9598 50.2948ZM37.1998 41.1748C38.8798 41.1748 40.2998 40.5948 41.4598 39.4348C42.6198 38.2748 43.1998 36.8548 43.1998 35.1748C43.1998 33.4948 42.6198 32.0748 41.4598 30.9148C40.2998 29.7548 38.8798 29.1748 37.1998 29.1748C35.5198 29.1748 34.0998 29.7548 32.9398 30.9148C31.7798 32.0748 31.1998 33.4948 31.1998 35.1748C31.1998 36.8548 31.7798 38.2748 32.9398 39.4348C34.0998 40.5948 35.5198 41.1748 37.1998 41.1748Z" fill="#2B586B"/>
</svg>
