<svg width="41" height="39" viewBox="0 0 41 39" fill="none" xmlns="http://www.w3.org/2000/svg">
<path d="M40.734 19.254C40.734 8.62022 31.7347 0 20.6333 0C9.53198 0 0.532715 8.62022 0.532715 19.254C0.532715 28.8647 7.88438 36.8319 17.4972 38.2795V24.8267H12.3954V19.2649H17.4972V15.0201C17.4972 10.1984 20.497 7.53181 25.0875 7.53181C27.2919 7.53181 29.5871 7.91276 29.5871 7.91276V12.6473H27.0533C24.5535 12.6473 23.7808 14.1276 23.7808 15.6514V19.2649H29.3599L28.4736 24.8267H23.7922V38.2795C33.405 36.8319 40.7567 28.8647 40.7567 19.254H40.734Z" fill="#E1FFFD"/>
<path d="M28.462 24.8159L29.3483 19.2541H23.7692V15.6406C23.7692 14.1168 24.5532 12.6365 27.0417 12.6365H29.5756V7.90194C29.5756 7.90194 27.2803 7.521 25.0759 7.521C20.4854 7.521 17.4856 10.1876 17.4856 15.0093V19.2541H12.3838V24.8159H17.4856V38.2686C18.5083 38.421 19.5537 38.5081 20.6217 38.5081C21.6898 38.5081 22.7352 38.4319 23.7579 38.2686V24.8159H28.4393H28.462Z" fill="#00425F"/>
</svg>
