<svg width="40" height="40" viewBox="0 0 40 40" fill="none" xmlns="http://www.w3.org/2000/svg">
<path d="M38.7502 19.3749C38.7485 17.7191 38.2781 16.0977 37.3932 14.6983C36.5084 13.2988 35.2453 12.1785 33.7502 11.4671V11.2499C33.7488 9.63928 33.2289 8.07193 32.2675 6.77974C31.3061 5.48755 29.9543 4.53917 28.412 4.07492C26.8698 3.61067 25.2191 3.65522 23.7041 4.20198C22.1892 4.74874 20.8905 5.76865 20.0002 7.11082C19.1099 5.76865 17.8112 4.74874 16.2963 4.20198C14.7813 3.65522 13.1306 3.61067 11.5883 4.07492C10.0461 4.53917 8.69429 5.48755 7.7329 6.77974C6.77151 8.07193 6.25164 9.63928 6.2502 11.2499V11.4671C4.75385 12.1766 3.48956 13.2962 2.60427 14.6957C1.71898 16.0952 1.24902 17.7173 1.24902 19.3733C1.24902 21.0294 1.71898 22.6514 2.60427 24.0509C3.48956 25.4505 4.75385 26.5701 6.2502 27.2796V27.4999C6.25164 29.1105 6.77151 30.6778 7.7329 31.97C8.69429 33.2622 10.0461 34.2106 11.5883 34.6748C13.1306 35.1391 14.7813 35.0945 16.2963 34.5478C17.8112 34.001 19.1099 32.9811 20.0002 31.6389C20.8905 32.9811 22.1892 34.001 23.7041 34.5478C25.2191 35.0945 26.8698 35.1391 28.412 34.6748C29.9543 34.2106 31.3061 33.2622 32.2675 31.97C33.2289 30.6778 33.7488 29.1105 33.7502 27.4999V27.2796C35.245 26.5686 36.508 25.4489 37.3929 24.05C38.2777 22.6511 38.7483 21.0302 38.7502 19.3749ZM13.7502 32.4999C12.5173 32.4997 11.3279 32.044 10.4105 31.2204C9.49315 30.3967 8.91242 29.2631 8.77988 28.0374C9.18411 28.095 9.59188 28.1242 10.0002 28.1249H11.2502C11.5817 28.1249 11.8997 27.9932 12.1341 27.7588C12.3685 27.5243 12.5002 27.2064 12.5002 26.8749C12.5002 26.5434 12.3685 26.2254 12.1341 25.991C11.8997 25.7566 11.5817 25.6249 11.2502 25.6249H10.0002C8.52451 25.6266 7.09581 25.1061 5.96704 24.1556C4.83827 23.205 4.08224 21.8857 3.83282 20.4313C3.58339 18.9768 3.85665 17.481 4.60422 16.2087C5.35179 14.9364 6.52544 13.9696 7.91738 13.4796C8.16093 13.3933 8.37178 13.2338 8.52092 13.0228C8.67005 12.8118 8.75015 12.5598 8.7502 12.3014V11.2499C8.7502 9.9238 9.27698 8.65203 10.2147 7.71434C11.1523 6.77666 12.4241 6.24988 13.7502 6.24988C15.0763 6.24988 16.348 6.77666 17.2857 7.71434C18.2234 8.65203 18.7502 9.9238 18.7502 11.2499V21.9155C17.3776 20.681 15.5963 19.9985 13.7502 19.9999C13.4187 19.9999 13.1007 20.1316 12.8663 20.366C12.6319 20.6004 12.5002 20.9184 12.5002 21.2499C12.5002 21.5814 12.6319 21.8993 12.8663 22.1338C13.1007 22.3682 13.4187 22.4999 13.7502 22.4999C15.0763 22.4999 16.348 23.0267 17.2857 23.9643C18.2234 24.902 18.7502 26.1738 18.7502 27.4999C18.7502 28.826 18.2234 30.0977 17.2857 31.0354C16.348 31.9731 15.0763 32.4999 13.7502 32.4999ZM30.0002 25.6249H28.7502C28.4187 25.6249 28.1007 25.7566 27.8663 25.991C27.6319 26.2254 27.5002 26.5434 27.5002 26.8749C27.5002 27.2064 27.6319 27.5243 27.8663 27.7588C28.1007 27.9932 28.4187 28.1249 28.7502 28.1249H30.0002C30.4085 28.1242 30.8163 28.095 31.2205 28.0374C31.1167 28.9978 30.7368 29.9076 30.1269 30.6567C29.517 31.4058 28.7032 31.9622 27.7837 32.2587C26.8643 32.5551 25.8787 32.5788 24.9461 32.327C24.0135 32.0752 23.1738 31.5586 22.5285 30.8397C21.8833 30.1208 21.4601 29.2304 21.3101 28.2761C21.1601 27.3218 21.2898 26.3445 21.6835 25.4623C22.0772 24.5801 22.718 23.8309 23.5284 23.3052C24.3388 22.7794 25.2842 22.4997 26.2502 22.4999C26.5817 22.4999 26.8997 22.3682 27.1341 22.1338C27.3685 21.8993 27.5002 21.5814 27.5002 21.2499C27.5002 20.9184 27.3685 20.6004 27.1341 20.366C26.8997 20.1316 26.5817 19.9999 26.2502 19.9999C24.4041 19.9985 22.6228 20.681 21.2502 21.9155V11.2499C21.2502 9.9238 21.777 8.65203 22.7147 7.71434C23.6523 6.77666 24.9241 6.24988 26.2502 6.24988C27.5763 6.24988 28.8481 6.77666 29.7857 7.71434C30.7234 8.65203 31.2502 9.9238 31.2502 11.2499V12.3014C31.2502 12.5598 31.3303 12.8118 31.4795 13.0228C31.6286 13.2338 31.8395 13.3933 32.083 13.4796C33.475 13.9696 34.6486 14.9364 35.3962 16.2087C36.1437 17.481 36.417 18.9768 36.1676 20.4313C35.9182 21.8857 35.1621 23.205 34.0334 24.1556C32.9046 25.1061 31.4759 25.6266 30.0002 25.6249ZM32.5002 17.4999C32.5002 17.8314 32.3685 18.1493 32.1341 18.3838C31.8997 18.6182 31.5817 18.7499 31.2502 18.7499H30.6252C29.1334 18.7499 27.7026 18.1572 26.6477 17.1024C25.5928 16.0475 25.0002 14.6167 25.0002 13.1249V12.4999C25.0002 12.1684 25.1319 11.8504 25.3663 11.616C25.6007 11.3816 25.9187 11.2499 26.2502 11.2499C26.5817 11.2499 26.8997 11.3816 27.1341 11.616C27.3685 11.8504 27.5002 12.1684 27.5002 12.4999V13.1249C27.5002 13.9537 27.8294 14.7485 28.4155 15.3346C29.0015 15.9206 29.7964 16.2499 30.6252 16.2499H31.2502C31.5817 16.2499 31.8997 16.3816 32.1341 16.616C32.3685 16.8504 32.5002 17.1684 32.5002 17.4999ZM9.3752 18.7499H8.7502C8.41868 18.7499 8.10073 18.6182 7.86631 18.3838C7.63189 18.1493 7.5002 17.8314 7.5002 17.4999C7.5002 17.1684 7.63189 16.8504 7.86631 16.616C8.10073 16.3816 8.41868 16.2499 8.7502 16.2499H9.3752C10.204 16.2499 10.9989 15.9206 11.5849 15.3346C12.171 14.7485 12.5002 13.9537 12.5002 13.1249V12.4999C12.5002 12.1684 12.6319 11.8504 12.8663 11.616C13.1007 11.3816 13.4187 11.2499 13.7502 11.2499C14.0817 11.2499 14.3997 11.3816 14.6341 11.616C14.8685 11.8504 15.0002 12.1684 15.0002 12.4999V13.1249C15.0002 14.6167 14.4076 16.0475 13.3527 17.1024C12.2978 18.1572 10.867 18.7499 9.3752 18.7499Z" fill="#416879"/>
</svg>
