<svg width="58" height="58" viewBox="0 0 58 58" fill="none" xmlns="http://www.w3.org/2000/svg">
<path d="M15.8398 28.9899C28.015 6.30031 43.1758 6.03871 49.231 8.74351C51.9358 14.8011 51.6742 29.9595 28.9846 42.1347C28.7494 40.7811 27.4414 37.2387 24.0886 33.8859C20.7358 30.5331 17.1934 29.2251 15.8398 28.9899Z" stroke="#2B586B" stroke-width="4" stroke-linecap="round" stroke-linejoin="round"/>
<path d="M32.0402 41.0546C36.4538 43.2146 36.9242 47.0882 37.5362 50.7746C37.5362 50.7746 46.7762 43.9442 40.865 34.5746M16.9202 26.1194C14.7602 21.7058 10.8866 21.2354 7.2002 20.6234C7.2002 20.6234 14.033 11.3834 23.4002 17.2946M14.4434 36.1634C13.2146 37.3898 11.1266 40.9538 12.6002 45.3746C17.0234 46.8482 20.585 44.7602 21.8162 43.5338M41.5202 20.6546C41.5202 19.5407 41.0777 18.4724 40.29 17.6848C39.5024 16.8971 38.4341 16.4546 37.3202 16.4546C36.2063 16.4546 35.138 16.8971 34.3503 17.6848C33.5627 18.4724 33.1202 19.5407 33.1202 20.6546C33.1202 21.7685 33.5627 22.8368 34.3503 23.6245C35.138 24.4121 36.2063 24.8546 37.3202 24.8546C38.4341 24.8546 39.5024 24.4121 40.29 23.6245C41.0777 22.8368 41.5202 21.7685 41.5202 20.6546Z" stroke="#2B586B" stroke-width="4" stroke-linecap="round" stroke-linejoin="round"/>
</svg>
