<svg width="41" height="39" viewBox="0 0 41 39" fill="none" xmlns="http://www.w3.org/2000/svg">
<path d="M20.112 38.508C31.2195 38.508 40.224 29.8877 40.224 19.254C40.224 8.62031 31.2195 0 20.112 0C9.00444 0 0 8.62031 0 19.254C0 29.8877 9.00444 38.508 20.112 38.508Z" fill="#E1FFFD"/>
<path d="M26.3538 11.9731C25.5921 11.9731 24.9668 12.5609 24.9668 13.301C24.9668 14.0411 25.5807 14.6289 26.3538 14.6289C27.1269 14.6289 27.7409 14.0411 27.7409 13.301C27.7409 12.5609 27.1269 11.9731 26.3538 11.9731Z" fill="#00425F"/>
<path d="M20.2144 13.6709C17.0083 13.6709 14.4048 16.1634 14.4048 19.2327C14.4048 22.302 17.0083 24.7945 20.2144 24.7945C23.4205 24.7945 26.024 22.302 26.024 19.2327C26.024 16.1634 23.4205 13.6709 20.2144 13.6709ZM20.2144 22.7918C18.168 22.7918 16.4967 21.1918 16.4967 19.2327C16.4967 17.2735 18.168 15.6736 20.2144 15.6736C22.2609 15.6736 23.9321 17.2735 23.9321 19.2327C23.9321 21.1918 22.2609 22.7918 20.2144 22.7918Z" fill="#00425F"/>
<path d="M24.8189 30.519H15.4052C11.4943 30.519 8.32227 27.4714 8.32227 23.7382V14.7261C8.32227 10.982 11.4943 7.94531 15.4052 7.94531H24.8189C28.7299 7.94531 31.9018 10.982 31.9018 14.7261V23.7382C31.9018 27.4823 28.7185 30.519 24.8189 30.519ZM15.4052 10.0677C12.7221 10.0677 10.5392 12.1575 10.5392 14.7261V23.7382C10.5392 26.3068 12.7221 28.3966 15.4052 28.3966H24.8189C27.502 28.3966 29.6849 26.3068 29.6849 23.7382V14.7261C29.6849 12.1575 27.502 10.0677 24.8189 10.0677H15.4052Z" fill="#00425F"/>
</svg>
