<svg width="41" height="39" viewBox="0 0 41 39" fill="none" xmlns="http://www.w3.org/2000/svg">
<ellipse cx="20.1647" cy="19.254" rx="20.112" ry="19.254" fill="#E1FFFD"/>
<path d="M27.7147 10.5664H12.4005C11.6417 10.5664 11.0898 11.0947 11.0898 11.8212V26.4821C11.0898 27.1425 11.7107 27.7369 12.4005 27.7369H27.7147C28.4736 27.7369 29.0254 27.2085 29.0254 26.4821V11.8212C29.0254 11.0947 28.4046 10.5664 27.7147 10.5664ZM16.6085 25.0952H13.8492V17.1704H16.6085V25.0952ZM15.2288 16.1138C14.332 16.1138 13.5732 15.3873 13.5732 14.5288C13.5732 13.6703 14.332 12.9439 15.2288 12.9439C16.1256 12.9439 16.8844 13.6703 16.8844 14.5288C16.8844 15.3873 16.1256 16.1138 15.2288 16.1138ZM26.2661 25.0952H23.5068V21.1328C23.5068 20.0762 23.2308 19.0195 22.1271 19.0195C21.0234 19.0195 20.7475 20.0762 20.7475 21.1328V25.0952H17.9881V17.1704H20.7475V18.095H20.8854C21.2303 17.4346 22.1271 16.9063 23.1619 16.9063C25.7142 16.9063 26.2661 18.4912 26.2661 20.4724V25.0952Z" fill="#00425F"/>
</svg>
