<svg width="68" height="68" viewBox="0 0 68 68" fill="none" xmlns="http://www.w3.org/2000/svg">
<path d="M55.25 8.5H12.75C11.6228 8.5 10.5418 8.94777 9.7448 9.7448C8.94777 10.5418 8.5 11.6228 8.5 12.75V55.25C8.5 56.3772 8.94777 57.4582 9.7448 58.2552C10.5418 59.0522 11.6228 59.5 12.75 59.5H55.25C56.3772 59.5 57.4582 59.0522 58.2552 58.2552C59.0522 57.4582 59.5 56.3772 59.5 55.25V12.75C59.5 11.6228 59.0522 10.5418 58.2552 9.7448C57.4582 8.94777 56.3772 8.5 55.25 8.5ZM15.0981 20.0759C14.9731 19.8262 14.8985 19.5543 14.8786 19.2757C14.8587 18.9971 14.8939 18.7174 14.9822 18.4524C15.0705 18.1875 15.2102 17.9425 15.3933 17.7316C15.5763 17.5206 15.7992 17.3479 16.0491 17.2231L20.2991 15.0981C20.6232 14.9359 20.9833 14.8594 21.3454 14.8756C21.7074 14.8919 22.0593 15.0005 22.3675 15.1911C22.6758 15.3817 22.9302 15.6479 23.1065 15.9645C23.2828 16.2811 23.3753 16.6376 23.375 17V29.75C23.375 30.3136 23.1511 30.8541 22.7526 31.2526C22.3541 31.6511 21.8136 31.875 21.25 31.875C20.6864 31.875 20.1459 31.6511 19.7474 31.2526C19.3489 30.8541 19.125 30.3136 19.125 29.75V20.4372L17.9509 21.0269C17.7012 21.1519 17.4293 21.2265 17.1507 21.2464C16.8721 21.2663 16.5924 21.2311 16.3274 21.1428C16.0625 21.0545 15.8175 20.9148 15.6066 20.7317C15.3956 20.5487 15.2229 20.3258 15.0981 20.0759ZM24.4375 47.8125C25.0011 47.8125 25.5416 48.0364 25.9401 48.4349C26.3386 48.8334 26.5625 49.3739 26.5625 49.9375C26.5625 50.5011 26.3386 51.0416 25.9401 51.4401C25.5416 51.8386 25.0011 52.0625 24.4375 52.0625H18.0625C17.6679 52.0625 17.281 51.9526 16.9453 51.7451C16.6096 51.5377 16.3383 51.2408 16.1618 50.8878C15.9854 50.5349 15.9106 50.1397 15.9461 49.7467C15.9815 49.3536 16.1257 48.9782 16.3625 48.6625L22.1186 40.9886C22.2464 40.8097 22.3143 40.5949 22.3125 40.375C22.3121 40.1246 22.2232 39.8824 22.0616 39.6911C21.9 39.4998 21.6761 39.3718 21.4293 39.3295C21.1825 39.2873 20.9287 39.3336 20.7126 39.4602C20.4966 39.5869 20.3323 39.7857 20.2486 40.0217C20.0605 40.5532 19.669 40.9883 19.1601 41.2311C18.6512 41.474 18.0668 41.5047 17.5352 41.3166C17.0037 41.1285 16.5687 40.737 16.3258 40.2281C16.083 39.7193 16.0522 39.1348 16.2403 38.6033C16.4982 37.8876 16.9068 37.2356 17.4385 36.6914C17.9701 36.1473 18.6125 35.7236 19.322 35.4492C20.0316 35.1748 20.7918 35.056 21.5512 35.1008C22.3107 35.1456 23.0517 35.353 23.724 35.709C24.3964 36.0649 24.9844 36.5612 25.4484 37.1641C25.9124 37.767 26.2415 38.4625 26.4134 39.2036C26.5853 39.9447 26.596 40.7141 26.4449 41.4597C26.2937 42.2053 25.9842 42.9097 25.5372 43.5253L22.3125 47.8125H24.4375ZM51 48.875H31.875C31.3114 48.875 30.7709 48.6511 30.3724 48.2526C29.9739 47.8541 29.75 47.3136 29.75 46.75C29.75 46.1864 29.9739 45.6459 30.3724 45.2474C30.7709 44.8489 31.3114 44.625 31.875 44.625H51C51.5636 44.625 52.1041 44.8489 52.5026 45.2474C52.9011 45.6459 53.125 46.1864 53.125 46.75C53.125 47.3136 52.9011 47.8541 52.5026 48.2526C52.1041 48.6511 51.5636 48.875 51 48.875ZM51 36.125H31.875C31.3114 36.125 30.7709 35.9011 30.3724 35.5026C29.9739 35.1041 29.75 34.5636 29.75 34C29.75 33.4364 29.9739 32.8959 30.3724 32.4974C30.7709 32.0989 31.3114 31.875 31.875 31.875H51C51.5636 31.875 52.1041 32.0989 52.5026 32.4974C52.9011 32.8959 53.125 33.4364 53.125 34C53.125 34.5636 52.9011 35.1041 52.5026 35.5026C52.1041 35.9011 51.5636 36.125 51 36.125ZM51 23.375H31.875C31.3114 23.375 30.7709 23.1511 30.3724 22.7526C29.9739 22.3541 29.75 21.8136 29.75 21.25C29.75 20.6864 29.9739 20.1459 30.3724 19.7474C30.7709 19.3489 31.3114 19.125 31.875 19.125H51C51.5636 19.125 52.1041 19.3489 52.5026 19.7474C52.9011 20.1459 53.125 20.6864 53.125 21.25C53.125 21.8136 52.9011 22.3541 52.5026 22.7526C52.1041 23.1511 51.5636 23.375 51 23.375Z" fill="#375C71"/>
</svg>
