<svg width="64" height="65" viewBox="0 0 64 65" fill="none" xmlns="http://www.w3.org/2000/svg">
<path d="M50.666 37.7077V16.3743C50.666 13.441 48.266 11.041 45.3327 11.041H7.99935C5.06601 11.041 2.66602 13.441 2.66602 16.3743V37.7077C2.66602 40.641 5.06601 43.041 7.99935 43.041H45.3327C48.266 43.041 50.666 40.641 50.666 37.7077ZM45.3327 37.7077H7.99935V16.3743H45.3327V37.7077ZM26.666 19.041C22.2393 19.041 18.666 22.6143 18.666 27.041C18.666 31.4677 22.2393 35.041 26.666 35.041C31.0927 35.041 34.666 31.4677 34.666 27.041C34.666 22.6143 31.0927 19.041 26.666 19.041ZM61.3327 19.041V48.3744C61.3327 51.3077 58.9327 53.7077 55.9993 53.7077H10.666V48.3744H55.9993V19.041H61.3327Z" fill="#2B586B"/>
</svg>
