<svg width="25" height="7" viewBox="0 0 25 7" fill="none" xmlns="http://www.w3.org/2000/svg">
<g clip-path="url(#clip0_2868_45270)">
<path fill-rule="evenodd" clip-rule="evenodd" d="M22.0911 0.21521C22.1607 0.231722 22.2294 0.251773 22.2997 0.264073C22.8633 0.362811 23.3641 0.595502 23.7905 0.986578C23.8234 1.01691 23.8529 1.05094 23.8903 1.0902C23.6148 1.4095 23.315 1.69678 23.0353 2.01574C23.0134 1.99401 22.9966 1.97867 22.9814 1.96216C22.6865 1.63983 22.3233 1.44926 21.8956 1.39248C21.7463 1.3726 21.5935 1.37428 21.4454 1.41439C21.2233 1.47471 21.0523 1.59872 20.9863 1.8336C20.9241 2.05517 21.0058 2.27843 21.1885 2.41659C21.3541 2.54178 21.5411 2.62249 21.7339 2.69174C22.0793 2.81626 22.4286 2.93 22.7689 3.06715C23.1159 3.207 23.4399 3.39032 23.6941 3.68013C23.9283 3.94686 24.0797 4.25049 24.1294 4.60803C24.2005 5.11824 24.0721 5.57772 23.8006 6.00148C23.6343 6.2613 23.404 6.45254 23.1376 6.59779C22.8028 6.78043 22.4449 6.8849 22.065 6.90613C21.8941 6.9159 21.7226 6.92955 21.5519 6.92433C21.0587 6.90916 20.5812 6.81312 20.135 6.59122C19.8014 6.42525 19.5119 6.19711 19.269 5.90965C19.2616 5.90072 19.2572 5.88893 19.2482 5.87259C19.533 5.56946 19.8178 5.26685 20.1119 4.95395C20.149 4.99439 20.1817 5.02893 20.213 5.06465C20.4001 5.27864 20.6189 5.44798 20.8766 5.56475C21.0528 5.64444 21.2356 5.69061 21.4279 5.71572C21.6142 5.74015 21.7942 5.72296 21.9728 5.68101C22.1484 5.63973 22.3014 5.54992 22.4041 5.39541C22.6048 5.0938 22.5179 4.76355 22.2424 4.56591C22.1076 4.46919 21.9527 4.39522 21.7984 4.33305C21.549 4.23229 21.2921 4.15057 21.0387 4.05941C20.7809 3.96674 20.5275 3.86346 20.2943 3.71585C19.8826 3.45519 19.5876 3.10253 19.4804 2.61171C19.3837 2.16924 19.4501 1.74666 19.6594 1.34682C19.9173 0.853805 20.3135 0.527936 20.8282 0.346804C20.9783 0.293897 21.1322 0.254638 21.2909 0.236946C21.3047 0.235429 21.3175 0.222792 21.3308 0.21521H22.0911ZM9.39737 4.92177C9.43073 4.92767 9.44623 4.93272 9.4614 4.93272C9.8486 4.93104 10.2356 4.92918 10.6227 4.92683C10.626 4.92683 10.6299 4.92278 10.6326 4.91975C10.635 4.91688 10.6358 4.91284 10.642 4.89818L10.037 3.38611H10.0129L9.39737 4.92177ZM10.2196 0.21521C10.286 0.265927 10.3302 0.332314 10.3628 0.409821C10.5527 0.863409 10.7436 1.31649 10.9359 1.76907C11.1103 2.17986 11.2872 2.58964 11.4621 3.00009C11.6626 3.47154 11.8614 3.94383 12.0624 4.41511C12.2116 4.7649 12.3629 5.11385 12.5133 5.46298C12.6931 5.8805 12.8732 6.29787 13.0529 6.7154C13.0641 6.74151 13.0721 6.76881 13.084 6.80301H11.4085C11.3416 6.63839 11.2731 6.4704 11.2053 6.30225C11.1837 6.24867 11.1625 6.19475 11.144 6.14016C11.1241 6.08152 11.0899 6.05473 11.0252 6.0581C10.9234 6.06315 10.821 6.05961 10.7189 6.05961H9.08869C9.06425 6.05961 9.03965 6.0613 9.01522 6.05911C8.96383 6.0549 8.93485 6.07377 8.9148 6.12651C8.84572 6.30798 8.77107 6.48725 8.69812 6.66738C8.67958 6.71287 8.6597 6.75769 8.63965 6.80487H7.23103C7.23794 6.77201 7.23946 6.74421 7.2499 6.72011C7.52051 6.08961 7.79296 5.45994 8.06323 4.82927C8.39516 4.05436 8.72592 3.27878 9.0565 2.5032C9.25735 2.03192 9.45702 1.5603 9.65685 1.08852C9.75037 0.86779 9.84388 0.647062 9.93537 0.42566C9.97076 0.339727 10.0169 0.26441 10.0971 0.21521H10.2198H10.2196ZM0.90625 0.292381C1.02403 0.310578 1.10777 0.364833 1.18157 0.439982C1.49025 0.755067 1.79961 1.06965 2.1088 1.38423C2.63753 1.9224 3.16644 2.46057 3.69534 2.9984C3.71792 3.02149 3.74252 3.04255 3.77083 3.06917C3.80132 3.04103 3.82896 3.01778 3.85423 2.99217C4.6866 2.14565 5.5193 1.29897 6.35082 0.451439C6.42765 0.373258 6.51156 0.3126 6.61872 0.295076C6.62496 0.300468 6.62833 0.302827 6.63119 0.30586C6.63389 0.308556 6.63793 0.311757 6.63827 0.315127C6.64029 0.331471 6.64231 0.347984 6.64231 0.364496L6.64248 6.78802C6.55402 6.81413 5.54558 6.82306 5.32148 6.80015V3.70406C5.21146 3.78746 5.13816 3.87913 5.0556 3.96017C4.96731 4.04661 4.88171 4.13608 4.79494 4.2242L4.54354 4.48031L4.29215 4.73592C4.20521 4.82404 4.11742 4.91099 4.03132 4.99995C3.94842 5.08572 3.86754 5.1735 3.77706 5.26937L2.24612 3.7135C2.23517 3.72091 2.2318 3.72226 2.22978 3.72478C2.22725 3.72782 2.22489 3.73186 2.22438 3.73574C2.2232 3.74382 2.2227 3.75225 2.2227 3.76051C2.22186 4.76709 2.22118 5.77368 2.22017 6.7801C2.22017 6.78397 2.21748 6.78751 2.21596 6.79122C2.13137 6.81346 1.09075 6.82037 0.90625 6.79914V0.292381ZM15.1841 1.4737C15.1641 1.63747 15.169 3.11382 15.1902 3.21492C15.4598 3.20852 15.7329 3.23564 16.0027 3.18375C16.2217 3.14162 16.4071 3.03716 16.5326 2.84002C16.6096 2.71887 16.6438 2.58627 16.6597 2.44355C16.6819 2.24304 16.6499 2.05467 16.5522 1.88196C16.4049 1.62197 16.1634 1.51346 15.8831 1.48886C15.6886 1.47201 15.4925 1.47269 15.2972 1.46679C15.2615 1.46561 15.2258 1.47117 15.1841 1.4737ZM13.663 6.79493V0.326585C13.692 0.324057 13.723 0.318834 13.754 0.318834C14.4404 0.318329 15.1272 0.313779 15.8135 0.320519C16.1554 0.32372 16.4972 0.346299 16.8287 0.44352C17.2394 0.564162 17.5882 0.783374 17.8514 1.13047C18.0583 1.4036 18.1633 1.71565 18.193 2.05938C18.2159 2.32358 18.1896 2.57953 18.1141 2.83143C18 3.21121 17.7717 3.5054 17.4566 3.73405C17.4209 3.75983 17.385 3.78527 17.3412 3.81645C17.4031 3.86548 17.4541 3.90625 17.5053 3.94652C17.7023 4.10154 17.8462 4.30087 17.9724 4.51637C18.136 4.79574 18.245 5.09869 18.3493 5.40383C18.4893 5.81395 18.629 6.22423 18.7682 6.63452C18.7864 6.6881 18.8012 6.74286 18.8209 6.80807H17.2593C17.2349 6.80807 17.2103 6.80739 17.1857 6.80807C17.1473 6.80942 17.1255 6.79189 17.1166 6.75331C17.0674 6.54437 17.0209 6.33477 16.967 6.12701C16.8576 5.70729 16.7496 5.28622 16.5469 4.89987C16.4182 4.65437 16.2313 4.47829 15.9552 4.42134C15.8718 4.40399 15.7863 4.39101 15.7014 4.38815C15.5464 4.38309 15.3909 4.38646 15.2357 4.38764C15.2202 4.38764 15.2047 4.39522 15.1953 4.39775C15.1874 4.40584 15.1841 4.40837 15.182 4.41174C15.1798 4.41511 15.1783 4.41915 15.1769 4.42303C15.1756 4.4269 15.1742 4.43078 15.1739 4.43482C15.1732 4.44325 15.1727 4.4515 15.1727 4.45976C15.172 5.23332 15.1713 6.00688 15.1703 6.78043C15.1703 6.78414 15.1673 6.78785 15.1658 6.79139C15.0765 6.81279 13.7949 6.81632 13.6628 6.79476" fill="#0000A0"/>
</g>
<defs>
<clipPath id="clip0_2868_45270">
<rect width="23.2523" height="6.73979" fill="white" transform="translate(0.90625 0.19043)"/>
</clipPath>
</defs>
</svg>
