<svg width="64" height="65" viewBox="0 0 64 65" fill="none" xmlns="http://www.w3.org/2000/svg">
<path d="M16.0457 36.5719C15.6598 35.1763 15.4651 33.7347 15.4671 32.2866C15.4671 30.8039 15.6697 29.3666 16.0457 28.0013L10.1444 24.5986C8.35161 29.569 8.35161 35.0096 10.1444 39.9799L16.0457 36.5719ZM20.0511 43.4973L14.1444 46.9053C14.5462 47.3853 14.9702 47.8475 15.4164 48.2919C18.693 51.5782 22.8993 53.7795 27.4671 54.5986V47.7799C24.6515 47.052 22.0877 45.5705 20.0511 43.4946V43.4973ZM46.8884 28.0039L52.7897 24.5959C54.5825 29.5663 54.5825 35.0069 52.7897 39.9773L46.8884 36.5719C47.6616 33.7672 47.6606 30.8055 46.8857 28.0013L46.8884 28.0039ZM48.7897 17.6679L42.8804 21.0759C40.8442 19.0015 38.2813 17.5209 35.467 16.7933V9.97461C40.669 10.9075 45.3815 13.6288 48.7897 17.6679ZM35.467 47.7826C38.2826 47.0547 40.8464 45.5731 42.883 43.4973L48.7897 46.9053C45.3815 50.9445 40.669 53.6657 35.467 54.5986V47.7826Z" fill="#2B586B" stroke="#2B586B" stroke-width="0.8" stroke-linejoin="round"/>
<path d="M47.1545 36.5719C47.5404 35.1763 47.7351 33.7347 47.7331 32.2866C47.7331 30.8039 47.5305 29.3666 47.1545 28.0013L53.0558 24.5986C54.8486 29.569 54.8486 35.0095 53.0558 39.9799L47.1545 36.5719ZM43.1491 43.4973L49.0558 46.9053C48.654 47.3853 48.23 47.8475 47.7838 48.2919C44.5072 51.5782 40.3009 53.7795 35.7331 54.5986V47.7799C38.5487 47.052 41.1125 45.5705 43.1491 43.4946V43.4973ZM16.3118 28.0039L10.4105 24.5959C8.6177 29.5663 8.6177 35.0069 10.4105 39.9773L16.3118 36.5719C15.5386 33.7672 15.5396 30.8055 16.3145 28.0013L16.3118 28.0039ZM14.4105 17.6679L20.3198 21.0759C22.356 19.0015 24.9189 17.5209 27.7331 16.7933V9.97461C22.5312 10.9075 17.8187 13.6288 14.4105 17.6679ZM27.7331 47.7826C24.9176 47.0547 22.3538 45.5731 20.3171 43.4973L14.4105 46.9053C17.8187 50.9445 22.5312 53.6657 27.7331 54.5986V47.7826Z" stroke="#2B586B" stroke-width="0.8" stroke-linejoin="round"/>
</svg>
