<svg width="156" height="157" viewBox="0 0 156 157" fill="none" xmlns="http://www.w3.org/2000/svg">
<circle cx="77.9351" cy="78.9038" r="76.4351" fill="white" stroke="#2B586B" stroke-width="3"/>
<path d="M58.0574 84.2467C57.575 82.5021 57.3317 80.7001 57.3341 78.89C57.3341 77.0367 57.5874 75.24 58.0574 73.5333L50.6807 69.28C48.4398 75.493 48.4398 82.2937 50.6807 88.5067L58.0574 84.2467ZM63.0641 92.9033L55.6807 97.1633C56.1829 97.7633 56.7129 98.3411 57.2707 98.8967C61.3665 103.004 66.6243 105.756 72.3341 106.78V98.2567C68.8147 97.3467 65.6098 95.4948 63.0641 92.9V92.9033ZM96.6107 73.5367L103.987 69.2767C106.228 75.4897 106.228 82.2903 103.987 88.5033L96.6107 84.2467C97.5772 80.7408 97.576 77.0386 96.6074 73.5333L96.6107 73.5367ZM98.9874 60.6167L91.6007 64.8767C89.0555 62.2836 85.8519 60.4329 82.3341 59.5233V51C88.8365 52.1661 94.7271 55.5677 98.9874 60.6167ZM82.3341 98.26C85.8534 97.3501 89.0583 95.4981 91.6041 92.9033L98.9874 97.1633C94.7271 102.212 88.8365 105.614 82.3341 106.78V98.26Z" fill="#2B586B" stroke="#2B586B" stroke-linejoin="round"/>
<path d="M96.9426 84.2467C97.425 82.5021 97.6683 80.7001 97.6659 78.89C97.6659 77.0367 97.4126 75.24 96.9426 73.5333L104.319 69.28C106.56 75.493 106.56 82.2937 104.319 88.5067L96.9426 84.2467ZM91.9359 92.9033L99.3193 97.1633C98.8171 97.7633 98.2871 98.3411 97.7293 98.8967C93.6335 103.004 88.3757 105.756 82.6659 106.78V98.2567C86.1853 97.3467 89.3902 95.4948 91.9359 92.9V92.9033ZM58.3893 73.5367L51.0126 69.2767C48.7716 75.4897 48.7716 82.2903 51.0126 88.5033L58.3893 84.2467C57.4228 80.7408 57.424 77.0386 58.3926 73.5333L58.3893 73.5367ZM56.0126 60.6167L63.3993 64.8767C65.9445 62.2836 69.1481 60.4329 72.6659 59.5233V51C66.1635 52.1661 60.2729 55.5677 56.0126 60.6167ZM72.6659 98.26C69.1466 97.3501 65.9417 95.4981 63.3959 92.9033L56.0126 97.1633C60.2729 102.212 66.1635 105.614 72.6659 106.78V98.26Z" stroke="#2B586B" stroke-linejoin="round"/>
</svg>
