<svg width="760" height="570" viewBox="0 0 760 570" fill="none" xmlns="http://www.w3.org/2000/svg">
<path opacity="0.5" d="M367.568 560.229C525.531 560.229 653.585 486.297 653.585 395.096C653.585 303.896 525.531 229.963 367.568 229.963C209.605 229.963 81.5508 303.896 81.5508 395.096C81.5508 486.297 209.605 560.229 367.568 560.229Z" fill="url(#paint0_radial_1579_585)"/>
<path opacity="0.4" d="M330.494 299.966C329.427 299.041 327.737 298.537 326.423 298.752C321.968 299.482 311.733 302.301 305.664 313.067C298.546 325.698 307.398 335.431 309.262 337.27C306.546 340.555 304.414 342.676 303.531 343.519C300.765 341.731 297.839 339.807 294.785 337.757C289.835 334.461 284.601 330.809 279.12 326.917C277.765 325.935 276.392 324.939 275.002 323.932C274.307 323.428 273.608 322.921 272.905 322.411C272.213 321.895 271.518 321.376 270.818 320.854C269.42 319.81 268.006 318.755 266.578 317.69C265.211 316.64 263.83 315.58 262.439 314.512C263.963 313.234 266.93 310.677 270.569 307.221C273.646 307.599 290.062 309.026 297.541 297.706C303.88 288.113 298.828 280.786 296.12 277.883C295.328 277.034 293.893 276.48 292.661 276.55C288.487 276.787 278.681 278.27 271.145 286.639C262.254 296.513 268.552 305.296 269.844 306.892C266.29 310.265 263.387 312.769 261.852 314.06C259.14 311.989 256.482 309.843 253.76 307.685C252.306 306.547 250.922 305.37 249.493 304.203C248.077 303.03 246.634 301.858 245.219 300.669C240.613 296.748 236.003 292.749 231.557 288.683C232.336 288.2 233.637 287.38 235.328 286.274C237.18 285.062 239.505 283.499 242.103 281.674C244.662 282.151 260.105 284.555 268.785 274.963C276.052 266.934 272.335 260.206 270.199 257.499C269.575 256.708 268.307 256.138 267.143 256.125C263.199 256.082 253.806 256.796 245.585 263.682C236.097 271.63 240.374 279.53 241.49 281.251C236.615 284.679 232.723 287.153 231.036 288.203C230.245 287.476 229.445 286.751 228.666 286.018C221.255 279.129 214.279 272.105 207.956 265.184C209.117 264.645 212.525 262.98 216.836 260.159C217.793 259.532 218.807 258.828 219.839 258.086C222.299 258.427 234.908 259.711 241.085 251.241C246.343 244.032 242.674 238.375 240.672 236.123C240.087 235.466 238.991 235.022 238.032 235.057C234.782 235.173 227.113 236.156 220.967 242.415C213.901 249.613 218.077 256.238 219.17 257.712C213.666 261.663 209.019 263.971 207.499 264.684C204.853 261.774 202.312 258.884 199.924 256.033C198.264 254.057 196.674 252.101 195.149 250.169C195.169 250.146 195.195 250.125 195.197 250.093C195.206 249.964 195.043 249.82 194.834 249.766C194.303 249.091 193.78 248.419 193.265 247.75C193.86 246.849 196.457 242.9 199.606 237.942C202.199 238.018 214 237.832 217.517 228.431C220.551 220.324 215.678 214.83 213.232 212.704C212.518 212.082 211.383 211.742 210.5 211.885C207.504 212.369 200.62 214.249 196.514 221.465C191.726 229.88 197.549 236.39 198.845 237.682C196.01 242.144 193.629 245.78 192.763 247.096C187.8 240.594 183.639 234.436 180.288 228.897C179.674 227.894 179.072 226.911 178.485 225.951C177.901 224.99 177.433 224.049 176.922 223.132C176.786 222.881 176.658 222.648 176.524 222.401C177.735 221.67 182.062 218.357 178.207 210.051C174.805 202.719 169.176 198.76 166.729 197.31C166.007 196.882 165.085 196.759 164.506 197.015C162.526 197.887 158.592 200.651 161.125 208.334C164.104 217.366 173.964 221.672 175.892 222.438C176.017 222.677 176.136 222.903 176.263 223.146C176.758 224.066 177.209 225.011 177.777 225.975C178.348 226.939 178.932 227.925 179.528 228.932C183.141 235.106 187.75 242.057 193.345 249.407C190.213 248.652 182.47 246.794 173.576 244.721C172.43 243.418 166.45 237.391 151.362 234.057C138.35 231.183 131.436 232.56 128.912 233.362C128.168 233.599 127.976 234.219 128.449 234.858C130.066 237.04 135.12 242.154 148.783 245.961C164.607 250.371 172.036 246.184 173.509 245.185C182.907 247.374 191.032 249.328 193.794 249.994C195.367 252.048 197.012 254.13 198.74 256.237C201.629 259.773 204.736 263.37 208.013 266.994C205.957 267.17 200.261 267.61 192.419 267.852C190.83 266.718 182.247 261.145 166.688 260.802C153.419 260.509 147.897 263.645 146.042 265.128C145.493 265.565 145.648 266.313 146.411 266.928C149.025 269.034 156.288 273.676 170.638 274.878C187.268 276.27 191.766 269.825 192.566 268.361C200.63 268.115 206.459 267.659 208.454 267.488C214.2 273.814 220.477 280.216 227.104 286.509C228.546 287.892 230.014 289.266 231.497 290.634C229.629 290.91 223.964 291.722 216.11 292.634C213.997 291.423 203.373 285.923 186.855 287.324C172.658 288.529 167.633 292.88 166.06 294.85C165.595 295.431 165.961 296.296 166.94 296.933C170.289 299.116 179.273 303.753 194.864 303.497C213.265 303.194 216.083 294.751 216.454 293.136C224.531 292.198 230.3 291.365 232.022 291.11C235.786 294.568 239.65 297.978 243.512 301.335C244.915 302.539 246.346 303.726 247.752 304.914C249.171 306.098 250.545 307.291 251.989 308.442C254.852 310.758 257.643 313.064 260.505 315.278C260.86 315.557 261.208 315.828 261.562 316.106C260.256 316.578 256.554 317.862 250.687 319.507C248.135 318.328 234.901 312.839 217.1 316.574C201.888 319.766 197.608 325.678 196.437 328.267C196.091 329.032 196.736 330.04 197.988 330.699C202.27 332.951 213.416 337.508 230.423 335.301C250.754 332.662 251.223 321.798 251.157 319.988C257.122 318.317 260.857 317.015 262.132 316.554C262.999 317.233 263.871 317.917 264.728 318.588C266.148 319.669 267.555 320.74 268.946 321.799C269.642 322.329 270.335 322.856 271.022 323.38C271.723 323.898 272.418 324.412 273.11 324.924C274.494 325.948 275.861 326.957 277.21 327.955C282.668 331.91 287.885 335.62 292.824 338.973C296.147 341.249 299.317 343.368 302.298 345.326C301.049 345.833 297.22 347.338 291.326 349.254C289.209 348.293 274.103 341.942 254.249 346.716C237.831 350.665 233.504 357.375 232.378 360.297C232.046 361.16 232.807 362.27 234.212 362.973C239.017 365.381 251.449 370.19 269.885 367.295C291.523 363.898 291.797 352.127 291.632 349.787C297.809 347.786 301.769 346.219 302.935 345.744C308.508 349.395 313.385 352.455 317.252 354.828C320.284 356.687 322.701 358.126 324.367 359.1C326.022 360.074 326.952 360.595 326.952 360.595L328.803 358.902C328.803 358.902 327.937 358.427 326.29 357.477C324.645 356.535 322.243 355.132 319.219 353.314C315.194 350.892 310.058 347.729 304.168 343.933C305.036 343.108 307.203 340.959 309.97 337.612C312.808 337.735 331.574 337.98 336.961 323.401C341.429 311.305 334.144 303.129 330.494 299.966Z" fill="#0B0244"/>
<g opacity="0.7">
<path d="M292.467 343.346C292.467 343.346 281.559 367.419 247.943 367.805C222.187 368.1 211.437 357.067 207.818 351.89C206.761 350.378 206.9 348.345 208.157 346.993C212.416 342.414 224.364 332.324 248.643 329.784C280.332 326.468 292.467 343.346 292.467 343.346Z" fill="url(#paint1_linear_1579_585)"/>
</g>
<g opacity="0.7">
<path d="M326.387 328.179C326.387 328.179 351.601 336.099 374.301 311.301C391.692 292.302 390.637 276.934 389.192 270.785C388.77 268.988 387.163 267.738 385.316 267.773C379.062 267.895 363.577 270.072 345.497 286.474C321.898 307.881 326.387 328.179 326.387 328.179Z" fill="url(#paint2_linear_1579_585)"/>
</g>
<g opacity="0.7">
<path d="M307.021 267.929C307.021 267.929 327.893 277.737 350.432 258.962C367.701 244.578 368.592 231.165 368.065 225.679C367.911 224.076 366.668 222.805 365.069 222.62C359.647 221.991 346.003 222.056 328.443 234.114C305.524 249.851 307.021 267.929 307.021 267.929Z" fill="url(#paint3_linear_1579_585)"/>
</g>
<g opacity="0.7">
<path d="M296.802 218.539C296.802 218.539 314.886 229.226 336.939 214.135C353.833 202.573 355.794 190.488 355.787 185.468C355.784 184.001 354.767 182.742 353.332 182.435C348.47 181.399 336.091 180.286 319.132 189.712C296.997 202.017 296.802 218.539 296.802 218.539Z" fill="url(#paint4_linear_1579_585)"/>
</g>
<g opacity="0.7">
<path d="M292.129 173.901C292.129 173.901 307.97 181.896 325.711 167.942C339.303 157.253 340.28 146.956 339.992 142.725C339.909 141.489 338.98 140.485 337.753 140.307C333.597 139.706 323.101 139.461 309.335 148.355C291.367 159.964 292.129 173.901 292.129 173.901Z" fill="url(#paint5_linear_1579_585)"/>
</g>
<g opacity="0.7">
<path d="M286.533 135.532C286.533 135.532 303.449 140.89 318.729 124.278C330.435 111.55 329.753 101.231 328.792 97.1001C328.512 95.893 327.435 95.0506 326.196 95.0709C321.997 95.1431 311.597 96.5795 299.431 107.562C283.552 121.896 286.533 135.532 286.533 135.532Z" fill="url(#paint6_linear_1579_585)"/>
</g>
<g opacity="0.7">
<path d="M271.191 284.184C271.191 284.184 260.608 305.638 230.186 304.989C206.879 304.493 197.481 294.193 194.36 289.403C193.448 288.003 193.634 286.169 194.812 284.984C198.802 280.967 209.908 272.194 231.948 270.616C260.714 268.555 271.191 284.184 271.191 284.184Z" fill="url(#paint7_linear_1579_585)"/>
</g>
<g opacity="0.7">
<path d="M254.407 231.088C254.407 231.088 242.728 247.873 217.097 243.446C197.459 240.055 190.828 230.151 188.802 225.704C188.209 224.404 188.6 222.878 189.747 222.025C193.63 219.138 204.137 213.139 222.968 214.615C247.543 216.542 254.407 231.088 254.407 231.088Z" fill="url(#paint8_linear_1579_585)"/>
</g>
<g opacity="0.7">
<path d="M249.098 184.053C249.098 184.053 236.739 197.157 214.984 189.966C198.317 184.456 193.828 174.965 192.642 170.828C192.294 169.618 192.834 168.34 193.944 167.746C197.703 165.737 207.638 161.877 223.85 165.613C245.012 170.488 249.098 184.053 249.098 184.053Z" fill="url(#paint9_linear_1579_585)"/>
</g>
<g opacity="0.7">
<path d="M248.166 141.065C248.166 141.065 233.417 149.196 216.108 136.573C202.848 126.903 201.566 117.17 201.691 113.147C201.728 111.972 202.574 110.988 203.732 110.776C207.653 110.063 217.599 109.468 230.964 117.429C248.407 127.819 248.166 141.065 248.166 141.065Z" fill="url(#paint10_linear_1579_585)"/>
</g>
<g opacity="0.7">
<path d="M273.125 104.425C273.125 104.425 262.577 94.5528 268.278 77.083C272.646 63.6981 280.245 60.0704 283.559 59.1039C284.528 58.8214 285.556 59.2508 286.035 60.1388C287.657 63.1471 290.783 71.103 287.837 84.118C283.993 101.105 273.125 104.425 273.125 104.425Z" fill="url(#paint11_linear_1579_585)"/>
</g>
<path opacity="0.7" d="M228.755 349.768C228.753 349.514 228.956 349.306 229.213 349.306C270.37 349.093 304.382 340.642 309.745 339.24C307.954 335.257 306.089 330.96 304.183 326.365C301.325 319.586 298.469 312.143 295.552 304.238C294.851 302.252 294.14 300.238 293.421 298.199C293.061 297.179 292.7 296.154 292.336 295.122C291.993 294.083 291.649 293.038 291.301 291.988C290.607 289.888 289.907 287.765 289.199 285.622C288.79 284.296 288.374 282.948 287.961 281.607C282.949 282.725 254.407 288.661 213.512 288.535C213.257 288.535 213.051 288.327 213.052 288.074C213.053 287.818 213.262 287.612 213.513 287.614C254.122 287.738 282.511 281.876 287.689 280.724C287.52 280.176 287.354 279.641 287.186 279.091C285.794 274.711 284.58 270.196 283.287 265.648C282.62 263.379 282.078 261.061 281.472 258.748C280.887 256.43 280.268 254.108 279.701 251.764C278.184 245.243 276.717 238.63 275.421 231.965C270.009 231.971 235.88 231.82 203.482 227.317C203.23 227.282 203.054 227.05 203.09 226.798C203.124 226.546 203.358 226.37 203.609 226.405C235.59 230.85 269.277 231.046 275.238 231.044C274.732 228.408 274.251 225.766 273.813 223.114C271.731 211.035 270.191 198.864 269.239 186.946C263.643 186.517 235.536 184.012 208.175 175.345C207.932 175.267 207.799 175.009 207.875 174.767C207.952 174.524 208.211 174.39 208.453 174.467C235.525 183.041 263.327 185.562 269.173 186.016C268.645 179.194 268.303 172.455 268.171 165.872C268.085 161.951 268.076 158.089 268.129 154.291C262.029 150.379 229.931 129.876 214.535 121.729C214.31 121.611 214.225 121.331 214.344 121.107C214.46 120.882 214.74 120.794 214.966 120.916C230.026 128.885 261.002 148.631 268.146 153.207C268.382 139.627 269.454 126.949 271.004 115.807C271.248 113.989 271.487 112.206 271.72 110.465C271.958 108.724 272.323 107.045 272.607 105.395C273.208 102.105 273.778 98.9824 274.315 96.0488C274.993 93.1443 275.626 90.426 276.213 87.913C276.825 85.4062 277.296 83.0819 277.882 81.0223C280.27 72.8004 281.633 68.1023 281.633 68.1023L281.936 68.1973C281.936 68.1973 280.639 72.9068 278.368 81.1477C277.811 83.2098 277.372 85.538 276.796 88.0472C276.245 90.5628 275.651 93.2824 275.015 96.1881C274.519 99.1217 273.994 102.243 273.439 105.534C273.179 107.181 272.838 108.86 272.624 110.598C272.415 112.337 272.203 114.116 271.985 115.933C270.73 125.955 269.877 137.205 269.685 149.223C275.196 144.622 303.266 121.11 318.702 106.775C318.889 106.604 319.18 106.613 319.353 106.799C319.527 106.985 319.515 107.278 319.329 107.45C303.18 122.447 273.23 147.467 269.671 150.434C269.655 151.672 269.648 152.917 269.646 154.17C269.855 154.309 269.915 154.589 269.779 154.802C269.745 154.854 269.693 154.883 269.645 154.916C269.65 158.498 269.714 162.136 269.845 165.826C270.025 171.147 270.355 176.572 270.798 182.053C275.882 180.458 301.977 171.608 328.121 150.609C328.322 150.444 328.609 150.48 328.768 150.679C328.928 150.878 328.896 151.168 328.698 151.326C313.327 163.672 297.967 171.841 286.838 176.818C278.716 180.449 272.85 182.381 270.878 182.993C271.966 196.038 273.766 209.417 276.238 222.677C276.49 224.085 276.774 225.486 277.046 226.888C284.257 223.816 313.42 211.053 340.451 194.399C340.661 194.265 340.951 194.333 341.085 194.55C341.218 194.766 341.151 195.05 340.934 195.184C319.318 208.502 296.343 219.336 284.271 224.733C281.087 226.157 278.666 227.201 277.225 227.814C278.773 235.658 280.594 243.429 282.482 251.071C283.077 253.394 283.723 255.693 284.336 257.988C284.971 260.278 285.539 262.574 286.233 264.819C287.505 269.072 288.71 273.287 290.055 277.392C298.445 272.716 327.021 256.288 353.205 235.377C353.404 235.215 353.694 235.252 353.852 235.45C354.01 235.648 353.977 235.939 353.779 236.098C327.376 257.183 298.549 273.719 290.343 278.287C291.027 280.402 291.705 282.502 292.378 284.581C293.11 286.7 293.836 288.799 294.554 290.876C294.913 291.915 295.27 292.947 295.625 293.973C296 294.993 296.373 296.006 296.744 297.013C297.487 299.027 298.22 301.017 298.943 302.98C301.948 310.791 304.883 318.138 307.811 324.825C309.601 328.981 311.357 332.894 313.046 336.541C318.484 333.195 346.327 315.337 375.637 283.265C375.81 283.081 376.101 283.063 376.288 283.235C376.476 283.406 376.489 283.699 376.318 283.887C346.798 316.187 318.727 334.133 313.438 337.382C317.046 345.13 320.336 351.642 322.971 356.651C324.95 360.412 326.565 363.332 327.686 365.3C328.805 367.281 329.415 368.282 329.415 368.282L325.46 370.641C325.46 370.641 324.814 369.546 323.708 367.523C322.591 365.498 320.993 362.515 319.043 358.683C316.556 353.794 313.488 347.516 310.13 340.086C305.247 341.37 270.884 350.007 229.22 350.222C228.962 350.228 228.755 350.023 228.755 349.768Z" fill="url(#paint12_linear_1579_585)"/>
<path opacity="0.7" d="M490.748 236.774C490.75 236.744 490.75 236.713 490.751 236.683C492.727 169.014 472.573 148.837 454.164 164.616C446.012 171.604 443.011 182.815 445.732 193.201C446.624 196.602 447.147 200.156 446.659 204.087C446.038 209.096 443.474 212.341 440.188 214.43C433.178 218.885 428.406 226.125 427.421 234.373C426.887 238.854 426.459 243.515 426.148 248.352C420.969 328.961 400.215 377.639 394.402 396.982C392.611 402.943 399.428 407.741 404.431 404.038C418.015 393.979 454.276 363.508 475.258 311.573C478.205 304.281 477.776 296.123 474.489 288.977C473.221 286.221 472.6 282.72 472.985 278.273C473.866 268.086 479.356 260.005 485.161 252.378C488.586 247.877 490.581 242.431 490.748 236.774Z" fill="url(#paint13_linear_1579_585)"/>
<path opacity="0.7" d="M458.814 242.862L490.871 230.058C490.872 229.873 490.876 229.685 490.877 229.501L458.885 242.279C461.116 223.494 462.571 203.552 463.242 182.566L483.783 176.915C483.719 176.752 483.654 176.595 483.589 176.434L463.259 182.026C463.488 174.723 463.619 167.287 463.658 159.736C463.486 159.765 463.312 159.804 463.139 159.839C463.017 181.311 462.128 200.958 460.653 218.89L445.961 207.177C445.903 207.351 445.841 207.523 445.778 207.692L460.6 219.508C458.629 243.199 455.644 263.902 452.081 281.913L425.522 256.953C425.505 257.173 425.487 257.392 425.469 257.611L451.962 282.508C445.906 312.912 438.216 335.611 431.027 352.037C430.599 353.016 430.17 353.974 429.742 354.919L414.117 331.175C414.063 331.407 414.008 331.635 413.955 331.867L429.491 355.475C415.031 387.139 400.352 400.438 396.311 403.689C396.442 403.804 396.579 403.916 396.72 404.021C399.662 401.638 407.67 394.397 417.133 379.533L431.395 379.78C431.442 379.729 431.488 379.681 431.535 379.63C431.628 379.531 431.721 379.433 431.814 379.332C431.833 379.312 431.852 379.292 431.87 379.272L417.455 379.022C421.94 371.92 426.74 363.114 431.472 352.308C436.479 340.875 440.93 328.324 444.809 314.76L475.722 310.393C475.795 310.209 475.869 310.026 475.941 309.841L444.967 314.217C448.944 300.223 452.311 285.153 455.036 269.101C456.476 260.632 457.734 251.879 458.814 242.862Z" fill="url(#paint14_linear_1579_585)"/>
<path opacity="0.4" d="M597.118 361.024C603.636 348.381 605.647 338.979 604.45 332.596C604.438 332.542 604.427 332.487 604.417 332.432H604.412C603.011 325.352 597.624 322.05 590.096 322.197C590.098 322.193 590.1 322.188 590.102 322.184C589.932 322.188 589.759 322.196 589.585 322.202L589.584 322.206C586.621 322.324 583.347 322.953 579.86 324.093C570.319 327.212 564.503 332.929 564.295 338.617C564.227 340.479 563.772 342.396 562.265 344.441C561.803 345.065 561.261 345.625 560.658 346.132C560.61 346.172 560.561 346.214 560.511 346.253C558.615 347.794 556.116 348.807 553.411 349.453C545.622 351.313 539.195 354.805 536.07 359.097C534.371 361.431 532.725 363.865 531.141 366.402C504.763 408.679 472.235 432.958 461.601 442.779C460.114 444.153 460.371 445.521 461.619 446.461C461.616 446.462 461.613 446.463 461.61 446.463C461.704 446.534 461.803 446.601 461.908 446.667C461.908 446.667 461.912 446.666 461.914 446.666C463.485 447.649 466.247 448.044 469.165 447.223C475.793 445.356 487.346 441.798 501.021 436.303H501.026C501.085 436.281 501.142 436.258 501.199 436.234C501.313 436.188 501.427 436.142 501.541 436.096C501.563 436.087 501.586 436.077 501.609 436.068H501.606C519.74 428.74 541.514 418.027 560.52 403.332C560.772 403.137 561.012 402.939 561.246 402.74H561.275C561.393 402.648 561.511 402.557 561.629 402.464H561.564C565.492 399.006 566.921 395.024 565.824 391.324C565.365 389.776 565.714 387.88 567.262 385.554C570.808 380.228 578.133 376.342 585.635 372.719C590.063 370.58 593.394 367.841 595.06 364.861C595.069 364.844 595.078 364.829 595.086 364.813C595.756 363.613 596.381 362.445 596.976 361.298C597.024 361.205 597.074 361.113 597.122 361.022L597.118 361.024Z" fill="#0B0244"/>
<path opacity="0.7" d="M587.666 245.954C587.673 245.914 587.679 245.876 587.685 245.837C601.363 159.257 578.801 130.025 552.562 147.259C540.941 154.892 535.241 168.796 537.027 182.582C537.613 187.097 537.7 191.748 536.426 196.715C534.802 203.045 530.975 206.792 526.412 208.933C516.676 213.499 509.353 222.014 506.733 232.442C505.309 238.109 503.992 244.025 502.796 250.186C482.874 352.858 448.205 411.959 437.555 435.845C434.273 443.205 442.239 450.49 449.274 446.557C468.377 435.876 519.96 402.711 555.459 339.465C560.443 330.585 561.237 320.036 558.192 310.319C557.017 306.57 556.795 301.972 558.021 296.324C560.831 283.386 569.211 273.912 577.922 265.073C583.062 259.855 586.521 253.19 587.666 245.954Z" fill="url(#paint15_linear_1579_585)"/>
<path opacity="0.7" d="M545.652 248.515L588.931 237.348C588.963 237.111 588.999 236.869 589.031 236.632L545.84 247.776C551.798 224.018 556.948 198.646 561.267 171.806L588.577 167.93C588.523 167.709 588.463 167.496 588.407 167.278L561.377 171.114C562.874 161.771 564.265 152.243 565.559 142.552C565.333 142.561 565.105 142.582 564.875 142.6C561.184 170.156 556.808 195.243 551.962 218.03L535.021 200.569C534.917 200.783 534.811 200.993 534.701 201.199L551.792 218.815C545.361 248.916 538.117 275.015 530.576 297.559L500.577 261.131C500.518 261.411 500.459 261.688 500.399 261.967L530.324 298.305C517.542 336.354 503.928 364.241 491.991 384.153C491.281 385.34 490.571 386.499 489.865 387.643L473.707 354.577C473.599 354.865 473.492 355.151 473.384 355.438L489.449 388.316C465.665 426.601 444.624 441.265 438.899 444.773C439.05 444.944 439.207 445.108 439.37 445.266C443.541 442.69 455.017 434.709 469.619 417.177L487.895 419.842C487.963 419.785 488.032 419.729 488.101 419.673C488.237 419.562 488.372 419.449 488.509 419.336C488.536 419.314 488.564 419.291 488.592 419.268L470.12 416.575C477.05 408.192 484.662 397.672 492.519 384.573C500.833 370.713 508.616 355.327 515.83 338.547L556.249 338.026C556.373 337.802 556.499 337.579 556.622 337.354L516.121 337.876C523.534 320.559 530.338 301.759 536.48 281.591C539.724 270.95 542.781 259.917 545.652 248.515Z" fill="url(#paint16_linear_1579_585)"/>
<path d="M350.304 511.268C348.042 511.268 345.88 510.812 344.267 509.88L171.374 410.059C169.738 409.116 168.839 407.789 168.838 406.326C168.838 404.59 170.113 402.858 172.336 401.574L343.3 302.869C347.381 300.515 353.59 300.265 357.141 302.313L530.034 402.134C531.669 403.076 532.569 404.402 532.57 405.867C532.57 407.602 531.295 409.335 529.072 410.618L358.111 509.323C355.883 510.61 353.021 511.268 350.304 511.268ZM344.694 509.141C348.01 511.053 353.835 510.804 357.683 508.583L528.645 409.878C530.595 408.751 531.715 407.289 531.715 405.867C531.715 404.72 530.966 403.658 529.607 402.874L356.714 303.053C353.398 301.139 347.572 301.387 343.727 303.607L172.765 402.312C170.813 403.441 169.693 404.903 169.693 406.325C169.693 407.47 170.441 408.533 171.801 409.318L344.694 509.141Z" fill="#42E8E0"/>
<path d="M532.142 391.15L521.712 391.156L356.927 296.016C353.488 294.031 347.482 294.28 343.511 296.572L179.398 391.324L169.268 391.329V399.649H169.274C169.27 400.913 170.025 402.121 171.587 403.023L344.481 502.844C347.92 504.829 353.925 504.58 357.896 502.288L528.858 403.583C531.085 402.297 532.197 400.642 532.14 399.086H532.144V391.15H532.142Z" fill="url(#paint17_linear_1579_585)"/>
<path d="M344.48 494.564L171.586 394.744C168.147 392.759 168.579 389.291 172.549 386.998L343.511 288.293C347.482 286.001 353.487 285.752 356.926 287.737L529.82 387.557C533.259 389.542 532.827 393.01 528.857 395.303L357.895 494.008C353.925 496.3 347.919 496.55 344.48 494.564Z" fill="url(#paint18_linear_1579_585)"/>
<path opacity="0.1" d="M344.911 487.421L183.96 394.496C180.759 392.648 181.16 389.419 184.856 387.286L344.009 295.399C347.705 293.265 353.297 293.033 356.497 294.881L517.449 387.807C520.65 389.655 520.248 392.882 516.552 395.016L357.399 486.904C353.703 489.037 348.112 489.269 344.911 487.421Z" fill="#180D5B"/>
<path d="M528.857 394.346L357.895 493.051C353.924 495.344 347.919 495.592 344.48 493.607L171.586 393.788C170.221 393 169.476 391.976 169.31 390.887C169.087 392.323 169.827 393.728 171.586 394.744L344.48 494.564C347.919 496.549 353.924 496.3 357.895 494.008L528.857 395.303C531.251 393.921 532.349 392.112 532.097 390.458C531.885 391.828 530.797 393.228 528.857 394.346Z" fill="white"/>
<path opacity="0.1" d="M352.466 395.855H516.788L520.19 381.998L356.928 287.737C353.489 285.752 347.484 286.001 343.513 288.293L249.953 342.31L331.936 390.289C338.164 393.933 345.25 395.855 352.466 395.855Z" fill="#180D5B"/>
<path d="M344.854 147.037L348.779 144.779L348.78 144.802C349.307 144.528 349.973 144.551 350.709 144.976L519.191 242.411C520.876 243.385 522.24 245.996 522.239 248.243L522.054 391.035C522.053 392.274 521.628 393.124 520.973 393.493L520.992 393.503L517.076 395.757L516.798 381.583L359.611 290.68C357.927 289.706 356.563 287.095 356.564 284.848L356.741 153.735C356.479 154.561 356.279 155.164 356.25 155.183C356.153 155.248 344.854 147.037 344.854 147.037Z" fill="url(#paint19_linear_1579_585)"/>
<path d="M522.159 247.304L497.376 256.948L492.264 253.992L519.734 242.798C520.939 243.785 521.894 245.566 522.159 247.304Z" fill="url(#paint20_linear_1579_585)"/>
<path d="M346.677 298.118L515.159 395.552C516.844 396.526 518.211 395.494 518.212 393.248L518.397 250.456C518.398 248.208 517.034 245.598 515.349 244.624L346.867 147.189C345.183 146.215 343.816 147.248 343.815 149.493L343.63 292.286C343.629 294.532 344.993 297.144 346.677 298.118Z" fill="url(#paint21_linear_1579_585)"/>
<path d="M515.35 244.622L346.868 147.188C345.866 146.608 344.984 146.752 344.427 147.426C344.899 147.299 345.455 147.382 346.056 147.729L514.538 245.163C516.222 246.137 517.586 248.749 517.585 250.995L517.4 393.788C517.399 394.698 517.167 395.396 516.787 395.855C517.64 395.627 518.211 394.693 518.212 393.248L518.397 250.455C518.398 248.208 517.034 245.597 515.35 244.622Z" fill="white"/>
<path d="M346.177 295.027L515.596 393.004L515.809 249.874L346.39 151.897L346.177 295.027Z" fill="#24126A"/>
<path d="M423.525 294.53C422.609 294.53 421.603 294.23 420.57 293.632L405.51 284.938C402.008 282.915 399.159 277.981 399.159 273.937V269.576C399.159 265.804 396.502 261.202 393.235 259.315L378.596 250.863C377.094 249.994 375.706 249.842 374.684 250.433C373.661 251.023 373.099 252.302 373.099 254.036V281.84C373.099 283.892 372.385 285.434 371.087 286.183C369.792 286.932 368.098 286.781 366.321 285.754L349.07 275.794L349.497 275.054L366.748 285.014C368.249 285.88 369.638 286.035 370.661 285.443C371.683 284.853 372.245 283.575 372.245 281.84V254.036C372.245 251.984 372.96 250.442 374.257 249.693C375.553 248.943 377.246 249.096 379.023 250.124L393.662 258.575C397.164 260.598 400.013 265.531 400.013 269.576V273.937C400.013 277.709 402.671 282.311 405.937 284.198L420.997 292.893C422.499 293.759 423.888 293.911 424.909 293.323C425.932 292.733 426.494 291.452 426.494 289.718V258.099C426.494 256.047 427.208 254.504 428.506 253.755C429.801 253.005 431.495 253.159 433.272 254.186L450.021 263.856C451.523 264.723 452.912 264.874 453.934 264.286C454.956 263.696 455.518 262.415 455.518 260.681V244.327C455.518 242.275 456.233 240.733 457.529 239.983C458.826 239.234 460.519 239.386 462.296 240.413L479.726 250.476C483.228 252.499 486.077 257.432 486.077 261.477C486.077 265.249 488.734 269.851 492.001 271.738L511.225 282.838L510.798 283.578L491.574 272.478C488.072 270.455 485.223 265.521 485.223 261.477C485.223 257.705 482.564 253.103 479.299 251.215L461.87 241.153C460.367 240.287 458.979 240.135 457.957 240.722C456.935 241.313 456.372 242.593 456.372 244.327V260.681C456.372 262.733 455.659 264.276 454.362 265.026C453.065 265.775 451.371 265.623 449.594 264.595L432.845 254.926C431.343 254.057 429.953 253.905 428.932 254.495C427.91 255.085 427.348 256.364 427.348 258.099V289.718C427.348 291.77 426.633 293.313 425.338 294.063C424.795 294.376 424.184 294.53 423.525 294.53Z" fill="url(#paint22_linear_1579_585)"/>
<path d="M374.319 375.298C374.319 375.298 373.413 378.018 373.496 378.67C373.578 379.324 375.447 381.896 375.577 381.975C375.706 382.053 377.29 384.074 379.066 385.043C380.845 386.013 380.98 386.494 381.146 386.516C381.311 386.537 381.576 386.366 381.576 386.366C381.576 386.366 381.839 384.507 381.058 383.605C380.277 382.704 381.444 381.366 381.444 381.366L379.429 376.11L374.319 375.298Z" fill="#FCD1C5"/>
<path d="M393.637 433.441C393.637 433.441 390.483 434.175 387.439 434.279C384.393 434.383 376.089 435.954 376.248 438.929C376.409 441.917 380.663 446.206 386.056 446.852C391.45 447.498 398.418 446.021 401.939 446.123C405.458 446.224 407.939 442.771 406.633 439.45C405.334 436.144 393.637 433.441 393.637 433.441Z" fill="#160A5B"/>
<path d="M412.028 425.509C412.028 425.509 413.143 427.316 412.551 428.417C411.96 429.519 410.385 432.259 405.507 429.581C400.643 426.911 391.194 423.072 391.194 423.072C391.194 423.072 385.775 420.232 386.131 416.907C386.486 413.6 391.519 414.12 391.519 414.12L412.028 425.509Z" fill="#160A5B"/>
<path d="M357.725 306.063C357.725 306.063 354.507 306.105 353.089 305.464C351.671 304.823 347.551 303.472 347.295 303.336C347.039 303.201 344.769 303.051 343.729 302.384C343.729 302.384 342.569 302.951 343.485 303.89C344.403 304.83 346.137 305.136 346.137 305.136L347.77 306.087C347.77 306.087 344.464 307.784 344.166 307.91C343.867 308.037 341.1 310.143 340.82 310.273C340.54 310.402 339.306 311.364 339.783 312.217C339.783 312.217 339.832 312.411 340.448 312.542C340.448 312.542 338.68 313.345 339.116 314.216C339.553 315.087 340.674 314.71 340.674 314.71C340.674 314.71 341.1 316.271 343.235 315.062C343.235 315.062 343.485 316.999 348.221 314.974C348.221 314.974 350.135 314.47 351.536 314.568C352.937 314.665 356.749 313.68 358.794 312.241C360.83 310.807 357.725 306.063 357.725 306.063Z" fill="#FCD1C5"/>
<path d="M351.534 314.569C352.935 314.667 356.748 313.681 358.792 312.242C360.165 311.276 359.202 308.81 358.43 307.302C357.465 306.834 356.615 306.45 356.615 306.45C356.615 306.45 356.758 311.144 356.653 311.848C356.546 312.554 352.307 313.391 349.588 313.79C346.868 314.189 343.299 315.243 343.297 315.243C343.507 315.671 344.417 316.601 348.22 314.976C348.22 314.976 350.134 314.472 351.534 314.569Z" fill="#E2B1A6"/>
<path d="M395.003 296.945C395.003 296.945 388.305 298.118 386.025 298.845C383.813 299.55 364.615 303.349 357.585 305.069C357.142 305.178 356.798 305.538 356.692 305.996C356.608 306.364 356.553 306.802 356.643 307.165C356.841 307.96 357.514 315.909 361.415 314.61C362.585 314.219 366.026 313.501 368.778 313.138C371.525 312.775 383.261 311.874 383.261 311.874L403.111 300.513L395.003 296.945Z" fill="#4846A5"/>
<path d="M380.63 377.819C380.63 377.819 382.403 399.727 386.768 407.997C391.184 416.363 392.158 431.565 393.051 434.458C393.948 437.362 396.801 441.535 401.403 442.43C406.008 443.327 406.827 440.301 406.638 438.478C406.451 436.661 405.231 433.717 405.258 431.741C405.283 429.771 405.777 428.852 405.868 427.946C405.868 427.946 411.134 429.477 412.029 425.509C412.029 425.509 411.626 424.35 411.569 423.757C411.512 423.165 412.367 408.725 412.537 406.97C412.707 405.219 411.951 395.708 410.574 390.996C409.207 386.317 409.918 376.357 409.918 376.357L394.68 374.134L380.63 377.819Z" fill="#24126A"/>
<path d="M405.361 377.909C405.361 377.909 405.225 381.331 403.706 384.194C403.706 384.194 403.492 395.799 402.15 401.646C402.15 401.646 403.869 413.369 405.026 417.054C406.189 420.758 405.867 427.945 405.867 427.945C405.867 427.945 406.465 428.164 407.33 428.198C408.194 428.232 408.571 413.978 407.294 411.446C406.023 408.923 405.255 397.716 405.831 394.294C406.404 390.891 406.443 381.11 407.144 379.384C407.842 377.664 406.368 376.735 406.368 376.735L405.361 377.909Z" fill="#160A5B"/>
<path d="M393.988 297.127C393.988 297.127 389.407 300.304 389.538 305.91L392.906 305.245C392.906 305.245 392.021 299.026 393.988 297.127Z" fill="#160A5B"/>
<path d="M394.138 382.592C404.251 382.979 409.8 378.65 409.8 378.65C409.853 377.263 409.916 376.358 409.916 376.358L394.678 374.135L380.63 377.82C380.63 377.82 380.982 382.157 381.757 387.701C384.24 387.983 386.782 382.051 386.782 382.051L393.727 382.54C393.727 382.54 384.011 382.203 394.138 382.592Z" fill="#160A5B"/>
<path d="M382.584 378.163C382.584 378.163 404.443 387.12 415.438 370.574C415.752 370.101 415.905 369.521 415.899 368.936L415.856 365.037C415.851 364.542 415.935 364.05 416.103 363.593C416.468 362.605 416.569 361.528 416.396 360.477C415.672 356.097 413.709 344.145 413.259 340.816C412.71 336.751 415.267 320.471 419.124 313.428C422.934 306.47 413.934 290.461 413.934 290.461C413.934 290.461 411.711 286.701 407.162 287.899C407.162 287.899 411.407 290.979 408.981 294.109C406.54 297.256 399.41 299.685 399.41 299.685C399.41 299.685 386.187 306.224 381.569 314.347C381.569 314.347 379.961 318.573 379.742 323.935C379.522 329.344 379.926 342.286 379.67 344.075C379.414 345.868 378.534 358.101 378.597 358.671C378.66 359.246 382.584 378.163 382.584 378.163Z" fill="#453C9E"/>
<path d="M389.243 380.018C389.243 380.018 402.924 345.695 402.562 333.059C402.207 320.671 383.013 357.735 383.013 357.735L382.584 378.163C382.584 378.163 386.726 379.699 389.243 380.018Z" fill="#24126A"/>
<path d="M382.894 339.142C383.416 336.304 383.739 333.447 383.819 330.589C383.958 325.608 385.516 317.343 394.638 318.915C407.494 321.13 401.619 338.855 400.15 341.934C398.672 345.029 392.797 358.94 392.488 359.728C392.197 360.469 383.051 377.711 379.83 381.823C379.535 382.199 379.028 382.252 378.678 381.954C377.415 380.883 374.575 378.324 374.221 376.717C373.768 374.648 375.728 367.165 375.728 367.165C375.728 367.165 381.02 348.378 381.455 347.502C381.78 346.845 382.049 343.737 382.894 339.142Z" fill="#4846A5"/>
<path d="M394.203 297.537C394.203 297.537 393.215 295.189 390.836 294.909C388.457 294.628 387.115 293.948 386.891 293.066C386.666 292.185 386.671 291.122 386.115 289.803C385.561 288.487 385.125 285.265 385.135 285.187C385.145 285.11 383.338 284.534 383.263 283.736C383.187 282.939 384.175 280.111 384.076 279.889C383.977 279.667 383.028 277.904 383.182 276.548C383.335 275.193 383.544 273.23 384.298 271.576C385.05 269.927 390.307 259.876 403.422 265.362C416.622 270.883 406.268 281.844 407.43 289.069C407.43 289.069 408.576 290.601 406.362 293.136C404.136 295.681 397.85 296.135 394.203 297.537Z" fill="#FCD1C5"/>
<path d="M406.361 293.135C408.575 290.601 407.428 289.067 407.428 289.067C407.268 288.065 407.333 286.987 407.523 285.863L402.307 286.761C402.307 286.761 394.754 279.808 395.232 283.472C395.712 287.158 393.835 287.759 393.835 287.759L395.372 289.783C395.767 290.302 395.517 290.901 395.176 291.459C392.916 295.17 387.614 293.955 387.603 293.957C388.26 294.399 389.343 294.732 390.834 294.908C393.213 295.189 394.201 297.536 394.201 297.536C397.85 296.135 404.136 295.681 406.361 293.135Z" fill="#E2B1A6"/>
<path d="M383.789 267.714C383.789 267.714 382.82 270.408 384.297 271.576C385.776 272.745 387.114 273.847 387.114 273.847L387.049 277.275C387.04 277.769 387.174 278.255 387.435 278.672L389.266 281.594C389.619 282.158 389.803 282.815 389.795 283.486L389.78 284.883C389.775 285.294 390.073 285.642 390.472 285.693L390.964 285.756C391.399 285.812 391.795 285.499 391.85 285.056L392.089 283.12C392.089 283.12 393.101 281.577 395.233 283.474L397.158 284.302C397.695 284.534 398.113 284.982 398.307 285.545C398.821 287.044 399.927 290.005 400.785 290.507C401.945 291.186 406.532 288.927 407.161 287.902C407.788 286.88 409.468 279.995 410.49 276.712C411.507 273.447 411.13 265.294 401.348 263.018C391.584 260.746 385.192 264.784 383.789 267.714Z" fill="#AA8383"/>
<path d="M407.161 287.901C407.788 286.878 409.467 279.994 410.49 276.711C410.49 276.711 406.648 279.163 401.715 279.824C396.773 280.487 387.095 274.762 387.095 274.762L387.047 277.275C387.038 277.769 387.173 278.255 387.434 278.672L389.264 281.594C389.617 282.158 389.801 282.815 389.793 283.486L389.778 284.883C389.773 285.294 390.071 285.642 390.47 285.693L390.963 285.756C391.397 285.812 391.793 285.499 391.848 285.056L392.087 283.12C392.087 283.12 393.099 281.577 395.231 283.474L398.017 284.672C398.017 284.672 399.623 289.829 400.783 290.507C401.945 291.186 406.532 288.925 407.161 287.901Z" fill="#936D6D"/>
<path d="M407.347 288.231C407.347 288.231 411.094 290.628 409.131 293.9C407.156 297.19 393.282 302.863 392.587 303.723C392.587 303.723 392.133 298.77 393.989 297.126C393.989 297.126 404.573 295.256 406.266 292.604C407.949 289.965 407.347 288.231 407.347 288.231Z" fill="#F0F6FF"/>
<path d="M407.348 288.231C407.348 288.231 407.951 289.965 406.266 292.605C404.985 294.611 398.619 296.169 395.592 296.809C395.592 296.809 396.7 297.459 398.511 300.659C402.786 298.544 407.979 295.82 409.131 293.9C411.095 290.628 407.348 288.231 407.348 288.231Z" fill="#C4CCD6"/>
<path d="M400.242 321.806C403.595 332.603 394.342 349.112 392.97 353.927C391.587 358.783 377.69 381.079 377.688 381.084C378.061 381.425 378.406 381.725 378.675 381.953C379.026 382.251 379.534 382.198 379.828 381.821C383.051 377.71 392.196 360.467 392.486 359.727C392.796 358.939 398.671 345.027 400.148 341.933C401.329 339.464 405.35 327.526 400.242 321.806Z" fill="#24126A"/>
<path d="M409.684 298.841C409.684 298.841 403.49 302.23 400.476 303.758C397.452 305.289 394.147 307.336 394.147 307.336L393.021 306.185L391.591 309.162C391.591 309.162 386.839 311.89 384.598 314.189C382.348 316.497 380.632 319.526 380.384 320.217C380.384 320.217 386.38 312.686 391.048 310.488L392.303 309.884L393.05 307.521L394.165 308.731C394.165 308.731 407.774 300.888 409.684 298.841Z" fill="#24126A"/>
<path d="M310.348 299.567C310.348 299.567 312.655 299.961 313.501 299.529C314.346 299.098 316.552 298.807 319.107 299.72C321.666 300.633 321.453 300.495 322.463 300.594C323.472 300.693 325.112 300.797 325.646 301.135C326.179 301.473 327.192 302.115 326.254 303.455C325.313 304.798 321.799 303.535 321.228 303.43C320.656 303.325 320.028 304.338 320.313 305.249C320.598 306.161 325.897 311.956 326.727 312.532C327.56 313.11 331.139 315.503 331.294 316.448C331.448 317.394 331.249 317.528 331.249 317.528C331.249 317.528 332.293 318.473 331.925 319.348C331.555 320.225 329.93 318.882 329.629 319.084C329.629 319.084 329.894 320.058 329.498 320.236C329.101 320.415 326.777 319.513 326.498 319.233C326.498 319.233 326.228 319.982 324.902 319.208C323.577 318.434 318.495 315.546 317.899 315.001C317.303 314.456 315.303 312.606 314.48 312.112C313.657 311.618 312.237 309.933 311.529 309.271C310.821 308.609 307.668 307.012 306.462 306.78C305.256 306.547 310.348 299.567 310.348 299.567Z" fill="#FCD1C5"/>
<path d="M314.398 310.04C313.23 307.908 309.315 306.256 309.315 306.256C309.579 304.521 312.075 299.729 312.075 299.729C311.211 299.714 310.348 299.567 310.348 299.567C310.348 299.567 305.256 306.547 306.461 306.78C307.665 307.012 310.819 308.609 311.527 309.271C312.235 309.933 313.655 311.618 314.479 312.112C315.302 312.606 317.302 314.458 317.897 315.001C318.493 315.546 323.575 318.435 324.901 319.208C326.227 319.982 326.497 319.233 326.497 319.233C326.776 319.513 329.1 320.415 329.496 320.236C329.893 320.058 329.628 319.084 329.628 319.084C329.628 319.084 327.995 318.156 326.314 317.566C324.637 316.976 315.569 312.178 314.398 310.04Z" fill="#E2B1A6"/>
<path d="M306.544 291.882C306.544 291.882 307.043 294.486 306.862 296.605C306.681 298.732 302.42 295.952 302.58 295.584C302.739 295.217 304.601 292.015 304.601 292.015L306.544 291.882Z" fill="#FCD1C5"/>
<path d="M287.959 227.814C287.959 227.814 290.323 227.706 293.198 232.428C295.968 236.976 300.84 253.25 303.393 259.492C303.62 260.045 303.787 260.619 303.889 261.212C304.718 266.081 308.609 288.99 308.787 291.744C308.787 291.744 305.82 293.716 303.915 294.204L299.728 292.815L295.603 251.288L288.922 229.36L287.959 227.814Z" fill="#24126A"/>
<path d="M274.568 364.456C274.568 364.456 273.767 368.297 274.205 369.041C274.644 369.786 279.639 375.431 280.168 376.19C280.697 376.95 283.271 381.569 288.003 382.697C292.743 383.827 295.967 383.533 296.608 381.307C297.247 379.088 294.467 375.402 293.179 374.211C291.894 373.023 286.484 366.587 285.496 365.654C284.508 364.722 283.078 364.576 283.078 364.576L276.907 365.649L274.568 364.456Z" fill="#160A5B"/>
<path d="M293.716 352.961C293.716 352.961 298.438 354.791 300.907 355.413C303.378 356.036 309.266 360.434 309.201 362.643C309.136 364.86 306.237 366.388 303.292 366.169C300.347 365.95 296.85 364.072 296.28 363.571C295.71 363.072 293.691 361.968 291.28 361.217C288.871 360.465 284.989 360.097 284.348 358.813C283.708 357.529 283.614 354.878 283.614 354.878L293.716 352.961Z" fill="#160A5B"/>
<path d="M283.048 352.163C283.083 351.936 283.245 351.554 283.275 351.396C283.489 350.227 283.286 345.478 283.286 345.478L282.246 346.901C282.246 346.901 282.978 351.656 284.399 359.091C284.76 360.977 285.747 362.923 285.893 363.992C286.326 367.175 284.436 367.797 284.436 367.797C280.598 370.685 277.319 368.941 276.139 368.012C274.961 367.085 274.562 365.593 272.927 360.234C271.303 354.912 269.892 343.668 270.243 340.996C270.552 338.637 271.41 332.053 271.367 327.526C271.325 323.028 267.864 308.649 267.864 308.649L282.173 305.871L291.94 300.812L299.394 301.935C299.394 301.935 300.338 298.786 301.321 308.589C302.319 318.531 296.295 336.124 296.295 336.124C294.706 344.835 294.301 354.853 293.399 356.209C292.495 357.57 288.933 360.775 285.636 358.283C285.03 357.826 284.339 357.346 283.976 356.854L283.048 352.163Z" fill="#24126A"/>
<path d="M282.246 346.902C282.246 346.902 286.952 334.092 289.182 321.676C291.375 309.477 295.174 307.761 296.753 305.571C296.753 305.571 299.131 306.661 300.391 306.875C300.544 306.902 300.681 306.915 300.795 306.911C301.844 306.878 295.535 314.732 294.401 316.748C293.265 318.769 286.74 336.056 286.287 338.442C285.832 340.836 285.368 357.512 285.898 358.467C286.427 359.424 284.092 357.746 284.092 357.746C284.092 357.746 282.651 354.059 282.246 346.902Z" fill="#160A5B"/>
<path d="M294.46 301.193L291.943 300.813L282.175 305.872L267.867 308.65C267.867 308.65 271.326 323.028 271.37 327.527C271.413 332.054 270.555 338.64 270.246 340.997C269.898 343.645 271.306 354.914 272.93 360.235C273.638 362.558 274.116 364.154 274.525 365.294C275.17 368.321 277.458 368.807 277.458 368.807C277.458 368.807 271.848 351.43 272.341 341.267C272.826 331.246 274.264 322.906 274.005 320.968C274.005 320.968 290.3 315.959 293.354 305.442C293.828 303.8 294.189 302.396 294.46 301.193Z" fill="#160A5B"/>
<path d="M266.236 230.048C266.236 230.048 265.077 231.024 264.827 232.017C264.576 233.011 263.145 236.542 263.145 236.542C263.145 236.542 256.333 245.584 255.105 248.354C253.874 251.136 253.477 253.213 253.477 253.213L271.519 275.43C271.519 275.43 265.203 297.211 266.965 305.155C268.749 313.191 271.069 316.184 273.908 317.052C276.752 317.921 291.926 311.676 292.975 303.721C294.011 295.857 293.589 294.857 293.589 294.857C293.589 294.857 300.676 296.75 301.12 294.942C301.562 293.14 300.227 280.156 299.862 278.299C299.498 276.448 298.408 255.966 298.408 255.966C298.408 255.966 294.09 237.072 293.843 236.141C293.596 235.211 290.915 228.112 287.465 227.713C284.017 227.315 279.718 232.799 279.718 232.799L266.236 230.048Z" fill="#453C9E"/>
<path d="M267.045 229.364C267.045 229.364 266.332 229.842 266.181 230.628C266.029 231.415 265.44 232.97 266.723 234.594C268.01 236.222 278.4 244.7 282.606 251.83C286.858 259.036 292.118 267.07 292.561 268.735C292.561 268.735 294.477 257.33 292.745 252.079C291.026 246.871 285.517 236.26 284.353 235.471C283.19 234.683 276.042 234.007 276.042 234.007L267.045 229.364Z" fill="#F0F6FF"/>
<path d="M277.777 240.833C277.777 240.833 277.214 241.762 277.048 242.479C277.048 242.479 274.029 240.939 272.768 240.372L277.4 243.591C277.4 243.591 277.673 241.907 277.904 241.655C277.904 241.655 280.547 243.675 280.921 244.573C281.295 245.472 286.18 257.749 286.18 257.749L288.747 261.942L289.409 260.926L285.208 249.487C285.208 249.487 282.843 245.884 282.81 245.801C282.777 245.717 281.177 241.849 281.177 241.849L277.777 240.833Z" fill="#C4CCD6"/>
<path d="M277.777 240.833C277.777 240.833 279.315 237.961 282.289 238.071C282.289 238.071 283.144 241.615 283.384 243.054C283.384 243.054 281.465 243.88 280.691 243.21C279.919 242.541 277.777 240.833 277.777 240.833Z" fill="#160A5B"/>
<path d="M282.932 242.289C282.932 242.289 290.581 251.72 293.251 263.103L292.695 268.974L288.67 261.804C288.67 261.804 282.08 245.336 280.547 242.32C279.022 239.316 282.932 242.289 282.932 242.289Z" fill="#160A5B"/>
<path d="M270.261 280.116C269.749 282.13 269.146 284.634 268.581 287.319C268.586 287.326 279.905 302.1 290.954 308.118C292.03 306.741 292.771 305.263 292.975 303.72C293.523 299.563 293.662 297.329 293.674 296.143L280.822 286.398L270.261 280.116Z" fill="#24126A"/>
<path d="M269.492 258.409C269.492 258.409 272.764 262.874 273.637 263.278C274.509 263.682 281.586 276.093 283.02 278.431C284.459 280.777 288.272 284.063 288.272 284.063L284.667 284.414L270.56 265.497L269.492 258.409Z" fill="#24126A"/>
<path d="M271.493 262.346C270.075 258.772 267.85 255.635 264.988 253.24C261.732 250.516 257.465 247.86 255.204 250.25C251.232 254.451 252.921 262.36 258.444 269.765C264.028 277.251 272.827 287.908 274.906 289.701C276.901 291.421 293.969 304.261 303.755 309.06C304.484 309.418 305.334 309.144 305.768 308.428C307.118 306.2 309.915 301.554 310.916 299.644C311.12 299.255 310.997 298.761 310.637 298.529C307.061 296.232 289.199 284.747 283.91 281.18C283.102 280.634 282.441 279.883 281.984 278.992C280.437 275.976 276.464 268.552 272.965 264.762C272.342 264.087 271.864 263.284 271.521 262.417C271.511 262.393 271.502 262.37 271.493 262.346Z" fill="#4846A5"/>
<path d="M284.629 231.738L290.877 238.055L289.265 238.615L291.323 239.812C291.323 239.812 296.322 251.618 295.232 264.992C295.232 264.992 297.714 254.475 292.338 239.567L290.675 238.725L291.797 238.369L284.629 231.738Z" fill="#24126A"/>
<path d="M266.914 228.295C267.028 228.54 267.09 228.806 267.067 229.078C267.02 229.637 266.955 230.583 267.005 230.987C267.08 231.578 270.998 238.176 279.003 238.233C279.003 238.233 279.963 236.803 280.155 236.523C280.155 236.523 283.393 236.373 284.742 235.192C286.089 234.013 285.259 231.948 285.259 231.948L285.454 229.476C285.478 229.177 285.61 228.898 285.827 228.693C286.112 228.423 286.487 228.024 286.555 227.733C286.625 227.436 286.435 226.923 286.28 226.574C286.174 226.336 286.131 226.079 286.16 225.819C286.232 225.194 286.294 223.863 285.852 222.206C285.725 221.729 285.72 221.225 285.842 220.745C286.041 219.957 286.323 218.793 286.356 218.378C286.407 217.73 285.309 216.007 285.259 215.327C285.211 214.648 284.265 212.349 284.265 212.349C284.265 212.349 278.314 201.299 268.706 206.082C259.026 210.901 264.073 221.245 265.269 224.176C265.269 224.176 266.424 226.561 266.628 227.093C266.797 227.538 266.675 227.78 266.914 228.295Z" fill="#FCD1C5"/>
<path d="M285.115 213.513C285.198 214.296 284.902 215.065 284.312 215.587C283.149 216.615 280.828 218.305 277.767 218.712C275.611 218.998 274.433 219.107 273.793 219.141C273.363 219.165 273.019 219.513 272.995 219.95C272.951 220.753 272.871 221.974 272.757 222.797C272.712 223.126 272.615 223.445 272.472 223.747L271.79 225.194C271.62 225.554 271.25 225.772 270.861 225.743L270.703 225.73C270.268 225.697 269.92 225.363 269.862 224.925L269.853 224.862C269.702 223.73 269.038 222.717 268.025 222.239C267.513 221.999 266.932 221.891 266.353 222.128C264.696 222.809 265.384 224.418 265.384 224.418C265.384 224.418 263.374 222.004 262.467 218.79C261.565 215.592 261.774 209.807 265.957 206.782C270.119 203.771 275.557 202.551 280.196 205.814C284.031 208.511 284.927 211.761 285.115 213.513Z" fill="#AA8383"/>
<path d="M269.279 227.06C269.069 226.806 269.336 229.015 267.068 229.077C267.021 229.635 266.955 230.581 267.006 230.986C267.08 231.577 270.998 238.175 279.003 238.232C279.003 238.232 279.964 236.802 280.155 236.522C280.155 236.522 272.807 232.954 271.505 231.334C270.206 229.718 269.49 227.315 269.279 227.06Z" fill="#E2B1A6"/>
<path d="M282.289 238.071C282.289 238.071 284.468 238.321 285.486 238.864C285.486 238.864 285.775 237.734 285.194 236.513C285.194 236.513 285.846 237.038 285.838 239.639C285.838 239.639 282.64 238.601 282.399 238.532L282.289 238.071Z" fill="#C4CCD6"/>
<path d="M306.632 306.675C306.632 306.675 288.098 296.02 281.816 291.773C275.576 287.552 258.014 269.639 254.421 262.743C255.343 265.046 256.702 267.431 258.444 269.766C264.027 277.252 272.827 287.91 274.905 289.702C276.9 291.422 293.969 304.262 303.755 309.062C304.482 309.419 305.333 309.145 305.768 308.43C306.03 307.998 306.347 307.473 306.694 306.896C306.656 306.759 306.632 306.675 306.632 306.675Z" fill="#24126A"/>
<path d="M264.005 237.101L272.471 249.142L274.65 248.369L274.769 250.667C274.769 250.667 284.902 258.216 292.481 273.896C292.481 273.896 282.45 257.745 274.464 252.369L273.737 250.063L272.038 250.453L264.005 237.101Z" fill="#24126A"/>
<path d="M263.245 220.347C263.153 220.315 263.067 220.292 262.98 220.268C263.972 222.716 265.386 224.418 265.386 224.418C265.386 224.418 264.699 222.809 266.355 222.128C266.934 221.89 267.515 221.997 268.027 222.239C269.04 222.717 269.704 223.73 269.855 224.862L269.864 224.925C269.922 225.362 270.27 225.696 270.705 225.73L270.863 225.743C271.252 225.773 271.622 225.554 271.791 225.194L272.474 223.747C272.616 223.445 272.714 223.126 272.759 222.797C272.873 221.975 272.953 220.753 272.997 219.95C272.997 219.95 267.347 221.779 263.245 220.347Z" fill="#936D6D"/>
<path opacity="0.4" d="M364.559 204.801L360.401 202.402V210.401L364.559 212.801V204.801Z" fill="#42E8E0"/>
<path opacity="0.6" d="M371.981 223.714L367.824 221.315V214.686L371.981 217.086V223.714Z" fill="#42E8E0"/>
<path opacity="0.8" d="M379.404 215.506L375.247 213.105V218.971L379.404 221.372V215.506Z" fill="#42E8E0"/>
<path d="M386.826 213.849L382.669 211.448V223.258L386.826 225.657V213.849Z" fill="#42E8E0"/>
<path d="M394.249 212.953L390.092 210.554V227.543L394.249 229.943V212.953Z" fill="#42E8E0"/>
<path opacity="0.8" d="M401.672 222.419L397.515 220.02V231.828L401.672 234.228V222.419Z" fill="#42E8E0"/>
<path opacity="0.6" d="M409.095 223.658L404.938 221.258V236.114L409.095 238.513V223.658Z" fill="#42E8E0"/>
<path opacity="0.4" d="M416.518 221.544L412.36 219.143V240.399L416.518 242.798V221.544Z" fill="#42E8E0"/>
<path opacity="0.4" d="M488.773 345.695C489.767 346.27 490.573 345.929 490.573 344.935L490.593 302.36C490.593 301.365 489.789 300.095 488.794 299.52C487.8 298.946 486.994 299.286 486.994 300.28L486.974 342.855C486.974 343.849 487.778 345.121 488.773 345.695Z" fill="#42E8E0"/>
<path opacity="0.6" d="M482.346 341.981C483.34 342.555 484.145 342.215 484.145 341.221L484.159 313.39C484.159 312.395 483.355 311.125 482.361 310.55C481.368 309.976 480.561 310.316 480.561 311.31L480.547 339.141C480.547 340.135 481.352 341.407 482.346 341.981Z" fill="#42E8E0"/>
<path opacity="0.8" d="M475.92 338.267C476.914 338.841 477.72 338.501 477.72 337.507L477.737 300.219C477.737 299.225 476.933 297.953 475.939 297.379C474.946 296.805 474.139 297.145 474.139 298.139L474.121 335.427C474.121 336.42 474.927 337.692 475.92 338.267Z" fill="#42E8E0"/>
<path d="M469.494 334.552C470.488 335.126 471.294 334.786 471.294 333.792L471.305 310.637C471.305 309.643 470.501 308.373 469.507 307.797C468.514 307.224 467.707 307.563 467.707 308.557L467.695 331.712C467.695 332.706 468.5 333.978 469.494 334.552Z" fill="#42E8E0"/>
<path d="M463.068 330.838C464.063 331.413 464.868 331.072 464.868 330.078L464.881 304.687C464.881 303.692 464.076 302.422 463.082 301.847C462.088 301.273 461.282 301.612 461.282 302.607L461.27 327.998C461.268 328.993 462.074 330.264 463.068 330.838Z" fill="#42E8E0"/>
<path opacity="0.8" d="M456.641 327.124C457.636 327.698 458.441 327.359 458.441 326.364L458.449 309.52C458.449 308.526 457.644 307.255 456.65 306.68C455.656 306.105 454.85 306.446 454.85 307.44L454.841 324.284C454.843 325.278 455.648 326.549 456.641 327.124Z" fill="#42E8E0"/>
<path opacity="0.6" d="M450.215 323.409C451.208 323.983 452.015 323.643 452.015 322.649L452.025 302.138C452.025 301.144 451.221 299.873 450.227 299.298C449.232 298.724 448.427 299.064 448.427 300.058L448.417 320.569C448.417 321.564 449.221 322.835 450.215 323.409Z" fill="#42E8E0"/>
<path opacity="0.4" d="M443.789 319.695C444.784 320.269 445.589 319.93 445.589 318.935L445.593 311.439C445.593 310.445 444.789 309.174 443.794 308.599C442.8 308.025 441.995 308.365 441.995 309.359L441.991 316.855C441.989 317.85 442.795 319.122 443.789 319.695Z" fill="#42E8E0"/>
<defs>
<radialGradient id="paint0_radial_1579_585" cx="0" cy="0" r="1" gradientUnits="userSpaceOnUse" gradientTransform="translate(367.568 395.096) rotate(149.999) scale(233.531 202.246)">
<stop stop-color="#42E8E0"/>
<stop offset="0.1539" stop-color="#33AEB9"/>
<stop offset="0.3113" stop-color="#267A95"/>
<stop offset="0.4663" stop-color="#1B5078"/>
<stop offset="0.6156" stop-color="#132E61"/>
<stop offset="0.7574" stop-color="#0D1651"/>
<stop offset="0.8889" stop-color="#090847"/>
<stop offset="1" stop-color="#080344"/>
</radialGradient>
<linearGradient id="paint1_linear_1579_585" x1="282.882" y1="327.754" x2="217.631" y2="367.866" gradientUnits="userSpaceOnUse">
<stop stop-color="#42E8E0"/>
<stop offset="0.1507" stop-color="#43E3E0"/>
<stop offset="0.3285" stop-color="#45D5DF"/>
<stop offset="0.5199" stop-color="#49BDDD"/>
<stop offset="0.7209" stop-color="#4E9CDB"/>
<stop offset="0.9274" stop-color="#5472D8"/>
<stop offset="1" stop-color="#5761D7"/>
</linearGradient>
<linearGradient id="paint2_linear_1579_585" x1="321.156" y1="310.64" x2="394.556" y2="288.749" gradientUnits="userSpaceOnUse">
<stop stop-color="#42E8E0"/>
<stop offset="0.1507" stop-color="#43E3E0"/>
<stop offset="0.3285" stop-color="#45D5DF"/>
<stop offset="0.5199" stop-color="#49BDDD"/>
<stop offset="0.7209" stop-color="#4E9CDB"/>
<stop offset="0.9274" stop-color="#5472D8"/>
<stop offset="1" stop-color="#5761D7"/>
</linearGradient>
<linearGradient id="paint3_linear_1579_585" x1="304.559" y1="252.149" x2="370.594" y2="241.843" gradientUnits="userSpaceOnUse">
<stop stop-color="#42E8E0"/>
<stop offset="0.1507" stop-color="#43E3E0"/>
<stop offset="0.3285" stop-color="#45D5DF"/>
<stop offset="0.5199" stop-color="#49BDDD"/>
<stop offset="0.7209" stop-color="#4E9CDB"/>
<stop offset="0.9274" stop-color="#5472D8"/>
<stop offset="1" stop-color="#5761D7"/>
</linearGradient>
<linearGradient id="paint4_linear_1579_585" x1="295.923" y1="204.019" x2="356.692" y2="200.341" gradientUnits="userSpaceOnUse">
<stop stop-color="#42E8E0"/>
<stop offset="0.1507" stop-color="#43E3E0"/>
<stop offset="0.3285" stop-color="#45D5DF"/>
<stop offset="0.5199" stop-color="#49BDDD"/>
<stop offset="0.7209" stop-color="#4E9CDB"/>
<stop offset="0.9274" stop-color="#5472D8"/>
<stop offset="1" stop-color="#5761D7"/>
</linearGradient>
<linearGradient id="paint5_linear_1579_585" x1="290.575" y1="161.711" x2="341.588" y2="155.211" gradientUnits="userSpaceOnUse">
<stop stop-color="#42E8E0"/>
<stop offset="0.1507" stop-color="#43E3E0"/>
<stop offset="0.3285" stop-color="#45D5DF"/>
<stop offset="0.5199" stop-color="#49BDDD"/>
<stop offset="0.7209" stop-color="#4E9CDB"/>
<stop offset="0.9274" stop-color="#5472D8"/>
<stop offset="1" stop-color="#5761D7"/>
</linearGradient>
<linearGradient id="paint6_linear_1579_585" x1="283.049" y1="123.748" x2="332.365" y2="109.169" gradientUnits="userSpaceOnUse">
<stop stop-color="#42E8E0"/>
<stop offset="0.1507" stop-color="#43E3E0"/>
<stop offset="0.3285" stop-color="#45D5DF"/>
<stop offset="0.5199" stop-color="#49BDDD"/>
<stop offset="0.7209" stop-color="#4E9CDB"/>
<stop offset="0.9274" stop-color="#5472D8"/>
<stop offset="1" stop-color="#5761D7"/>
</linearGradient>
<linearGradient id="paint7_linear_1579_585" x1="262.982" y1="269.794" x2="202.764" y2="304.146" gradientUnits="userSpaceOnUse">
<stop stop-color="#42E8E0"/>
<stop offset="0.1507" stop-color="#43E3E0"/>
<stop offset="0.3285" stop-color="#45D5DF"/>
<stop offset="0.5199" stop-color="#49BDDD"/>
<stop offset="0.7209" stop-color="#4E9CDB"/>
<stop offset="0.9274" stop-color="#5472D8"/>
<stop offset="1" stop-color="#5761D7"/>
</linearGradient>
<linearGradient id="paint8_linear_1579_585" x1="249.304" y1="217.878" x2="194.024" y2="239.237" gradientUnits="userSpaceOnUse">
<stop stop-color="#42E8E0"/>
<stop offset="0.1507" stop-color="#43E3E0"/>
<stop offset="0.3285" stop-color="#45D5DF"/>
<stop offset="0.5199" stop-color="#49BDDD"/>
<stop offset="0.7209" stop-color="#4E9CDB"/>
<stop offset="0.9274" stop-color="#5472D8"/>
<stop offset="1" stop-color="#5761D7"/>
</linearGradient>
<linearGradient id="paint9_linear_1579_585" x1="246.371" y1="171.881" x2="195.432" y2="183.297" gradientUnits="userSpaceOnUse">
<stop stop-color="#42E8E0"/>
<stop offset="0.1507" stop-color="#43E3E0"/>
<stop offset="0.3285" stop-color="#45D5DF"/>
<stop offset="0.5199" stop-color="#49BDDD"/>
<stop offset="0.7209" stop-color="#4E9CDB"/>
<stop offset="0.9274" stop-color="#5472D8"/>
<stop offset="1" stop-color="#5761D7"/>
</linearGradient>
<linearGradient id="paint10_linear_1579_585" x1="249.218" y1="129.448" x2="200.609" y2="125.046" gradientUnits="userSpaceOnUse">
<stop stop-color="#42E8E0"/>
<stop offset="0.1507" stop-color="#43E3E0"/>
<stop offset="0.3285" stop-color="#45D5DF"/>
<stop offset="0.5199" stop-color="#49BDDD"/>
<stop offset="0.7209" stop-color="#4E9CDB"/>
<stop offset="0.9274" stop-color="#5472D8"/>
<stop offset="1" stop-color="#5761D7"/>
</linearGradient>
<linearGradient id="paint11_linear_1579_585" x1="282.878" y1="102.2" x2="273.567" y2="61.3799" gradientUnits="userSpaceOnUse">
<stop stop-color="#42E8E0"/>
<stop offset="0.1507" stop-color="#43E3E0"/>
<stop offset="0.3285" stop-color="#45D5DF"/>
<stop offset="0.5199" stop-color="#49BDDD"/>
<stop offset="0.7209" stop-color="#4E9CDB"/>
<stop offset="0.9274" stop-color="#5472D8"/>
<stop offset="1" stop-color="#5761D7"/>
</linearGradient>
<linearGradient id="paint12_linear_1579_585" x1="386.964" y1="247.573" x2="193.87" y2="191.208" gradientUnits="userSpaceOnUse">
<stop stop-color="#42E8E0"/>
<stop offset="0.1507" stop-color="#43E3E0"/>
<stop offset="0.3285" stop-color="#45D5DF"/>
<stop offset="0.5199" stop-color="#49BDDD"/>
<stop offset="0.7209" stop-color="#4E9CDB"/>
<stop offset="0.9274" stop-color="#5472D8"/>
<stop offset="1" stop-color="#5761D7"/>
</linearGradient>
<linearGradient id="paint13_linear_1579_585" x1="408.91" y1="279.39" x2="484.405" y2="288.769" gradientUnits="userSpaceOnUse">
<stop stop-color="#42E8E0"/>
<stop offset="0.1507" stop-color="#43E3E0"/>
<stop offset="0.3285" stop-color="#45D5DF"/>
<stop offset="0.5199" stop-color="#49BDDD"/>
<stop offset="0.7209" stop-color="#4E9CDB"/>
<stop offset="0.9274" stop-color="#5472D8"/>
<stop offset="1" stop-color="#5761D7"/>
</linearGradient>
<linearGradient id="paint14_linear_1579_585" x1="411.73" y1="279.585" x2="483.608" y2="288.515" gradientUnits="userSpaceOnUse">
<stop stop-color="#42E8E0"/>
<stop offset="0.1507" stop-color="#43E3E0"/>
<stop offset="0.3285" stop-color="#45D5DF"/>
<stop offset="0.5199" stop-color="#49BDDD"/>
<stop offset="0.7209" stop-color="#4E9CDB"/>
<stop offset="0.9274" stop-color="#5472D8"/>
<stop offset="1" stop-color="#5761D7"/>
</linearGradient>
<linearGradient id="paint15_linear_1579_585" x1="475.553" y1="287.211" x2="570.958" y2="311.688" gradientUnits="userSpaceOnUse">
<stop stop-color="#42E8E0"/>
<stop offset="0.1507" stop-color="#43E3E0"/>
<stop offset="0.3285" stop-color="#45D5DF"/>
<stop offset="0.5199" stop-color="#49BDDD"/>
<stop offset="0.7209" stop-color="#4E9CDB"/>
<stop offset="0.9274" stop-color="#5472D8"/>
<stop offset="1" stop-color="#5761D7"/>
</linearGradient>
<linearGradient id="paint16_linear_1579_585" x1="479.142" y1="287.927" x2="569.976" y2="311.23" gradientUnits="userSpaceOnUse">
<stop stop-color="#42E8E0"/>
<stop offset="0.1507" stop-color="#43E3E0"/>
<stop offset="0.3285" stop-color="#45D5DF"/>
<stop offset="0.5199" stop-color="#49BDDD"/>
<stop offset="0.7209" stop-color="#4E9CDB"/>
<stop offset="0.9274" stop-color="#5472D8"/>
<stop offset="1" stop-color="#5761D7"/>
</linearGradient>
<linearGradient id="paint17_linear_1579_585" x1="731.535" y1="676.167" x2="325.737" y2="377.909" gradientUnits="userSpaceOnUse">
<stop stop-color="#5761D7"/>
<stop offset="0.1779" stop-color="#5C66D9"/>
<stop offset="0.3876" stop-color="#6A73DF"/>
<stop offset="0.6134" stop-color="#8289E8"/>
<stop offset="0.849" stop-color="#A3A7F5"/>
<stop offset="1" stop-color="#BCBEFF"/>
</linearGradient>
<linearGradient id="paint18_linear_1579_585" x1="-105.672" y1="391.151" x2="488.749" y2="391.151" gradientUnits="userSpaceOnUse">
<stop stop-color="#C0BFF6"/>
<stop offset="0.2938" stop-color="#C5C4F7"/>
<stop offset="0.6399" stop-color="#D3D2F9"/>
<stop offset="1" stop-color="#E9E9FD"/>
</linearGradient>
<linearGradient id="paint19_linear_1579_585" x1="102.217" y1="419.882" x2="489.655" y2="244.604" gradientUnits="userSpaceOnUse">
<stop stop-color="#C0BFF6"/>
<stop offset="0.2938" stop-color="#C5C4F7"/>
<stop offset="0.6399" stop-color="#D3D2F9"/>
<stop offset="1" stop-color="#E9E9FD"/>
</linearGradient>
<linearGradient id="paint20_linear_1579_585" x1="507.208" y1="256.955" x2="507.218" y2="242.79" gradientUnits="userSpaceOnUse">
<stop stop-color="#C0BFF6"/>
<stop offset="0.2938" stop-color="#C5C4F7"/>
<stop offset="0.6399" stop-color="#D3D2F9"/>
<stop offset="1" stop-color="#E9E9FD"/>
</linearGradient>
<linearGradient id="paint21_linear_1579_585" x1="430.961" y1="346.864" x2="496.418" y2="233.667" gradientUnits="userSpaceOnUse">
<stop stop-color="#C0BFF6"/>
<stop offset="0.2938" stop-color="#C5C4F7"/>
<stop offset="0.6399" stop-color="#D3D2F9"/>
<stop offset="1" stop-color="#E9E9FD"/>
</linearGradient>
<linearGradient id="paint22_linear_1579_585" x1="370.883" y1="238.012" x2="495.55" y2="309.988" gradientUnits="userSpaceOnUse">
<stop stop-color="#080545"/>
<stop offset="0.0749" stop-color="#163D6B"/>
<stop offset="0.1539" stop-color="#23718E"/>
<stop offset="0.2318" stop-color="#2E9BAC"/>
<stop offset="0.3068" stop-color="#37BDC2"/>
<stop offset="0.3781" stop-color="#3DD5D3"/>
<stop offset="0.4442" stop-color="#41E3DD"/>
<stop offset="0.5" stop-color="#42E8E0"/>
<stop offset="0.5526" stop-color="#41E3DC"/>
<stop offset="0.6187" stop-color="#3DD3D2"/>
<stop offset="0.6919" stop-color="#36B9C0"/>
<stop offset="0.7704" stop-color="#2D96A8"/>
<stop offset="0.853" stop-color="#226889"/>
<stop offset="0.9377" stop-color="#143063"/>
<stop offset="1" stop-color="#080344"/>
</linearGradient>
</defs>
</svg>
