<svg width="40" height="40" viewBox="0 0 40 40" fill="none" xmlns="http://www.w3.org/2000/svg">
<g clip-path="url(#clip0_1581_86)">
<path d="M31.6667 5C32.5507 5 33.3986 5.35119 34.0237 5.97631C34.6488 6.60143 35 7.44928 35 8.33333V31.6667C35 32.5507 34.6488 33.3986 34.0237 34.0237C33.3986 34.6488 32.5507 35 31.6667 35H8.33333C7.44928 35 6.60143 34.6488 5.97631 34.0237C5.35119 33.3986 5 32.5507 5 31.6667V8.33333C5 7.44928 5.35119 6.60143 5.97631 5.97631C6.60143 5.35119 7.44928 5 8.33333 5H31.6667ZM31.6667 8.33333H8.33333V31.6667H31.6667V8.33333ZM20.0617 12.8817C20.5133 11.435 22.4617 11.2983 23.145 12.575L23.2317 12.7583L26.1283 20H28.3333C28.7581 20.0005 29.1667 20.1631 29.4756 20.4547C29.7845 20.7464 29.9704 21.1449 29.9953 21.569C30.0202 21.9931 29.8822 22.4106 29.6096 22.7364C29.3369 23.0621 28.9502 23.2715 28.5283 23.3217L28.3333 23.3333H25.0117C24.7098 23.3335 24.4135 23.2525 24.1537 23.0989C23.8939 22.9453 23.6802 22.7246 23.535 22.46L23.4483 22.2767L21.86 18.3033L19.1033 27.125C18.6717 28.505 16.845 28.7133 16.0917 27.55L15.9917 27.375L13.9683 23.3333H11.6667C11.2419 23.3329 10.8333 23.1702 10.5244 22.8786C10.2155 22.587 10.0296 22.1884 10.0047 21.7643C9.97982 21.3403 10.1178 20.9227 10.3904 20.5969C10.6631 20.2712 11.0498 20.0618 11.4717 20.0117L11.6667 20H14.99C15.5567 20 16.08 20.2833 16.39 20.7483L16.495 20.9317L17.1417 22.225L20.0617 12.8817Z" fill="#416879"/>
</g>
<defs>
<clipPath id="clip0_1581_86">
<rect width="40" height="40" fill="white"/>
</clipPath>
</defs>
</svg>
