<svg width="65" height="64" viewBox="0 0 65 64" fill="none" xmlns="http://www.w3.org/2000/svg">
<path d="M32.6252 63.75C15.0491 63.75 0.75 49.4509 0.75 31.8748C0.75 14.2991 15.0491 0 32.6252 0C50.2009 0 64.5 14.299 64.5 31.8748C64.5 49.4509 50.2009 63.75 32.6252 63.75ZM32.6252 1.31412C15.7736 1.31412 2.06412 15.0236 2.06412 31.8748C2.06412 48.7262 15.7736 62.4359 32.6252 62.4359C49.4764 62.4359 63.1859 48.7262 63.1859 31.8748C63.1859 15.0238 49.4764 1.31412 32.6252 1.31412Z" fill="white"/>
<path d="M45.8833 17.3545L27.141 36.0856L19.7208 28.6698L14.5625 33.8252L27.141 46.3962L51.0417 22.5097L45.8833 17.3545Z" fill="white"/>
</svg>
