<svg width="97" height="97" viewBox="0 0 97 97" fill="none" xmlns="http://www.w3.org/2000/svg">
<rect x="1.11504" y="1.11504" width="94.4068" height="94.4068" rx="13.7522" stroke="#375C71" stroke-width="2.23008"/>
<rect x="15" y="15" width="66" height="66" rx="12" fill="white"/>
<path d="M55.5714 53.463L55.258 55.3414L53.136 66.8016H52.7939L54.337 55.3414L54.5651 53.463H55.5714Z" fill="#DBDBDB"/>
<path d="M54.565 53.463H55.5712L55.2579 55.3414H54.3369L54.565 53.463Z" fill="#A6A6A6"/>
<path d="M62.2349 66.8016H61.8929L59.7709 55.3414L59.4575 53.463H60.4639L60.6919 55.3414L62.2349 66.8016Z" fill="#DBDBDB"/>
<path d="M60.4639 53.463L60.6919 55.3414H59.7709L59.4575 53.463H60.4639Z" fill="#A6A6A6"/>
<path d="M68.6002 66.8016H68.2582L66.136 55.3414L65.8228 53.463H66.829L67.0571 55.3414L68.6002 66.8016Z" fill="#DBDBDB"/>
<path d="M67.0571 55.3414H66.136L65.8228 53.463H66.829L67.0571 55.3414Z" fill="#A6A6A6"/>
<path d="M68.0577 54.3456H52.5078V52.7071H58.3289L60.2853 41.3248H67.4649L68.0577 54.3456Z" fill="#DBDBDB"/>
<path d="M68.0578 54.3456H67.2103L66.6577 41.3248H67.465L68.0578 54.3456Z" fill="#A6A6A6"/>
<path d="M53.2969 43.4104L54.687 44.2726L54.9508 43.8469C55.0284 43.7216 55.1699 43.6538 55.3167 43.6664C55.3977 43.6734 55.4794 43.6759 55.5613 43.6742C55.7082 43.6711 55.8448 43.7478 55.9142 43.8771L56.1509 44.3184L57.593 43.545L57.3563 43.1037C57.2869 42.9742 57.2986 42.8179 57.3825 42.6974C57.4292 42.6302 57.4722 42.5608 57.5113 42.4894C57.582 42.3602 57.7169 42.2798 57.8641 42.2845L58.3647 42.3004L58.4155 40.6654L57.9131 40.6502C57.7658 40.6458 57.6376 40.5556 57.5747 40.4223C57.5576 40.3861 57.5395 40.3502 57.5204 40.3147C57.5014 40.2792 57.4815 40.2442 57.4607 40.21C57.385 40.0845 57.3805 39.9286 57.4577 39.8039L57.7233 39.3751L56.3332 38.5129L56.0685 38.9394C55.9908 39.0645 55.8491 39.1322 55.7024 39.1196C55.6216 39.1126 55.5403 39.1098 55.4588 39.1115C55.3122 39.1146 55.1755 39.0379 55.1062 38.9086L54.8696 38.4672L53.4276 39.2406L53.6643 39.682C53.7336 39.8114 53.722 39.9675 53.6383 40.0881C53.5918 40.155 53.549 40.2241 53.5102 40.2954C53.4396 40.4248 53.3048 40.5053 53.1575 40.5008L52.6558 40.4854L52.605 42.1203L53.107 42.1359C53.2538 42.1405 53.3814 42.2304 53.4442 42.3633C53.4614 42.3996 53.4796 42.4358 53.4989 42.4717C53.5179 42.5072 53.5378 42.5422 53.5585 42.5764C53.6347 42.7026 53.6391 42.8593 53.5615 42.9845L53.2969 43.4104ZM54.3293 42.0259C53.9796 41.3739 54.2245 40.5625 54.8766 40.2127C55.5287 39.863 56.3412 40.1072 56.691 40.7594C57.0407 41.4115 56.7953 42.2247 56.1432 42.5744C55.491 42.9242 54.679 42.678 54.3293 42.0259Z" fill="#EBEBEB"/>
<path d="M65.6507 39.0338L66.2234 40.0264L66.5271 39.8509C66.6165 39.7993 66.7263 39.8041 66.8128 39.8605C66.8606 39.8917 66.9101 39.9203 66.9612 39.9463C67.0529 39.9929 67.1119 40.0856 67.1119 40.1885V40.5394H68.2582V40.1885C68.2582 40.0857 68.3172 39.993 68.4089 39.9463C68.46 39.9203 68.5095 39.8918 68.5573 39.8605C68.6438 39.8041 68.7536 39.7991 68.8429 39.8509L69.1467 40.0264L69.7194 39.0338L69.4142 38.8581C69.3247 38.8066 69.2755 38.7084 69.2808 38.6053C69.2822 38.5773 69.2829 38.5492 69.2829 38.521C69.2829 38.4927 69.2822 38.4646 69.2808 38.4366C69.2755 38.3339 69.3245 38.2362 69.4133 38.1849L69.7193 38.0081L69.1465 37.0155L68.8419 37.1912C68.7525 37.2428 68.6426 37.2377 68.5562 37.1812C68.5087 37.1501 68.4594 37.1215 68.4085 37.0956C68.3169 37.0489 68.2581 36.9564 68.2581 36.8535V36.5027H67.1118V36.8535C67.1118 36.9564 67.0529 37.0489 66.9613 37.0956C66.9105 37.1215 66.8611 37.1501 66.8136 37.1812C66.7272 37.2377 66.6173 37.2427 66.5278 37.1912L66.2231 37.0155L65.6504 38.0081L65.9552 38.184C66.0443 38.2354 66.0934 38.3333 66.0881 38.4361C66.0867 38.4642 66.086 38.4925 66.086 38.5211C66.086 38.5493 66.0867 38.5775 66.0881 38.6054C66.0934 38.7085 66.0441 38.8067 65.9547 38.8584L65.6507 39.0338ZM66.7464 38.521C66.7464 38.0026 67.1663 37.5827 67.6846 37.5827C68.203 37.5827 68.6238 38.0026 68.6238 38.521C68.6238 39.0393 68.203 39.4601 67.6846 39.4601C67.1663 39.4601 66.7464 39.0393 66.7464 38.521Z" fill="#EBEBEB"/>
<path d="M22.9678 49.388L23.5405 50.3805L23.8443 50.2051C23.9336 50.1534 24.0434 50.1583 24.1299 50.2147C24.1777 50.2458 24.2272 50.2745 24.2783 50.3005C24.37 50.3471 24.429 50.4397 24.429 50.5426V50.8934H25.5753V50.5426C25.5753 50.4396 25.6343 50.3471 25.726 50.3005C25.7771 50.2745 25.8268 50.2458 25.8744 50.2147C25.9607 50.1583 26.0707 50.1533 26.1601 50.2051L26.4639 50.3805L27.0367 49.388L26.7315 49.2123C26.642 49.1608 26.5928 49.0626 26.598 48.9595C26.5995 48.9315 26.6001 48.9034 26.6001 48.8752C26.6001 48.8469 26.5995 48.8188 26.598 48.7908C26.5928 48.6881 26.6417 48.5904 26.7307 48.5391L27.0367 48.3623L26.4639 47.3697L26.1593 47.5454C26.0699 47.597 25.9599 47.5918 25.8736 47.5354C25.8261 47.5043 25.7767 47.4757 25.7259 47.4498C25.6343 47.4031 25.5754 47.3106 25.5754 47.2077V46.8569H24.4291V47.2077C24.4291 47.3106 24.3703 47.4031 24.2787 47.4498C24.2278 47.4757 24.1785 47.5043 24.131 47.5354C24.0445 47.5918 23.9347 47.5969 23.8452 47.5454L23.5405 47.3697L22.9678 48.3623L23.2726 48.5382C23.3617 48.5896 23.4108 48.6874 23.4055 48.7903C23.404 48.8184 23.4034 48.8466 23.4034 48.8753C23.4034 48.9035 23.404 48.9316 23.4055 48.9596C23.4108 49.0627 23.3615 49.1609 23.2722 49.2125L22.9678 49.388ZM24.0635 48.8752C24.0635 48.3568 24.4834 47.9369 25.0018 47.9369C25.5201 47.9369 25.9409 48.3568 25.9409 48.8752C25.9409 49.3935 25.5201 49.8143 25.0018 49.8143C24.4834 49.8143 24.0635 49.3935 24.0635 48.8752Z" fill="#EBEBEB"/>
<path d="M41.4907 48.0015L38.6278 66.7925H38.0635L39.8306 48.0015H41.4907Z" fill="#EBEBEB"/>
<path d="M41.49 48.0015L41.2169 49.7968H39.6611L39.8302 48.0015H41.49Z" fill="#A6A6A6"/>
<path d="M67.7095 48.0015L70.5724 66.7925H71.1367L69.3695 48.0015H67.7095Z" fill="#EBEBEB"/>
<path d="M67.71 48.0015L67.9831 49.7968H69.5388L69.3697 48.0015H67.71Z" fill="#A6A6A6"/>
<path d="M72.2012 46.015H36.9985V47.6109H72.2012V46.015Z" fill="#EBEBEB"/>
<path d="M71.6669 47.6109H37.5327V48.0015H71.6669V47.6109Z" fill="#C7C7C7"/>
<path d="M48.0002 74.0834C62.7993 74.0834 74.7964 72.7201 74.7964 71.0383C74.7964 69.3566 62.7993 67.9932 48.0002 67.9932C33.2011 67.9932 21.2041 69.3566 21.2041 71.0383C21.2041 72.7201 33.2011 74.0834 48.0002 74.0834Z" fill="#375C71" fill-opacity="0.5"/>
<path d="M18.9214 66.8071L26.191 66.775L33.4608 66.7634L48.0001 66.7412L62.5393 66.7633L69.8091 66.7749L77.0787 66.8071L69.8091 66.8394L62.5393 66.851L48.0001 66.8729L33.4608 66.8509L26.191 66.8392L18.9214 66.8071Z" fill="#263238"/>
<path d="M37.1448 34.7496C39.977 34.7496 42.273 32.4536 42.273 29.6214C42.273 26.7891 39.977 24.4932 37.1448 24.4932C34.3126 24.4932 32.0166 26.7891 32.0166 29.6214C32.0166 32.4536 34.3126 34.7496 37.1448 34.7496Z" fill="#00425F"/>
<path d="M37.1448 33.5357C39.3066 33.5357 41.0591 31.7832 41.0591 29.6214C41.0591 27.4595 39.3066 25.707 37.1448 25.707C34.983 25.707 33.2305 27.4595 33.2305 29.6214C33.2305 31.7832 34.983 33.5357 37.1448 33.5357Z" fill="white"/>
<path d="M39.8678 30.2696C40.226 28.7667 39.2982 27.258 37.7953 26.8998C36.2925 26.5415 34.7838 27.4694 34.4255 28.9722C34.0673 30.4751 34.9951 31.9838 36.498 32.342C38.0008 32.7003 39.5095 31.7724 39.8678 30.2696Z" fill="#00425F"/>
<path d="M38.6528 29.9671C38.8437 29.1347 38.3237 28.3051 37.4913 28.1141C36.6588 27.9231 35.8292 28.4431 35.6383 29.2756C35.4473 30.108 35.9673 30.9376 36.7997 31.1286C37.6322 31.3196 38.4618 30.7996 38.6528 29.9671Z" fill="white"/>
<path d="M37.8439 29.6214C37.8439 30.0075 37.531 30.3204 37.1449 30.3204C36.7588 30.3204 36.4458 30.0075 36.4458 29.6214C36.4458 29.2353 36.7588 28.9223 37.1449 28.9223C37.531 28.9223 37.8439 29.2353 37.8439 29.6214Z" fill="#00425F"/>
<path d="M44.1483 22.4587L37.5215 29.0856L37.6804 29.2445L44.3073 22.6177L44.1483 22.4587Z" fill="#455A64"/>
<path d="M38.0112 29.3893L37.145 29.6214L37.3771 28.7551L38.0112 29.3893Z" fill="#263238"/>
<path d="M45.3368 22.1069L44.0943 23.3494L43.1196 23.6466L43.4169 22.6721L44.6595 21.4294L44.3621 22.4041L45.3368 22.1069Z" fill="#263238"/>
<path d="M29.0083 52.8674C29.0021 52.7774 28.999 52.6876 28.999 52.6005H29.098C29.098 52.6854 29.1011 52.7729 29.107 52.8607L29.0083 52.8674Z" fill="#263238"/>
<path d="M39.2353 60.5353L39.2182 60.5352V60.4362L39.2365 60.4363C39.4032 60.4363 39.5746 60.4324 39.7444 60.4243L39.7491 60.5233C39.5775 60.5314 39.4047 60.5353 39.2353 60.5353ZM38.5546 60.5141C38.3784 60.5031 38.2003 60.4876 38.0255 60.468L38.0365 60.3695C38.2098 60.389 38.3862 60.4044 38.5608 60.4153L38.5546 60.5141ZM40.4105 60.4722L40.4 60.3738C40.5731 60.3552 40.7487 60.3319 40.9218 60.3051L40.9369 60.4028C40.7624 60.4301 40.5853 60.4534 40.4105 60.4722ZM37.3684 60.3746C37.1963 60.3449 37.021 60.3101 36.8476 60.2713L36.8692 60.1747C37.0411 60.2133 37.2148 60.2477 37.3853 60.2771L37.3684 60.3746ZM41.5895 60.2812L41.5687 60.1846C41.7396 60.1477 41.9119 60.1062 42.0804 60.0615L42.1058 60.1572C41.9356 60.2023 41.7619 60.244 41.5895 60.2812ZM36.2045 60.107C36.0356 60.0586 35.8651 60.0051 35.6977 59.9485L35.7295 59.8546C35.8955 59.911 36.0644 59.9638 36.2318 60.0118L36.2045 60.107ZM42.7423 59.9696L42.7118 59.8755C42.8755 59.8223 43.0427 59.7638 43.209 59.7019L43.2436 59.7947C43.0761 59.8573 42.9074 59.916 42.7423 59.9696ZM35.0755 59.7168C34.9126 59.6507 34.7485 59.5797 34.5883 59.5057L34.6297 59.4157C34.7888 59.4891 34.9513 59.5595 35.1128 59.6249L35.0755 59.7168ZM43.8589 59.5461L43.8194 59.4553C43.9799 59.3856 44.1396 59.3105 44.2942 59.2321L44.339 59.3205C44.1827 59.3999 44.0211 59.4756 43.8589 59.5461ZM33.9936 59.2106C33.8368 59.1268 33.681 59.0391 33.5308 58.9499L33.5814 58.8647C33.7303 58.9532 33.8847 59.04 34.0403 59.1231L33.9936 59.2106ZM44.9186 58.9998L44.8675 58.9149C45.0171 58.8249 45.1661 58.7292 45.3104 58.6303L45.3663 58.712C45.2203 58.8121 45.0697 58.9088 44.9186 58.9998ZM32.9698 58.5948C32.8225 58.4955 32.6768 58.3923 32.5363 58.2878L32.5955 58.2083C32.7346 58.3119 32.8793 58.4144 33.0251 58.5128L32.9698 58.5948ZM45.9001 58.3188L45.8388 58.2412C45.9754 58.1331 46.1111 58.0197 46.242 57.9044L46.3075 57.9788C46.1754 58.0952 46.0382 58.2096 45.9001 58.3188ZM32.0156 57.8761C31.8798 57.762 31.7456 57.6437 31.6169 57.5248L31.6843 57.4521C31.8116 57.5701 31.9446 57.6872 32.0792 57.8003L32.0156 57.8761ZM46.7919 57.5263L46.7221 57.4559C46.8437 57.3354 46.9664 57.2077 47.0871 57.0771L47.1598 57.1441C47.0382 57.2759 46.9143 57.4046 46.7919 57.5263ZM31.1437 57.0585C31.0214 56.9302 30.9014 56.7976 30.7871 56.6646L30.8622 56.6002C30.9753 56.7319 31.0941 56.8631 31.2154 56.9902L31.1437 57.0585ZM47.5961 56.6452L47.52 56.5818C47.6309 56.4486 47.7418 56.3103 47.8494 56.1709L47.9278 56.2315C47.8194 56.3717 47.7079 56.5109 47.5961 56.6452ZM30.3718 56.1458C30.2653 56.0029 30.1627 55.8562 30.0669 55.7099L30.1496 55.6558C30.2443 55.8002 30.3458 55.9452 30.4511 56.0868L30.3718 56.1458ZM48.3226 55.6994L48.2419 55.6418C48.3433 55.4994 48.4431 55.3547 48.5416 55.2079L48.6238 55.2631C48.525 55.4107 48.4245 55.5562 48.3226 55.6994ZM29.7251 55.1394C29.6392 54.9813 29.5596 54.8208 29.4883 54.6627L29.5786 54.6219C29.649 54.778 29.7275 54.9362 29.8122 55.0923L29.7251 55.1394ZM48.9842 54.707L48.9004 54.6545C48.9933 54.5062 49.0852 54.3562 49.1762 54.2046L49.261 54.2554C49.1698 54.4078 49.0776 54.5582 48.9842 54.707ZM29.2465 54.0421C29.1899 53.8692 29.1422 53.6963 29.105 53.5277L29.2016 53.5063C29.238 53.6716 29.2848 53.8415 29.3405 54.0111L29.2465 54.0421ZM49.5952 53.6836L49.5091 53.6346C49.596 53.4824 49.6821 53.3288 49.7675 53.1738L49.8541 53.2217C49.7683 53.377 49.6821 53.5312 49.5952 53.6836ZM50.1691 52.6392L50.0818 52.5928C50.1641 52.4379 50.2461 52.282 50.3277 52.1251L50.4156 52.1708C50.3337 52.328 50.2518 52.4841 50.1691 52.6392ZM50.7184 51.5823L50.6302 51.5374C50.7099 51.381 50.7895 51.2237 50.8691 51.0658L50.9576 51.1104C50.878 51.2683 50.7981 51.4259 50.7184 51.5823ZM51.2538 50.5189L51.1653 50.4746L51.4016 50.0013L51.4903 50.0457L51.2538 50.5189ZM51.7863 49.4545L51.6978 49.4101C51.7768 49.2529 51.856 49.0953 51.936 48.9376L52.0244 48.9824C51.9444 49.1399 51.8651 49.2975 51.7863 49.4545ZM52.3247 48.3936L52.2365 48.3482C52.3171 48.1916 52.3982 48.0351 52.4803 47.8784L52.568 47.9243C52.4861 48.0807 52.405 48.237 52.3247 48.3936ZM52.8774 47.3406L52.7903 47.2938C52.8733 47.1391 52.9574 46.9846 53.0424 46.8303L53.129 46.878C53.0442 47.0321 52.9604 47.1862 52.8774 47.3406ZM53.4508 46.3036L53.365 46.2547C53.452 46.1021 53.5402 45.9497 53.6298 45.7979L53.7151 45.8482C53.6257 45.9996 53.5378 46.1516 53.4508 46.3036ZM54.0544 45.2842L53.9701 45.2323C54.0621 45.0826 54.1555 44.9335 54.2505 44.785L54.334 44.8383C54.2395 44.9864 54.1462 45.135 54.0544 45.2842ZM54.6945 44.2881L54.6123 44.2329C54.7107 44.0867 54.8107 43.941 54.9123 43.7963L54.9932 43.8533C54.8921 43.9975 54.7924 44.1424 54.6945 44.2881ZM55.3794 43.3186L55.3 43.2596C55.4053 43.1181 55.5122 42.9775 55.6213 42.8382L55.6993 42.8993C55.5908 43.0378 55.4843 43.1777 55.3794 43.3186ZM56.1126 42.3857L56.0365 42.3225C56.1493 42.1869 56.2639 42.0524 56.3804 41.9195L56.455 41.9847C56.3388 42.1172 56.2248 42.251 56.1126 42.3857ZM56.8977 41.4971L56.8255 41.4293C56.9462 41.3008 57.0688 41.1738 57.1938 41.0483L57.2639 41.1181C57.1397 41.243 57.0176 41.3695 56.8977 41.4971ZM57.737 40.6597L57.6694 40.5872C57.7981 40.4672 57.9289 40.3484 58.0621 40.2315L58.1273 40.3059C57.9949 40.4222 57.8647 40.5402 57.737 40.6597ZM58.6299 39.8809L58.5675 39.8041C58.7053 39.692 58.8454 39.5818 58.9838 39.4765L59.0439 39.5553C58.9064 39.6599 58.767 39.7696 58.6299 39.8809ZM59.5755 39.167L59.5187 39.086C59.6622 38.9854 59.8098 38.8855 59.9573 38.7889L60.0115 38.8718C59.8651 38.9677 59.7182 39.0671 59.5755 39.167ZM60.5697 38.5225L60.5189 38.4375C60.6703 38.3469 60.8247 38.2577 60.9781 38.1724L61.0263 38.2589C60.8738 38.3438 60.7202 38.4323 60.5697 38.5225Z" fill="#263238"/>
<path d="M61.634 37.9363L61.5894 37.8478C61.6679 37.8082 61.7468 37.769 61.8268 37.7302L61.8701 37.8193C61.7908 37.858 61.712 37.8968 61.634 37.9363Z" fill="#263238"/>
<path d="M60.4 37.0222L59.6768 39.0087L61.1952 37.8228L67.0004 35.7174L60.4 37.0222Z" fill="#00425F"/>
<path opacity="0.1" d="M60.4 37.0222L59.6768 39.0087L61.1952 37.8228L67.0004 35.7174L60.4 37.0222Z" fill="#17153E"/>
<path d="M61.39 38.2855L59.6768 39.0086L61.1952 37.8228L61.39 38.2855Z" fill="#263238"/>
<path d="M61.1953 37.8228L67.0005 35.7174L62.2389 40.3641L61.1953 37.8228Z" fill="#00425F"/>
<path d="M60.4002 37.0222L57.9878 35.4646L67.0006 35.7174L60.4002 37.0222Z" fill="#00425F"/>
<path d="M37.5382 65.662H23.7261V66.1595H37.5382V65.662Z" fill="#455A64"/>
<path d="M37.5382 68.8517H23.7261V69.3493H37.5382V68.8517Z" fill="#455A64"/>
<path d="M37.5382 69.1758H23.7261V69.3493H37.5382V69.1758Z" fill="#37474F"/>
<path d="M37.996 69.3493H23.2676V70.149H37.996V69.3493Z" fill="#455A64"/>
<path d="M36.8556 66.1595H24.4077V68.8518H36.8556V66.1595Z" fill="#455A64"/>
<path d="M36.8556 66.1595H24.4077V66.8039H36.8556V66.1595Z" fill="#37474F"/>
<path d="M36.8556 68.2073H24.4077V68.8518H36.8556V68.2073Z" fill="#37474F"/>
<path d="M27.8057 52.5359C27.8057 52.5359 26.9607 51.4536 26.9936 51.3418C27.0265 51.23 29.1665 50.2533 30.4833 50.5497C31.8001 50.846 35.5312 52.7006 36.2665 55.6635C37.0017 58.6265 34.8619 62.8733 34.807 63.861C34.752 64.8486 35.1143 65.6621 35.1143 65.6621H34.0279C34.0279 65.6621 33.4463 64.5522 33.8084 62.8952C34.1705 61.2383 35.1143 58.0997 34.6973 56.3878C34.2803 54.6759 31.449 52.3933 30.6041 52.086C29.759 51.7786 27.8057 52.5359 27.8057 52.5359Z" fill="#263238"/>
<path d="M34.6207 65.662H25.755C25.755 65.662 25.755 63.3648 26.6329 61.9162C27.5109 60.4676 29.6165 58.9752 30.0409 58.2875C30.4652 57.5998 30.3659 56.9126 30.3659 56.9126C30.3659 56.9126 29.8726 57.6935 28.7386 57.9897C27.7419 58.2502 26.8555 57.9239 26.8555 57.9239C26.8555 57.9239 25.3733 58.4063 25.2708 58.5088C25.1684 58.6112 24.8319 58.902 24.5685 58.9166C24.3051 58.9313 23.4768 58.0355 23.4766 57.2453C23.4764 56.5851 26.295 54.132 26.295 54.132C26.295 54.132 26.6754 53.2249 26.7779 53.0201C26.8803 52.8152 29.4848 51.5715 30.1724 51.6155C30.8601 51.6593 33.8796 53.3316 34.8839 55.5075C35.8496 57.5998 34.8064 60.9311 34.445 62.3771C33.9183 64.4841 34.6207 65.662 34.6207 65.662Z" fill="#455A64"/>
<path d="M26.8555 55.2967L28.3501 54.4781C28.3501 54.4781 27.802 54.35 27.4676 54.4995C27.1329 54.6489 26.8555 55.2967 26.8555 55.2967Z" fill="#263238"/>
<path d="M29.0457 52.6983C29.0457 52.6983 27.8229 50.7047 27.8057 50.4816C27.7948 50.3389 29.5067 50.712 29.9676 51.0303C30.4286 51.3486 31.3174 52.3272 31.3174 52.3272L29.0457 52.6983Z" fill="#455A64"/>
<path d="M28.3501 50.8934C28.3501 50.8934 29.2018 51.1462 29.3689 51.3417C29.536 51.5372 29.8725 52.1225 29.8725 52.1225" fill="#263238"/>
<path d="M25.7805 65.1006L34.2601 64.2162C34.3195 65.156 34.6205 65.6616 34.6205 65.6616H25.7554L25.7805 65.1006Z" fill="#37474F"/>
<path d="M71.6729 23.0417H55.2534V33.3859H71.6729V23.0417Z" fill="#EBEBEB"/>
<path d="M56.6064 25.4095C58.8844 25.3954 61.1623 25.3989 63.4402 25.393C65.7181 25.3988 67.9961 25.3952 70.274 25.4095C67.9961 25.4238 65.7181 25.4202 63.4402 25.426C61.1623 25.4201 58.8844 25.4236 56.6064 25.4095Z" fill="#A6A6A6"/>
<path d="M56.6064 26.7598C58.8844 26.7457 61.1623 26.7493 63.4402 26.7433C65.7181 26.7492 67.9961 26.7456 70.274 26.7598C67.9961 26.7741 65.7181 26.7705 63.4402 26.7763C61.1623 26.7704 58.8844 26.7741 56.6064 26.7598Z" fill="#A6A6A6"/>
<path d="M56.6064 28.1104C58.8844 28.0962 61.1623 28.0998 63.4402 28.0939C65.7181 28.0997 67.9961 28.0961 70.274 28.1104C67.9961 28.1246 65.7181 28.1211 63.4402 28.1269C61.1623 28.1209 58.8844 28.1245 56.6064 28.1104Z" fill="#A6A6A6"/>
<path d="M56.6064 29.4607C58.8844 29.4466 61.1623 29.4502 63.4402 29.4442C65.7181 29.45 67.9961 29.4465 70.274 29.4607C67.9961 29.475 65.7181 29.4714 63.4402 29.4772C61.1623 29.4713 58.8844 29.475 56.6064 29.4607Z" fill="#A6A6A6"/>
<path d="M56.6064 30.8112C58.8844 30.7971 61.1623 30.8006 63.4402 30.7947C65.7181 30.8005 67.9961 30.7969 70.274 30.8112C67.9961 30.8254 65.7181 30.8219 63.4402 30.8277C61.1623 30.8217 58.8844 30.8253 56.6064 30.8112Z" fill="#A6A6A6"/>
<path d="M59.3583 24.5314C59.3784 25.7932 59.3732 27.055 59.3817 28.3168C59.3734 29.5786 59.3785 30.8404 59.3583 32.1022C59.3381 30.8404 59.3433 29.5786 59.335 28.3168C59.3433 27.055 59.3383 25.7932 59.3583 24.5314Z" fill="#A6A6A6"/>
<path d="M61.7216 24.5314C61.7417 25.7932 61.7365 27.055 61.745 28.3168C61.7367 29.5786 61.7418 30.8404 61.7216 32.1022C61.7014 30.8404 61.7066 29.5786 61.6982 28.3168C61.7067 27.055 61.7015 25.7932 61.7216 24.5314Z" fill="#A6A6A6"/>
<path d="M64.0854 24.5314C64.1054 25.7932 64.1003 27.055 64.1087 28.3168C64.1004 29.5786 64.1056 30.8404 64.0854 32.1022C64.0652 30.8404 64.0703 29.5786 64.062 28.3168C64.0705 27.055 64.0653 25.7932 64.0854 24.5314Z" fill="#A6A6A6"/>
<path d="M66.4487 24.5314C66.4687 25.7932 66.4636 27.055 66.472 28.3168C66.4637 29.5786 66.4689 30.8404 66.4487 32.1022C66.4285 30.8404 66.4336 29.5786 66.4253 28.3168C66.4337 27.055 66.4286 25.7932 66.4487 24.5314Z" fill="#A6A6A6"/>
<path d="M68.8124 24.5314C68.8325 25.7932 68.8273 27.055 68.8358 28.3168C68.8275 29.5786 68.8326 30.8404 68.8124 32.1022C68.7922 30.8404 68.7974 29.5786 68.7891 28.3168C68.7975 27.055 68.7924 25.7932 68.8124 24.5314Z" fill="#A6A6A6"/>
<path opacity="0.5" d="M56.9507 29.8316C57.3678 29.8316 57.6166 28.4599 58.2076 28.4599C58.7984 28.4599 58.8607 29.4607 59.3582 29.4607C59.8557 29.4607 59.8403 27.7027 60.5089 27.7027C61.1775 27.7027 61.022 28.416 61.7217 28.416C62.4214 28.416 62.157 26.7598 62.8879 26.7598C63.6188 26.7598 63.3232 29.0414 64.0853 29.0414C64.5673 29.0414 64.7539 28.3168 65.3293 28.3168C65.7102 28.3168 65.9349 28.6794 66.4329 28.6794C66.9387 28.6794 67.0397 27.2857 67.6617 27.2857C68.2837 27.2857 68.3548 28.1103 68.8123 28.1103C69.27 28.1103 69.4343 26.76 70.274 26.76V32.1024H56.9507V29.8316Z" fill="#00425F"/>
<path d="M56.9507 29.8976V29.7656C57.0769 29.7656 57.251 29.4452 57.3781 29.2113C57.5964 28.8094 57.8221 28.3939 58.2076 28.3939C58.5775 28.3939 58.7612 28.6982 58.9234 28.9667C59.0504 29.1771 59.1819 29.3947 59.3581 29.3947C59.5137 29.3947 59.6485 28.9726 59.747 28.6642C59.9083 28.1591 60.075 27.6366 60.5087 27.6366C60.896 27.6366 61.048 27.8417 61.1818 28.0226C61.3121 28.1983 61.4244 28.3498 61.7216 28.3498C61.9904 28.3498 62.0956 27.9629 62.1976 27.5887C62.3174 27.1486 62.4412 26.6936 62.8878 26.6936C63.3308 26.6936 63.444 27.2668 63.564 27.8734C63.661 28.3643 63.7816 28.9752 64.0852 28.9752C64.2665 28.9752 64.4149 28.8246 64.5717 28.6652C64.763 28.4707 64.9797 28.2504 65.329 28.2504C65.5389 28.2504 65.7027 28.3404 65.8612 28.4274C66.0273 28.5186 66.1991 28.6129 66.4325 28.6129C66.6052 28.6129 66.7625 28.2814 66.8891 28.0151C67.0748 27.6238 67.267 27.2192 67.6614 27.2192C68.0531 27.2192 68.2459 27.4823 68.4162 27.7145C68.5404 27.8839 68.6576 28.044 68.8122 28.044C68.9437 28.044 69.0927 27.7875 69.224 27.5611C69.4486 27.1746 69.728 26.6935 70.2738 26.6935V26.8255C69.8536 26.8255 69.6112 27.2429 69.3972 27.6111C69.214 27.9268 69.0692 28.176 68.8122 28.176C68.5438 28.176 68.4013 27.9813 68.2501 27.7752C68.0973 27.5668 67.9393 27.3514 67.6614 27.3514C67.4017 27.3514 67.2236 27.7262 67.0664 28.0572C66.8911 28.4262 66.7397 28.745 66.4326 28.745C66.1348 28.745 65.9285 28.6318 65.7464 28.5317C65.6006 28.4517 65.4747 28.3826 65.329 28.3826C65.0777 28.3826 64.8984 28.5646 64.7254 28.7405C64.5479 28.9208 64.3645 29.1072 64.0852 29.1072C63.6188 29.1072 63.5022 28.5168 63.3787 27.8916C63.285 27.4167 63.1681 26.8255 62.8879 26.8255C62.5958 26.8255 62.4819 27.2441 62.3812 27.6135C62.2597 28.0599 62.145 28.4817 61.7216 28.4817C61.3112 28.4817 61.1545 28.2701 61.0162 28.0836C60.8909 27.9145 60.7828 27.7684 60.5087 27.7684C60.2245 27.7684 60.0609 28.281 59.9294 28.693C59.7808 29.1586 59.6633 29.5263 59.3581 29.5263C59.0582 29.5263 58.9092 29.2794 58.7513 29.018C58.605 28.7759 58.4539 28.5255 58.2076 28.5255C57.9507 28.5255 57.7301 28.9317 57.5527 29.2581C57.3587 29.6157 57.2054 29.8976 56.9507 29.8976Z" fill="#00425F"/>
<path d="M56.9509 24.6135C56.966 25.8616 56.9792 27.1098 56.9805 28.3578L56.9947 32.1021L56.9511 32.0713L63.6127 32.079L66.9435 32.0851L70.2742 32.102L66.9435 32.1189L63.6127 32.125L56.9511 32.1328H56.9072L56.9074 32.1019L56.9215 28.3576C56.9227 27.1098 56.9359 25.8617 56.9509 24.6135Z" fill="#A6A6A6"/>
<path d="M39.3001 35.817H23.2998V44.6331H39.3001V35.817Z" fill="#EBEBEB"/>
<path d="M38.3709 36.9296H25.7158V37.6918H38.3709V36.9296Z" fill="white"/>
<path d="M34.4743 36.9296H25.7158V37.6918H34.4743V36.9296Z" fill="#455A64"/>
<path d="M38.3709 38.3869H25.7158V39.1489H38.3709V38.3869Z" fill="white"/>
<path d="M37.0776 38.3869H25.7158V39.1489H37.0776V38.3869Z" fill="#00425F"/>
<path d="M38.3709 39.8441H25.7158V40.6061H38.3709V39.8441Z" fill="white"/>
<path d="M33.7817 39.8441H25.7158V40.6061H33.7817V39.8441Z" fill="#455A64"/>
<path d="M38.3709 41.3012H25.7158V42.0634H38.3709V41.3012Z" fill="white"/>
<path d="M35.0234 41.3012H25.7158V42.0634H35.0234V41.3012Z" fill="#00425F"/>
<path d="M38.3709 42.7585H25.7158V43.5207H38.3709V42.7585Z" fill="white"/>
<path d="M31.772 42.7585H25.7158V43.5207H31.772V42.7585Z" fill="#455A64"/>
<path d="M25.3147 39.7623H24.3892V40.6879H25.3147V39.7623Z" fill="#455A64"/>
<path d="M24.7662 40.3231C24.7229 40.3231 24.6834 40.3231 24.6421 40.3231C24.6421 40.2745 24.6421 40.2288 24.6421 40.1805C24.6823 40.1805 24.7218 40.1805 24.7638 40.1805C24.7643 40.1697 24.765 40.1612 24.7651 40.1528C24.766 40.1154 24.7645 40.0778 24.7679 40.0406C24.7755 39.9587 24.8257 39.9011 24.9066 39.8898C24.957 39.8828 25.0093 39.8885 25.062 39.8885C25.062 39.9327 25.062 39.9731 25.062 40.0181C25.0432 40.0181 25.0245 40.0178 25.0058 40.0183C24.989 40.0187 24.972 40.018 24.9559 40.0216C24.9329 40.0267 24.9173 40.0423 24.9163 40.0666C24.9148 40.103 24.9159 40.1395 24.9159 40.1789C24.9627 40.1789 25.0084 40.1789 25.0574 40.1789C25.0514 40.2255 25.0463 40.2688 25.0395 40.3118C25.0389 40.3161 25.0281 40.3214 25.022 40.3215C24.9879 40.3224 24.9537 40.3219 24.9167 40.3219C24.9167 40.4444 24.9167 40.565 24.9167 40.6875C24.8658 40.6875 24.8178 40.6875 24.766 40.6875C24.7662 40.567 24.7662 40.4465 24.7662 40.3231Z" fill="white"/>
<path d="M25.3147 41.2195H24.3892V42.1451H25.3147V41.2195Z" fill="#00425F"/>
<path d="M24.8666 41.7298C24.8208 41.7298 24.7767 41.7298 24.7319 41.7298C24.7319 41.7019 24.7319 41.6767 24.7319 41.65C24.807 41.65 24.8815 41.65 24.9593 41.65C24.9593 41.6654 24.9599 41.6812 24.9592 41.6972C24.9533 41.8256 24.8697 41.9131 24.7466 41.9199C24.6207 41.9267 24.5142 41.8424 24.4948 41.7205C24.4787 41.6193 24.5266 41.5229 24.6181 41.4726C24.7032 41.4258 24.8145 41.4381 24.8903 41.5043C24.8718 41.5231 24.8537 41.5422 24.8347 41.5602C24.8322 41.5625 24.8243 41.5608 24.8195 41.5591C24.799 41.5514 24.7795 41.5404 24.7585 41.5356C24.6797 41.518 24.6017 41.572 24.5853 41.6536C24.5691 41.7348 24.6216 41.8136 24.7028 41.8297C24.7784 41.8446 24.8485 41.8034 24.8666 41.7298Z" fill="white"/>
<path d="M25.2126 41.6474C25.2126 41.6655 25.2128 41.6809 25.2126 41.6964C25.2126 41.7019 25.2121 41.7076 25.2117 41.7151C25.1897 41.7151 25.1687 41.7151 25.1449 41.7151C25.1449 41.7386 25.1449 41.7601 25.1449 41.7827C25.1212 41.7827 25.1002 41.7827 25.0773 41.7827C25.0773 41.7608 25.0773 41.7397 25.0773 41.7163C25.0542 41.7163 25.0326 41.7163 25.0098 41.7163C25.0098 41.6929 25.0098 41.6719 25.0098 41.6483C25.0315 41.6483 25.0531 41.6483 25.0766 41.6483C25.0766 41.6247 25.0766 41.6036 25.0766 41.581C25.0999 41.581 25.1213 41.581 25.1448 41.581C25.1448 41.6024 25.1448 41.6235 25.1448 41.6474C25.1679 41.6474 25.1894 41.6474 25.2126 41.6474Z" fill="white"/>
<path d="M25.3147 42.6766H24.3892V43.6022H25.3147V42.6766Z" fill="#455A64"/>
<path d="M24.4995 43.3686C24.5754 43.37 24.6437 43.3515 24.7052 43.3052C24.62 43.2793 24.5862 43.2535 24.5738 43.205C24.593 43.2041 24.6118 43.2032 24.6309 43.2023C24.5637 43.1765 24.5242 43.1314 24.519 43.0577C24.5396 43.0631 24.5586 43.0681 24.5778 43.0733C24.5161 42.9958 24.5037 42.9356 24.5404 42.8795C24.62 42.9705 24.7192 43.0221 24.8422 43.0304C24.8417 43.0208 24.8411 43.0135 24.8409 43.0064C24.8385 42.9429 24.8652 42.8948 24.9216 42.8668C24.9781 42.839 25.0329 42.8464 25.0819 42.8862C25.0927 42.8951 25.1018 42.8975 25.1142 42.8928C25.1372 42.8843 25.1602 42.8759 25.1854 42.8667C25.1748 42.8973 25.155 42.92 25.1294 42.9385C25.1299 42.9398 25.1305 42.9413 25.131 42.9426C25.1545 42.9365 25.178 42.9306 25.2015 42.9245C25.2024 42.9254 25.2033 42.9264 25.2043 42.9273C25.186 42.9456 25.1686 42.9649 25.1492 42.9821C25.1391 42.9911 25.1339 42.9991 25.1339 43.0135C25.1346 43.2289 24.9719 43.408 24.7582 43.4272C24.6719 43.435 24.5897 43.4194 24.5132 43.3772C24.5088 43.3745 24.5041 43.3715 24.4995 43.3686Z" fill="white"/>
<path d="M25.3211 36.8479H24.3955V37.7735H25.3211V36.8479Z" fill="#455A64"/>
<path d="M25.1989 37.1226C25.1985 37.0299 25.1407 36.97 25.0488 36.9691C24.9217 36.9677 24.7946 36.9677 24.6674 36.9691C24.5776 36.97 24.5193 37.0295 24.518 37.1193C24.5171 37.1826 24.5179 37.2463 24.5179 37.3096C24.5179 37.3717 24.5175 37.4338 24.518 37.4959C24.5188 37.5907 24.5766 37.6511 24.6704 37.6522C24.796 37.6535 24.9219 37.6536 25.0476 37.6522C25.1396 37.6511 25.1985 37.5907 25.1989 37.499C25.1995 37.3736 25.1994 37.2481 25.1989 37.1226ZM25.138 37.5002C25.1374 37.5588 25.1058 37.5912 25.0472 37.5916C24.9215 37.5924 24.7958 37.5924 24.6701 37.5916C24.6112 37.5913 24.5793 37.5588 24.579 37.5006C24.5785 37.3738 24.5785 37.2469 24.579 37.1202C24.5793 37.0621 24.6117 37.0287 24.6698 37.0283C24.7955 37.0274 24.9213 37.0274 25.0469 37.0283C25.1052 37.0287 25.1375 37.062 25.1382 37.1198C25.1388 37.1832 25.1383 37.2467 25.1383 37.31C25.1383 37.3734 25.1388 37.4369 25.138 37.5002Z" fill="white"/>
<path d="M24.8591 37.132C24.762 37.1317 24.6826 37.2105 24.6816 37.3079C24.6807 37.4065 24.757 37.486 24.8546 37.4878C24.9545 37.4897 25.035 37.4119 25.0359 37.3125C25.0369 37.213 24.9578 37.1322 24.8591 37.132ZM24.8568 37.4284C24.7935 37.4271 24.7408 37.3742 24.7401 37.3113C24.7395 37.2465 24.7929 37.1932 24.8587 37.1932C24.9243 37.1932 24.9779 37.2465 24.9773 37.3113C24.9768 37.3755 24.9211 37.4298 24.8568 37.4284Z" fill="white"/>
<path d="M25.0897 37.1277C25.0878 37.1527 25.0717 37.1658 25.0472 37.1646C25.0202 37.1633 25.0065 37.1468 25.0085 37.1202C25.0103 37.0953 25.0266 37.0838 25.0514 37.0823C25.0767 37.0867 25.0916 37.1011 25.0897 37.1277Z" fill="white"/>
<path d="M25.3147 38.292H24.3892V39.2176H25.3147V38.292Z" fill="#00425F"/>
<path d="M24.5068 39.0972C24.5216 39.044 24.5347 38.9947 24.5493 38.9455C24.5541 38.9296 24.5528 38.9169 24.5452 38.9017C24.4423 38.6941 24.5789 38.4432 24.8096 38.415C25.0218 38.3892 25.2013 38.5492 25.1968 38.7602C25.1931 38.9331 25.0463 39.0823 24.8727 39.0901C24.8135 39.0927 24.7571 39.0823 24.703 39.058C24.6936 39.0538 24.6805 39.0531 24.6704 39.0555C24.6172 39.068 24.5644 39.0823 24.5068 39.0972ZM24.5897 39.0167C24.6235 39.008 24.6522 38.9997 24.6812 38.9936C24.6907 38.9916 24.7029 38.9931 24.7114 38.9976C24.7549 39.0203 24.8004 39.0327 24.8495 39.0335C25.0257 39.0365 25.1678 38.8728 25.1342 38.7011C25.111 38.5824 25.038 38.5044 24.9203 38.4775C24.7993 38.4498 24.6965 38.4887 24.6234 38.5886C24.5518 38.6863 24.55 38.7915 24.6083 38.898C24.6135 38.9073 24.6148 38.921 24.6127 38.9316C24.6068 38.959 24.5982 38.9858 24.5897 39.0167Z" fill="white"/>
<path d="M24.7028 38.6142C24.7261 38.5829 24.7574 38.5892 24.7736 38.6237C24.7799 38.6372 24.7815 38.6418 24.7877 38.6573C24.7971 38.6805 24.795 38.6962 24.7782 38.7113C24.7659 38.7222 24.7671 38.7318 24.7756 38.7444C24.802 38.7835 24.8362 38.8129 24.8793 38.832C24.8925 38.8378 24.9011 38.8365 24.9107 38.825C24.9408 38.7891 24.9412 38.7895 24.9837 38.8095C24.9886 38.8117 24.9935 38.8141 24.9984 38.8165C25.031 38.832 25.0359 38.8615 25.0093 38.8872C24.9823 38.9136 24.9494 38.9195 24.9135 38.9104C24.8219 38.8872 24.7564 38.8295 24.7057 38.7524C24.6903 38.7289 24.6788 38.704 24.6797 38.675C24.6829 38.6483 24.6902 38.6314 24.7028 38.6142Z" fill="white"/>
<path d="M36.9923 72.4369C37.2823 72.5305 45.5498 72.4233 45.8618 72.2191C45.9816 72.1436 46.0363 70.938 46.0604 69.4794C46.0605 69.4641 46.0605 69.4489 46.0607 69.4337C46.0664 69.1332 46.0702 68.8236 46.0707 68.5099C46.0708 68.4667 46.071 68.4235 46.0723 68.3804L45.6711 64.0914L40.1406 64.1467L40.6864 68.3956L40.6928 68.5639L40.7262 69.4434L40.7293 69.5339C40.7293 69.5339 37.5831 70.9904 37.2635 71.2511C36.9466 71.5105 36.7021 72.3445 36.9923 72.4369Z" fill="#DD6A57"/>
<path d="M36.9923 72.4369C37.2823 72.5304 45.5498 72.4233 45.8618 72.2191C45.9816 72.1436 46.0363 70.938 46.0604 69.4794C46.0605 69.4641 46.0605 69.4489 46.0607 69.4337C46.0664 69.1332 46.0702 68.8236 46.0707 68.5099C46.0708 68.4667 46.071 68.4235 46.0723 68.3804L40.6864 68.3955L40.6928 68.5638L40.7262 69.4434L40.7293 69.5339C40.7293 69.5339 37.5831 70.9904 37.2635 71.2511C36.9466 71.5105 36.7021 72.3445 36.9923 72.4369Z" fill="#EBEBEB"/>
<path d="M36.9915 72.4363C37.1408 72.4844 39.3869 72.4794 41.5825 72.435C42.0239 72.4262 42.4628 72.416 42.8814 72.4047C44.4471 72.3616 45.7409 72.2972 45.861 72.2187C45.9799 72.1441 46.0343 70.9717 46.0583 69.54C46.0583 69.5198 46.0597 69.4995 46.0597 69.4793C46.0597 69.4641 46.0597 69.4476 46.0608 69.4326H46.0545L40.7262 69.4427L40.7287 69.5338C40.7287 69.5338 37.5821 70.9895 37.2633 71.2501C36.946 71.5105 36.7019 72.3439 36.9915 72.4363Z" fill="#00425F"/>
<path d="M37.0815 72.1151C38.4748 72.0628 44.099 71.9833 45.4801 72.0376C45.4914 72.0381 45.4915 72.0456 45.4803 72.0463C44.1005 72.1283 38.4758 72.1622 37.0818 72.1379C37.0523 72.1374 37.0521 72.1163 37.0815 72.1151Z" fill="#263238"/>
<path d="M40.1327 69.4662C40.6797 69.3568 41.3515 69.4323 41.7757 69.8175C41.7922 69.8324 41.7706 69.8555 41.7528 69.8502C41.2095 69.6867 40.7029 69.5837 40.1357 69.5354C40.0958 69.5319 40.0935 69.474 40.1327 69.4662Z" fill="#263238"/>
<path d="M39.7396 69.7099C40.2868 69.6004 40.9585 69.6759 41.3826 70.0612C41.3991 70.0762 41.3776 70.0993 41.3598 70.094C40.8165 69.9304 40.3099 69.8276 39.7427 69.7792C39.7027 69.7757 39.7004 69.7176 39.7396 69.7099Z" fill="#263238"/>
<path d="M39.347 69.9536C39.8941 69.8441 40.5659 69.9196 40.99 70.305C41.0065 70.3199 40.985 70.343 40.9671 70.3376C40.4238 70.174 39.9172 70.0711 39.35 70.0229C39.3101 70.0194 39.3079 69.9614 39.347 69.9536Z" fill="#263238"/>
<path d="M41.5825 72.435C42.0239 72.4262 42.4628 72.416 42.8814 72.4047C44.4472 72.3616 45.7409 72.2972 45.861 72.2187C45.98 72.1441 46.0343 70.9717 46.0584 69.54C46.0584 69.5198 46.0597 69.4995 46.0597 69.4793C46.0597 69.4641 46.0597 69.4476 46.0609 69.4326H46.0545C45.3249 69.9448 42.7524 71.6573 41.5825 72.435Z" fill="#263238"/>
<path d="M40.3636 69.4617H46.3179C46.3179 69.4617 45.119 55.5548 45.1657 55.3119C45.2251 55.0008 45.5768 53.5932 46.0447 51.7543C46.1914 51.1789 46.3495 50.5617 46.514 49.9217C46.9579 48.1916 47.4473 46.3008 47.8736 44.6555C48.5135 42.1905 49.0131 40.2757 49.0131 40.2757H43.9669C43.9669 40.2757 43.3788 42.1399 42.6376 44.5657C41.4298 48.5079 39.816 53.9335 39.6567 55.2525C39.3985 57.3822 40.3636 69.4617 40.3636 69.4617Z" fill="#37474F"/>
<path d="M40.6271 68.4457C41.5365 68.4268 41.2752 68.4195 42.1847 68.4106C42.6298 68.4063 45.5546 68.3809 45.9704 68.4497C45.9796 68.4513 45.9796 68.4667 45.9704 68.4682C45.5546 68.5371 42.6298 68.5116 42.1847 68.5072C41.2752 68.4985 41.5365 68.4911 40.6271 68.4721C40.61 68.472 40.61 68.4461 40.6271 68.4457Z" fill="#263238"/>
<path d="M44.0453 54.4619C44.2407 53.6011 44.5323 52.7576 44.7862 51.9128C45.3024 50.1962 45.8226 48.4807 46.3438 46.7656C46.6044 45.908 46.8655 45.0507 47.1292 44.194C47.2624 43.7614 47.3954 43.3287 47.5308 42.897C47.6633 42.4744 47.8141 42.0553 47.9337 41.629C47.9822 41.4555 48.0089 41.5508 47.9466 41.771C47.8211 42.2151 47.697 42.6598 47.5675 43.1026C47.311 43.98 47.0526 44.8568 46.7932 45.7333C46.2771 47.4776 45.7538 49.22 45.2312 50.9626C44.9692 51.8361 44.7053 52.7093 44.443 53.5829C44.3176 54.0003 44.1949 54.4202 44.1212 54.8504C44.0443 55.2992 44.0402 55.753 44.0687 56.2064C44.1258 57.1173 44.2313 58.0271 44.3154 58.9359C44.3997 59.8467 44.484 60.7575 44.5683 61.6682C44.7361 63.4807 44.904 65.2931 45.0671 67.1062C45.0879 67.336 45.1079 67.5657 45.1256 67.7957C45.1316 67.8727 45.0151 67.8669 45.0071 67.7928C44.8109 66.0005 44.6606 64.2024 44.4923 62.4074C44.3248 60.6211 44.1573 58.8349 43.9904 57.0487C43.9486 56.6003 43.9008 56.151 43.9004 55.7001C43.9001 55.2821 43.9528 54.8695 44.0453 54.4619Z" fill="#263238"/>
<path d="M44.5396 40.2756C44.8899 42.9859 45.5577 48.0675 46.0446 51.7543C47.1828 47.2873 49.0129 40.2756 49.0129 40.2756H44.5396Z" fill="#263238"/>
<path d="M43.2999 72.5164C43.5896 72.6111 51.8574 72.5341 52.1701 72.331C52.2903 72.2558 52.3493 71.0504 52.3788 69.592C52.379 69.5768 52.3791 69.5615 52.3794 69.5463C52.3861 69.2457 52.3911 68.9362 52.3927 68.6225C52.3929 68.5794 52.3932 68.5362 52.3948 68.4931C52.4141 66.3881 52.2623 64.204 52.2623 64.204L46.8581 64.2392L47.0089 68.4886L47.0146 68.6569L47.0448 69.5365L47.0477 69.6271C47.0477 69.6271 43.8962 71.0721 43.5757 71.3316C43.2576 71.5899 43.0101 72.4231 43.2999 72.5164Z" fill="#DD6A57"/>
<path d="M43.2999 72.5164C43.5896 72.6111 51.8574 72.5341 52.1701 72.331C52.2903 72.2559 52.3493 71.0504 52.3788 69.592C52.379 69.5768 52.3791 69.5615 52.3794 69.5463C52.3861 69.2457 52.3911 68.9362 52.3927 68.6226C52.393 68.5794 52.3932 68.5362 52.3948 68.4931L47.0088 68.4886L47.0145 68.6569L47.0447 69.5365L47.0476 69.6271C47.0476 69.6271 43.8961 71.0721 43.5756 71.3316C43.2576 71.5899 43.0101 72.4231 43.2999 72.5164Z" fill="#EBEBEB"/>
<path d="M43.2999 72.5164C43.5896 72.6111 51.8574 72.5341 52.1701 72.3309C52.2903 72.2558 52.3493 71.0504 52.3788 69.5919C52.379 69.5768 52.3791 69.5615 52.3794 69.5463L47.0447 69.5364L47.0476 69.6269C47.0476 69.6269 43.8961 71.0719 43.5756 71.3314C43.2576 71.5899 43.0101 72.4231 43.2999 72.5164Z" fill="#00425F"/>
<path d="M43.3906 72.195C44.784 72.1479 50.4085 72.0889 51.7895 72.1482C51.8007 72.1487 51.8009 72.1562 51.7895 72.1569C50.4095 72.2338 44.7847 72.2472 43.3907 72.2178C43.3614 72.2172 43.3612 72.1961 43.3906 72.195Z" fill="#263238"/>
<path d="M46.4512 69.5573C46.9988 69.4498 47.6702 69.5277 48.093 69.9146C48.1094 69.9296 48.0879 69.9526 48.0701 69.9472C47.5274 69.7817 47.0211 69.6769 46.4541 69.6266C46.414 69.623 46.4119 69.5649 46.4512 69.5573Z" fill="#263238"/>
<path d="M46.0576 69.7995C46.6051 69.6921 47.2766 69.7699 47.6994 70.1568C47.7158 70.1717 47.6942 70.1948 47.6764 70.1894C47.1338 70.0239 46.6274 69.9191 46.0605 69.8688C46.0205 69.8652 46.0184 69.8073 46.0576 69.7995Z" fill="#263238"/>
<path d="M45.664 70.0418C46.2116 69.9344 46.883 70.0123 47.3058 70.3991C47.3222 70.4141 47.3007 70.4372 47.2829 70.4317C46.7402 70.2662 46.2339 70.1614 45.6669 70.1111C45.6269 70.1076 45.6248 70.0495 45.664 70.0418Z" fill="#263238"/>
<path d="M44.1294 40.2756C44.1294 40.2756 44.2458 42.69 44.7984 44.6023C44.8426 44.7604 44.8906 44.9159 44.9425 45.0652C44.9425 45.0652 45.5179 45.2739 46.3969 45.8126C46.3969 45.8126 46.4551 47.7552 46.5133 49.9217C46.5779 52.3437 46.6448 55.0452 46.6309 55.6181C46.5804 57.7617 46.899 69.5489 46.899 69.5489L52.8521 69.573C52.8521 69.573 51.7758 56.4097 51.7834 55.6243C51.7948 54.3621 51.495 48.7834 51.2636 44.7147C51.122 42.2081 51.0057 40.2756 51.0057 40.2756H44.1294Z" fill="#37474F"/>
<path d="M47.1032 68.4899C48.0125 68.4749 47.7514 68.4664 48.6609 68.4614C49.106 68.459 52.0309 68.446 52.4463 68.5166C52.4555 68.5182 52.4554 68.5336 52.4463 68.5351C52.0301 68.6021 49.1056 68.5642 48.6605 68.558C47.751 68.5454 48.0123 68.5392 47.103 68.5163C47.086 68.5161 47.0861 68.4902 47.1032 68.4899Z" fill="#263238"/>
<path d="M50.5052 41.1382C50.6148 44.4594 50.7309 47.7811 50.8794 51.1009C51.0284 54.4322 51.2292 57.7621 51.508 61.0851C51.6638 62.9417 51.8105 65.5532 52.0109 67.4055C52.0122 67.4179 51.9932 67.4224 51.9917 67.4097C51.5582 64.1152 51.3166 60.0414 51.1034 56.7258C50.8902 53.4109 50.7458 50.0901 50.6328 46.7705C50.569 44.8927 50.52 43.0142 50.4639 41.1359C50.463 41.1093 50.5044 41.1116 50.5052 41.1382Z" fill="#263238"/>
<path d="M44.6956 44.9212C45.2883 45.1565 45.856 45.4781 46.3975 45.8126C46.4187 45.8256 46.4028 45.8589 46.3797 45.8477C45.8053 45.5686 45.219 45.3 44.6608 44.9897C44.6168 44.9654 44.6501 44.9032 44.6956 44.9212Z" fill="#263238"/>
<path d="M44.6622 42.8728C44.7015 43.0844 44.7529 43.2939 44.7985 43.5042C44.8414 43.7015 44.873 43.9028 44.9251 44.0979C44.9757 44.2871 45.0563 44.4605 45.2017 44.5956C45.2791 44.6675 45.3644 44.7311 45.4469 44.7971C45.4914 44.8326 45.5395 44.8668 45.5858 44.9027C45.5797 44.8747 45.575 44.8464 45.5698 44.8176C45.5557 44.7375 45.5421 44.6571 45.5286 44.5768C45.4987 44.3986 45.4702 44.2201 45.4428 44.0414C45.3891 43.6903 45.3397 43.3355 45.2665 42.9879C45.2634 42.9738 45.2848 42.9684 45.2884 42.9825C45.3759 43.3269 45.4724 43.6677 45.5486 44.015C45.5859 44.1854 45.7192 45.0265 45.7252 45.0861C45.7312 45.1476 45.7364 45.2092 45.7385 45.271C45.7408 45.332 45.7528 45.4001 45.7388 45.4599C45.7352 45.4752 45.7166 45.4727 45.7101 45.4624C45.7099 45.4627 45.7096 45.4628 45.7092 45.4631C45.6786 45.4095 45.6709 45.3395 45.6557 45.2802C45.6403 45.2203 45.6267 45.1593 45.616 45.0982C45.6121 45.0762 45.609 45.0536 45.606 45.0312C45.5231 44.9807 45.446 44.9142 45.3685 44.8581C45.2851 44.7976 45.1999 44.7388 45.121 44.6724C44.9697 44.545 44.8752 44.389 44.819 44.2003C44.7605 44.0046 44.7426 43.798 44.7199 43.5959C44.6932 43.3569 44.6735 43.1166 44.6403 42.8785C44.6383 42.8642 44.6594 42.8584 44.6622 42.8728Z" fill="#263238"/>
<path d="M46.4715 33.6496C46.2471 34.5684 43.8112 39.5435 43.8298 39.8548C43.8342 39.928 45.3031 40.9146 45.3392 41.0308C45.4859 41.5037 43.0679 43.5069 42.5395 43.6261C40.9838 43.9769 39.6261 43.9039 39.6537 42.6277C39.6972 40.625 43.2171 35.6657 45.0206 33.9131C46.2079 32.7591 46.693 32.7429 46.4715 33.6496Z" fill="#DD6A57"/>
<path d="M41.9475 43.8632L44.8083 40.2756C44.8083 40.2756 43.9542 39.9671 43.9353 39.7675C43.9165 39.5679 45.9849 35.3121 46.4326 34.0612C46.8804 32.8102 46.533 32.5502 45.1924 33.6238C43.8516 34.6977 38.8747 41.6513 39.6122 43.1997C40.1205 44.2669 41.9475 43.8632 41.9475 43.8632Z" fill="#00425F"/>
<path d="M43.9339 39.7905C43.8061 39.8177 43.6859 39.8754 43.5663 39.9271C43.4463 39.9791 43.3273 40.0336 43.2088 40.0889C42.9758 40.1976 42.7429 40.3098 42.5175 40.4337C42.2931 40.5573 42.0726 40.6899 41.8554 40.8258C41.8046 40.8576 41.7535 40.8894 41.7024 40.9216C41.6818 40.9283 41.6614 40.9353 41.6412 40.9424C41.5552 40.9725 41.4701 41.0053 41.3873 41.0434C41.227 41.1172 41.0734 41.2045 40.9242 41.2987C40.9133 41.3056 40.9238 41.3217 40.9347 41.3153C41.0893 41.227 41.2514 41.1531 41.4174 41.089C41.4391 41.0805 41.4611 41.0733 41.4829 41.0649C41.3962 41.1234 41.3109 41.1837 41.2296 41.2484C41.0121 41.4217 40.8052 41.5984 40.6103 41.7974C40.6013 41.8065 40.6157 41.8196 40.6246 41.8109C40.9789 41.467 41.4259 41.2196 41.8529 40.9785C42.2954 40.7287 42.726 40.4584 43.1693 40.2106C43.2963 40.1396 43.4249 40.0718 43.5553 40.0074C43.6849 39.9433 43.8223 39.8912 43.9444 39.8138C43.9576 39.8053 43.9475 39.7876 43.9339 39.7905Z" fill="#263238"/>
<path d="M51.6263 43.8626C51.6045 43.8838 42.8815 43.2869 42.8085 43.1918C42.7066 43.0578 45.351 33.7501 46.3295 32.6468C46.539 32.4109 47.7664 32.1604 48.422 32.7812C49.8134 34.0989 50.7895 38.3389 50.9937 39.6118C51.3331 41.7089 51.704 43.7859 51.6263 43.8626Z" fill="#00425F"/>
<path d="M45.3606 34.6264C45.3648 34.6122 45.3416 34.6024 45.3358 34.6167C45.192 34.9754 45.0583 35.338 44.9282 35.702C44.9341 35.6498 44.9398 35.5976 44.9437 35.5451C44.9543 35.4072 44.9528 35.2687 44.9654 35.1308C44.9666 35.1177 44.9455 35.118 44.9448 35.1313C44.9379 35.2738 44.911 35.4139 44.8902 35.5547C44.8713 35.6816 44.854 35.8086 44.8326 35.9352C44.8289 35.9574 44.8255 35.9798 44.8218 36.0021C44.6106 36.6084 44.4117 37.219 44.2183 37.831C43.874 38.9201 43.5593 40.019 43.2605 41.1214C43.0919 41.7428 42.9443 42.3693 42.8055 42.9977C42.8026 43.0108 42.8217 43.0154 42.8255 43.0028C43.1488 41.912 43.4613 40.818 43.7832 39.7268C44.0794 38.7228 44.3912 37.7231 44.7069 36.725C44.7131 36.7273 44.7209 36.7258 44.7232 36.7173C44.7464 36.6307 44.7688 36.5445 44.7906 36.4582C44.9841 35.8487 45.1795 35.24 45.3606 34.6264Z" fill="#263238"/>
<path d="M46.106 33.0335C46.1069 33.0294 46.1129 33.0304 46.1124 33.0346C46.0608 33.4287 45.9671 34.3443 46.5914 34.331C46.843 34.3257 47.0817 34.1852 47.2825 34.0453C47.4886 33.9017 47.6752 33.7314 47.8458 33.5473C48.0351 33.3429 48.2302 33.1284 48.3832 32.8952C48.3897 32.8853 48.4046 32.8972 48.3976 32.9071C48.2338 33.1387 48.0939 33.3818 47.9077 33.598C47.7286 33.806 47.5279 33.9974 47.299 34.1501C47.0845 34.2932 46.831 34.4323 46.5656 34.4253C46.3129 34.4187 46.1403 34.2507 46.0825 34.0131C46.0063 33.7009 46.0359 33.3435 46.106 33.0335Z" fill="#263238"/>
<path d="M48.9959 34.712C51.1175 36.2899 53.5839 37.1501 54.6022 36.7508C55.3946 36.4401 57.9597 34.0913 58.3794 32.1933C58.4719 31.7743 55.2545 31.4075 55.1285 31.682C54.7573 32.4904 53.3059 33.8928 53.1589 33.8723C52.9655 33.8454 50.7702 33.3756 49.0373 32.9676C46.9458 32.4754 47.8348 33.8484 48.9959 34.712Z" fill="#DD6A57"/>
<path d="M58.9611 31.5143C58.7931 32.1946 57.9051 33.4516 57.5742 33.6725C57.2434 33.8933 55.0562 32.4548 55.0249 32.0478C54.9936 31.6408 55.7369 29.3939 56.3048 28.9593C56.8726 28.5246 59.1352 30.8094 58.9611 31.5143Z" fill="#DD6A57"/>
<path d="M55.0842 31.6428C55.0842 31.6428 54.9698 30.7385 54.6088 30.021C54.3053 29.4178 53.7864 28.5564 54.1045 28.3811C54.7579 28.021 56.0511 30.1697 56.0511 30.1697C56.0511 30.1697 56.4694 31.2093 55.8538 31.6233C55.4678 31.883 55.0842 31.6428 55.0842 31.6428Z" fill="#DD6A57"/>
<path d="M55.5657 29.8033C55.8348 30.0591 56.0306 29.8248 56.0306 29.8248C56.0306 29.8248 55.6356 30.4271 55.8907 30.7486C56.1374 31.0579 56.5516 30.6405 56.5817 30.611C56.5611 30.643 56.2126 31.206 56.5022 31.5026C56.8034 31.8107 57.1474 31.3203 57.1695 31.2886C57.1596 31.3249 57.0358 31.8082 57.3071 31.9835C57.7735 32.2846 58.1238 31.058 58.5255 30.8563C58.5255 30.8563 58.9449 31.4981 58.961 31.5141C58.961 31.5141 59.3182 30.3538 59.0159 29.8273C58.8566 29.5497 58.5664 29.6434 58.5664 29.6434C58.5664 29.6434 58.723 29.282 58.5023 29.0412C58.3886 28.9179 58.0904 28.99 58.0904 28.99C58.0904 28.99 58.2037 28.6955 57.9939 28.4935C57.8272 28.3318 57.5539 28.4293 57.5539 28.4293C57.5539 28.4293 58.6525 26.9814 58.3233 26.7125C57.7563 26.2494 55.8322 29.3461 55.5109 29.3789C55.3514 29.395 55.4485 29.6918 55.5657 29.8033Z" fill="#DD6A57"/>
<path d="M57.5083 28.4381C57.5137 28.4343 57.5094 28.426 57.5033 28.429C56.8988 28.7276 56.326 29.2408 56.0096 29.8409C55.9992 29.8605 56.0097 29.9635 56.0228 29.9422C56.3478 29.4095 56.9253 28.8522 57.5083 28.4381Z" fill="#263238"/>
<path d="M58.0954 28.9806C58.1017 28.9761 58.0943 28.9656 58.0869 28.9694C57.4656 29.2804 56.8365 29.8762 56.5532 30.6108C56.5435 30.636 56.5601 30.6684 56.5734 30.6402C56.7988 30.1661 57.5686 29.3509 58.0954 28.9806Z" fill="#263238"/>
<path d="M57.1675 31.3468C57.4663 30.653 57.9575 30.1248 58.5399 29.6549C58.5474 29.6487 58.538 29.6386 58.5304 29.6421C58.1828 29.7944 57.8428 30.1326 57.6004 30.4182C57.3684 30.6919 57.2139 30.9853 57.1433 31.3364C57.1405 31.35 57.1611 31.3616 57.1675 31.3468Z" fill="#263238"/>
<path d="M56.0181 29.8266C56.0057 29.8502 56.0867 29.8352 56.0751 29.8593C55.9502 30.1212 55.7495 30.6009 55.9395 30.751C56.0921 30.8709 56.359 30.7489 56.4431 30.6619L56.6547 30.443L56.5321 30.7222C56.4785 30.8441 56.4392 30.9803 56.4283 31.1121C56.4171 31.2438 56.441 31.3777 56.5247 31.4634C56.6104 31.5546 56.7305 31.5826 56.8392 31.5241C56.9489 31.4709 57.0464 31.3648 57.118 31.2575L57.3181 30.9574L57.2276 31.305C57.203 31.3991 57.1888 31.503 57.1893 31.6012C57.1905 31.6994 57.2079 31.7985 57.2589 31.8706C57.3085 31.9415 57.3976 31.986 57.4789 31.9705C57.5647 31.9555 57.6473 31.8898 57.7193 31.8199C57.8646 31.6754 57.9808 31.4977 58.1046 31.3274C58.1661 31.2416 58.2276 31.1553 58.2935 31.0719C58.36 30.9906 58.4294 30.904 58.5255 30.8565C58.4355 30.9132 58.3777 31.0046 58.3171 31.0892C58.2585 31.1764 58.204 31.2665 58.1493 31.3567C58.0399 31.5373 57.9277 31.718 57.7819 31.8804C57.707 31.9581 57.6229 32.0398 57.4994 32.0702C57.3716 32.1004 57.2401 32.0352 57.1691 31.9353C57.0962 31.8335 57.0775 31.7141 57.0738 31.6033C57.0718 31.4906 57.0846 31.3831 57.1116 31.2728L57.2211 31.3202C57.1374 31.4477 57.0398 31.5625 56.8949 31.6386C56.8235 31.6755 56.7328 31.6928 56.6477 31.6731C56.562 31.6537 56.4918 31.6066 56.4359 31.547C56.32 31.4225 56.2988 31.2489 56.3136 31.1022C56.3292 30.9514 56.3721 30.8117 56.4344 30.6751L56.5234 30.7354C56.4126 30.8425 56.1292 31.0113 55.8692 30.8551C55.5604 30.6008 55.9401 29.9421 56.0181 29.8266Z" fill="#263238"/>
<path d="M54.6681 32.0778L57.8431 34.0431C57.8431 34.0431 55.5248 37.0245 54.0052 37.0592C52.4856 37.0939 48.9866 35.4423 47.8774 34.2176C46.9168 33.1569 47.9929 32.6023 48.9885 32.8944C49.9842 33.1866 53.1001 33.8015 53.1879 33.7577C53.2758 33.7138 54.6681 32.0778 54.6681 32.0778Z" fill="#00425F"/>
<path d="M57.2596 34.6308C57.1587 34.5396 57.0328 34.4695 56.9208 34.3924C56.7989 34.3084 56.677 34.2241 56.5544 34.1411C56.3192 33.9815 56.0749 33.8346 55.8322 33.6867C55.3387 33.3862 54.8458 33.0762 54.3302 32.8145C54.3203 32.8094 54.3083 32.8237 54.3181 32.831C54.7756 33.1707 55.2648 33.4702 55.7467 33.7737C55.9871 33.9251 56.2273 34.0781 56.4739 34.2191C56.5971 34.2896 56.7219 34.3573 56.8461 34.4262C56.9775 34.499 57.1097 34.5897 57.2494 34.6448C57.2578 34.6482 57.2676 34.638 57.2596 34.6308Z" fill="#263238"/>
<path d="M50.0242 35.7103C49.9771 35.6605 49.3913 35.371 48.8373 35.3294C48.8241 35.3285 48.8195 35.3458 48.8323 35.3495C48.989 35.394 49.1383 35.4575 49.293 35.508C49.3242 35.5182 49.3561 35.5272 49.3876 35.5371C49.36 35.5354 49.3326 35.5335 49.305 35.5323C49.2167 35.5282 49.1282 35.5239 49.0398 35.5191C49.0308 35.5186 49.03 35.5321 49.0381 35.5343C49.1249 35.5591 49.2109 35.5743 49.3009 35.58C49.3677 35.5842 49.4347 35.5793 49.5014 35.5719C49.5076 35.5736 49.5135 35.5759 49.5197 35.5776C49.5875 35.596 49.9462 35.725 50.0163 35.7307C50.0274 35.7316 50.0306 35.717 50.0242 35.7103Z" fill="#263238"/>
<path d="M46.5868 33.9073C47.0304 33.9819 47.8287 33.2034 48.0892 32.6428C48.1067 32.6042 48.0242 32.2171 47.9461 31.7418C47.8998 31.4532 47.8551 31.1307 47.8355 30.8336C47.8318 30.7726 47.6314 30.8983 47.6314 30.8983L47.253 31.0165L46.0015 31.4091C46.0015 31.4091 46.2257 32.02 46.2566 32.5382C46.2587 32.5815 46.2571 32.6222 46.2519 32.661C46.2516 32.6667 46.2504 32.6735 46.2505 32.6813C46.2282 32.9155 46.158 33.835 46.5868 33.9073Z" fill="#DD6A57"/>
<path d="M46.2524 32.661C46.2521 32.6667 46.2509 32.6735 46.251 32.6813C46.3099 32.6858 46.3737 32.685 46.4432 32.6788C47.6963 32.5682 47.748 30.9623 47.748 30.9623L47.2534 31.0164L46.002 31.409C46.002 31.409 46.2262 32.0199 46.2571 32.5381C46.2592 32.5817 46.2575 32.6222 46.2524 32.661Z" fill="#263238"/>
<path d="M45.7895 27.9964C45.7895 27.9964 45.1826 28.2312 45.0578 28.8388C44.9331 29.4466 45.0568 30.0899 45.1088 30.1225C45.1608 30.155 45.7895 27.9964 45.7895 27.9964Z" fill="#263238"/>
<path d="M48.2216 28.9059C48.3977 29.5755 47.9737 31.4737 47.4864 31.8815C46.7799 32.4729 45.6604 32.4883 45.1674 31.6476C44.6896 30.8327 45.286 28.3689 45.8268 28.0021C46.6234 27.4616 47.9615 27.9166 48.2216 28.9059Z" fill="#DD6A57"/>
<path d="M46.5008 30.0746C46.5027 30.07 46.5096 30.0828 46.5083 30.0879C46.4781 30.2154 46.4647 30.3666 46.5722 30.433C46.5755 30.435 46.5738 30.4414 46.5697 30.44C46.432 30.391 46.4515 30.1905 46.5008 30.0746Z" fill="#263238"/>
<path d="M46.6428 29.964C46.8524 29.9905 46.7841 30.4078 46.5898 30.3832C46.3988 30.3591 46.4671 29.9418 46.6428 29.964Z" fill="#263238"/>
<path d="M45.7509 29.9319C45.7507 29.9267 45.7398 29.9364 45.739 29.9417C45.7218 30.0715 45.6804 30.2175 45.5564 30.2413C45.5526 30.2421 45.5518 30.2486 45.5563 30.2487C45.7024 30.252 45.7555 30.0577 45.7509 29.9319Z" fill="#263238"/>
<path d="M45.6577 29.778C45.4524 29.7281 45.3677 30.1424 45.5579 30.1886C45.7452 30.234 45.8298 29.8197 45.6577 29.778Z" fill="#263238"/>
<path d="M46.8385 29.8002C46.784 29.7765 46.7377 29.7457 46.6862 29.7168C46.6281 29.6841 46.5785 29.6641 46.5471 29.602C46.5302 29.5688 46.548 29.5169 46.5787 29.4975C46.6504 29.4524 46.7315 29.4747 46.803 29.5111C46.8806 29.5507 46.9302 29.601 46.9654 29.6806C46.9997 29.7577 46.9104 29.8313 46.8385 29.8002Z" fill="#263238"/>
<path d="M45.5307 29.5413C45.5901 29.5414 45.6449 29.5315 45.7036 29.5255C45.7699 29.5187 45.8233 29.5201 45.8769 29.4757C45.9057 29.4519 45.91 29.3973 45.8895 29.3672C45.8417 29.2972 45.7585 29.2854 45.6784 29.2904C45.5914 29.2958 45.5258 29.3221 45.4619 29.3811C45.3999 29.4382 45.4523 29.5413 45.5307 29.5413Z" fill="#263238"/>
<path d="M46.4206 31.2501C46.3847 31.2753 46.3469 31.3118 46.2994 31.3081C46.2537 31.3046 46.2043 31.2755 46.1658 31.2528C46.162 31.2506 46.1571 31.2543 46.1592 31.2585C46.1847 31.3135 46.2502 31.3563 46.3118 31.3555C46.372 31.3549 46.4092 31.3091 46.4322 31.2578C46.4353 31.2508 46.4258 31.2465 46.4206 31.2501Z" fill="#263238"/>
<path d="M46.3483 30.8409C46.2575 30.9412 46.141 30.985 46.0224 30.9884C45.9693 30.9903 45.915 30.9833 45.8629 30.9697C45.8525 30.9677 45.8423 30.9649 45.8332 30.9612C45.824 30.9586 45.8157 30.9561 45.8056 30.9523C45.7908 30.9476 45.7846 30.9338 45.7845 30.9191L45.7846 30.9182C45.7856 30.9135 45.7862 30.9098 45.7881 30.9051C45.7881 30.9051 45.7881 30.9051 45.7882 30.9042L45.7903 30.8929C45.8039 30.7929 45.8384 30.6431 45.8384 30.6431C45.799 30.6554 45.5998 30.7083 45.6113 30.6568C45.7077 30.2306 45.8147 29.7566 46.0006 29.3527C46.0061 29.3391 46.0273 29.3458 46.0237 29.3598C45.9474 29.7731 45.7988 30.1703 45.7155 30.5842C45.7783 30.5714 45.8817 30.5457 45.9335 30.5552C45.947 30.5615 45.8617 30.8435 45.8592 30.8889C45.8592 30.8889 45.8588 30.8907 45.8593 30.8938C46.023 30.9426 46.1574 30.9128 46.3381 30.8271C46.3489 30.8213 46.3578 30.8317 46.3483 30.8409Z" fill="#263238"/>
<path d="M45.9297 30.9289C45.9297 30.9289 45.9985 31.0625 46.1122 31.1252C46.1541 31.1484 46.2011 31.1627 46.2535 31.1575C46.3612 31.1474 46.3793 31.053 46.3736 30.9689C46.3692 30.8997 46.3477 30.8372 46.3477 30.8372C46.3477 30.8372 46.1738 30.9536 45.9297 30.9289Z" fill="#263238"/>
<path d="M46.1123 31.1252C46.1541 31.1484 46.2011 31.1627 46.2535 31.1575C46.3613 31.1473 46.3793 31.053 46.3737 30.9689C46.2612 30.962 46.1394 31.0192 46.1123 31.1252Z" fill="#FF98B9"/>
<path d="M47.9173 30.4401C47.5272 30.4401 47.571 28.7151 47.571 28.7151C47.571 28.7151 47.1731 28.9025 46.8453 28.9258C46.5175 28.9492 46.1346 28.9025 46.0804 28.8869C46.0261 28.8713 46.7048 28.606 46.7048 28.606C46.7048 28.606 45.0039 28.9244 44.914 28.6072C44.8826 28.4964 45.6589 27.3306 46.8345 27.4124C47.7021 27.4728 48.1855 28.3677 48.1855 28.3677C48.1855 28.3677 48.6037 28.8353 48.5841 29.1082C48.558 29.4744 48.3307 30.4401 47.9173 30.4401Z" fill="#263238"/>
<path d="M47.7519 30.4481C47.7519 30.4481 48.2203 29.856 48.4914 30.0266C48.7625 30.1971 48.3849 31.0732 48.0486 31.1763C47.7123 31.2793 47.6108 30.97 47.6108 30.97L47.7519 30.4481Z" fill="#DD6A57"/>
<path d="M48.3767 30.2749C48.382 30.2748 48.3827 30.2822 48.3779 30.2839C48.1416 30.3636 48.0075 30.5705 47.9094 30.7872C47.9831 30.7059 48.0793 30.6647 48.1889 30.753C48.1947 30.7576 48.1884 30.7667 48.1819 30.765C48.0886 30.7391 48.0194 30.7516 47.9512 30.8235C47.9028 30.8744 47.8679 30.9403 47.8318 31.0002C47.8198 31.0202 47.7833 31.007 47.7925 30.9837C47.7932 30.982 47.7939 30.9802 47.7947 30.9785C47.8062 30.684 48.0591 30.2859 48.3767 30.2749Z" fill="#263238"/>
<path d="M46.2436 32.6493L46.6985 33.7453L48.0508 32.3364L48.4437 32.779C48.4437 32.779 47.1305 35.0078 47.121 34.9079L46.6564 33.964L46.0088 34.6318L46.043 32.9735L46.2436 32.6493Z" fill="#EBEBEB"/>
<path d="M45.9792 33.8111C45.994 33.5375 46.0013 33.2616 46.0288 32.9889C46.0298 32.9793 46.0449 32.9748 46.0475 32.9861C46.1053 33.2495 46.043 34.2956 46.0471 34.5461C46.048 34.5452 46.049 34.5441 46.0498 34.5432C46.0769 34.5143 46.6503 33.9553 46.6562 33.964C46.7564 34.1135 47.0974 34.8009 47.1209 34.8634C47.3285 34.5094 48.1251 33.222 48.3718 32.8866C48.379 32.877 48.3938 32.8846 48.3883 32.8958C48.2057 33.2693 47.1518 35.0027 47.1353 34.9981C47.1242 35.0069 46.7005 34.1603 46.6492 34C46.5525 34.1216 45.9743 34.7516 45.972 34.711C45.9551 34.4372 45.9643 34.0852 45.9792 33.8111Z" fill="#263238"/>
<path d="M50.3022 42.0052H44.1953V42.3617H50.3022V42.0052Z" fill="#455A64"/>
<path d="M47.9069 42.0052H44.1953V42.3617H47.9069V42.0052Z" fill="#263238"/>
<path d="M47.2663 42.3678L39.537 42.3682L38.4316 37.0928L46.1609 37.0925L47.2663 42.3678Z" fill="#455A64"/>
<path d="M43.3192 39.7303C43.3466 39.9914 43.1583 40.2031 42.8984 40.2031C42.6384 40.2031 42.4056 39.9914 42.3781 39.7303C42.3507 39.4692 42.5392 39.2574 42.799 39.2574C43.059 39.2576 43.2918 39.4692 43.3192 39.7303Z" fill="#263238"/>
<path d="M41.0879 42.6818C41.5651 42.94 42.142 43.557 42.5395 43.626C42.8983 43.6885 43.041 43.3953 43.041 43.3953C43.041 43.3953 43.2189 43.8046 43.5898 43.8079C43.7807 43.8096 43.951 43.5062 43.951 43.5062C43.951 43.5062 44.1079 43.828 44.4379 43.8106C44.7009 43.7966 44.8322 43.4947 44.8322 43.4947C44.8322 43.4947 45.1266 43.7332 45.3899 43.6331C45.9238 43.4303 46.0429 41.1733 45.2299 40.7808C44.8509 40.5978 44.8519 41.1506 44.8519 41.1506C44.8519 41.1506 44.6586 40.356 44.194 40.3194C43.7293 40.283 43.7738 41.0012 43.7738 41.0012C43.7738 41.0012 43.5798 40.2327 43.0943 40.2435C42.5889 40.2547 42.7564 40.9656 42.7564 40.9656C42.7564 40.9656 42.4426 40.4457 42.0727 40.5392C41.4621 40.6934 42.155 41.8717 42.0112 42.3615H41.2038L41.0879 42.6818Z" fill="#DD6A57"/>
<path d="M41.7749 43.123C41.3018 42.918 41.0756 43.2555 40.5815 43.1913C40.0328 43.1201 40.211 42.4758 41.1748 42.3615L42.0108 42.3617L41.7749 43.123Z" fill="#DD6A57"/>
<path d="M44.8598 43.4501C44.8589 43.4576 44.8691 43.4604 44.8713 43.453C45.0914 42.7201 45.1085 41.8476 44.8554 41.1207C44.847 41.0968 44.8047 41.1 44.8089 41.128C44.9266 41.9271 44.9673 42.6456 44.8598 43.4501Z" fill="#263238"/>
<path d="M43.9551 43.5174C43.9539 43.5261 43.9684 43.5283 43.9711 43.5191C44.1936 42.7628 44.186 41.7794 43.7955 40.976C43.7822 40.9484 43.7425 40.9371 43.7555 40.9701C43.9745 41.524 44.0556 42.7938 43.9551 43.5174Z" fill="#263238"/>
<path d="M42.7093 40.9164C43.054 41.7012 43.1123 42.5176 43.0517 43.3648C43.0509 43.3758 43.0667 43.3758 43.0698 43.3668C43.2124 42.9605 43.1947 42.4164 43.1452 41.9944C43.0977 41.5901 42.9737 41.2347 42.7368 40.9043C42.7275 40.8914 42.7019 40.8995 42.7093 40.9164Z" fill="#263238"/>
<path d="M66.1413 55.2649C66.187 54.5981 66.2686 53.9304 66.4236 53.2795C66.5636 52.6917 66.7621 52.0907 67.1329 51.6049C67.4715 51.1613 67.9579 50.8078 68.5233 50.7386C69.0678 50.6719 69.5793 50.9145 69.9865 51.2576C70.4911 51.6827 70.8776 52.2454 71.2404 52.7908C71.6461 53.4009 71.9913 54.0349 72.3236 54.6867C72.3345 54.7081 72.3015 54.7263 72.2908 54.7048C72.0168 54.1541 71.6797 53.6187 71.3222 53.1184C70.9843 52.6457 70.6234 52.1746 70.2067 51.7679C69.833 51.4031 69.3579 51.0617 68.8163 51.0446C68.2775 51.0274 67.7801 51.3299 67.4557 51.7454C67.0929 52.2097 66.9084 52.7896 66.7702 53.3547C66.6184 53.975 66.5426 54.6094 66.4909 55.2451C66.3845 56.5529 66.3556 57.8684 66.326 59.1799C66.3093 59.922 66.2992 60.6642 66.2925 61.4066C66.2891 61.7826 66.286 62.1587 66.2832 62.5348C66.2806 62.8971 66.2995 63.2646 66.2398 63.6226C66.2277 63.6956 66.1081 63.6886 66.0958 63.619C66.036 63.28 66.0507 62.9318 66.0459 62.5884C66.041 62.232 66.0364 61.8754 66.0332 61.5189C66.027 60.8259 66.0235 60.1328 66.0255 59.4398C66.0295 58.049 66.0463 56.6527 66.1413 55.2649Z" fill="#263238"/>
<path d="M68.0098 54.2787C68.0793 53.909 68.2041 53.4269 68.4149 53.1405C68.7935 52.6256 69.2023 52.8496 68.8244 53.4197C68.4118 54.0422 68.3521 54.534 68.2928 54.8255C68.2928 54.8255 68.9293 55.7347 69.6974 56.1823C69.6646 55.8328 69.566 55.2951 69.6341 54.7765C69.7817 53.6533 70.4611 53.7164 70.2932 54.6086C70.1581 55.3242 70.1027 56.0837 70.1394 56.4132C70.3703 56.5881 70.7635 56.7383 70.9604 56.8152C70.9163 56.6852 70.8696 56.5288 70.8179 56.3395C70.5453 55.3325 71.2166 55.0182 71.238 55.5849C71.2544 56.0506 71.435 56.7723 71.4992 57.0134C71.8678 57.1371 72.1731 57.2215 72.3599 57.2873C73.136 57.5599 73.6193 58.1479 73.6193 58.1479C73.9713 57.8349 74.2553 57.455 74.4774 57.0374C74.2427 56.8354 73.8717 56.5351 73.3569 56.1717C72.3914 55.4902 72.7271 54.6296 73.4931 55.1647C74.0458 55.5508 74.4736 56.2664 74.668 56.6336C74.9343 55.9976 75.0743 55.2997 75.1059 54.6234C74.3475 53.9116 72.4722 52.9198 73.0376 52.9198C73.5462 52.9198 74.6844 53.6656 75.1022 53.9533C75.0908 53.7527 75.0693 53.5571 75.0378 53.3691C74.3235 52.9009 72.0028 52.1728 72.3726 51.9633C72.7789 51.7336 74.398 52.4833 74.8876 52.7205C74.7804 52.3722 74.6352 52.0693 74.4586 51.8321C73.4717 50.5108 71.6921 50.0556 70.9158 50.3075C70.3664 50.4857 70.5269 51.8796 70.4089 51.8321C68.202 50.9437 67.1983 51.5714 68.0098 54.2787ZM73.4198 54.1261C73.5763 53.9368 74.3007 54.4934 74.0912 54.7975C73.8817 55.1016 73.2179 54.3684 73.4198 54.1261ZM69.6353 52.9373C69.8259 53.0585 69.5445 53.7626 69.2504 53.5494C69.0005 53.3677 69.4435 52.8148 69.6353 52.9373Z" fill="#00425F"/>
<path d="M69.9244 53.1532C70.0241 52.9562 70.1281 52.7603 70.2416 52.5711C70.3497 52.3907 70.4651 52.199 70.6062 52.0423C70.5747 52.0036 70.5443 51.9641 70.512 51.9261C70.4988 51.9107 70.5215 51.8888 70.5349 51.9042C70.572 51.9463 70.6071 51.9896 70.6431 52.0324C70.65 52.0365 70.6557 52.0424 70.6584 52.0505C70.7949 52.2139 70.9233 52.3822 71.0459 52.554C71.2628 52.5998 71.4772 52.6694 71.6869 52.7396C71.9034 52.8121 72.1179 52.8873 72.3283 52.9762C72.3503 52.9854 72.3394 53.0216 72.3175 53.0119C72.109 52.9197 71.8976 52.8304 71.6815 52.7574C71.4772 52.6884 71.2693 52.6353 71.0622 52.5767C71.1296 52.6718 71.1957 52.7677 71.2592 52.8652C71.648 52.977 72.0281 53.1544 72.3926 53.3274C72.7755 53.5093 73.1442 53.7208 73.511 53.9329C73.5317 53.9449 73.5121 53.9771 73.4913 53.9647C73.1322 53.7497 72.7578 53.5663 72.3789 53.3889C72.0239 53.2227 71.6564 53.0863 71.2986 52.9281C72.1997 54.3346 72.7404 55.9575 73.4628 57.4599C73.4734 57.4819 73.4392 57.4998 73.4301 57.478C73.2095 56.951 72.9554 56.4376 72.7152 55.9192C72.4995 55.4538 72.289 54.986 72.073 54.5207C72.0098 54.3845 71.9448 54.2486 71.8787 54.113C71.9182 54.8642 71.9022 55.6283 72.0252 56.3708C72.0296 56.3973 71.9902 56.4021 71.9884 56.3749C71.9363 55.5722 71.7949 54.7819 71.8006 53.9747C71.8006 53.9701 71.8037 53.968 71.8049 53.9643C71.6519 53.6574 71.489 53.3545 71.3131 53.06C71.0144 53.763 70.7005 54.4766 70.5612 55.2315C70.557 55.2546 70.5191 55.2443 70.5254 55.2207C70.7285 54.4639 70.9167 53.7063 71.2813 53.0069C71.0887 52.6887 70.8785 52.3819 70.6465 52.092C70.5464 52.2788 70.4179 52.4556 70.3041 52.634C70.1928 52.8085 70.0836 52.9841 69.9808 53.1637C69.761 53.5477 69.568 53.9392 69.4172 54.3552C69.4089 54.378 69.372 54.3661 69.3814 54.3443C69.5533 53.9441 69.7276 53.5418 69.9244 53.1532Z" fill="#263238"/>
<path d="M62.8205 54.8632C63.3988 54.2832 64.0711 53.5219 64.9649 53.5234C65.8275 53.5249 66.4624 54.2195 66.8271 54.936C67.2086 55.6853 67.3455 56.5342 67.4533 57.3592C67.5824 58.3471 67.6538 59.3429 67.682 60.3386C67.6977 60.8917 67.6954 61.4456 67.6818 61.9986C67.668 62.5567 67.6545 63.123 67.5551 63.6736C67.539 63.7629 67.3958 63.7662 67.3904 63.6698C67.3644 63.2041 67.383 62.7361 67.3856 62.2699C67.3881 61.8108 67.3809 61.3516 67.3641 60.8929C67.33 59.9646 67.2625 59.0379 67.1536 58.1155C67.0584 57.3097 66.9829 56.4813 66.7417 55.7029C66.5243 55.0011 66.1166 54.1981 65.4048 53.8897C64.4337 53.4689 63.485 54.2376 62.8494 54.8869C62.8328 54.904 62.8036 54.8803 62.8205 54.8632Z" fill="#263238"/>
<path d="M59.8697 56.1592V56.1605C59.874 56.2791 59.8809 56.3963 59.889 56.5109C60.153 56.3252 60.4848 56.1565 60.8367 56.1182C61.6576 56.0309 61.6052 56.655 61.0569 56.6813C60.5338 56.7062 60.1831 56.7951 59.9305 56.9069C60.0644 57.9907 60.3626 58.8622 60.4073 58.8739C60.4521 58.8845 61.4555 58.8126 62.5761 58.5998C62.3722 58.1648 61.9074 57.5869 62.1439 57.5402C62.3867 57.492 62.64 58.008 62.7713 58.5602C63.3119 58.451 63.8685 58.3082 64.3487 58.126C63.9877 57.8135 63.4296 57.4244 63.6428 57.2589C63.8558 57.0921 64.299 57.6407 64.5644 58.0386C64.8281 57.9262 65.0622 57.8001 65.2462 57.6586C64.7598 56.9441 63.5741 56.7985 63.7288 56.282C63.8869 55.7552 64.9929 56.4818 65.4909 57.4384C66.0759 56.8319 66.2473 55.9735 66.1856 55.2398C65.6762 55.1808 64.6959 55.2883 64.7669 54.9223C64.8337 54.5742 65.5462 54.626 66.1261 54.8396C66.0547 54.507 65.9336 54.2234 65.7857 54.0334C65.2487 53.3439 63.6102 54.2207 63.6102 54.2207C63.6102 54.2207 63.7855 52.5737 63.1605 52.289C62.8002 52.1256 62.1648 52.1268 61.527 52.5022C61.8847 52.5319 62.3171 52.6451 62.4907 52.8933C62.713 53.2098 62.3624 53.3819 62.1394 53.236C61.9829 53.1322 61.6894 52.8064 61.1605 52.7634C60.9551 52.9337 60.7545 53.1504 60.5689 53.4182C60.5084 53.5033 60.4522 53.5931 60.3961 53.6906C60.9114 53.4765 61.5935 53.3668 62.3143 53.7253C63.0248 54.078 62.628 54.8157 62.0167 54.5292C61.4118 54.246 60.8234 53.9608 60.1755 54.1231C59.9377 54.6715 59.8587 55.3208 59.864 55.9598C60.107 55.7839 60.4659 55.5735 60.9163 55.4547C61.6225 55.2694 61.836 55.6913 61.0602 55.7701C60.5673 55.8203 60.1527 56.0004 59.8697 56.1592ZM60.729 55.0255C60.6802 54.7966 61.1811 54.731 61.2645 54.9166C61.334 55.0748 60.7765 55.2544 60.729 55.0255ZM65.0143 56.2927C65.0614 56.1679 65.3967 56.3098 65.3662 56.4653C65.3243 56.6732 64.9685 56.4174 65.0143 56.2927ZM62.6484 57.0954C62.8926 56.9978 63.2741 57.605 63.0079 57.744C62.7416 57.8831 62.4488 57.1758 62.6484 57.0954Z" fill="#00425F"/>
<path d="M60.5033 58.7488C60.8714 58.1334 61.2353 57.5148 61.6216 56.9106C61.8017 56.6292 61.9902 56.3534 62.1859 56.0828C62.1564 56.0769 62.1269 56.0682 62.0983 56.0621C62.0497 56.0518 62.0007 56.0424 61.9518 56.0339C61.8388 56.0142 61.7247 55.9978 61.6106 55.9863C61.5031 55.9754 61.3954 55.9696 61.2873 55.9682C61.175 55.9668 61.0523 55.9631 60.942 55.9863C60.9281 55.9892 60.926 55.9676 60.9391 55.968C61.054 55.9726 61.1717 55.9574 61.287 55.9558C61.3988 55.9543 61.5108 55.9572 61.6224 55.9638C61.7274 55.97 61.8317 55.9804 61.9355 55.9964C61.993 56.0052 62.0501 56.0152 62.1071 56.0265C62.1411 56.0332 62.177 56.0381 62.2105 56.0482C62.4098 55.7741 62.6168 55.5053 62.8306 55.2422C62.1853 54.9458 61.5213 54.7016 60.8156 54.5991C60.8038 54.5974 60.8084 54.5791 60.8201 54.5811C61.523 54.6934 62.2282 54.875 62.8643 55.2011C62.982 55.0567 63.1003 54.9129 63.2194 54.7697C63.3526 54.6096 63.495 54.4532 63.6154 54.2831C63.6233 54.272 63.6395 54.2843 63.6303 54.2941C63.4632 54.4724 63.312 54.6692 63.1631 54.866C63.1643 54.8664 63.1654 54.8658 63.1666 54.8666C63.4324 55.0444 63.6767 55.2565 63.9157 55.4682C64.1604 55.6852 64.3996 55.9096 64.6316 56.1402C64.6402 56.1487 64.6273 56.1623 64.6187 56.1537C64.3892 55.9256 64.1513 55.7079 63.9023 55.5011C63.6536 55.2945 63.3919 55.1047 63.1418 54.9001C63.1404 54.899 63.1408 54.8976 63.1399 54.8964C63.0827 54.972 63.0259 55.0475 62.9684 55.1219C62.9394 55.1595 62.9109 55.1974 62.8818 55.235C62.8804 55.2383 62.8781 55.2405 62.8756 55.2432C62.7798 55.3678 62.6845 55.4927 62.5899 55.6182C62.7058 55.7734 62.7914 55.9568 62.8743 56.1314C62.9568 56.3051 63.0286 56.4845 63.0946 56.6649C63.2315 57.0386 63.3235 57.4284 63.4017 57.8181C63.404 57.8298 63.3859 57.8353 63.3838 57.8235C63.3101 57.4357 63.1885 57.0616 63.0487 56.6931C62.9773 56.5048 62.8958 56.3213 62.8118 56.1384C62.7353 55.9719 62.6427 55.812 62.5711 55.6437C62.4885 55.7535 62.4064 55.8636 62.3256 55.9746C62.3021 56.0069 62.2798 56.0399 62.2564 56.0723C62.26 56.0795 62.2577 56.0888 62.2484 56.0892C62.2471 56.0893 62.2459 56.0889 62.2445 56.089C61.9916 56.4421 61.751 56.8035 61.5168 57.1692C61.5328 57.1927 61.5395 57.2217 61.5489 57.2492C61.564 57.2935 61.5781 57.3383 61.5911 57.3833C61.6174 57.4736 61.6385 57.5648 61.6553 57.6573C61.671 57.7442 61.6833 57.8316 61.692 57.9193C61.7015 58.0161 61.6924 58.123 61.714 58.2173C61.7175 58.232 61.6936 58.2331 61.6961 58.2177C61.7105 58.1297 61.6879 58.0273 61.6756 57.9397C61.6623 57.8446 61.6445 57.7501 61.6227 57.6567C61.6029 57.572 61.5801 57.4878 61.555 57.4047C61.5424 57.363 61.529 57.3215 61.5147 57.2805C61.5072 57.2587 61.4965 57.2357 61.4891 57.2125C61.3795 57.3843 61.2709 57.5567 61.1641 57.7303C60.9523 58.0744 60.7423 58.4196 60.5309 58.764C60.5205 58.7816 60.4928 58.7665 60.5033 58.7488Z" fill="#263238"/>
<path d="M66.1797 63.4748C66.1892 63.126 66.2445 62.7748 66.2822 62.428C66.3199 62.0795 66.3595 61.7313 66.3967 61.3828C66.4684 60.7112 66.5084 60.0245 66.6664 59.3661C66.8022 58.7997 67.0517 58.2572 67.4869 57.8579C67.707 57.6559 67.9869 57.4904 68.2915 57.4739C68.6031 57.457 68.8903 57.565 69.1459 57.7374C69.4368 57.9337 69.6612 58.212 69.8644 58.4944C70.0739 58.7855 70.259 59.0861 70.4246 59.4041C70.4308 59.4161 70.412 59.4235 70.4054 59.4123C70.0997 58.8823 69.6784 58.4251 69.1934 58.0542C68.9701 57.8834 68.7139 57.7552 68.4294 57.7358C68.1473 57.7165 67.8959 57.8512 67.6886 58.0313C67.2818 58.3848 67.0464 58.9049 66.9062 59.4156C66.7401 60.0211 66.6863 60.658 66.6033 61.2787C66.5539 61.6476 66.5069 62.0169 66.4582 62.3859C66.4098 62.753 66.3792 63.1294 66.3012 63.4915C66.2843 63.5693 66.1776 63.553 66.1797 63.4748Z" fill="#263238"/>
<path d="M67.8954 60.7663C67.996 60.9067 68.1244 61.0345 68.2748 61.1537C68.2174 60.8133 68.1479 60.2086 68.3198 59.8866C68.5866 59.3866 68.9025 59.6359 68.7435 60.0706C68.5142 60.6912 68.4843 61.1104 68.4867 61.3031C68.8248 61.5257 69.233 61.7054 69.6452 61.8497C69.6087 61.6825 69.5857 61.4747 69.6071 61.2533C69.6603 60.7189 70.0696 60.7288 69.9632 61.2849C69.9165 61.5253 69.9066 61.7565 69.9071 61.9379C70.8407 62.2307 71.7126 62.3451 71.7126 62.3451C72.0602 61.8822 72.304 61.4373 72.4599 61.0148C72.0248 60.9058 71.1438 60.881 71.1627 60.5701C71.1878 60.1517 72.0412 60.4739 72.5402 60.7774C72.663 60.3767 72.7062 59.9987 72.691 59.6517C72.496 59.5878 72.1357 59.5086 71.4911 59.4529C70.5951 59.3755 70.6392 58.8676 71.2885 58.8792C71.7675 58.8879 72.3733 59.1812 72.6605 59.3337C72.4736 58.1152 71.544 57.3341 70.7986 57.3044C69.5457 57.2537 69.9965 58.8132 69.9965 58.8132C69.9965 58.8132 69.1476 58.2158 68.3463 58.2315C67.5471 58.2486 67.0387 59.5743 67.8954 60.7663ZM71.2422 58.5121C71.2143 58.3368 71.7735 58.2946 71.8025 58.5196C71.8359 58.7723 71.2704 58.6907 71.2422 58.5121ZM72.1417 60.3414C72.1302 60.2266 72.3717 60.2066 72.4262 60.3511C72.4628 60.4451 72.1514 60.4546 72.1417 60.3414ZM69.1331 60.4481C69.3219 60.4747 69.4293 61.15 69.1043 61.1367C68.8563 61.1262 68.9729 60.4253 69.1331 60.4481Z" fill="#00425F"/>
<path d="M69.3945 61.198C69.4257 61.114 69.4535 61.0287 69.48 60.9427C69.4556 61.0296 69.434 61.1167 69.4179 61.2044C69.4146 61.2217 69.3883 61.2147 69.3945 61.198Z" fill="#263238"/>
<path d="M69.7254 60.1127C69.7841 59.9397 69.85 59.7687 69.9173 59.5987C69.9532 59.5079 69.9904 59.418 70.0301 59.3288C70.0637 59.2537 70.0915 59.1684 70.1418 59.1027C70.1034 59.0308 70.0674 58.9581 70.0404 58.8841C70.0378 58.8769 70.0469 58.8715 70.0519 58.8773C70.1475 58.9889 70.2215 59.1293 70.296 59.2559C70.3308 59.315 70.3638 59.3751 70.398 59.4346C70.4684 59.4389 70.5399 59.4547 70.6088 59.4674C70.6839 59.4811 70.7588 59.4964 70.8334 59.5132C70.9079 59.5299 70.9824 59.5472 71.0567 59.5651C71.1305 59.5827 71.2039 59.6073 71.2789 59.6186C71.2963 59.6213 71.2892 59.6486 71.2725 59.6419C71.1983 59.6119 71.1161 59.5978 71.0381 59.5809C70.9662 59.5653 70.8941 59.5526 70.8212 59.5422C70.7485 59.5318 70.6754 59.5228 70.6022 59.5154C70.5474 59.5099 70.4917 59.5071 70.4366 59.502C70.4664 59.5545 70.4974 59.6065 70.5266 59.6596C70.5312 59.6679 70.5353 59.6765 70.5398 59.6849C70.6 59.6799 70.6604 59.6955 70.7197 59.7062C70.7845 59.7178 70.8491 59.7301 70.9132 59.7443C71.0439 59.7732 71.1742 59.8041 71.3031 59.8401C71.5743 59.9158 71.8421 60.0024 72.1095 60.0898C72.1243 60.0946 72.1149 60.1172 72.1002 60.1122C71.8348 60.0215 71.5637 59.949 71.2902 59.8874C71.162 59.8585 71.034 59.8291 70.9053 59.8024C70.8409 59.7891 70.7766 59.7749 70.7122 59.7613C70.6626 59.7509 70.6104 59.745 70.5625 59.7283C70.7003 59.9831 70.8303 60.242 70.9495 60.506C71.2093 61.0809 71.4282 61.6732 71.651 62.2631C71.6565 62.2778 71.6338 62.2874 71.6287 62.2726C71.4204 61.683 71.1573 61.1157 70.8822 60.5547C70.8322 60.4526 70.7806 60.3514 70.73 60.2497C70.7258 60.2703 70.7208 60.2911 70.7168 60.312C70.7039 60.3817 70.6916 60.4514 70.6798 60.5214C70.6563 60.6612 70.6325 60.8008 70.6116 60.941C70.5694 61.2246 70.5008 61.5242 70.5106 61.8118C70.5113 61.8299 70.4837 61.8289 70.4865 61.8118C70.5089 61.673 70.5089 61.528 70.5176 61.3878C70.5267 61.2412 70.5375 61.0947 70.5546 60.9487C70.5709 60.808 70.5889 60.6674 70.6123 60.5276C70.6239 60.4578 70.6362 60.3879 70.649 60.3182C70.6583 60.2676 70.6604 60.2101 70.6883 60.1667C70.6148 60.0195 70.5422 59.872 70.4679 59.725C70.3982 59.5874 70.3278 59.4499 70.2563 59.3132C70.226 59.2555 70.1932 59.197 70.161 59.1382C70.1426 59.2106 70.1056 59.2805 70.0778 59.3491C70.0457 59.4282 70.0134 59.5071 69.981 59.586C69.9092 59.7608 69.8424 59.9374 69.7755 60.1142C69.6809 60.3647 69.5762 60.6214 69.498 60.8824C69.5747 60.6261 69.6394 60.3654 69.7254 60.1127Z" fill="#263238"/>
<path d="M69.48 60.9427C69.4857 60.9224 69.4921 60.9023 69.4982 60.8821C69.4921 60.9023 69.4862 60.9225 69.48 60.9427Z" fill="#263238"/>
<path d="M64.0845 62.7964L64.1726 64.6617L64.3994 69.4689H69.3593L69.586 64.6617L69.6743 62.7964H64.0845Z" fill="#37474F"/>
<path d="M64.0845 62.7964L64.1726 64.6617H69.586L69.6743 62.7964H64.0845Z" fill="#263238"/>
<path d="M63.7319 63.5505H70.0269V62.0424H63.7319V63.5505Z" fill="#37474F"/>
<path d="M68.9581 69.4691H68.0874V70.2585H68.9581V69.4691Z" fill="#37474F"/>
<path d="M68.9581 69.4691H68.0874V69.8639H68.9581V69.4691Z" fill="#263238"/>
<path d="M65.6711 69.4691H64.8013V70.2585H65.6711V69.4691Z" fill="#37474F"/>
<path d="M65.6711 69.4691H64.8013V69.8639H65.6711V69.4691Z" fill="#263238"/>
</svg>
