<svg width="26" height="7" viewBox="0 0 26 7" fill="none" xmlns="http://www.w3.org/2000/svg">
<g clip-path="url(#clip0_2868_45290)">
<path d="M2.31737 1.44808L2.06524 1.13009C1.99214 1.03781 2.0132 0.90313 2.10923 0.83579C2.65561 0.454822 3.31165 0.247192 3.97945 0.247192C4.64725 0.247192 5.30329 0.454822 5.84966 0.83579C5.94632 0.90313 5.96676 1.03781 5.89365 1.13009L5.64152 1.44808C5.57586 1.53039 5.45817 1.54972 5.37142 1.49048C4.9607 1.20803 4.48309 1.05963 3.97882 1.05963C3.47457 1.05963 2.99695 1.20803 2.58623 1.49048C2.4995 1.55034 2.3818 1.53101 2.31613 1.44808H2.31737Z" fill="#263238"/>
<path d="M1.57348 5.47774C1.4818 5.55133 1.34799 5.53012 1.28108 5.43347C0.902578 4.88354 0.696289 4.22323 0.696289 3.55108C0.696289 2.93317 0.864169 2.33897 1.1832 1.81895C1.24453 1.71919 1.3771 1.69176 1.4725 1.75972L1.80207 1.99603C1.88818 2.05776 1.91234 2.17498 1.85782 2.26602C1.62552 2.65322 1.50348 3.09342 1.50348 3.55171C1.50348 4.05923 1.65091 4.53999 1.93154 4.95337C1.99101 5.04066 1.97181 5.15912 1.88942 5.22523L1.57348 5.479V5.47774Z" fill="#263238"/>
<path d="M3.97907 6.8552C3.36517 6.8552 2.7748 6.68624 2.25815 6.36513C2.15903 6.3034 2.13177 6.16995 2.1993 6.07396L2.43408 5.74224C2.49541 5.65556 2.61187 5.63126 2.70232 5.6861C3.08702 5.91993 3.52437 6.04278 3.9797 6.04278C4.43503 6.04278 4.87236 5.91993 5.25708 5.6861C5.34753 5.63126 5.46397 5.65619 5.5253 5.74224L5.76009 6.07396C5.82762 6.16995 5.80098 6.30277 5.70124 6.36513C5.18459 6.68624 4.59361 6.8552 3.98033 6.8552H3.97907Z" fill="#263238"/>
<path d="M6.38457 5.4778L6.06863 5.22403C5.98624 5.15792 5.96768 5.03946 6.02653 4.95217C6.30713 4.53879 6.45458 4.05806 6.45458 3.55051C6.45458 3.09285 6.33255 2.65203 6.10024 2.26482C6.04571 2.17379 6.07048 2.05657 6.15598 1.99484L6.48555 1.75915C6.58096 1.69119 6.71292 1.718 6.77484 1.81839C7.09388 2.3384 7.26177 2.93323 7.26177 3.55051C7.26177 4.22266 7.05547 4.88297 6.67696 5.4329C6.61008 5.53019 6.47627 5.55076 6.38457 5.47717V5.4778Z" fill="#263238"/>
<path d="M3.97835 5.2072C4.88706 5.2072 5.62371 4.46576 5.62371 3.55114C5.62371 2.63652 4.88706 1.89508 3.97835 1.89508C3.06966 1.89508 2.33301 2.63652 2.33301 3.55114C2.33301 4.46576 3.06966 5.2072 3.97835 5.2072Z" fill="#0EA59D"/>
<path d="M20.6778 1.90318H20.4666C20.0001 1.90318 19.5696 2.06094 19.2252 2.32593V2.09835C19.2252 1.98611 19.1347 1.89508 19.0232 1.89508H18.6199C18.5084 1.89508 18.418 1.98611 18.418 2.09835V5.83195C18.418 5.94419 18.5084 6.03523 18.6199 6.03523H19.0232C19.1347 6.03523 19.2252 5.94419 19.2252 5.83195V3.96515C19.2252 3.27616 19.7821 2.71562 20.4666 2.71562H20.6778C20.7893 2.71562 20.8798 2.62459 20.8798 2.51236V2.10645C20.8798 1.99422 20.7893 1.90318 20.6778 1.90318Z" fill="#263238"/>
<path d="M15.9363 6.02718C14.8064 6.02718 13.8877 5.10189 13.8877 3.96524C13.8877 2.82856 14.807 1.90326 15.9363 1.90326C17.0656 1.90326 17.9849 2.82856 17.9849 3.96524C17.9849 5.10189 17.0656 6.02718 15.9363 6.02718ZM15.9363 2.71508C15.2518 2.71508 14.6949 3.27561 14.6949 3.96461C14.6949 4.65357 15.2518 5.21414 15.9363 5.21414C16.6208 5.21414 17.1778 4.65357 17.1778 3.96461C17.1778 3.27561 16.6208 2.71508 15.9363 2.71508Z" fill="#263238"/>
<path d="M25.1833 4.37104C25.2862 4.37104 25.3729 4.29372 25.384 4.19085C25.3921 4.11663 25.3965 4.04121 25.3965 3.96513C25.3965 2.80103 24.4331 1.8589 23.2666 1.90441C22.2036 1.94557 21.3413 2.8135 21.3004 3.88346C21.2552 5.05754 22.1912 6.0271 23.3478 6.0271C24.0571 6.0271 24.6828 5.66234 25.0508 5.10989C25.1406 4.97461 25.0452 4.79316 24.8835 4.79316H24.3632C24.3093 4.79316 24.2578 4.8156 24.2194 4.85366C23.9952 5.07622 23.6873 5.21466 23.3478 5.21466C22.8045 5.21466 22.3418 4.86113 22.1739 4.37104H25.184H25.1833ZM23.3472 2.71498C23.8905 2.71498 24.3532 3.06853 24.5211 3.55859H22.1733C22.3411 3.06853 22.8039 2.71498 23.3472 2.71498Z" fill="#263238"/>
<path d="M12.9968 4.9847C13.2837 4.58002 13.4522 4.08497 13.4522 3.55123C13.4522 2.18574 12.3489 1.07526 10.9922 1.07526C9.63554 1.07526 8.53223 2.18574 8.53223 3.55123C8.53223 4.91673 9.63554 6.02722 10.9922 6.02722C11.5256 6.02722 12.0199 5.85511 12.4238 5.56394C12.5075 5.67805 12.5706 5.7909 12.6022 5.89626C12.6276 5.98108 12.7063 6.03782 12.7943 6.03782H13.2087C13.3357 6.03782 13.4323 5.92122 13.4069 5.79588C13.3481 5.50408 13.1895 5.22787 12.9968 4.9847ZM9.33879 3.55123C9.33879 2.63404 10.0803 1.8877 10.9916 1.8877C11.9028 1.8877 12.6444 2.63404 12.6444 3.55123C12.6444 3.85988 12.5601 4.14919 12.4139 4.39735C12.2956 4.2982 12.1859 4.2159 12.0998 4.1548C12.0057 4.08746 11.8743 4.11366 11.8124 4.21217L11.5974 4.55573C11.5404 4.64676 11.564 4.76646 11.6507 4.82881C11.7139 4.87435 11.7789 4.92361 11.8434 4.97596C11.5943 5.12749 11.3032 5.21478 10.9916 5.21478C10.0803 5.21478 9.33879 4.46844 9.33879 3.55123Z" fill="#263238"/>
</g>
<defs>
<clipPath id="clip0_2868_45290">
<rect width="24.7687" height="6.90828" fill="white" transform="translate(0.641602 0.0219116)"/>
</clipPath>
</defs>
</svg>
