<svg width="98" height="97" viewBox="0 0 98 97" fill="none" xmlns="http://www.w3.org/2000/svg">
<rect x="1.90899" y="1.11504" width="94.4068" height="94.4068" rx="13.7522" stroke="#375C71" stroke-width="2.23008"/>
<path opacity="0.3" d="M73.8083 72.3915C72.4578 73.8133 71.18 74.7301 70.1704 75.4545C58.303 83.9695 44.2607 81.4874 41.2763 80.8813C36.8693 79.9862 28.3507 78.256 22.1919 71.0134C12.8742 60.0559 14.3251 42.7926 21.5526 31.3969C22.8746 29.3125 29.8579 17.7432 44.0514 15.8878C52.6412 14.765 62.6541 17.0296 69.9051 23.1046C85.1258 35.8565 84.0422 61.6175 73.8083 72.3915Z" fill="url(#paint0_linear_3562_2922)"/>
<path opacity="0.74" d="M81.5084 31.8572C81.4719 31.5392 80.9255 31.4437 80.7721 31.7289C79.2893 34.4853 75.1083 41.6012 69.8481 44.9266C61.2832 50.341 54.6197 60.2066 58.616 66.4203C58.616 66.4203 85.4828 66.5013 81.5084 31.8572Z" fill="url(#paint1_linear_3562_2922)"/>
<path opacity="0.43" d="M80.1138 35.8971C80.0882 35.994 80.0571 36.0713 80.0285 36.1567L79.937 36.4057C79.8743 36.5708 79.8122 36.7363 79.7473 36.9006C79.6184 37.2295 79.4842 37.5562 79.3487 37.8824C79.078 38.5349 78.7924 39.1809 78.5042 39.8259C77.9198 41.1121 77.2993 42.3819 76.6509 43.6373C75.3581 46.1505 73.9161 48.5865 72.3586 50.9461C71.5768 52.1241 70.7485 53.2709 69.8925 54.3963L69.2388 55.2315C69.1312 55.3718 69.0187 55.5082 68.9059 55.6443L68.5688 56.0537L68.2316 56.4631C68.118 56.5986 68.0003 56.7305 67.8848 56.8644C67.652 57.1305 67.423 57.4 67.1855 57.6619C66.2347 58.7093 65.2367 59.713 64.1995 60.6745C63.6669 61.1398 63.1433 61.6152 62.5864 62.0514C62.0455 62.5071 61.4673 62.9153 60.9007 63.3369C60.883 63.3501 60.858 63.3465 60.8448 63.3288C60.8317 63.3111 60.8353 63.2863 60.8527 63.2731L60.8538 63.2722C61.9772 62.42 63.0572 61.5141 64.0873 60.553C65.1091 59.5834 66.091 58.5726 67.0255 57.5188C67.9539 56.4598 68.8537 55.3755 69.7063 54.254C70.5564 53.1307 71.3708 51.9808 72.1577 50.8121C72.9386 49.6393 73.6888 48.4459 74.4078 47.2337L74.9412 46.3211L75.4612 45.4007C75.8035 44.7848 76.1441 44.1676 76.473 43.5441C77.1335 42.2987 77.7617 41.0361 78.3627 39.7606C78.6608 39.1218 78.9565 38.4816 79.2373 37.8349C79.378 37.5117 79.5164 37.1875 79.6516 36.862C79.72 36.6995 79.7855 36.536 79.8516 36.3728L79.9481 36.127C79.9778 36.046 80.0122 35.9592 80.0346 35.8861L80.0379 35.8755C80.0443 35.8546 80.0664 35.8429 80.0872 35.8493C80.1075 35.8555 80.1191 35.8767 80.1138 35.8971Z" fill="white"/>
<path d="M76.3082 18.2794C76.2423 17.916 75.732 17.8824 75.6205 18.2345C74.5433 21.6386 71.439 30.4763 66.9591 35.0726C59.6646 42.5566 54.5665 54.9315 58.8622 61.5697C58.8622 61.5697 83.486 57.8731 76.3082 18.2794Z" fill="url(#paint2_linear_3562_2922)"/>
<path opacity="0.43" d="M75.447 23.1592C75.4342 23.2661 75.4144 23.3593 75.3974 23.4577L75.341 23.7485L75.2219 24.3285C75.1403 24.7147 75.0545 25.0999 74.9678 25.4849C74.792 26.2543 74.6067 27.0216 74.4143 27.7871C74.0273 29.3175 73.6005 30.8376 73.15 32.3507C72.701 33.8644 72.2126 35.3663 71.6935 36.8576L71.4998 37.4172L71.2988 37.9742C71.1632 38.345 71.0343 38.7182 70.8925 39.0867L70.4746 40.1949L70.04 41.2969C68.8657 44.2289 67.5373 47.1022 66.01 49.8694C65.917 50.0436 65.8184 50.2148 65.7185 50.3852L65.4211 50.8978L65.1238 51.4103C65.0226 51.5799 64.9169 51.7469 64.8136 51.9153C64.6041 52.2502 64.4024 52.59 64.1865 52.9208L63.5332 53.9096C62.6374 55.2112 61.6843 56.4742 60.6473 57.6659C60.6328 57.6826 60.6075 57.6844 60.5909 57.6699C60.5745 57.6556 60.5725 57.6309 60.5863 57.6143L60.5866 57.6139C61.5913 56.3995 62.5249 55.1294 63.3958 53.8175L64.0365 52.8255C64.2482 52.4936 64.4457 52.1528 64.651 51.8169C64.7522 51.6481 64.8558 51.4807 64.9549 51.3107L65.2459 50.7968L65.5368 50.2829C65.6345 50.1121 65.731 49.9405 65.822 49.7659L66.3795 48.7247C66.5632 48.3765 66.7373 48.0233 66.9167 47.6728C67.0052 47.497 67.0961 47.3224 67.1827 47.1455L67.4384 46.6131L67.6942 46.0807C67.7801 45.9036 67.8647 45.7259 67.9451 45.5461C68.6113 44.1187 69.2207 42.6654 69.8158 41.2069C70.9949 38.2846 72.0237 35.3028 72.9579 32.2924C73.4225 30.7864 73.8576 29.271 74.2642 27.748C74.4684 26.9867 74.6656 26.2235 74.8534 25.458C74.9461 25.0749 75.0378 24.6916 75.1254 24.3074L75.2535 23.7305L75.3144 23.4415C75.3327 23.3459 75.3542 23.2462 75.3671 23.1575L75.3683 23.1488C75.3715 23.1271 75.3916 23.1121 75.4133 23.1153C75.4346 23.1184 75.4495 23.1379 75.447 23.1592Z" fill="white"/>
<path d="M18.6764 15.7841H68.7573C70.1228 15.7841 71.2228 17.3498 71.198 19.2582L70.4935 73.5677C70.4603 76.1238 68.9564 78.1624 65.8783 78.1303L17.3731 77.2795C17.2857 77.2561 16.2111 75.7341 16.2119 73.8655L16.2352 19.1943C16.236 17.3105 17.3287 15.7841 18.6764 15.7841Z" fill="url(#paint3_linear_3562_2922)"/>
<path opacity="0.6" d="M19.7805 17.2548H67.87C69.1812 17.2548 70.2374 18.7424 70.2136 20.5557L69.5371 72.1575C69.5052 74.5861 68.0611 76.5231 66.3051 76.4927L19.7287 75.6843C18.4452 75.662 17.4133 74.2159 17.4141 72.4404L17.4364 20.495C17.4372 18.7051 18.4864 17.2548 19.7805 17.2548Z" fill="white"/>
<path d="M70.1407 24.9852H17.4141V17.7055C17.4141 17.3674 17.6881 17.0934 18.0262 17.0934H69.563C69.882 17.0934 70.1407 17.352 70.1407 17.6711V24.9852Z" fill="url(#paint4_linear_3562_2922)"/>
<path opacity="0.61" d="M64.2675 21.6208L36.913 21.3614C36.2681 21.3553 35.7493 20.9294 35.7492 20.4061L35.749 19.494C35.749 19.0903 36.1523 18.7629 36.6498 18.7629H64.4636C64.9541 18.7629 65.3412 19.1011 65.3052 19.4981L65.1738 20.9455C65.139 21.3295 64.7421 21.6253 64.2675 21.6208Z" fill="white"/>
<path opacity="0.6" d="M67.7184 29.7016H19.835C19.5173 29.7016 19.2598 29.445 19.2598 29.1286V27.5958C19.2598 27.2774 19.5204 27.02 19.8401 27.0228L67.7235 27.4446C68.0392 27.4474 68.2936 27.7031 68.2936 28.0176V29.1286C68.2936 29.445 68.0361 29.7016 67.7184 29.7016Z" fill="white"/>
<path d="M31.2777 21.3854C30.5048 21.3854 29.876 20.7566 29.876 19.9836C29.876 19.2107 30.5048 18.5819 31.2777 18.5819C32.0507 18.5819 32.6795 19.2107 32.6795 19.9836C32.6795 20.7566 32.0507 21.3854 31.2777 21.3854ZM31.2777 18.7418C30.593 18.7418 30.0359 19.2988 30.0359 19.9836C30.0359 20.6684 30.593 21.2255 31.2777 21.2255C31.9625 21.2255 32.5196 20.6684 32.5196 19.9836C32.5196 19.2988 31.9625 18.7418 31.2777 18.7418Z" fill="white"/>
<path d="M26.7035 21.4926C25.9306 21.4926 25.3018 20.8638 25.3018 20.0908C25.3018 19.3179 25.9306 18.6891 26.7035 18.6891C27.4765 18.6891 28.1053 19.3179 28.1053 20.0908C28.1052 20.8638 27.4764 21.4926 26.7035 21.4926ZM26.7035 18.849C26.0187 18.849 25.4617 19.406 25.4617 20.0908C25.4617 20.7756 26.0188 21.3327 26.7035 21.3327C27.3883 21.3327 27.9454 20.7756 27.9454 20.0908C27.9454 19.406 27.3883 18.849 26.7035 18.849Z" fill="white"/>
<path d="M22.307 21.4925C21.5341 21.4925 20.9053 20.8637 20.9053 20.0907C20.9053 19.3178 21.5341 18.689 22.307 18.689C23.08 18.689 23.7088 19.3178 23.7088 20.0907C23.7088 20.8637 23.08 21.4925 22.307 21.4925ZM22.307 18.8489C21.6222 18.8489 21.0652 19.406 21.0652 20.0907C21.0652 20.7755 21.6223 21.3326 22.307 21.3326C22.9918 21.3326 23.5489 20.7755 23.5489 20.0907C23.5489 19.406 22.9918 18.8489 22.307 18.8489Z" fill="white"/>
<path opacity="0.6" d="M48.7894 34.323L39.8339 34.2486C39.5533 34.2462 39.3278 34.0169 39.3301 33.7363L39.3322 33.4866C39.3344 33.2125 39.5537 32.9897 39.8276 32.9829L48.7857 32.7613C49.0727 32.7542 49.3086 32.9862 49.3062 33.2734L49.3017 33.8192C49.2994 34.0998 49.07 34.3253 48.7894 34.323Z" fill="white"/>
<path opacity="0.6" d="M50.7194 50.5961L37.5344 50.4866C37.0889 50.4828 36.7307 50.1187 36.7344 49.6731L36.8442 36.4676C36.8478 36.0301 37.1994 35.6753 37.6368 35.6677L50.6569 35.9147C51.2083 35.9251 51.6485 36.3776 51.6437 36.9292L51.5328 49.7961C51.5291 50.2416 51.165 50.5998 50.7194 50.5961Z" fill="white"/>
<path opacity="0.6" d="M32.1293 34.323L23.1737 34.2486C22.8932 34.2462 22.6676 34.0169 22.6699 33.7363L22.672 33.4866C22.6743 33.2125 22.8935 32.9897 23.1675 32.9829L32.1255 32.7613C32.4126 32.7542 32.6485 32.9862 32.6461 33.2734L32.6415 33.8192C32.6392 34.0998 32.4098 34.3253 32.1293 34.323Z" fill="white"/>
<path opacity="0.6" d="M34.0593 50.5961L20.8743 50.4866C20.4287 50.4828 20.0705 50.1187 20.0742 49.6731L20.184 36.4676C20.1876 36.0301 20.5392 35.6753 20.9766 35.6677L33.9967 35.9147C34.5481 35.9251 34.9883 36.3776 34.9836 36.9292L34.8727 49.7961C34.869 50.2416 34.5048 50.5998 34.0593 50.5961Z" fill="white"/>
<path opacity="0.6" d="M65.4994 34.6352L56.5439 34.5607C56.2633 34.5584 56.0377 34.3291 56.0401 34.0485L56.0421 33.7988C56.0444 33.5247 56.2636 33.3019 56.5376 33.2951L65.4956 33.0735C65.7827 33.0664 66.0186 33.2984 66.0162 33.5856L66.0117 34.1314C66.0093 34.4119 65.78 34.6375 65.4994 34.6352Z" fill="white"/>
<path opacity="0.6" d="M67.4294 50.9087L54.2444 50.7991C53.7988 50.7954 53.4407 50.4312 53.4444 49.9857L53.5541 36.7801C53.5578 36.3427 53.9093 35.9879 54.3467 35.9802L67.3668 36.2272C67.9182 36.2377 68.3584 36.6902 68.3537 37.2417L68.2428 50.1087C68.2391 50.5542 67.8749 50.9124 67.4294 50.9087Z" fill="white"/>
<path opacity="0.6" d="M67.9128 55.2545H20.854C20.7367 55.2545 20.6416 55.1593 20.6416 55.0421V53.1355C20.6416 53.0182 20.7367 52.9231 20.854 52.9231H67.9128C68.0301 52.9231 68.1252 53.0182 68.1252 53.1355V55.0421C68.1252 55.1594 68.0301 55.2545 67.9128 55.2545Z" fill="white"/>
<path opacity="0.6" d="M68.0163 58.934H20.9575C20.8402 58.934 20.7451 58.8389 20.7451 58.7216V56.815C20.7451 56.6977 20.8402 56.6026 20.9575 56.6026H68.0163C68.1336 56.6026 68.2287 56.6977 68.2287 56.815V58.7216C68.2287 58.8389 68.1336 58.934 68.0163 58.934Z" fill="white"/>
<path opacity="0.6" d="M67.6667 63.0742H20.6079C20.4906 63.0742 20.3955 62.9791 20.3955 62.8618V60.9553C20.3955 60.838 20.4906 60.7429 20.6079 60.7429H67.6667C67.784 60.7429 67.8791 60.8379 67.8791 60.9553V62.8618C67.8791 62.9791 67.784 63.0742 67.6667 63.0742Z" fill="white"/>
<path opacity="0.6" d="M67.7712 66.7537H20.7124C20.5951 66.7537 20.5 66.6586 20.5 66.5413V64.6348C20.5 64.5174 20.5951 64.4224 20.7124 64.4224H67.7712C67.8885 64.4224 67.9836 64.5174 67.9836 64.6348V66.5413C67.9836 66.6586 67.8885 66.7537 67.7712 66.7537Z" fill="white"/>
<path opacity="0.6" d="M67.6667 70.6371H20.6079C20.4906 70.6371 20.3955 70.5421 20.3955 70.4247V68.5182C20.3955 68.4009 20.4906 68.3058 20.6079 68.3058H67.6667C67.784 68.3058 67.8791 68.4009 67.8791 68.5182V70.4247C67.8791 70.5421 67.784 70.6371 67.6667 70.6371Z" fill="white"/>
<path d="M60.7069 49.3357C60.6799 49.3868 59.8634 49.962 59.8634 49.962C59.8634 49.962 59.2959 53.0869 60.3367 54.6255C61.3774 56.164 64.9239 53.4246 64.9239 53.4246C64.9239 53.4246 66.9187 53.1127 67.9208 49.1905C68.1506 48.2906 66.713 48.9744 65.1114 49.1401C63.0462 49.3539 60.7069 49.3357 60.7069 49.3357Z" fill="url(#paint5_linear_3562_2922)"/>
<path d="M57.1664 59.1321C57.8458 58.6649 58.597 58.3127 59.3934 58.096C59.6925 58.0146 61.3077 58.484 62.3061 58.4611C63.6766 58.4296 65.0717 57.8058 66.2014 58.0874C67.3236 58.367 68.242 58.7323 68.7723 59.1095C70.3597 60.2384 71.2917 62.3436 71.8596 64.4289C70.7842 65.5328 69.4308 66.0234 69.4308 66.0234L69.1808 76.1592L63.1873 79.2257L56.3465 75.7912L56.5915 65.8861C56.5915 65.8861 54.4192 64.8745 54.2598 64.5065C54.1004 64.1385 55.2499 60.4498 57.1664 59.1321Z" fill="url(#paint6_linear_3562_2922)"/>
<path d="M54.3611 64.4622C54.3611 64.4622 51.4501 72.5326 58.0883 75.8496C59.4666 75.6664 58.9365 73.3774 58.9365 73.3774C58.9365 73.3774 56.0522 72.7391 56.9184 66.0068C56.1209 65.3507 54.3611 64.4622 54.3611 64.4622Z" fill="url(#paint7_linear_3562_2922)"/>
<path d="M71.719 64.4622C71.719 64.4622 73.7221 72.8867 67.9919 75.8496C66.6135 75.6664 67.1437 73.3774 67.1437 73.3774C67.1437 73.3774 69.4683 72.2326 69.1617 66.0068C69.9593 65.3507 71.719 64.4622 71.719 64.4622Z" fill="url(#paint8_linear_3562_2922)"/>
<path d="M69.2912 76.4164H56.3869C56.3213 76.4164 56.2676 76.3627 56.2676 76.2971V67.6598C56.2676 67.5942 56.3213 67.5405 56.3869 67.5405H69.2912C69.3569 67.5405 69.4106 67.5942 69.4106 67.6598V76.2971C69.4106 76.3627 69.3569 76.4164 69.2912 76.4164Z" fill="url(#paint9_linear_3562_2922)"/>
<path d="M63.6139 69.944C63.6836 70.415 63.4313 70.8424 62.9604 70.9121C62.4895 70.9817 62.0513 70.6565 61.9816 70.1856C61.9119 69.7147 62.1274 69.247 62.5983 69.1773C63.0692 69.1076 63.5442 69.4732 63.6139 69.944Z" fill="url(#paint10_linear_3562_2922)"/>
<path d="M75.1749 79.0477C73.6708 78.7025 70.1944 78.8881 70.1944 78.8881L70.053 79.271L69.8188 81.1743C69.8188 81.1743 73.1295 81.771 74.7614 81.7696C74.9279 81.7694 75.0802 81.7444 75.2193 81.7011C75.269 81.6565 75.3176 81.6102 75.3636 81.56C76.056 80.8038 75.856 79.6931 75.1749 79.0477Z" fill="url(#paint11_linear_3562_2922)"/>
<path d="M75.3238 79.0855C75.2767 79.0722 75.2269 79.0597 75.1748 79.0477C75.8559 79.6931 76.0559 80.8039 75.3635 81.56C75.3176 81.6102 75.2689 81.6565 75.2192 81.7011C76.4434 81.3201 76.5883 79.4412 75.3238 79.0855Z" fill="url(#paint12_linear_3562_2922)"/>
<path d="M69.1953 78.7808L69.784 78.8059C70.1003 78.8194 70.3983 78.9735 70.611 79.2335C70.8236 79.4934 70.933 79.8374 70.9144 80.1878C70.8995 80.4672 70.7849 80.7285 70.5958 80.9139C70.4068 81.0993 70.1589 81.1934 69.907 81.1755L69.0063 81.1114L69.1953 78.7808Z" fill="url(#paint13_linear_3562_2922)"/>
<path d="M49.402 78.865C50.9141 78.566 54.3845 78.8583 54.3845 78.8583L54.5163 79.2454L54.7029 81.1551C54.7029 81.1551 51.3787 81.65 49.7474 81.5985C49.581 81.5932 49.4294 81.5636 49.2914 81.516C49.2428 81.4699 49.1954 81.4221 49.1506 81.3705C48.4774 80.5934 48.705 79.4892 49.402 78.865Z" fill="url(#paint14_linear_3562_2922)"/>
<path d="M49.2516 78.8978C49.299 78.886 49.3492 78.875 49.4015 78.8646C48.7045 79.4888 48.4769 80.593 49.1501 81.3701C49.1949 81.4217 49.2423 81.4695 49.2909 81.5157C48.0767 81.0972 47.9787 79.2145 49.2516 78.8978Z" fill="url(#paint15_linear_3562_2922)"/>
<path d="M55.3849 78.7817L54.7959 78.7887C54.4794 78.7925 54.1776 78.9374 53.9585 79.1908C53.7395 79.4441 53.6216 79.7846 53.6314 80.1354C53.6393 80.4152 53.7474 80.6799 53.9318 80.871C54.1161 81.0621 54.3616 81.1638 54.6138 81.1537L55.5157 81.1172L55.3849 78.7817Z" fill="url(#paint16_linear_3562_2922)"/>
<path d="M75.5952 73.0808C74.9131 71.5109 73.2448 71.2561 71.8248 71.9901C71.8001 72.0226 62.8074 76.6315 54.877 78.6514C55.104 79.3792 55.2207 80.1537 55.2462 80.9149C55.2508 81.0845 55.2479 81.2518 55.238 81.4168C61.3195 81.1045 67.9198 79.0763 73.5914 77.2939C75.3501 76.7267 76.3512 74.8209 75.5952 73.0808Z" fill="url(#paint17_linear_3562_2922)"/>
<path d="M69.2385 81.0344C69.2147 80.1569 69.3853 79.3401 69.7503 78.5839C69.7607 78.5493 69.7732 78.5161 69.7842 78.4818C69.3314 78.3416 68.7463 78.1515 67.9778 77.8908C62.3464 75.9636 58.0502 74.0177 53.95 71.7775C52.3572 70.9073 50.5461 71.4905 50.0362 73.3753C49.581 75.0578 50.614 76.4031 52.0977 76.9991C57.1981 79.0478 64.6902 80.9192 69.248 81.2254C69.2446 81.1617 69.2406 81.0979 69.2385 81.0344Z" fill="url(#paint18_linear_3562_2922)"/>
<path d="M59.3926 58.0958C59.3926 58.0958 59.9982 60.7203 62.9387 60.6658C65.9336 60.6114 66.2006 58.0872 66.2006 58.0872L64.2442 57.6686L64.0807 55.4887L61.1379 55.7067L61.0834 57.7776L59.3926 58.0958Z" fill="url(#paint19_linear_3562_2922)"/>
<path d="M61.4212 49.0635C61.4212 49.0635 58.2876 55.1333 62.0047 56.6059C64.6266 57.6446 66.2704 52.5751 65.7801 51.202C65.022 49.079 64.5227 49.3309 64.5227 49.3309L61.4212 49.0635Z" fill="url(#paint20_linear_3562_2922)"/>
<path d="M65.7798 51.2021C65.771 51.1773 65.7634 51.1554 65.7563 51.1348C65.7683 51.2468 65.7748 51.3634 65.7761 51.4837C65.7808 51.3981 65.7848 51.3125 65.7877 51.2267C65.785 51.2186 65.7826 51.21 65.7798 51.2021Z" fill="white"/>
<path d="M65.7561 51.1349C65.7517 51.0934 65.7467 51.0523 65.7408 51.0121C65.902 51.2806 65.5919 50.6548 65.7561 51.1349Z" fill="white"/>
<path d="M67.2311 47.4339C68.9101 47.052 67.7447 52.2457 65.2451 51.3942C62.7455 50.5427 61.581 50.0198 61.1914 50.7062C60.8019 51.3925 60.1528 54.2002 59.9371 52.7444C59.7355 51.3838 59.5404 48.8903 60.8538 48.3461C61.5995 48.0371 62.2553 48.7068 62.7693 48.5391C63.5608 48.281 64.3229 48.2724 64.793 48.5434C65.6826 49.0563 66.164 47.6767 67.2311 47.4339Z" fill="url(#paint21_linear_3562_2922)"/>
<path d="M60.911 51.7159C60.911 51.7159 60.369 50.8975 60.122 51.7351C59.8751 52.5727 60.0318 53.7299 60.5286 53.192C61.0254 52.654 60.911 51.7159 60.911 51.7159Z" fill="url(#paint22_linear_3562_2922)"/>
<path d="M61.0808 45.0852H37.5906C36.553 45.0852 35.7119 44.2441 35.7119 43.2065V32.98C35.7119 31.9189 36.5901 31.0683 37.6507 31.1022L61.1408 31.8535C62.1545 31.886 62.9595 32.7171 62.9595 33.7313V43.2065C62.9595 44.2441 62.1184 45.0852 61.0808 45.0852Z" fill="url(#paint23_linear_3562_2922)"/>
<path d="M53.0127 45.008L56.1341 48.7797L57.3401 45.008H53.0127Z" fill="url(#paint24_linear_3562_2922)"/>
<path d="M46.4553 41.1984L41.2021 38.4776V37.615L46.4553 34.8766V36.2854L42.8677 38.0347L46.4553 39.7956V41.1984Z" fill="white"/>
<path d="M51.5961 34.0856L48.9018 42.4114L47.502 42.3992L50.2364 34.0123L51.5961 34.0856Z" fill="white"/>
<path d="M52.5674 39.9324L55.8071 38.4367L52.5674 36.5352V35.1719L57.2335 38.1433V38.9351L52.5674 41.2901V39.9324Z" fill="white"/>
<path d="M26.7737 58.45C26.3648 57.5981 26.0723 56.7064 26.0041 55.7354C25.8322 53.2889 27.2544 51.0359 28.2992 48.9295C29.2594 46.9936 29.9732 44.1088 26.733 44.3655C24.1516 44.57 21.1168 47.1426 20.7706 49.8251C20.3608 53 21.9064 57.0037 20.0739 59.8877C17.5103 63.9222 15.6611 62.9976 15.6611 69.8059C15.6611 72.7151 17.2725 74.3198 19.1182 75.2037C22.0314 76.5987 25.5051 76.035 27.8261 73.7888C29.8767 71.8043 31.0959 68.9516 30.6835 66.0875C30.267 63.1949 27.9983 61.0013 26.7737 58.45Z" fill="url(#paint25_linear_3562_2922)"/>
<path d="M24.6081 80.369C24.5544 80.369 24.5055 80.3327 24.4919 80.2783C22.8855 73.8661 22.011 68.0533 21.8928 63.0012C21.7982 58.9546 22.1858 55.383 23.0449 52.386C24.5136 47.2617 26.8212 45.6134 26.9187 45.5458C26.973 45.5082 27.0476 45.5215 27.0854 45.5758C27.1232 45.6301 27.1098 45.7049 27.0555 45.7427C27.0322 45.7589 24.7082 47.4269 23.2663 52.4838C21.9331 57.1599 21.1038 65.7676 24.7245 80.22C24.7406 80.2843 24.7015 80.3494 24.6373 80.3654C24.6276 80.3679 24.6178 80.369 24.6081 80.369Z" fill="url(#paint26_linear_3562_2922)"/>
<path d="M29.3462 51.2728C29.2214 51.2389 29.0842 51.2284 28.9382 51.2452C28.1307 51.338 27.7991 52.1896 27.5618 52.8554C27.3587 53.4256 27.1192 54.1177 27.2392 54.7354C27.3689 55.4033 28.0782 55.9481 28.5928 55.27C29.1778 54.4992 30.0556 53.3158 30.0609 52.2944C30.0636 51.7867 29.7785 51.3901 29.3462 51.2728Z" fill="url(#paint27_linear_3562_2922)"/>
<path d="M38.2613 69.3388C38.6269 66.9305 37.7516 64.1656 37.3147 61.6188C37.0838 60.2722 36.9769 58.9359 37.1932 57.5793C37.4082 56.2305 38.042 54.7717 37.4576 53.4279C36.2802 50.7205 33.4811 51.9526 31.8777 53.9907C30.0171 56.3558 29.5084 60.2206 28.8017 63.1966C28.3757 64.9906 27.7339 66.8308 27.5092 68.659C27.1369 71.6876 27.8217 73.7902 29.2704 75.2102C30.66 76.5722 32.7763 76.8546 34.4762 75.9079C36.0118 75.0527 37.6716 73.224 38.2613 69.3388Z" fill="url(#paint28_linear_3562_2922)"/>
<path d="M31.8578 80.5406C31.8003 80.5406 31.7496 80.4992 31.7397 80.4406C31.7336 80.4041 31.1247 76.7295 31.1087 71.659C31.094 66.9775 31.596 60.1123 34.071 53.9924C34.0959 53.931 34.1655 53.9014 34.2272 53.9262C34.2886 53.951 34.3182 54.0209 34.2934 54.0823C31.8335 60.1646 31.3342 66.9948 31.3485 71.6536C31.364 76.7055 31.9701 80.3644 31.9762 80.4008C31.9872 80.4662 31.9432 80.528 31.8779 80.539C31.8711 80.54 31.8644 80.5406 31.8578 80.5406Z" fill="url(#paint29_linear_3562_2922)"/>
<defs>
<linearGradient id="paint0_linear_3562_2922" x1="89.983" y1="101.188" x2="31.1885" y2="28.1686" gradientUnits="userSpaceOnUse">
<stop stop-color="#B37CFF"/>
<stop offset="1" stop-color="#F895E7"/>
</linearGradient>
<linearGradient id="paint1_linear_3562_2922" x1="78.1637" y1="34.3789" x2="63.3653" y2="79.3595" gradientUnits="userSpaceOnUse">
<stop stop-color="#00425F"/>
<stop offset="1" stop-color="#26264F"/>
</linearGradient>
<linearGradient id="paint2_linear_3562_2922" x1="51.2411" y1="57.0005" x2="80.7406" y2="29.1797" gradientUnits="userSpaceOnUse">
<stop stop-color="#A737D5"/>
<stop offset="1" stop-color="#EF497A"/>
</linearGradient>
<linearGradient id="paint3_linear_3562_2922" x1="16.9796" y1="76.7882" x2="113.098" y2="-33.428" gradientUnits="userSpaceOnUse">
<stop stop-color="#2B586B"/>
<stop offset="1" stop-color="#26264F"/>
</linearGradient>
<linearGradient id="paint4_linear_3562_2922" x1="53.547" y1="-8.63275" x2="38.1764" y2="38.4548" gradientUnits="userSpaceOnUse">
<stop stop-color="#375C71"/>
<stop offset="1" stop-color="#00425F"/>
</linearGradient>
<linearGradient id="paint5_linear_3562_2922" x1="65.1868" y1="47.9244" x2="59.9937" y2="56.3246" gradientUnits="userSpaceOnUse">
<stop stop-color="#2B3582"/>
<stop offset="1" stop-color="#150E42"/>
</linearGradient>
<linearGradient id="paint6_linear_3562_2922" x1="62.8218" y1="57.4451" x2="64.5408" y2="109.444" gradientUnits="userSpaceOnUse">
<stop stop-color="#FDF53F"/>
<stop offset="1" stop-color="#D93C65"/>
</linearGradient>
<linearGradient id="paint7_linear_3562_2922" x1="52.8738" y1="62.2923" x2="64.2631" y2="89.8041" gradientUnits="userSpaceOnUse">
<stop stop-color="#F9B776"/>
<stop offset="1" stop-color="#F47960"/>
</linearGradient>
<linearGradient id="paint8_linear_3562_2922" x1="73.0635" y1="62.2331" x2="61.6742" y2="89.7449" gradientUnits="userSpaceOnUse">
<stop stop-color="#F9B776"/>
<stop offset="1" stop-color="#F47960"/>
</linearGradient>
<linearGradient id="paint9_linear_3562_2922" x1="62.9907" y1="65.8394" x2="62.3978" y2="89.8501" gradientUnits="userSpaceOnUse">
<stop stop-color="#2B3582"/>
<stop offset="1" stop-color="#150E42"/>
</linearGradient>
<linearGradient id="paint10_linear_3562_2922" x1="64.1784" y1="60.8569" x2="60.0523" y2="88.3169" gradientUnits="userSpaceOnUse">
<stop stop-color="#53D8FF"/>
<stop offset="1" stop-color="#3840F7"/>
</linearGradient>
<linearGradient id="paint11_linear_3562_2922" x1="69.8258" y1="80.2752" x2="76.0497" y2="80.3232" gradientUnits="userSpaceOnUse">
<stop stop-color="#2B3582"/>
<stop offset="1" stop-color="#150E42"/>
</linearGradient>
<linearGradient id="paint12_linear_3562_2922" x1="84.9947" y1="72.0971" x2="70.4498" y2="84.4918" gradientUnits="userSpaceOnUse">
<stop stop-color="#53D8FF"/>
<stop offset="1" stop-color="#3840F7"/>
</linearGradient>
<linearGradient id="paint13_linear_3562_2922" x1="73.9335" y1="69.0532" x2="67.3638" y2="86.8479" gradientUnits="userSpaceOnUse">
<stop stop-color="#F9B776"/>
<stop offset="1" stop-color="#F47960"/>
</linearGradient>
<linearGradient id="paint14_linear_3562_2922" x1="54.7211" y1="80.2449" x2="48.4959" y2="80.1203" gradientUnits="userSpaceOnUse">
<stop stop-color="#2B3582"/>
<stop offset="1" stop-color="#150E42"/>
</linearGradient>
<linearGradient id="paint15_linear_3562_2922" x1="40.3936" y1="59.0879" x2="52.2825" y2="87.9249" gradientUnits="userSpaceOnUse">
<stop stop-color="#53D8FF"/>
<stop offset="1" stop-color="#3840F7"/>
</linearGradient>
<linearGradient id="paint16_linear_3562_2922" x1="60.7707" y1="63.6911" x2="54.1975" y2="81.4953" gradientUnits="userSpaceOnUse">
<stop stop-color="#F9B776"/>
<stop offset="1" stop-color="#F47960"/>
</linearGradient>
<linearGradient id="paint17_linear_3562_2922" x1="76.7181" y1="68.7097" x2="59.6393" y2="81.5392" gradientUnits="userSpaceOnUse">
<stop stop-color="#7C27DD"/>
<stop offset="1" stop-color="#2B41D9"/>
</linearGradient>
<linearGradient id="paint18_linear_3562_2922" x1="61.2819" y1="80.2134" x2="56.8058" y2="68.7993" gradientUnits="userSpaceOnUse">
<stop stop-color="#7C27DD"/>
<stop offset="1" stop-color="#2B41D9"/>
</linearGradient>
<linearGradient id="paint19_linear_3562_2922" x1="62.871" y1="64.5637" x2="62.7194" y2="51.3787" gradientUnits="userSpaceOnUse">
<stop stop-color="#F9B776"/>
<stop offset="1" stop-color="#F47960"/>
</linearGradient>
<linearGradient id="paint20_linear_3562_2922" x1="62.2393" y1="56.4338" x2="64.3864" y2="45.9825" gradientUnits="userSpaceOnUse">
<stop stop-color="#F9B776"/>
<stop offset="1" stop-color="#F47960"/>
</linearGradient>
<linearGradient id="paint21_linear_3562_2922" x1="64.9753" y1="47.787" x2="59.8279" y2="56.1133" gradientUnits="userSpaceOnUse">
<stop stop-color="#2B3582"/>
<stop offset="1" stop-color="#150E42"/>
</linearGradient>
<linearGradient id="paint22_linear_3562_2922" x1="60.0803" y1="57.6017" x2="61.2785" y2="40.9249" gradientUnits="userSpaceOnUse">
<stop stop-color="#F9B776"/>
<stop offset="1" stop-color="#F47960"/>
</linearGradient>
<linearGradient id="paint23_linear_3562_2922" x1="45.6163" y1="25.7576" x2="56.5271" y2="63.0461" gradientUnits="userSpaceOnUse">
<stop stop-color="#00425F"/>
<stop offset="1" stop-color="#2B586B"/>
</linearGradient>
<linearGradient id="paint24_linear_3562_2922" x1="49.234" y1="24.6992" x2="60.1448" y2="61.9877" gradientUnits="userSpaceOnUse">
<stop stop-color="#2B586B"/>
<stop offset="1" stop-color="#26264F"/>
</linearGradient>
<linearGradient id="paint25_linear_3562_2922" x1="14.565" y1="101.515" x2="26.7523" y2="53.8995" gradientUnits="userSpaceOnUse">
<stop stop-color="#26264F"/>
<stop offset="1" stop-color="#00425F"/>
</linearGradient>
<linearGradient id="paint26_linear_3562_2922" x1="21.8789" y1="62.9467" x2="27.1069" y2="62.9467" gradientUnits="userSpaceOnUse">
<stop stop-color="#2B3582"/>
<stop offset="1" stop-color="#150E42"/>
</linearGradient>
<linearGradient id="paint27_linear_3562_2922" x1="75.1785" y1="8.93999" x2="40.0337" y2="42.3842" gradientUnits="userSpaceOnUse">
<stop stop-color="#00425F"/>
<stop offset="1" stop-color="#375C71"/>
</linearGradient>
<linearGradient id="paint28_linear_3562_2922" x1="27.67" y1="81.1724" x2="35.1662" y2="61.2972" gradientUnits="userSpaceOnUse">
<stop stop-color="#A737D5"/>
<stop offset="1" stop-color="#EF497A"/>
</linearGradient>
<linearGradient id="paint29_linear_3562_2922" x1="30.676" y1="66.6778" x2="34.9751" y2="67.6888" gradientUnits="userSpaceOnUse">
<stop stop-color="#2B3582"/>
<stop offset="1" stop-color="#150E42"/>
</linearGradient>
</defs>
</svg>
