<svg width="68" height="66" viewBox="0 0 68 66" fill="none" xmlns="http://www.w3.org/2000/svg">
<path d="M56.9145 10.523C56.7518 10.6194 56.5705 10.6622 56.3988 10.7314C56.2904 10.7754 56.1814 10.7754 56.0675 10.7417C55.8506 10.6778 55.6332 10.6218 55.441 10.4917C55.2103 10.3356 54.9621 10.2585 54.673 10.2405C54.3772 10.2224 54.0784 10.2043 53.782 10.1634C53.1814 10.0802 52.5772 10.0345 51.9773 10.1905C51.9092 10.2079 51.8291 10.2079 51.761 10.1911C51.6014 10.1531 51.4405 10.1501 51.2791 10.1447C51.0538 10.1381 50.8743 10.0507 50.7592 9.84832C50.655 9.66639 50.5014 9.5411 50.3056 9.46399C50.0616 9.367 49.8074 9.32544 49.5472 9.33207C49.1635 9.34171 48.8027 9.20676 48.4274 9.16941C48.4117 9.1676 48.396 9.16038 48.3816 9.15436C48.04 9.00918 47.7214 9.07304 47.4111 9.25135C47.2792 9.32725 47.14 9.41459 46.9822 9.39652C46.8642 9.38327 46.7581 9.41279 46.6479 9.43266C46.4178 9.47363 46.1895 9.54048 45.9575 9.55615C45.663 9.57603 45.4052 9.70735 45.1678 9.83927C44.9052 9.98445 44.651 10.0917 44.3552 10.1086C44.2624 10.114 44.169 10.1375 44.1227 10.2182C44.0227 10.3899 43.857 10.4188 43.6877 10.4368C43.4721 10.4597 43.2558 10.4652 43.0432 10.526C42.9016 10.5664 42.7594 10.5441 42.6317 10.4435C42.3962 10.2573 42.1318 10.2929 41.8685 10.3736C41.7745 10.4025 41.7197 10.4658 41.7257 10.5724C41.73 10.6447 41.7378 10.7224 41.6607 10.767C41.5577 10.8266 41.5016 10.9266 41.4402 11.0206C41.348 11.1627 41.2191 11.2266 41.0529 11.226C40.9475 11.2254 40.842 11.2332 40.7372 11.2248C40.5752 11.2109 40.4258 11.2621 40.2993 11.3428C39.9577 11.5609 39.5933 11.576 39.2077 11.5284C39.0023 11.5031 38.7843 11.4651 38.5897 11.5796C38.3692 11.7091 38.1264 11.7609 37.8819 11.8187C37.6855 11.8657 37.5228 11.8428 37.362 11.7133C37.1897 11.5748 36.9909 11.5934 36.8102 11.7374C36.747 11.7874 36.6849 11.8392 36.6211 11.8886C36.5819 11.9187 36.5349 11.9537 36.4885 11.9326C36.2801 11.8362 36.0392 11.8597 35.8362 11.7621C35.4518 11.5772 35.0362 11.5151 34.629 11.4157C34.4344 11.3687 34.2458 11.3025 34.0591 11.2236C33.8615 11.1404 33.6802 11.0127 33.4573 10.9862C33.1441 10.9489 32.8314 10.9133 32.5983 10.926C32.3375 10.926 32.1591 10.9254 31.9814 10.9266C31.9092 10.9272 31.8236 10.9145 31.7718 10.9688C31.5893 11.1615 31.3417 11.1254 31.1164 11.1688C31.0538 11.1808 30.9875 11.167 30.9315 11.2115C30.6044 11.4706 30.2604 11.7103 29.9923 12.0368C29.9616 12.0742 29.9231 12.1049 29.8863 12.1362C29.6833 12.3091 29.4803 12.4814 29.3261 12.7037C29.2659 12.7904 29.1875 12.8609 29.1002 12.9211C28.9201 13.0458 28.7388 13.1681 28.5285 13.2362C28.3484 13.2946 28.2279 13.4518 28.0514 13.5169C27.6563 13.6621 27.6701 13.6506 27.6948 14.1325C27.7002 14.2428 27.7496 14.3512 27.7785 14.4602C27.7972 14.5301 27.8213 14.5994 27.8352 14.6705C27.8743 14.8759 28.0038 15 28.2062 15.0132C28.3731 15.0241 28.5279 14.9855 28.6623 14.8819C28.7201 14.8373 28.7743 14.7885 28.8327 14.7452C28.9116 14.6873 28.9815 14.6819 29.0719 14.7482C29.2918 14.9102 29.4303 15.1397 29.596 15.3458C29.6695 15.4373 29.6393 15.5271 29.5381 15.5909C29.4701 15.6337 29.4008 15.6765 29.3375 15.7265C29.2875 15.7656 29.2875 15.8253 29.3044 15.8831C29.3225 15.9463 29.3719 15.9843 29.4315 15.9722C29.6514 15.9289 29.8869 15.9325 30.0815 15.8024C30.1791 15.7373 30.2731 15.6819 30.3923 15.6873C30.5146 15.6933 30.5664 15.618 30.5953 15.5174C30.6405 15.3626 30.6935 15.2084 30.6923 15.0446C30.6917 14.9253 30.7303 14.8428 30.8538 14.8084C30.9068 14.7934 30.958 14.7626 31.0032 14.7301C31.2525 14.5524 31.2658 14.3783 31.0471 14.1723C31.0176 14.1446 30.9869 14.1187 30.9556 14.0928C30.7098 13.8861 30.7375 13.6048 31.0194 13.453C31.0905 13.4145 31.1616 13.3759 31.2321 13.3362C31.4315 13.2235 31.611 13.097 31.7037 12.8693C31.761 12.7289 31.8851 12.641 32.0453 12.6326C32.1501 12.6272 32.2555 12.6368 32.3603 12.6404C32.4025 12.6416 32.4441 12.6525 32.464 12.6916C32.4941 12.7518 32.4399 12.7777 32.4049 12.8073C32.2453 12.9422 32.1043 13.097 31.9116 13.1952C31.7248 13.2904 31.5887 13.432 31.6254 13.6783C31.6778 14.0283 31.8055 14.312 32.182 14.412C32.1977 14.4163 32.214 14.4193 32.2284 14.4259C32.3736 14.4898 32.4555 14.6108 32.4435 14.744C32.4278 14.9205 32.3591 15.0229 32.1838 15.0451C31.9507 15.0753 31.8447 15.2066 31.8055 15.4192C31.7953 15.4747 31.7857 15.5301 31.773 15.5849C31.7001 15.8999 31.5188 16.0626 31.2369 16.0301C31.1562 16.0204 31.076 16.0451 30.9965 16.0512C30.7164 16.0728 30.4724 16.2108 30.2086 16.2825C30.1363 16.3023 30.0731 16.3337 30.0152 16.2542C29.861 16.0427 29.6719 16.0445 29.4604 16.165C29.3839 16.209 29.3062 16.2282 29.2098 16.1801C28.9978 16.0728 28.9376 15.9861 29.0122 15.7572C29.0628 15.603 29.0568 15.4548 29.04 15.303C29.0303 15.2168 28.9815 15.1518 28.8791 15.1578C28.7243 15.1662 28.5255 15.3415 28.4719 15.4951C28.4062 15.6819 28.4002 15.8716 28.4219 16.0632C28.437 16.1951 28.39 16.2795 28.2677 16.3307C28.1484 16.3801 28.0352 16.4463 27.9141 16.4897C27.7237 16.5572 27.5581 16.6704 27.4539 16.8318C27.3129 17.0505 27.0906 17.1463 26.8882 17.2716C26.7894 17.333 26.696 17.3806 26.6527 17.4981C26.584 17.6842 26.3756 17.674 26.2443 17.774C26.1708 17.8294 26.0918 17.7746 26.0153 17.7499C25.9039 17.7138 25.7732 17.6975 25.7093 17.8144C25.6105 17.9951 25.4569 18.0234 25.2792 18.0216C25.1654 18.0204 25.0533 18.0342 24.9449 18.0734C24.8979 18.0908 24.8539 18.1125 24.8509 18.1704C24.8467 18.2571 24.9859 18.4432 25.0798 18.4493C25.4063 18.4691 25.5696 18.7047 25.7346 18.9342C25.8388 19.0788 25.872 19.2414 25.8009 19.4167C25.7678 19.4986 25.7527 19.586 25.7401 19.6751C25.7105 19.8884 25.669 19.9185 25.4593 19.9161C25.4027 19.9155 25.3455 19.9167 25.2895 19.9083C24.8594 19.8402 24.4238 19.8504 23.9919 19.8161C23.9431 19.8125 23.8943 19.8155 23.8522 19.845C23.6931 19.9589 23.4636 20.0185 23.5636 20.3089C23.601 20.4167 23.5058 20.5468 23.5413 20.6667C23.5835 20.8094 23.5431 20.936 23.4998 21.0679C23.4612 21.1853 23.3895 21.2835 23.3389 21.3932C23.3124 21.4504 23.2588 21.5227 23.3112 21.5733C23.4479 21.7058 23.419 21.8697 23.4214 22.0281C23.4233 22.1522 23.4865 22.2028 23.6028 22.2034C23.6431 22.2034 23.6847 22.2088 23.7238 22.2028C23.9299 22.1691 24.0985 22.2293 24.2582 22.3678C24.3829 22.4757 24.5551 22.5305 24.7094 22.4582C24.8353 22.3992 24.9569 22.3757 25.0828 22.3919C25.4166 22.4335 25.6322 22.2178 25.8382 22.0257C25.9376 21.9329 25.981 21.7642 26.0804 21.6468C26.1003 21.6233 26.0985 21.5618 26.0822 21.5311C26.0238 21.4221 26.0828 21.3474 26.1424 21.2691C26.2063 21.1853 26.2744 21.104 26.328 21.0149C26.39 20.9112 26.4635 20.8522 26.5918 20.8329C26.7659 20.807 26.8858 20.6697 27.0117 20.5582C27.1003 20.4799 27.0641 20.3613 27.0713 20.2583C27.084 20.0697 27.2081 19.9583 27.4141 19.9739C27.5334 19.983 27.6502 20.0245 27.7683 20.0474C27.8466 20.0625 27.9352 20.1173 28.0032 20.0709C28.1629 19.9631 28.3448 19.898 28.5038 19.7956C28.7008 19.6691 28.7231 19.6559 28.896 19.7998C28.9598 19.8528 29.0098 19.9161 29.0418 19.9914C29.0996 20.1299 29.1996 20.2336 29.3086 20.3317C29.5436 20.5438 29.7942 20.7299 30.0887 20.8534C30.3044 20.9438 30.4496 21.1239 30.5947 21.2938C30.7248 21.4462 30.6249 21.66 30.4279 21.7178C30.2285 21.7763 30.0279 21.7594 29.8267 21.7582C29.7592 21.7576 29.6893 21.7691 29.6664 21.8401C29.6417 21.916 29.7008 21.9588 29.758 21.9919C29.9327 22.0931 30.1219 22.1666 30.2953 22.2721C30.4062 22.3395 30.5122 22.2793 30.5116 22.1443C30.5116 21.9835 30.5845 21.9094 30.7236 21.8691C30.8959 21.8191 30.9285 21.6582 30.9989 21.5245C31.0525 21.4227 31.0206 21.3462 30.9748 21.2534C30.923 21.1504 30.9845 21.0853 31.1001 21.0908C31.1809 21.0944 31.2278 21.1564 31.2935 21.1847C31.3797 21.2209 31.4333 21.1823 31.4369 21.0884C31.4411 20.9835 31.37 20.9239 31.2983 20.8739C31.1266 20.7534 30.9459 20.6456 30.7748 20.5245C30.6953 20.4679 30.62 20.4251 30.5224 20.3962C30.3544 20.3462 30.1845 20.2583 30.1122 20.0866C30.0556 19.9522 29.9761 19.8528 29.8646 19.7679C29.8267 19.739 29.7917 19.7017 29.767 19.6613C29.7098 19.5673 29.7237 19.4071 29.7935 19.345C29.8731 19.2745 29.9755 19.2414 30.0592 19.3113C30.2116 19.4402 30.4008 19.5269 30.508 19.7113C30.5833 19.8408 30.7152 19.9197 30.8586 19.9522C30.9604 19.9757 31.0381 20.0209 31.1038 20.095C31.1532 20.1504 31.2116 20.1926 31.276 20.2263C31.5483 20.3685 31.6616 20.6028 31.667 20.9004C31.6682 20.9721 31.6525 21.0504 31.7037 21.1106C31.8869 21.3269 31.9658 21.6136 32.1802 21.8082C32.2507 21.8721 32.2887 21.9624 32.2887 22.0462C32.2887 22.2871 32.4573 22.3347 32.635 22.3757C32.7784 22.4088 32.8206 22.3835 32.8718 22.2462C32.9844 21.945 33.1025 21.6444 32.9483 21.3209C32.9417 21.307 32.941 21.2896 32.9392 21.2733C32.9242 21.1305 33.0627 20.907 33.176 20.8914C33.3856 20.8625 33.5971 21.0131 33.6133 21.207C33.6212 21.3034 33.6254 21.4016 33.6206 21.498C33.6103 21.701 33.676 21.8853 33.7844 22.0468C33.8784 22.1859 33.9989 22.3064 34.1964 22.2992C34.3531 22.2931 34.4982 22.3618 34.635 22.4263C34.7512 22.4811 34.8476 22.5034 34.9446 22.4118C35.0139 22.3467 35.0832 22.3534 35.1681 22.3775C35.2844 22.4106 35.3988 22.4419 35.5084 22.4973C35.6669 22.5775 35.8307 22.5853 35.988 22.4769C36.0404 22.4407 36.1012 22.41 36.1626 22.3961C36.3259 22.3582 36.5054 22.4528 36.5199 22.6034C36.5379 22.7871 36.5747 22.9829 36.5054 23.1564C36.4391 23.322 36.3837 23.4871 36.347 23.6612C36.3169 23.8021 36.2813 23.9473 36.2187 24.0756C36.1379 24.2401 36.1337 24.3961 36.1819 24.5678C36.241 24.7786 36.3422 24.9708 36.4241 25.1714C36.5626 25.5117 36.744 25.822 36.9692 26.1093C37.0698 26.237 37.1548 26.375 37.206 26.5304C37.2355 26.6195 37.2867 26.687 37.3632 26.7394C37.515 26.843 37.6048 26.9954 37.6927 27.1514C37.7825 27.3111 37.7975 27.49 37.8343 27.6629C37.8831 27.8942 37.9722 28.0912 38.1963 28.2062C38.259 28.2382 38.3174 28.2924 38.3578 28.3502C38.5734 28.6598 38.7722 28.9899 38.8939 29.3393C39.027 29.7218 39.2324 30.0682 39.3692 30.4465C39.4186 30.5827 39.5324 30.6845 39.671 30.7477C39.7993 30.8068 39.8842 30.7188 39.9794 30.6622C39.9999 30.6501 40.0258 30.6483 40.0487 30.6399C40.4854 30.4766 40.9264 30.323 41.333 30.0893C41.4113 30.0441 41.501 30.0363 41.5884 30.0164C41.7661 29.976 41.9239 29.9002 42.0143 29.7273C42.0685 29.6231 42.1589 29.5441 42.2558 29.4947C42.5263 29.3568 42.7998 29.2315 43.0534 29.0568C43.3414 28.858 43.642 28.6887 43.7179 28.3068C43.7335 28.2279 43.7835 28.161 43.8287 28.093C43.9492 27.911 44.0697 27.7297 44.1293 27.5153C44.1522 27.4328 44.1672 27.3599 44.1088 27.287C44.0172 27.1737 43.9305 27.0569 43.8365 26.946C43.7673 26.8635 43.6829 26.796 43.5654 26.8141C43.4215 26.8358 43.3389 26.7605 43.2703 26.6496C43.2365 26.5948 43.192 26.5466 43.1558 26.493C42.9552 26.1948 42.7408 26.181 42.5299 26.4593C42.4637 26.5466 42.3896 26.6213 42.2848 26.6472C42.0938 26.6948 41.8986 26.6792 41.7053 26.6557C41.6366 26.6472 41.5866 26.6039 41.6071 26.5201C41.7041 26.1298 41.486 25.9165 41.177 25.7533C40.8583 25.5846 40.6312 25.331 40.5089 24.9931C40.4384 24.7979 40.6005 24.6238 40.8047 24.6521C41.0914 24.6919 41.2011 24.9063 41.2836 25.1388C41.3221 25.2473 41.342 25.3768 41.4492 25.4226C41.7378 25.5461 41.9631 25.7774 42.2811 25.8593C42.4462 25.9015 42.586 25.9388 42.7438 25.8714C42.8028 25.8461 42.8637 25.8292 42.9215 25.7973C43.0432 25.731 43.0823 25.7479 43.148 25.8725C43.1667 25.9081 43.1823 25.946 43.1938 25.9846C43.2377 26.1328 43.3335 26.2087 43.4877 26.234C43.6944 26.2677 43.898 26.3219 44.104 26.3593C44.5347 26.4376 44.966 26.4774 45.4015 26.3786C45.5503 26.3448 45.7027 26.3256 45.8582 26.3298C45.981 26.3334 46.0708 26.3768 46.1485 26.4737C46.2895 26.6496 46.4359 26.8195 46.628 26.9478C46.7557 27.0328 46.8623 27.1508 46.9003 27.3081C46.9316 27.4364 47.0105 27.5219 47.1172 27.5864C47.2159 27.6466 47.2973 27.7243 47.3629 27.8177C47.4545 27.9478 47.5683 27.9906 47.7177 27.9285C47.7473 27.9165 47.7792 27.908 47.8105 27.9008C47.9689 27.8665 48.1189 27.9478 48.1268 28.1068C48.1346 28.2647 48.2093 28.4062 48.2159 28.5544C48.2358 29.0044 48.4454 29.3923 48.5888 29.802C48.6237 29.9014 48.6623 30.0007 48.7304 30.0821C48.8255 30.1971 48.8792 30.3309 48.9267 30.4688C48.9719 30.5983 49.0105 30.7315 49.0653 30.8568C49.2394 31.2555 49.4593 31.6338 49.5948 32.0495C49.6177 32.1194 49.6623 32.1778 49.7123 32.232C49.8526 32.3844 49.9568 32.3904 50.1038 32.2507C50.1508 32.2061 50.1906 32.1543 50.2394 32.1127C50.5002 31.8911 50.7279 31.6543 50.6749 31.2694C50.6707 31.2393 50.6893 31.2067 50.6918 31.1748C50.7231 30.8007 50.8538 30.4321 50.7279 30.0501C50.6912 29.9387 50.7436 29.8188 50.8309 29.7417C51.0176 29.5767 51.1785 29.3809 51.3592 29.2182C51.567 29.0309 51.7086 28.8002 51.8917 28.6002C51.9905 28.4924 52.0785 28.3887 52.2092 28.3134C52.3821 28.2141 52.561 28.102 52.5562 27.858C52.555 27.796 52.5995 27.7562 52.6441 27.7195C52.7604 27.6249 52.8953 27.5635 53.0423 27.5623C53.2158 27.5611 53.376 27.5038 53.5429 27.4767C53.7814 27.4376 53.8387 27.446 53.9501 27.6623C54.0326 27.8225 54.1537 27.9514 54.2525 28.0972C54.3573 28.2514 54.5471 28.3116 54.6242 28.499C54.7549 28.8177 54.9651 29.1116 54.8597 29.4857C54.8465 29.5333 54.8609 29.5869 54.9013 29.6188C54.9977 29.6929 55.1254 29.6905 55.2326 29.7477C55.2868 29.7767 55.3332 29.6809 55.3874 29.6496C55.6711 29.4851 55.844 29.5014 55.9591 29.8363C56.0091 29.9821 56.0633 30.1242 56.138 30.2592C56.3091 30.5688 56.435 30.9055 56.385 31.2531C56.3446 31.5338 56.4193 31.8103 56.3488 32.0892C56.3139 32.2278 56.3247 32.3922 56.447 32.5206C56.7289 32.8157 56.9398 33.1555 57.0874 33.5374C57.2675 34.0042 57.4849 34.4446 57.9783 34.6681C58.0777 34.7133 58.1662 34.8265 58.2825 34.7319C58.4012 34.6356 58.3186 34.5163 58.2729 34.4217C58.1578 34.1838 58.0946 33.9374 58.1018 33.6735C58.1042 33.5898 58.0789 33.5151 58.0373 33.4434C57.8982 33.2049 57.7506 32.9687 57.5193 32.8115C57.2307 32.6157 57.0458 32.3573 56.959 32.023C56.9422 31.9585 56.909 31.8965 56.8398 31.8808C56.7036 31.8495 56.6838 31.7519 56.697 31.6399C56.7235 31.414 56.7856 31.1959 56.8994 30.9989C57.0458 30.7471 57.2849 30.7291 57.5024 30.9146C57.7753 31.1471 57.8602 31.5019 58.0891 31.7628C58.1837 31.8706 58.2439 32.0073 58.3271 32.1266C58.4379 32.2856 58.5476 32.2923 58.6801 32.1531C58.7024 32.1302 58.7132 32.0959 58.7367 32.0754C58.9487 31.8917 59.0975 31.6429 59.3511 31.5001C59.6963 31.3061 59.8403 31.0333 59.7361 30.6465C59.6391 30.2875 59.5993 29.8965 59.3138 29.6056C59.2301 29.5207 59.1644 29.4164 59.0759 29.3321C58.871 29.1369 58.6813 28.9267 58.5036 28.7062C58.4018 28.5791 58.3638 28.4345 58.4391 28.2761C58.4741 28.2032 58.5072 28.1291 58.5385 28.055C58.6066 27.8912 58.7644 27.8231 58.9018 27.7538C59.0138 27.6972 59.0975 27.837 59.1957 27.8858C59.2174 27.8966 59.2379 27.911 59.2554 27.9267C59.4554 28.1074 59.6704 28.1074 59.9047 27.9948C60.1246 27.8894 60.324 27.7514 60.5324 27.6285C60.7047 27.5267 60.8505 27.3797 61.0258 27.2936C61.2565 27.1797 61.48 27.0719 61.6722 26.8918C61.889 26.6882 62.086 26.4545 62.1583 26.1846C62.2312 25.9123 62.3312 25.6491 62.4143 25.3822C62.5203 25.0425 62.527 24.7286 62.4065 24.3973C62.3137 24.1425 62.2095 23.9027 61.98 23.7383C61.9487 23.716 61.924 23.6786 61.9059 23.6431C61.7722 23.3817 61.5957 23.1546 61.3915 22.9437C61.224 22.7708 61.2342 22.7094 61.3601 22.4973C61.4324 22.3751 61.5246 22.3058 61.6661 22.2901C61.7541 22.2805 61.8252 22.2281 61.8113 22.1305C61.7993 22.0504 61.7294 22.0094 61.6493 22.0118C61.5077 22.016 61.3794 21.9775 61.2517 21.9215C61.1674 21.8847 61.0788 21.8992 60.9927 21.9365C60.915 21.9703 60.8252 21.9775 60.7632 21.916C60.6674 21.8215 60.5565 21.7383 60.5101 21.5998C60.4427 21.398 60.5126 21.1823 60.6909 21.0757C60.8222 20.9968 60.9782 21.0721 60.9782 21.2281C60.9782 21.3269 61.0228 21.3986 61.0637 21.4745C61.1246 21.5877 61.1945 21.5998 61.2981 21.5215C61.3559 21.4775 61.4005 21.4179 61.4577 21.3727C61.7113 21.1703 62.1095 21.2763 62.1565 21.5775C62.186 21.7661 62.2908 21.8492 62.4276 21.945C62.7209 22.1504 62.9932 22.3781 63.0559 22.7654C63.0673 22.8353 63.1041 22.9022 63.136 22.9672C63.2167 23.1335 63.2914 23.1696 63.4625 23.0949C63.5878 23.0401 63.7131 22.9859 63.8408 22.9365C64.0076 22.872 64.0305 22.8082 63.9709 22.6347C63.8866 22.3883 63.7685 22.1666 63.5878 21.9697C63.4173 21.7835 63.2559 21.5956 63.0312 21.4733C62.9968 21.4546 62.9709 21.4197 62.9414 21.392C62.8631 21.3185 62.8426 21.2281 62.9336 21.1643C63.1432 21.0161 63.1938 20.7866 63.2715 20.5667C63.3673 20.2944 63.433 20.2516 63.7113 20.2504C63.8661 20.2498 63.9733 20.2257 64.0516 20.1631C62.536 16.5337 60.38 13.2392 57.7247 10.42C57.6885 10.4152 57.6524 10.4121 57.6169 10.4049C57.3741 10.3585 57.1313 10.3935 56.9145 10.523Z" fill="#2B586B" stroke="#2B586B" stroke-width="0.5625" stroke-miterlimit="10"/>
<path d="M41.565 30.9619C41.3693 31.0824 41.1464 31.0716 40.9374 31.1258C40.5952 31.2144 40.2687 31.3541 39.9169 31.4119C39.6567 31.4547 39.3645 31.2969 39.3561 31.0493C39.3494 30.8487 39.2476 30.7204 39.1284 30.5885C39.0091 30.4571 38.8796 30.3325 38.7772 30.1891C38.694 30.0728 38.6091 29.9927 38.4663 29.9457C38.1754 29.8499 38.0049 29.6487 37.9874 29.3216C37.9772 29.1271 37.8929 28.9469 37.7561 28.7988C37.5278 28.55 37.3736 28.2765 37.3441 27.9229C37.3242 27.6867 37.2357 27.4494 37.0682 27.2621C36.873 27.044 36.7055 26.8103 36.6098 26.5301C36.573 26.4229 36.5098 26.3247 36.4736 26.2205C36.3736 25.9332 36.1146 25.7181 36.1525 25.3609C36.1742 25.1579 36.0507 24.9422 36.0122 24.7284C35.9526 24.4007 35.7038 24.2459 35.4514 24.1031C35.2466 23.9869 35.0411 24.0525 34.8634 24.1862C34.746 24.2748 34.6363 24.2892 34.505 24.2188C34.4128 24.1694 34.3062 24.1561 34.2038 24.1326C33.8906 24.0603 33.5689 24.0224 33.2719 23.8802C33.137 23.8152 32.9918 23.7875 32.8659 23.6851C32.74 23.582 32.5647 23.5742 32.4002 23.6098C32.3376 23.623 32.2798 23.6525 32.2129 23.6567C32.0557 23.6658 31.9846 23.7953 31.896 23.8977C31.8189 23.9862 31.8635 24.0742 31.8942 24.1694C31.9436 24.3218 31.8659 24.4188 31.7057 24.4308C31.6093 24.438 31.5328 24.3971 31.4635 24.3374C31.3105 24.2055 31.1334 24.1356 30.9316 24.132C30.7774 24.129 30.6648 24.0706 30.6226 23.914C30.5642 23.6977 30.3925 23.6356 30.2009 23.6079C30.1136 23.5953 30.022 23.5953 29.9347 23.6061C29.7184 23.6326 29.5371 23.5417 29.3648 23.4369C29.1799 23.3242 29.1401 23.1405 29.2431 22.9459C29.2817 22.873 29.3076 22.7989 29.3015 22.7146C29.2919 22.5857 29.2901 22.4586 29.3142 22.3285C29.3395 22.1947 29.257 22.0755 29.1329 22.0562C29.0058 22.0363 28.8678 22.0134 28.7503 22.0724C28.6479 22.1243 28.551 22.1134 28.4467 22.1158C28.2166 22.1212 27.9757 22.052 27.7624 22.2026C27.7106 22.2387 27.6546 22.2236 27.601 22.1983C27.4618 22.1321 27.3203 22.1526 27.1745 22.1785C26.9058 22.2267 26.6432 22.3122 26.3625 22.2953C26.2221 22.2869 26.0968 22.3616 26.0046 22.4724C25.9619 22.5236 25.9155 22.5574 25.8522 22.5839C25.5655 22.7038 25.2613 22.7375 24.9583 22.7712C24.8083 22.7881 24.6619 22.7881 24.5252 22.673C24.4125 22.5785 24.2571 22.6387 24.1764 22.7682C24.1252 22.8501 24.0601 22.9278 24.0288 23.0176C23.9728 23.176 23.8589 23.2573 23.7186 23.3357C23.3788 23.5254 23.1198 23.7995 23.0156 24.1802C22.9517 24.4139 22.8493 24.62 22.6993 24.8007C22.5325 25.0019 22.3879 25.235 22.1042 25.3067C22.009 25.3308 21.9457 25.4001 21.9023 25.4995C21.8511 25.6163 21.7933 25.7669 21.6945 25.8175C21.4915 25.9211 21.4343 26.0874 21.3855 26.2783C21.3698 26.3398 21.3397 26.3994 21.3078 26.4555C21.1542 26.7277 20.962 26.9735 20.8259 27.2609C20.6849 27.5566 20.6295 27.8211 20.7518 28.1343C20.8735 28.4464 20.9771 28.7717 20.8536 29.115C20.8349 29.1674 20.8319 29.2259 20.8241 29.2819C20.806 29.406 20.75 29.506 20.6572 29.5939C20.5168 29.7276 20.45 29.8945 20.4512 30.0933C20.453 30.4656 20.6084 30.7788 20.809 31.0776C20.8711 31.1698 20.9801 31.1939 21.0596 31.2638C21.2012 31.3878 21.2873 31.5571 21.4253 31.6812C21.5174 31.7649 21.5867 31.8601 21.6216 31.9806C21.756 32.4432 22.0409 32.7968 22.4433 33.0462C22.6782 33.192 22.8975 33.3516 23.1041 33.5324C23.3144 33.7155 23.5378 33.7685 23.7921 33.6227C23.8547 33.5872 23.9258 33.5649 23.9951 33.5438C24.2565 33.4643 24.5071 33.3884 24.795 33.4794C24.974 33.536 25.1709 33.6155 25.383 33.5215C25.6402 33.4077 25.9089 33.3101 26.1607 33.1908C26.4143 33.0703 26.6613 33.027 26.9287 33.027C27.2444 33.0276 27.4275 33.1583 27.5293 33.454C27.6251 33.7329 27.6956 33.7739 27.9955 33.7263C28.216 33.6914 28.4263 33.7089 28.6269 33.8221C28.8793 33.9649 28.9196 34.0558 28.8696 34.3516C28.8437 34.5034 28.7594 34.6426 28.7678 34.7986C28.7787 35.0058 28.7371 35.1998 28.6582 35.3889C28.6269 35.4636 28.5961 35.5419 28.6341 35.6233C28.6919 35.7468 28.725 35.8811 28.8166 35.9907C28.9871 36.1955 29.1437 36.4118 29.3148 36.616C29.4582 36.7865 29.5648 36.9666 29.5907 37.1937C29.6076 37.3377 29.6684 37.4714 29.7473 37.5961C29.8353 37.7346 29.8907 37.8876 29.881 38.0551C29.8636 38.3455 29.9377 38.6142 30.0503 38.878C30.1828 39.1888 30.1612 39.4768 29.9021 39.7213C29.7925 39.825 29.7359 39.9509 29.7124 40.1027C29.675 40.3418 29.5823 40.5683 29.5226 40.8008C29.4654 41.0237 29.466 41.2629 29.4509 41.4954C29.4455 41.5761 29.4907 41.652 29.5383 41.7183C29.6479 41.8713 29.713 42.0448 29.7871 42.2158C29.8865 42.4448 29.9551 42.6929 30.134 42.8785C30.2937 43.0441 30.3298 43.2399 30.313 43.458C30.3015 43.611 30.2798 43.7688 30.331 43.9158C30.3852 44.0718 30.4021 44.2296 30.4105 44.3917C30.4244 44.6471 30.4702 44.9218 30.6479 45.0905C30.9575 45.3844 31.1111 45.7326 31.1894 46.1332C31.1912 46.141 31.1937 46.1489 31.1979 46.1561C31.2792 46.3025 31.3033 46.4603 31.2834 46.6808C31.225 46.8464 31.3683 47.032 31.3979 47.2368C31.4021 47.2663 31.4208 47.3061 31.4443 47.3175C31.6081 47.3988 31.7611 47.5235 31.9605 47.4928C32.2695 47.4458 32.5888 47.4549 32.8852 47.3314C32.9213 47.3163 32.9647 47.3109 33.0038 47.3121C33.3153 47.3229 33.6044 47.2392 33.8996 47.144C34.1978 47.0476 34.4291 46.8832 34.6243 46.6494C34.6966 46.5627 34.7683 46.4711 34.8562 46.4031C35.0086 46.285 35.1098 46.1338 35.1941 45.9664C35.2785 45.7989 35.3827 45.6374 35.5267 45.523C35.6959 45.3886 35.7803 45.2158 35.8453 45.023C35.8736 44.9387 35.9098 44.8549 35.9212 44.7676C35.9628 44.4495 36.1429 44.2435 36.4206 44.1025C36.529 44.0477 36.6284 43.9652 36.6712 43.8477C36.7875 43.5267 36.8754 43.2001 36.7471 42.8586C36.7242 42.7984 36.7086 42.7345 36.6971 42.6713C36.6453 42.3815 36.7369 42.1418 36.9748 41.9719C37.0772 41.899 37.1555 41.8098 37.2266 41.7134C37.3013 41.6122 37.3905 41.5418 37.5067 41.4936C37.7874 41.3779 38.035 41.2123 38.2296 40.9761C38.4151 40.7508 38.526 40.5057 38.488 40.199C38.4603 39.9762 38.4675 39.7521 38.5091 39.5244C38.5555 39.272 38.5591 39.0153 38.385 38.7828C38.2706 38.6298 38.1772 38.4431 38.1856 38.2467C38.1995 37.9196 38.1537 37.6039 38.082 37.2883C38.0525 37.16 38.0676 37.0274 38.1507 36.919C38.2061 36.8467 38.2392 36.7654 38.2736 36.6841C38.4055 36.3708 38.5416 36.0618 38.8272 35.8492C38.8778 35.8118 38.9139 35.7534 38.9519 35.7016C39.1013 35.5004 39.2386 35.2895 39.3994 35.0986C39.544 34.9263 39.6826 34.7335 39.8898 34.6353C40.3838 34.4004 40.6964 33.9896 40.941 33.5324C41.2139 33.0203 41.4385 32.4824 41.6813 31.9541C41.7042 31.9041 41.703 31.8432 41.7205 31.7902C41.7921 31.5692 41.7042 31.3403 41.7572 31.1168C41.7777 31.0264 41.6428 30.9144 41.565 30.9619Z" fill="#2B586B"/>
<path d="M8.98687 13.0022C9.09108 12.9775 9.16217 13.0179 9.21578 13.095C9.25674 13.154 9.2959 13.2197 9.31457 13.2883C9.35734 13.448 9.47059 13.5263 9.61276 13.5793C9.77179 13.6389 9.93082 13.698 10.0886 13.7594C10.2344 13.8166 10.3567 13.8094 10.4929 13.7058C10.6392 13.5937 10.7766 13.4691 10.9362 13.3709C11.1452 13.242 11.1808 13.042 11.0687 12.8233C11.032 12.751 10.9934 12.6799 10.9609 12.6058C10.9374 12.5522 10.9266 12.4914 10.9862 12.4546C11.041 12.4209 11.0928 12.445 11.1422 12.4811C11.2362 12.5492 11.2838 12.657 11.3645 12.7366C11.494 12.8631 11.6067 12.8721 11.7494 12.7612C11.8579 12.6769 11.9651 12.5914 12.0717 12.5046C12.2229 12.3817 12.2404 12.3113 12.1735 12.1251C12.1368 12.0227 12.0826 11.9408 11.9796 11.889C11.747 11.7721 11.5904 11.6035 11.6241 11.3179C11.6404 11.1818 11.5717 11.0878 11.4735 11.0053C11.3139 10.8715 11.1278 10.7974 10.9266 10.7595C10.7206 10.7203 10.5742 10.6053 10.4941 10.4258C10.1573 10.7836 9.82841 11.148 9.50854 11.5203C9.51517 11.5282 9.523 11.533 9.52962 11.542C9.5977 11.6384 9.6736 11.7053 9.77781 11.7589C9.93323 11.839 9.94287 11.9408 9.81094 12.0631C9.71034 12.1558 9.5983 12.236 9.4724 12.2962C9.40071 12.3305 9.31517 12.3625 9.29228 12.448C9.25132 12.598 9.13144 12.6137 9.00976 12.6287C8.88024 12.645 8.75675 12.6191 8.63326 12.5817C8.52604 12.7173 8.42122 12.8552 8.31641 12.9926C8.53929 13.0203 8.76218 13.0552 8.98687 13.0022Z" fill="#2B586B" stroke="#2B586B" stroke-width="0.5625" stroke-miterlimit="10"/>
<path d="M3.76206 22.8037C3.84218 22.6658 3.94458 22.5363 3.98073 22.3815C4.03615 22.1447 4.15904 21.949 4.31084 21.77C4.49397 21.5556 4.68372 21.3466 4.87408 21.1387C5.08552 20.9074 5.31864 20.7478 5.63008 20.7098C5.77767 20.6918 5.90598 20.6213 6.04091 20.5671C6.13368 20.5297 6.18549 20.4629 6.17344 20.3604C6.15778 20.2225 6.23428 20.1352 6.32584 20.049C6.46439 19.9183 6.66017 19.8797 6.80053 19.7791C6.99389 19.64 7.18124 19.6791 7.37581 19.6713C7.47762 19.6671 7.5493 19.7123 7.59328 19.8243C7.6499 19.9689 7.76014 19.9852 7.87941 19.8852C7.95351 19.8231 8.01796 19.749 8.08724 19.681C8.13965 19.6297 8.19386 19.5689 8.27157 19.5767C8.51192 19.6008 8.72156 19.4532 8.9595 19.4623C9.01432 19.4641 9.07094 19.4442 9.12456 19.4267C9.24986 19.3852 9.27937 19.2563 9.1866 19.1611C9.14564 19.1189 9.09504 19.0996 9.03601 19.0912C8.94806 19.0792 8.86071 19.0611 8.77396 19.0436C8.52337 18.9924 8.42036 18.8328 8.48241 18.5864C8.51072 18.475 8.56072 18.3683 8.64807 18.2948C8.78119 18.1834 8.82999 18.0473 8.78963 17.8864C8.76192 17.7762 8.82216 17.7364 8.89986 17.7045C9.0842 17.628 9.28118 17.6141 9.47274 17.6437C9.70828 17.6798 9.93357 17.687 10.1643 17.6117C10.2896 17.5708 10.3799 17.6918 10.3245 17.8159C10.2818 17.9117 10.2137 17.9955 10.133 18.0641C10.0287 18.1527 9.98598 18.2719 9.9414 18.3948C9.90586 18.4924 9.91791 18.5454 10.0312 18.5659C10.183 18.593 10.3324 18.6207 10.4872 18.584C10.6492 18.5454 10.8131 18.543 10.9552 18.64C11.0956 18.7358 11.2576 18.7527 11.413 18.787C11.6359 18.8358 11.7956 18.6352 11.7124 18.4177C11.6612 18.2828 11.648 18.1539 11.7148 18.0202C11.816 17.816 11.8124 17.8117 11.607 17.7304C11.4335 17.6617 11.3992 17.5804 11.4094 17.3991C11.4233 17.1527 11.5594 16.9425 11.5914 16.7003C11.6106 16.5545 11.6022 16.4479 11.4799 16.363C11.4263 16.3256 11.3733 16.2865 11.3799 16.2094C11.3914 16.072 11.2944 16.0226 11.1902 15.9967C10.9185 15.9286 10.8474 15.7274 10.8384 15.4841C10.8329 15.3389 10.8402 15.1925 10.8366 15.0473C10.8299 14.7979 10.7576 14.5703 10.5962 14.3763C10.4733 14.2281 10.4324 14.2197 10.2793 14.3365C10.0866 14.4841 9.88538 14.6184 9.67755 14.7431C9.539 14.8263 9.38539 14.8148 9.27275 14.7178C9.17034 14.6293 9.1589 14.5359 9.23118 14.3654C9.24684 14.3281 9.26793 14.2931 9.28419 14.2564C9.34925 14.1082 9.34262 14.0432 9.21191 13.9727C9.09323 13.9088 9.01251 13.8155 8.92215 13.7227C8.83481 13.6323 8.74324 13.5269 8.6077 13.5094C8.39626 13.4823 8.18302 13.4643 7.96977 13.457C7.58183 13.9841 7.20895 14.5233 6.85294 15.0738C6.87161 15.1504 6.8427 15.219 6.768 15.3401C6.70174 15.4473 6.6168 15.5317 6.51801 15.6052C5.04516 17.984 3.8717 20.5677 3.04883 23.3037C3.10666 23.2724 3.16388 23.2411 3.22292 23.2122C3.42773 23.1092 3.63194 23.0272 3.76206 22.8037Z" fill="#2B586B" stroke="#2B586B" stroke-width="0.5625" stroke-miterlimit="10"/>
<path d="M8.03154 51.7233C7.80745 51.613 7.72794 51.3468 7.86046 51.1396C7.9454 51.007 8.01347 50.8727 7.95685 50.7083C7.92612 50.6197 7.97251 50.5462 8.02672 50.4878C8.12491 50.3818 8.17431 50.2595 8.19479 50.1197C8.21527 49.9812 8.2713 49.8583 8.35322 49.7444C8.43394 49.6324 8.49418 49.5113 8.51526 49.3709C8.54177 49.1932 8.66165 49.0884 8.81827 49.0203C8.8773 48.995 8.94176 48.9824 9.0026 48.9601C9.28572 48.8553 9.53391 48.7186 9.54776 48.3656C9.54897 48.3342 9.56523 48.3035 9.57668 48.2734C9.67126 48.0156 9.76342 47.7608 10.0032 47.5885C10.1267 47.4999 10.2351 47.3831 10.3026 47.2427C10.4002 47.0391 10.4887 46.83 10.5742 46.621C10.6532 46.4276 10.6995 46.2156 10.8875 46.0885C11.0796 45.959 11.0327 45.6976 11.1899 45.55C11.2248 45.5168 11.2574 45.4801 11.2941 45.4494C11.3821 45.3771 11.4212 45.2831 11.4224 45.1729C11.4236 45.044 11.4254 44.9175 11.3875 44.7892C11.2387 44.2825 11.3248 44.0759 11.7784 43.8018C11.8549 43.7554 11.9369 43.7229 12.0224 43.697C12.0989 43.6735 12.1772 43.6518 12.2447 43.603C12.4194 43.4777 12.6103 43.4187 12.8308 43.4097C13.0212 43.4018 13.2452 43.4067 13.3254 43.1555C13.3338 43.1296 13.3712 43.1103 13.3989 43.0946C13.4952 43.0392 13.5278 42.9524 13.5175 42.8482C13.5043 42.7115 13.5537 42.6001 13.6302 42.488C13.726 42.3483 13.8163 42.1971 13.8067 42.0194C13.7976 41.8459 13.8055 41.6826 13.9169 41.538C13.9579 41.4844 13.9458 41.4139 13.9482 41.3495C13.9513 41.2688 13.9392 41.1826 13.9627 41.1085C14.0157 40.9374 13.991 40.7832 13.9434 40.6128C13.8663 40.3363 13.8513 40.0453 14.05 39.8044C14.3217 39.4748 14.4771 39.064 14.7886 38.764C14.806 38.7471 14.8217 38.7279 14.8344 38.7074C15.0976 38.2634 15.197 37.7996 15.0289 37.2936C14.9609 37.0882 14.844 36.9575 14.6259 36.9303C14.3964 36.9014 14.2199 36.7852 14.0729 36.6117C14.0157 36.5442 13.9525 36.4785 13.8826 36.4249C13.6826 36.2713 13.4796 36.1195 13.2001 36.1846C12.8362 36.2466 12.526 36.0659 12.2429 35.9008C11.7712 35.6249 11.2574 35.4545 10.7646 35.2358C10.5429 35.1376 10.4267 35.0051 10.3694 34.7924C10.3483 34.7147 10.3526 34.6292 10.2953 34.5653C10.1544 34.4087 10.0984 34.2196 10.0574 34.0172C10.0291 33.8774 9.99715 33.719 9.86523 33.6371C9.73089 33.5539 9.62849 33.4437 9.52728 33.328C9.48993 33.2853 9.44897 33.2443 9.39114 33.2304C9.12609 33.1678 8.87549 33.0467 8.58936 33.0726C8.20744 33.1069 7.9442 32.9057 7.76107 32.5943C7.65445 32.413 7.53095 32.2654 7.32253 32.2028C7.18458 32.1612 7.11711 32.0497 7.07615 31.9226C7.04663 31.8311 7.10988 31.7522 7.12856 31.6666C7.14904 31.5733 7.18518 31.4666 7.06591 31.413C6.95627 31.3642 6.84001 31.3046 6.71652 31.3425C6.57375 31.3865 6.42918 31.3835 6.284 31.3835C6.17617 31.3835 6.08039 31.398 5.99124 31.4721C5.85269 31.5871 5.68522 31.5949 5.53824 31.5052C5.41355 31.4293 5.28343 31.4058 5.14789 31.3913C4.99729 31.3757 4.86717 31.319 4.74971 31.2287C4.58285 31.0998 4.38526 31.0257 4.20093 30.9311C4.06419 30.8606 3.89009 30.86 3.73167 30.8365C3.66902 30.8275 3.60757 30.8365 3.55577 30.8932C3.39674 31.0679 3.19072 31.1329 2.96181 31.1835C2.69555 31.2425 2.44977 31.36 2.37628 31.6817C2.32448 31.9094 2.02207 32.0642 1.78353 32.016C1.7516 32.0094 1.71907 32.0076 1.68714 32.0058C1.68293 32.2208 1.67871 32.4359 1.67871 32.6515C1.67871 32.6889 1.67992 32.7262 1.67992 32.7636C1.80943 32.9877 1.83413 33.2311 1.80642 33.4822C1.78774 33.6533 1.77088 33.8244 1.70763 33.9858C1.79979 36.2545 2.12328 38.4634 2.6582 40.5893C2.72326 40.6525 2.78832 40.7152 2.85097 40.7796C2.86663 40.7953 2.89554 40.7971 2.91783 40.8067C3.08951 40.8784 3.263 40.9447 3.43107 41.023C3.75034 41.1724 4.00877 41.4037 4.24611 41.6597C4.30153 41.7194 4.31719 41.8007 4.34129 41.879C4.46237 42.2633 4.4449 42.6633 4.46478 43.0555C4.49309 43.6193 4.50875 44.1837 4.56899 44.7464C4.57923 44.8422 4.58104 44.9434 4.56056 45.0361C4.50514 45.2861 4.52984 45.5307 4.55453 45.7819C4.5702 45.9403 4.61236 46.0909 4.65574 46.2415C5.6298 48.3493 6.82254 50.3354 8.20684 52.1697C8.31045 51.9956 8.2478 51.8293 8.03154 51.7233Z" fill="#2B586B" stroke="#2B586B" stroke-width="0.5625" stroke-miterlimit="10"/>
<path d="M65.2423 40.0975C65.1983 40.0638 65.1489 40.0024 65.0953 40.0325C64.9815 40.0957 64.8447 40.0939 64.7369 40.1614C64.4032 40.371 64.0568 40.565 63.8104 40.8873C63.7912 40.9126 63.7658 40.9367 63.7381 40.9517C63.5273 41.0638 63.4189 41.2481 63.3177 41.4602C63.1418 41.8276 62.8894 42.1234 62.4394 42.1722C62.2894 42.1884 62.1334 42.2161 61.9996 42.2975C61.8328 42.3987 61.6593 42.4776 61.4635 42.5047C61.3996 42.5137 61.3328 42.5354 61.2888 42.5836C61.1262 42.7619 60.9117 42.8529 60.6967 42.945C60.6153 42.9794 60.5587 43.0426 60.5647 43.1312C60.578 43.3221 60.4979 43.4746 60.3943 43.624C60.3587 43.6758 60.331 43.7408 60.3244 43.8023C60.3087 43.951 60.2521 44.0854 60.187 44.2143C60.0961 44.3944 60.1057 44.5799 60.1599 44.7558C60.2623 45.089 60.3394 45.4215 60.3196 45.7739C60.3087 45.9667 60.3015 46.1618 60.3545 46.3528C60.3647 46.3889 60.3629 46.4377 60.3467 46.4708C60.2419 46.6763 60.1961 46.9142 59.9894 47.0636C59.8738 47.1473 59.8623 47.2594 59.9184 47.3636C60.0931 47.6895 60.484 47.7925 60.793 47.5961C60.8611 47.5528 60.9274 47.4961 61.0027 47.4769C61.3828 47.3805 61.7454 47.1913 62.1575 47.2534C62.3111 47.2769 62.4466 47.2202 62.5605 47.1208C62.7839 46.9257 63.0689 46.8588 63.3309 46.7461C64.3116 44.7167 65.0857 42.5692 65.6291 40.3313C65.6164 40.3295 65.6031 40.3252 65.5881 40.3192C65.458 40.2674 65.3513 40.1807 65.2423 40.0975Z" fill="#2B586B" stroke="#2B586B" stroke-width="0.5625" stroke-miterlimit="10"/>
<path d="M21.4651 11.3733C21.8338 11.2974 21.9579 11.098 21.87 10.7239C21.8163 10.4968 21.8615 10.4263 22.0754 10.3462C22.4585 10.2029 22.7675 9.97515 22.9115 9.57154C22.9332 9.5113 22.9422 9.44565 22.9934 9.39866C23.1043 9.29686 23.135 9.16673 23.1241 9.02336C23.1151 8.9065 23.1555 8.80169 23.2609 8.76193C23.5241 8.66193 23.7603 8.49688 24.044 8.44748C24.2657 8.40893 24.4922 8.38302 24.6946 8.27098C24.7385 8.24688 24.7807 8.22158 24.7693 8.16195C24.7602 8.11436 24.7169 8.10291 24.6795 8.09207C24.5295 8.04689 24.3747 8.05411 24.2217 8.06255C23.9289 8.07941 23.6326 8.06617 23.3579 7.97883C23.0488 7.88004 22.7338 7.81558 22.4181 7.75835C21.8995 7.66378 21.376 7.64449 20.8519 7.74328C20.6477 7.78183 20.4465 7.81197 20.2302 7.78968C19.9357 7.75956 19.6345 7.75774 19.3357 7.80593C18.8261 7.88786 18.3158 7.96556 17.7972 7.97158C17.6604 7.97339 17.5255 8.03002 17.3876 8.00352C16.8671 7.90472 16.3647 8.12459 15.8478 8.08845C15.8171 8.08664 15.7834 8.0987 15.7539 8.11075C15.5888 8.17942 15.4165 8.21918 15.2394 8.23785C14.9412 8.26918 14.6684 8.41435 14.3653 8.427C14.2907 8.43001 14.1913 8.44025 14.1569 8.5276C14.1129 8.63783 14.0136 8.6523 13.9256 8.68242C13.663 8.77278 13.3847 8.76194 13.1136 8.79386C12.9527 8.81314 12.7955 8.84385 12.6389 8.8806C12.5299 8.9059 12.4979 8.97036 12.4961 9.07156C12.4937 9.24084 12.6371 9.44144 12.8196 9.51373C12.9817 9.57818 13.1551 9.59926 13.3208 9.56432C13.672 9.49083 14.0111 9.55649 14.3527 9.61673C14.6298 9.66552 14.8081 9.87093 14.825 10.1504C14.8334 10.292 14.8087 10.4251 14.7352 10.5462C14.6503 10.686 14.6563 10.8269 14.7376 10.9595C14.8135 11.083 14.8611 11.2203 14.9581 11.3341C15.087 11.4865 15.0461 11.5691 14.8436 11.6046C14.4129 11.6799 14.1876 11.9414 14.1894 12.3781C14.1617 12.56 14.2569 12.7449 14.2376 12.9413C14.2178 13.1455 14.2587 13.3437 14.3437 13.5299C14.3967 13.6473 14.4617 13.7588 14.5214 13.8732C14.6075 14.0377 14.634 14.0546 14.828 14.0106C15.0039 13.9708 15.1436 14.0214 15.2635 14.1503C15.5442 14.4521 15.7015 14.3455 15.8719 14.1636C16.031 13.9943 16.2213 13.8504 16.3213 13.6293C16.3466 13.5726 16.393 13.516 16.4448 13.4835C16.6225 13.3733 16.743 13.2196 16.8424 13.0383C16.9773 12.7913 17.1707 12.6431 17.4773 12.6281C17.6496 12.6197 17.8291 12.5956 18.0026 12.5636C18.3809 12.495 18.7285 12.3528 19.0321 12.1082C19.1514 12.0124 19.2785 11.9076 19.4375 11.9046C19.7399 11.8986 20.0254 11.8016 20.3212 11.7637C20.5387 11.7359 20.7429 11.6619 20.9423 11.5691C21.1115 11.4902 21.2808 11.4112 21.4651 11.3733Z" fill="#2B586B" stroke="#2B586B" stroke-width="0.5625" stroke-miterlimit="10"/>
<path d="M59.8575 35.5667C59.8828 35.6263 59.9039 35.6895 59.9407 35.7414C60.04 35.8817 60.1129 36.0305 60.1455 36.201C60.1678 36.3184 60.2437 36.3829 60.3683 36.3787C60.4617 36.3757 60.5448 36.404 60.6111 36.469C60.6713 36.5287 60.7442 36.5317 60.8141 36.5142C60.9388 36.4823 61.0521 36.507 61.1665 36.5534C61.2707 36.5955 61.3768 36.6341 61.4822 36.6738C61.7316 36.7684 62.0334 36.6239 62.1177 36.3775C62.1653 36.2371 62.1894 36.0943 62.1707 35.9492C62.1502 35.7907 62.2171 35.6835 62.3466 35.6094C62.4105 35.5727 62.487 35.5413 62.5026 35.4666C62.5472 35.2558 62.6761 35.1058 62.837 34.9775C62.9068 34.9221 62.9056 34.8673 62.8731 34.7878C62.7912 34.5878 62.7201 34.383 62.646 34.1799C62.5839 34.0107 62.6141 33.8655 62.7514 33.7414C62.8412 33.6601 62.9159 33.5655 62.9707 33.4553C63.0189 33.3571 62.9996 33.2782 62.908 33.2288C62.6797 33.1053 62.4641 32.9697 62.3081 32.7541C62.252 32.677 62.1852 32.692 62.131 32.7679C62.0749 32.8469 62.0147 32.9233 61.9635 33.0053C61.8406 33.2017 61.6786 33.3565 61.478 33.4685C61.3762 33.5251 61.2906 33.5962 61.231 33.6938C61.1394 33.8438 61.0087 33.9565 60.8557 34.0269C60.5846 34.1516 60.3473 34.3372 60.0666 34.4432C59.925 34.4968 59.7461 34.7799 59.7521 34.951C59.828 35.1088 59.8346 35.3022 59.8413 35.4962C59.8431 35.5197 59.8485 35.545 59.8575 35.5667Z" fill="#2B586B" stroke="#2B586B" stroke-width="0.5625" stroke-miterlimit="10"/>
<path d="M60.9866 38.2616C61.042 38.2574 61.098 38.2273 61.1529 38.2568C61.3318 38.3538 61.5155 38.299 61.6974 38.2731C61.8372 38.2526 61.8715 38.1616 61.7812 38.0556C61.739 38.0056 61.686 37.9623 61.6227 37.9478C61.4848 37.9165 61.3926 37.8219 61.324 37.7153C61.2511 37.6014 61.1583 37.5713 61.0372 37.5821C60.8975 37.5942 60.7667 37.5611 60.633 37.5231C60.4577 37.4737 60.2776 37.4087 60.0975 37.5249C60.0601 37.5484 60.0041 37.5418 59.9728 37.5466C59.8758 37.5376 59.7915 37.546 59.7186 37.5044C59.5903 37.4309 59.4547 37.4008 59.3083 37.3779C59.1168 37.3478 58.977 37.2255 58.9114 37.0273C58.8457 36.8279 58.8608 36.6273 58.8818 36.4273C58.8987 36.2695 58.8674 36.1213 58.7445 36.0358C58.6186 35.9478 58.5674 35.8334 58.5276 35.7021C58.4578 35.4738 58.3511 35.2726 58.171 35.1075C58.009 34.9593 57.8295 34.8364 57.6548 34.7057C57.2325 34.3901 56.9078 33.9684 56.494 33.6437C56.4632 33.6196 56.4404 33.5822 56.4211 33.5473C56.3259 33.3744 56.1651 33.307 55.9843 33.275C55.8735 33.2558 55.7609 33.2527 55.6494 33.2268C55.5289 33.1985 55.4741 33.2624 55.4717 33.3901C55.4699 33.5112 55.556 33.5756 55.6265 33.6527C55.8422 33.8877 56.1361 34.0575 56.2386 34.3883C56.2494 34.4226 56.2867 34.4581 56.3211 34.4732C56.4632 34.5352 56.5181 34.6629 56.5632 34.7919C56.6223 34.9623 56.7199 35.1093 56.8144 35.2593C56.956 35.484 57.1271 35.6924 57.2078 35.9527C57.2265 36.0117 57.265 36.0731 57.3108 36.1141C57.4457 36.2346 57.5463 36.3804 57.6482 36.5261C57.7554 36.6798 57.8698 36.8225 58.0301 36.9261C58.112 36.9785 58.1632 37.0659 58.2198 37.1448C58.3427 37.3141 58.462 37.484 58.6264 37.6225C58.7331 37.7123 58.8692 37.7104 58.9716 37.7851C59.162 37.9231 59.3752 37.9845 59.6053 37.9845C59.7728 37.9845 59.9276 38.0219 60.0704 38.1014C60.3583 38.261 60.6673 38.2875 60.9866 38.2616Z" fill="#2B586B" stroke="#2B586B" stroke-width="0.5625" stroke-miterlimit="10"/>
<path d="M41.3905 40.0511C41.3622 39.8818 41.2887 39.7276 41.2158 39.5752C41.1622 39.4626 41.0815 39.4547 41.0134 39.5547C40.896 39.7282 40.7707 39.9011 40.6839 40.0896C40.5092 40.4704 40.2707 40.7583 39.8328 40.839C39.7267 40.8583 39.5984 40.8782 39.5448 40.995C39.4623 41.1764 39.3261 41.3456 39.3599 41.5607C39.3786 41.6812 39.3671 41.8071 39.4002 41.9203C39.4882 42.2197 39.3581 42.4649 39.2027 42.6878C39.0888 42.8516 39.0243 43.0088 39.0508 43.1817C39.04 43.4251 39.0954 43.6377 39.146 43.8486C39.2063 44.101 39.5014 44.3275 39.7147 44.2847C39.8629 44.2552 40.005 44.1931 40.1472 44.1365C40.1888 44.1196 40.2345 44.0817 40.2526 44.0413C40.3255 43.8799 40.4243 43.7293 40.4683 43.5558C40.5659 43.1715 40.7243 42.8082 40.861 42.4378C40.9749 42.1281 41.1297 41.83 41.1743 41.4998C41.2002 41.3107 41.2598 41.1402 41.3592 40.9842C41.4851 40.7866 41.5134 40.583 41.4496 40.3595C41.4201 40.2601 41.408 40.1547 41.3905 40.0511Z" fill="#2B586B" stroke="#2B586B" stroke-width="0.5625" stroke-miterlimit="10"/>
<path d="M64.5054 23.1286C64.3963 23.3376 64.2764 23.5635 64.4349 23.8105C64.5457 23.9828 64.6945 24.1189 64.8463 24.2515C64.9108 24.3081 64.9831 24.293 65.0415 24.234C65.0987 24.1768 65.1553 24.1147 65.1662 24.031C65.1824 23.9033 65.2343 23.8135 65.3077 23.7491C65.2047 23.387 65.0933 23.028 64.9782 22.6714C64.9306 22.6925 64.8843 22.719 64.8361 22.7509C64.6873 22.8503 64.5807 22.984 64.5054 23.1286Z" fill="#2B586B" stroke="#2B586B" stroke-width="0.5625" stroke-miterlimit="10"/>
<path d="M24.7713 15.455C24.8002 15.6231 24.8423 15.7587 24.9562 15.8827C25.058 15.993 25.1803 16.0629 25.3104 16.1309C25.4236 16.19 25.4959 16.299 25.4917 16.4231C25.4875 16.5508 25.3628 16.5412 25.2694 16.558C25.1544 16.5785 25.0815 16.6418 25.067 16.7646C25.0604 16.8201 25.0423 16.8743 25.0357 16.9303C25.014 17.1164 24.9381 17.2869 24.8905 17.4652C24.8459 17.6303 24.9381 17.711 25.1044 17.6628C25.1273 17.6562 25.1514 17.6471 25.1706 17.6339C25.4152 17.4604 25.7013 17.4586 25.9821 17.4453C26.1405 17.4375 26.2802 17.3821 26.4212 17.3225C26.473 17.3008 26.5254 17.2652 26.5272 17.2008C26.5302 17.108 26.5959 17.061 26.6519 17.0032C26.8158 16.8339 26.8031 16.7183 26.5857 16.6502C26.4381 16.6038 26.3724 16.5152 26.3465 16.3851C26.3218 16.2592 26.2742 16.1574 26.1622 16.0882C26.1302 16.0683 26.1007 16.0339 26.0839 15.9996C25.967 15.755 25.8194 15.5285 25.8435 15.2291C25.8646 14.9701 25.6321 14.7707 25.3321 14.7689C25.173 14.7328 25.0369 14.8111 24.9212 14.9779C24.8188 15.1255 24.7351 15.249 24.7713 15.455Z" fill="#2B586B" stroke="#2B586B" stroke-width="0.5625" stroke-miterlimit="10"/>
<path d="M64.0529 34.7986C63.9089 34.7775 63.7661 34.7546 63.627 34.7173C63.4957 34.6932 63.4529 34.8215 63.3637 34.8691C63.1529 34.9817 63.0433 35.1528 63.0794 35.3998C63.0933 35.4932 63.0643 35.5769 63.021 35.6552C62.9806 35.7281 62.9565 35.8028 62.9577 35.8859C62.9589 35.9703 62.9246 36.0371 62.8746 36.1064C62.768 36.2528 62.7794 36.3877 62.924 36.5088C63.0252 36.5931 63.0457 36.6889 63.0469 36.8064C63.0475 36.8973 63.018 36.9811 63.0041 37.0684C62.9945 37.1311 62.9836 37.204 63.0553 37.2407C63.124 37.2762 63.1975 37.2678 63.2643 37.2305C63.3089 37.2058 63.3276 37.16 63.3457 37.1142C63.3788 37.0305 63.4559 36.9738 63.5324 36.9811C63.6649 36.9931 63.8107 36.9829 63.921 37.0835C63.989 37.1455 64.0553 37.2112 64.1529 37.1522C64.2499 37.0937 64.2119 36.9943 64.2113 36.9094C64.2107 36.8702 64.1938 36.8311 64.183 36.7919C64.1342 36.613 64.0848 36.4347 64.0372 36.2558C63.9595 35.9654 64.0077 35.8401 64.2553 35.6715C64.3222 35.6257 64.3938 35.5703 64.4017 35.4859C64.4197 35.2992 64.5378 35.1799 64.6625 35.0643C64.7679 34.9661 64.8312 34.8486 64.8492 34.7077C64.8565 34.651 64.845 34.592 64.7884 34.5595C64.7251 34.5239 64.6685 34.5588 64.6432 34.607C64.5065 34.8661 64.2836 34.8323 64.0529 34.7986Z" fill="#2B586B" stroke="#2B586B" stroke-width="0.5625" stroke-miterlimit="10"/>
<path d="M22.849 12.2915C22.7303 12.306 22.6098 12.3036 22.4894 12.3235C22.1815 12.3747 21.8677 12.4469 21.5605 12.3313C21.3189 12.2403 21.1406 12.3379 20.9683 12.4873C20.8894 12.556 20.8846 12.6222 20.9677 12.6855C21.0683 12.762 21.1261 12.8608 21.1665 12.9795C21.2075 13.0993 21.2864 13.1788 21.4291 13.1921C21.6364 13.2108 21.8484 13.2084 22.0454 13.2939C22.0592 13.2999 22.0773 13.2963 22.1086 13.2987C22.1333 13.2915 22.1755 13.2861 22.2092 13.2668C22.4984 13.1005 22.8189 13.021 23.1345 12.9301C23.2339 12.9011 23.3026 12.8379 23.3652 12.7638C23.4243 12.6933 23.4339 12.6192 23.3658 12.5475C23.2255 12.3981 23.0821 12.2626 22.849 12.2915Z" fill="#2B586B" stroke="#2B586B" stroke-width="0.5625" stroke-miterlimit="10"/>
<path d="M63.3911 30.438C63.5375 30.4507 63.6495 30.5109 63.764 30.5904C63.8621 30.6585 63.9603 30.7398 64.0874 30.7428C64.1688 30.7446 64.2724 30.785 64.3079 30.6591C64.3477 30.5187 64.3115 30.3019 64.2272 30.2832C64.026 30.2398 63.8513 30.0778 63.6272 30.1398C63.5622 30.1579 63.5049 30.1386 63.4833 30.0844C63.42 29.9284 63.3381 29.7537 63.4561 29.6037C63.5971 29.4248 63.5917 29.2296 63.5832 29.0296C63.57 28.7092 63.1664 28.511 62.8941 28.6869C62.8519 28.714 62.8206 28.7525 62.811 28.8019C62.7682 29.0224 62.679 29.2357 62.7019 29.4495C62.7019 29.523 62.7062 29.5796 62.7013 29.6356C62.6718 29.9573 63.0911 30.4121 63.3911 30.438Z" fill="#2B586B" stroke="#2B586B" stroke-width="0.5625" stroke-miterlimit="10"/>
<path d="M2.20482 28.0961C2.24398 28.2641 2.28193 28.3003 2.43072 28.2551C2.58011 28.2093 2.69457 28.2442 2.81745 28.3208C2.93854 28.3961 3.06624 28.3756 3.18371 28.3009C3.32166 28.2129 3.32587 28.1346 3.19335 28.0461C3.11263 27.9925 3.02106 27.9563 2.94095 27.9027C2.78011 27.7943 2.57469 27.7527 2.44397 27.6081C2.34518 27.4991 2.23253 27.4166 2.11326 27.3467C2.08374 27.5268 2.05483 27.7075 2.02832 27.8888C2.0482 27.9009 2.06808 27.9123 2.08796 27.9244C2.15543 27.9647 2.18675 28.0196 2.20482 28.0961Z" fill="#2B586B" stroke="#2B586B" stroke-width="0.5625" stroke-miterlimit="10"/>
<path d="M24.8114 15.9407C24.6608 15.834 24.2958 15.8569 24.1518 15.9732C24.0536 16.0527 23.9717 16.1533 23.8319 16.1774C23.6669 16.2069 23.6452 16.231 23.6693 16.4069C23.6897 16.5539 23.6669 16.6822 23.5801 16.7949C23.506 16.8906 23.5259 16.9696 23.5855 17.0587C23.6422 17.1443 23.7024 17.2153 23.8126 17.1997C23.894 17.2021 23.9614 17.1726 24.0211 17.1304C24.1626 17.0298 24.3162 16.9647 24.4909 16.9557C24.5638 16.9521 24.6096 16.9141 24.6379 16.8491C24.6771 16.7605 24.7289 16.675 24.7259 16.575C24.7228 16.4714 24.756 16.4003 24.8427 16.3292C24.9813 16.2166 24.9566 16.0431 24.8114 15.9407Z" fill="#2B586B" stroke="#2B586B" stroke-width="0.5625" stroke-miterlimit="10"/>
<path d="M4.82975 28.5085C4.64602 28.3754 4.40386 28.37 4.22435 28.2254C4.18881 28.1971 4.11531 28.2139 4.05869 28.2151C3.9864 28.2164 3.91472 28.2224 3.88761 28.2242C3.8099 28.2194 3.77677 28.2103 3.74605 28.2164C3.65569 28.2332 3.54304 28.138 3.47738 28.2411C3.41413 28.3404 3.54063 28.3892 3.57617 28.4639C3.61774 28.5507 3.59726 28.5995 3.49485 28.6109C3.39124 28.6224 3.28763 28.6398 3.18522 28.6609C3.13643 28.6712 3.09426 28.7013 3.09787 28.7597C3.10028 28.8055 3.13763 28.835 3.17679 28.8398C3.48702 28.879 3.79605 29.0031 4.10628 28.9422C4.33278 28.8977 4.56109 28.8579 4.78819 28.8127C4.86228 28.7983 4.93638 28.785 4.95144 28.6977C4.96891 28.5995 4.89782 28.5573 4.82975 28.5085Z" fill="#2B586B" stroke="#2B586B" stroke-width="0.5625" stroke-miterlimit="10"/>
<path d="M35.31 0.75C12.2763 0.75 1.2832 18.67 1.2832 32.625C1.2832 46.5794 12.9738 64.5 34.022 64.5C55.0702 64.5 66.8476 49.389 66.8476 29.5859C66.8476 15.2177 52.0402 0.75 35.31 0.75Z" stroke="#2B586B" stroke-width="1.5" stroke-miterlimit="10"/>
<path d="M9.74316 11.8337C10.116 11.4397 10.5118 11.0674 10.9281 10.7192" stroke="#2B586B" stroke-width="0.1875" stroke-miterlimit="10"/>
<path d="M9.69824 12.4668C10.1868 11.9891 10.6759 11.5114 11.1645 11.0337" stroke="#2B586B" stroke-width="0.1875" stroke-miterlimit="10"/>
<path d="M9.20996 13.1831C10.0256 12.565 10.7937 11.8843 11.5057 11.1494" stroke="#2B586B" stroke-width="0.1875" stroke-miterlimit="10"/>
<path d="M9.62207 13.5191C10.2961 12.9679 10.9401 12.3794 11.5503 11.7583" stroke="#2B586B" stroke-width="0.1875" stroke-miterlimit="10"/>
<path d="M10.0752 13.7843C10.433 13.4783 10.7752 13.1542 11.1005 12.8145" stroke="#2B586B" stroke-width="0.1875" stroke-miterlimit="10"/>
<path d="M11.3574 12.3945C11.5207 12.2313 11.6839 12.068 11.8472 11.9048" stroke="#2B586B" stroke-width="0.1875" stroke-miterlimit="10"/>
<path d="M12.751 9.49469C13.0522 9.24349 13.3534 8.9929 13.6546 8.7417" stroke="#2B586B" stroke-width="0.1875" stroke-miterlimit="10"/>
<path d="M13.1621 9.67997C13.6043 9.32215 14.0217 8.93421 14.4103 8.51855" stroke="#2B586B" stroke-width="0.1875" stroke-miterlimit="10"/>
<path d="M13.6133 9.83088C14.2018 9.3574 14.7578 8.84356 15.2759 8.29297" stroke="#2B586B" stroke-width="0.1875" stroke-miterlimit="10"/>
<path d="M14.2578 9.91056C14.9078 9.31599 15.5722 8.7377 16.2511 8.17627" stroke="#2B586B" stroke-width="0.1875" stroke-miterlimit="10"/>
<path d="M14.7031 10.1663C15.4368 9.56274 16.1163 8.89288 16.7296 8.16699" stroke="#2B586B" stroke-width="0.1875" stroke-miterlimit="10"/>
<path d="M14.8193 10.6608C15.6838 9.7807 16.5639 8.91627 17.459 8.06689" stroke="#2B586B" stroke-width="0.1875" stroke-miterlimit="10"/>
<path d="M14.9434 11.2358C15.9572 10.1539 17.015 9.11294 18.1138 8.11719" stroke="#2B586B" stroke-width="0.1875" stroke-miterlimit="10"/>
<path d="M14.7852 11.9065C16.1628 10.4963 17.5893 9.13367 19.0609 7.82227" stroke="#2B586B" stroke-width="0.1875" stroke-miterlimit="10"/>
<path d="M14.209 12.9103C15.9505 11.2754 17.692 9.64113 19.4335 8.00684" stroke="#2B586B" stroke-width="0.1875" stroke-miterlimit="10"/>
<path d="M14.6094 13.2754C16.5979 11.4912 18.5159 9.62675 20.3556 7.68945" stroke="#2B586B" stroke-width="0.1875" stroke-miterlimit="10"/>
<path d="M14.7578 13.8747C16.8065 11.8182 18.8932 9.80015 21.0167 7.82129" stroke="#2B586B" stroke-width="0.1875" stroke-miterlimit="10"/>
<path d="M15.2324 14.1981C17.3547 12.1162 19.4425 10 21.4961 7.8501" stroke="#2B586B" stroke-width="0.1875" stroke-miterlimit="10"/>
<path d="M17.0762 12.8417C18.846 11.2658 20.5092 9.56948 22.0507 7.76953" stroke="#2B586B" stroke-width="0.1875" stroke-miterlimit="10"/>
<path d="M18.1543 12.4893C19.6832 10.9556 21.1879 9.39843 22.6686 7.81836" stroke="#2B586B" stroke-width="0.1875" stroke-miterlimit="10"/>
<path d="M19.4697 11.884C20.6872 10.6509 21.8426 9.35631 22.9293 8.00635" stroke="#2B586B" stroke-width="0.1875" stroke-miterlimit="10"/>
<path d="M20.5 11.5598C21.2729 10.6912 21.9897 9.77312 22.6451 8.8123C22.8626 8.49364 23.0819 8.16111 23.4029 7.94727" stroke="#2B586B" stroke-width="0.1875" stroke-miterlimit="10"/>
<path d="M6.8418 15.1462C7.38576 14.6222 7.9508 14.1192 8.53512 13.6396" stroke="#2B586B" stroke-width="0.1875" stroke-miterlimit="10"/>
<path d="M6.60547 15.8074C7.42894 15.2845 8.20301 14.6845 8.91444 14.0171" stroke="#2B586B" stroke-width="0.1875" stroke-miterlimit="10"/>
<path d="M5.78125 17.2087C6.81616 16.1804 7.91071 15.2117 9.05826 14.3105" stroke="#2B586B" stroke-width="0.1875" stroke-miterlimit="10"/>
<path d="M5.20508 18.138C6.46408 17.0007 7.72368 15.8634 8.98268 14.7261" stroke="#2B586B" stroke-width="0.1875" stroke-miterlimit="10"/>
<path d="M4.76562 19.0563C5.30236 18.5268 5.83969 17.9967 6.37642 17.4672C7.29326 16.563 8.21252 15.6558 9.22996 14.8667" stroke="#2B586B" stroke-width="0.1875" stroke-miterlimit="10"/>
<path d="M4.40039 19.8953C6.22022 18.1635 8.04005 16.4316 9.85987 14.6997" stroke="#2B586B" stroke-width="0.1875" stroke-miterlimit="10"/>
<path d="M3.98828 21.0255C5.71474 19.287 7.4418 17.5485 9.16826 15.8099C9.59535 15.3798 10.0231 14.9491 10.4748 14.5449" stroke="#2B586B" stroke-width="0.1875" stroke-miterlimit="10"/>
<path d="M3.62109 22.0164C5.8638 19.5436 8.17759 17.1352 10.5576 14.7949" stroke="#2B586B" stroke-width="0.1875" stroke-miterlimit="10"/>
<path d="M5.06445 20.8972C6.9132 18.9436 8.76194 16.9907 10.6107 15.0371" stroke="#2B586B" stroke-width="0.1875" stroke-miterlimit="10"/>
<path d="M6.93164 19.7179C8.37799 18.4047 9.41229 16.7005 10.7737 15.2993" stroke="#2B586B" stroke-width="0.1875" stroke-miterlimit="10"/>
<path d="M9.37305 17.5259C9.89592 17.0055 10.3941 16.4609 10.8664 15.894" stroke="#2B586B" stroke-width="0.1875" stroke-miterlimit="10"/>
<path d="M9.89062 17.6667C10.2876 17.1993 10.7002 16.7457 11.1285 16.3071" stroke="#2B586B" stroke-width="0.1875" stroke-miterlimit="10"/>
<path d="M10.1484 17.8489C10.5719 17.4827 10.9677 17.0845 11.3315 16.6592" stroke="#2B586B" stroke-width="0.1875" stroke-miterlimit="10"/>
<path d="M10.3428 18.1939C10.6693 17.8548 11.0036 17.5241 11.3458 17.2012" stroke="#2B586B" stroke-width="0.1875" stroke-miterlimit="10"/>
<path d="M10.5283 18.4937C10.8675 18.1798 11.206 17.866 11.5452 17.5527" stroke="#2B586B" stroke-width="0.1875" stroke-miterlimit="10"/>
<path d="M10.9805 18.6815C11.219 18.4809 11.4576 18.2797 11.6961 18.0791" stroke="#2B586B" stroke-width="0.1875" stroke-miterlimit="10"/>
<path d="M7.51562 19.8094C7.92344 19.4395 8.315 19.0522 8.68908 18.6479" stroke="#2B586B" stroke-width="0.1875" stroke-miterlimit="10"/>
<path d="M6.56934 19.6526C7.37775 18.9984 8.12833 18.2731 8.81084 17.4888" stroke="#2B586B" stroke-width="0.1875" stroke-miterlimit="10"/>
<path d="M21.2207 13.0332C21.4213 12.8073 21.6219 12.5814 21.8231 12.3555" stroke="#2B586B" stroke-width="0.1875" stroke-miterlimit="10"/>
<path d="M21.5225 13.1091C21.7863 12.8332 22.0496 12.5567 22.3134 12.2808" stroke="#2B586B" stroke-width="0.1875" stroke-miterlimit="10"/>
<path d="M22.54 13.0339C22.678 12.8206 22.8159 12.6074 22.9545 12.3936" stroke="#2B586B" stroke-width="0.1875" stroke-miterlimit="10"/>
<path d="M21.9375 13.2224C22.2134 12.9212 22.4899 12.62 22.7658 12.3188" stroke="#2B586B" stroke-width="0.1875" stroke-miterlimit="10"/>
<path d="M1.64453 32.8761C1.91139 32.5273 2.17765 32.1779 2.44451 31.8291" stroke="#2B586B" stroke-width="0.1875" stroke-miterlimit="10"/>
<path d="M1.72461 33.4066C2.35893 32.5614 2.99325 31.7163 3.62757 30.8711" stroke="#2B586B" stroke-width="0.1875" stroke-miterlimit="10"/>
<path d="M1.81348 34.0198C2.60863 32.9969 3.40379 31.974 4.19895 30.9512" stroke="#2B586B" stroke-width="0.1875" stroke-miterlimit="10"/>
<path d="M1.98242 34.4566C2.91493 33.397 3.79261 32.2886 4.61126 31.1387" stroke="#2B586B" stroke-width="0.1875" stroke-miterlimit="10"/>
<path d="M1.81836 35.4254C2.87435 34.0592 3.93095 32.6924 4.98694 31.3262" stroke="#2B586B" stroke-width="0.1875" stroke-miterlimit="10"/>
<path d="M1.84473 36.0951C3.22059 34.7313 4.14044 32.9777 5.39583 31.5024" stroke="#2B586B" stroke-width="0.1875" stroke-miterlimit="10"/>
<path d="M2.03418 36.8014C3.28294 35.1087 4.49736 33.3901 5.67624 31.6479" stroke="#2B586B" stroke-width="0.1875" stroke-miterlimit="10"/>
<path d="M2.06152 37.6964C3.47474 35.5802 4.90783 33.4773 6.3614 31.3882" stroke="#2B586B" stroke-width="0.1875" stroke-miterlimit="10"/>
<path d="M2.22949 38.2978C2.76321 37.5171 3.29693 36.7364 3.83065 35.9557C4.83303 34.4895 5.83541 33.0233 6.77394 31.5161" stroke="#2B586B" stroke-width="0.1875" stroke-miterlimit="10"/>
<path d="M2.26074 38.96C3.74745 36.6215 5.29258 34.3203 6.89435 32.0596" stroke="#2B586B" stroke-width="0.1875" stroke-miterlimit="10"/>
<path d="M2.49414 39.6171C4.11156 37.1937 5.71935 34.7642 7.3175 32.3281" stroke="#2B586B" stroke-width="0.1875" stroke-miterlimit="10"/>
<path d="M2.70703 40.223C4.33771 37.6261 5.9985 35.0472 7.68882 32.4883" stroke="#2B586B" stroke-width="0.1875" stroke-miterlimit="10"/>
<path d="M2.9209 40.7521C4.71964 38.2594 6.42682 35.701 8.03883 33.083" stroke="#2B586B" stroke-width="0.1875" stroke-miterlimit="10"/>
<path d="M3.29102 41.0637C3.83317 40.2553 4.37713 39.4451 5.00482 38.7011C5.27289 38.3837 5.55601 38.0788 5.80359 37.7457C6.02949 37.4427 6.22467 37.1186 6.41924 36.7951C7.14814 35.5843 7.87703 34.3729 8.60653 33.1621" stroke="#2B586B" stroke-width="0.1875" stroke-miterlimit="10"/>
<path d="M3.79688 41.1629C4.26554 40.4545 4.7354 39.7436 5.29563 39.1051C5.68116 38.6654 6.10826 38.2618 6.47029 37.8021C6.75944 37.4353 7.00461 37.0365 7.26244 36.6467C7.55641 36.2016 7.86784 35.7679 8.17868 35.3341C8.62385 34.7125 9.06962 34.0914 9.51479 33.4697" stroke="#2B586B" stroke-width="0.1875" stroke-miterlimit="10"/>
<path d="M4.26367 41.4098C5.81664 39.3497 7.36901 37.2895 8.92197 35.2293C9.24546 34.8004 9.57015 34.3691 9.81833 33.8926" stroke="#2B586B" stroke-width="0.1875" stroke-miterlimit="10"/>
<path d="M4.41992 42.104C6.20963 39.5354 8.11439 37.0469 10.1276 34.6494" stroke="#2B586B" stroke-width="0.1875" stroke-miterlimit="10"/>
<path d="M4.48633 42.9253C6.37905 40.279 8.31513 37.664 10.2946 35.0815" stroke="#2B586B" stroke-width="0.1875" stroke-miterlimit="10"/>
<path d="M4.71875 43.559C6.69219 40.8627 8.66563 38.167 10.6385 35.4707" stroke="#2B586B" stroke-width="0.1875" stroke-miterlimit="10"/>
<path d="M4.7793 44.226C6.92622 41.2737 9.07255 38.322 11.2195 35.3696" stroke="#2B586B" stroke-width="0.1875" stroke-miterlimit="10"/>
<path d="M4.66309 45.331C6.74797 41.8944 9.79487 39.0921 11.6695 35.5361" stroke="#2B586B" stroke-width="0.1875" stroke-miterlimit="10"/>
<path d="M4.7998 46.0115C6.4359 43.3272 8.44187 40.8905 10.4406 38.4641C11.037 37.74 11.6327 37.0166 12.2291 36.2925" stroke="#2B586B" stroke-width="0.1875" stroke-miterlimit="10"/>
<path d="M4.93848 46.6065C7.11251 42.8494 9.74256 39.3561 12.7533 36.2285" stroke="#2B586B" stroke-width="0.1875" stroke-miterlimit="10"/>
<path d="M5.24512 47.0385C6.60472 44.8639 8.15046 42.8115 9.69378 40.7634C10.7962 39.2996 11.8991 37.8364 13.0021 36.3726" stroke="#2B586B" stroke-width="0.1875" stroke-miterlimit="10"/>
<path d="M5.64355 47.5622C6.18029 46.146 7.09773 44.9111 8.00975 43.7021C9.82296 41.2968 11.6596 38.9089 13.5192 36.5391" stroke="#2B586B" stroke-width="0.1875" stroke-miterlimit="10"/>
<path d="M5.83496 48.1279C6.23917 47.1032 6.88493 46.1954 7.52768 45.3009C9.5963 42.4221 11.6974 39.5661 13.8299 36.7349" stroke="#2B586B" stroke-width="0.1875" stroke-miterlimit="10"/>
<path d="M6.17676 48.4232C8.74897 44.4474 11.435 40.5457 14.2307 36.7241" stroke="#2B586B" stroke-width="0.1875" stroke-miterlimit="10"/>
<path d="M6.44336 48.9016C9.00835 44.8932 11.6637 40.9428 14.4058 37.0537" stroke="#2B586B" stroke-width="0.1875" stroke-miterlimit="10"/>
<path d="M6.81152 49.1086C8.291 46.7792 9.77048 44.4497 11.25 42.1203C11.7066 41.401 12.1644 40.6806 12.6836 40.0047C13.3951 39.0794 14.2318 38.2204 14.6788 37.1421" stroke="#2B586B" stroke-width="0.1875" stroke-miterlimit="10"/>
<path d="M6.76367 49.9535C8.78711 46.5891 10.9316 43.2983 13.1918 40.0887C13.7647 39.2755 14.3502 38.4581 14.7273 37.5376" stroke="#2B586B" stroke-width="0.1875" stroke-miterlimit="10"/>
<path d="M7.08008 50.4286C9.36616 46.804 11.6709 43.1914 13.9937 39.5903" stroke="#2B586B" stroke-width="0.1875" stroke-miterlimit="10"/>
<path d="M7.56641 50.8373C7.76881 50.1307 8.17482 49.503 8.57602 48.8874C9.52298 47.4326 10.4699 45.9772 11.4169 44.5225" stroke="#2B586B" stroke-width="0.1875" stroke-miterlimit="10"/>
<path d="M11.9092 43.7345C12.4302 42.9556 12.9519 42.1767 13.4736 41.3978C13.5772 41.243 13.6844 41.0768 13.6868 40.8906" stroke="#2B586B" stroke-width="0.1875" stroke-miterlimit="10"/>
<path d="M12.7451 43.5262C13.1361 43.0009 13.4969 42.4527 13.8252 41.8853" stroke="#2B586B" stroke-width="0.1875" stroke-miterlimit="10"/>
<path d="M24.8359 15.5941C25.0118 15.3555 25.1871 15.117 25.363 14.8784" stroke="#2B586B" stroke-width="0.1875" stroke-miterlimit="10"/>
<path d="M43.4316 28.6571C43.5846 28.239 43.716 27.8131 43.825 27.3818" stroke="#2B586B" stroke-width="0.1875" stroke-miterlimit="10"/>
<path d="M61.2314 27.0652C61.5338 26.6815 61.8362 26.2978 62.1393 25.9141" stroke="#2B586B" stroke-width="0.1875" stroke-miterlimit="10"/>
<path d="M63.2881 23.1996C63.4724 22.999 63.6562 22.7978 63.8405 22.5972" stroke="#2B586B" stroke-width="0.1875" stroke-miterlimit="10"/>
<path d="M49.7285 32.4816C50.1128 31.9961 50.4972 31.5099 50.8815 31.0244" stroke="#2B586B" stroke-width="0.1875" stroke-miterlimit="10"/>
<path d="M61.4316 36.7534C61.7328 36.3685 62.034 35.9836 62.3352 35.5986" stroke="#2B586B" stroke-width="0.1875" stroke-miterlimit="10"/>
<path d="M63.5391 37.1043C63.8065 36.8368 64.0746 36.5687 64.342 36.3013L63.5391 37.1043Z" fill="#2B586B"/>
<path d="M63.5391 37.1043C63.8065 36.8368 64.0746 36.5687 64.342 36.3013" stroke="#2B586B" stroke-width="0.1875" stroke-miterlimit="10"/>
<path d="M34.0596 46.9939C34.7559 46.0849 35.4517 45.1765 36.1481 44.2681" stroke="#2B586B" stroke-width="0.1875" stroke-miterlimit="10"/>
<path d="M39.8574 44.2817C40.0725 43.9775 40.2767 43.6655 40.4695 43.3462" stroke="#2B586B" stroke-width="0.1875" stroke-miterlimit="10"/>
<path d="M62.4355 47.1944C62.7367 46.9769 63.0379 46.7595 63.3391 46.542" stroke="#2B586B" stroke-width="0.1875" stroke-linecap="round" stroke-linejoin="round"/>
</svg>
