<svg width="66" height="66" viewBox="0 0 66 66" fill="none" xmlns="http://www.w3.org/2000/svg">
<mask id="mask0_4009_20409" style="mask-type:luminance" maskUnits="userSpaceOnUse" x="1" y="0" width="64" height="65">
<path d="M32.876 64.5C50.4801 64.5 64.751 50.2291 64.751 32.625C64.751 15.0209 50.4801 0.75 32.876 0.75C15.2719 0.75 1.00098 15.0209 1.00098 32.625C1.00098 50.2291 15.2719 64.5 32.876 64.5Z" fill="white"/>
</mask>
<g mask="url(#mask0_4009_20409)">
<path d="M32.9712 23.626H18.8037L13.1367 41.2041L32.7088 49.5996L35.3819 51.235C36.2888 51.9919 37.6499 51.8691 38.4066 50.9622C39.0235 50.2229 39.0538 49.1828 38.5532 48.4133C38.5448 48.4003 38.5599 48.3863 38.5718 48.3961L39.3002 49.0039C40.37 49.8967 41.976 49.752 42.869 48.6819C43.6464 47.7504 43.6347 46.4142 42.9131 45.4946C42.9028 45.4816 42.9195 45.4652 42.9321 45.4756L44.0246 46.3872C45.0945 47.2802 46.7005 47.1353 47.5935 46.0652C48.3217 45.1927 48.3591 43.9639 47.768 43.0557C48.8317 43.7974 50.3161 43.6154 51.1616 42.602C52.0546 41.5321 51.9097 39.9261 50.8397 39.0331L32.9712 23.626Z" stroke="#2B586B" stroke-width="1.5" stroke-miterlimit="10"/>
<path d="M47.7673 43.0559L41.209 37.1113" stroke="#2B586B" stroke-width="1.5" stroke-miterlimit="10" stroke-linecap="round" stroke-linejoin="round"/>
<path d="M43.0525 45.6364L36.4941 39.6919" stroke="#2B586B" stroke-width="1.5" stroke-miterlimit="10" stroke-linecap="round" stroke-linejoin="round"/>
<path d="M38.7669 48.5286L32.4414 42.4673" stroke="#2B586B" stroke-width="1.5" stroke-miterlimit="10" stroke-linecap="round" stroke-linejoin="round"/>
<path d="M10.9316 44.0324H12.0598L19.5895 22.9965L16.9659 22.4194L10.9316 44.0324Z" fill="#42E8E0" stroke="#2B586B" stroke-width="1.5" stroke-miterlimit="10"/>
<path d="M-1.5791 17.3701L17.3264 21.1418L10.1978 46.4512L1.84304 44.9769L-1.5791 17.3701Z" fill="#2B586B" stroke="#2B586B" stroke-width="1.5" stroke-miterlimit="10"/>
<path d="M16.0673 44.3348C14.8361 43.9779 14.1207 42.6786 14.4776 41.4473L15.6923 37.2563C16.0492 36.025 17.3486 35.3097 18.5798 35.6665C19.8111 36.0234 20.5264 37.3228 20.1696 38.554L18.9548 42.7453C18.5979 43.9763 17.2985 44.6917 16.0673 44.3348Z" fill="#F8FFFF" stroke="#2B586B" stroke-width="1.5" stroke-miterlimit="10"/>
<path d="M20.6855 46.8013C19.4542 46.4444 18.7389 45.1451 19.0957 43.9138L20.3105 39.7226C20.6674 38.4914 21.9668 37.776 23.198 38.1328C24.4292 38.4897 25.1446 39.7891 24.7877 41.0203L23.5729 45.2116C23.2161 46.4428 21.9167 47.1582 20.6855 46.8013Z" fill="#F8FFFF" stroke="#2B586B" stroke-width="1.5" stroke-miterlimit="10"/>
<path d="M25.3544 49.1625C24.1232 48.8056 23.4078 47.5062 23.7647 46.275L24.9795 42.0839C25.3363 40.8527 26.6357 40.1373 27.8669 40.4942C29.0982 40.851 29.8135 42.1504 29.4567 43.3816L28.2419 47.5727C27.885 48.8039 26.5856 49.5193 25.3544 49.1625Z" fill="#F8FFFF" stroke="#2B586B" stroke-width="1.5" stroke-miterlimit="10"/>
<path d="M30.0771 51.5238C28.8458 51.1669 28.1305 49.8675 28.4873 48.6363L29.7021 44.4452C30.059 43.214 31.3584 42.4986 32.5896 42.8555C33.8208 43.2124 34.5362 44.5118 34.1793 45.743L32.9646 49.934C32.6077 51.1653 31.3085 51.8806 30.0771 51.5238Z" fill="#F8FFFF" stroke="#2B586B" stroke-width="1.5" stroke-miterlimit="10"/>
<path d="M26.2694 32.7878L30.3996 23.7311C30.3996 23.7311 31.5541 20.4777 35.4369 21.2649C39.3199 22.052 47.5054 23.8361 47.5054 23.8361L53.3299 40.0012H51.5984L38.0903 28.2942C37.9357 28.1602 37.738 28.0864 37.5334 28.0864H35.7688C35.4658 28.0864 35.1857 28.2476 35.0336 28.5096L32.0288 33.6804C31.3263 34.8896 29.789 35.3199 28.5607 34.6513L26.5203 33.5405C26.2522 33.3941 26.1426 33.0656 26.2694 32.7878Z" fill="white" stroke="#2B586B" stroke-width="1.5" stroke-miterlimit="10"/>
<path d="M55.901 44.0324H54.7729L47.2432 22.9965L49.8668 22.4194L55.901 44.0324Z" fill="#43E3E0" stroke="#2B586B" stroke-width="1.5" stroke-miterlimit="10"/>
<path d="M65.65 17.9214L49.5068 21.142L56.6354 46.4514L65.3101 44.5438L65.65 17.9214Z" fill="#2B586B" stroke="#2B586B" stroke-width="1.5" stroke-miterlimit="10"/>
</g>
<path d="M32.875 64.5C50.4791 64.5 64.75 50.2291 64.75 32.625C64.75 15.0209 50.4791 0.75 32.875 0.75C15.2709 0.75 1 15.0209 1 32.625C1 50.2291 15.2709 64.5 32.875 64.5Z" stroke="#093657" stroke-width="1.5" stroke-miterlimit="10"/>
</svg>
