<svg width="65" height="65" viewBox="0 0 65 65" fill="none" xmlns="http://www.w3.org/2000/svg">
<path d="M42.7956 5.90175C44.0224 5.90175 45.017 4.9072 45.017 3.68037C45.017 2.45353 44.0224 1.45898 42.7956 1.45898C41.5688 1.45898 40.5742 2.45353 40.5742 3.68037C40.5742 4.9072 41.5688 5.90175 42.7956 5.90175Z" fill="#2B586B"/>
<path d="M46.8178 18.6629H38.7725C38.5536 18.6629 38.3842 18.4712 38.411 18.254L39.6297 8.39083C39.7747 7.21734 40.7716 6.33594 41.9541 6.33594H43.6363C44.8187 6.33594 45.8157 7.21734 45.9607 8.39083L47.1794 18.254C47.2061 18.4712 47.0367 18.6629 46.8178 18.6629Z" fill="#2B586B"/>
<path d="M39.9143 7.52637C39.182 9.09789 36.2139 14.8439 35.3442 16.5241C35.208 16.7871 35.2959 17.11 35.5463 17.2682C35.8163 17.439 36.1738 17.3547 36.3392 17.0815L41.0764 9.25602L39.9143 7.52637Z" fill="#2B586B"/>
<path d="M40.1748 14.4438C40.325 16.9924 40.4978 26.5143 40.546 29.2999C40.5536 29.7359 40.8934 30.093 41.3283 30.1228C41.7976 30.1551 42.202 29.7959 42.2252 29.3261L42.8904 15.8724L40.1748 14.4438Z" fill="#2B586B"/>
<path d="M45.4158 14.4438C45.2655 16.9924 45.0927 26.5143 45.0446 29.2999C45.037 29.7359 44.6972 30.093 44.2622 30.1228C43.7929 30.1551 43.3886 29.7959 43.3654 29.3261L42.7002 15.8724L45.4158 14.4438Z" fill="#2B586B"/>
<path d="M45.6484 7.46826C46.3807 9.03978 49.3488 14.7858 50.2185 16.466C50.3546 16.729 50.2668 17.0519 50.0164 17.2101C49.7464 17.3809 49.3889 17.2966 49.2235 17.0234L44.4863 9.19792L45.6484 7.46826Z" fill="#2B586B"/>
<path d="M61.3946 3.65426C61.5912 2.44325 60.7688 1.3022 59.5578 1.10566C58.3468 0.909125 57.2057 1.73152 57.0092 2.94253C56.8126 4.15354 57.635 5.29458 58.846 5.49112C60.0571 5.68766 61.1981 4.86527 61.3946 3.65426Z" fill="#2B586B"/>
<path d="M56.5572 14.4014C56.5851 16.9542 56.3015 26.4735 56.2162 29.2581C56.2029 29.6939 56.5252 30.0669 56.9583 30.1176C57.4255 30.1724 57.8465 29.8329 57.8923 29.3648L59.2013 17.2987L56.5572 14.4014Z" fill="#2B586B"/>
<path d="M61.8452 14.4014C61.8172 16.9542 62.1009 26.4735 62.1862 29.2581C62.1995 29.6939 61.8772 30.0669 61.4441 30.1176C60.9769 30.1724 60.5558 29.8329 60.5101 29.3648L59.2012 17.2987L61.8452 14.4014Z" fill="#2B586B"/>
<path d="M55.9621 6.86963C55.6992 8.58329 54.4591 14.9306 54.0947 16.7872C54.0377 17.0778 54.2125 17.3633 54.4972 17.445C54.8042 17.5333 55.1238 17.3523 55.2061 17.0436L57.5621 8.20452L55.9621 6.86963Z" fill="#2B586B"/>
<path d="M62.4369 6.86963C62.6997 8.58329 63.9399 14.9306 64.3042 16.7872C64.3613 17.0778 64.1864 17.3633 63.9018 17.445C63.5948 17.5333 63.2752 17.3523 63.1929 17.0436L60.8369 8.2046L62.4369 6.86963Z" fill="#2B586B"/>
<path d="M61.8451 14.4011H56.557L55.9297 7.11413C55.9297 6.62021 56.3301 6.21973 56.8241 6.21973H61.578C62.0719 6.21973 62.4724 6.62012 62.4724 7.11413L61.8451 14.4011Z" fill="#2B586B"/>
<path d="M61.844 15.9416L59.2007 17.2986L56.5566 15.9416V14.4014H61.844V15.9416Z" fill="#2B586B"/>
<path d="M42.7956 40.2768C44.0224 40.2768 45.017 39.2822 45.017 38.0554C45.017 36.8285 44.0224 35.834 42.7956 35.834C41.5688 35.834 40.5742 36.8285 40.5742 38.0554C40.5742 39.2822 41.5688 40.2768 42.7956 40.2768Z" fill="#2B586B"/>
<path d="M46.8178 53.0383H38.7725C38.5536 53.0383 38.3842 52.8467 38.411 52.6295L39.6297 42.7663C39.7747 41.5928 40.7716 40.7114 41.9541 40.7114H43.6363C44.8187 40.7114 45.8157 41.5928 45.9607 42.7663L47.1794 52.6295C47.2061 52.8467 47.0367 53.0383 46.8178 53.0383Z" fill="#2B586B"/>
<path d="M39.9143 41.9014C39.182 43.4729 36.2139 49.2189 35.3442 50.8991C35.208 51.1621 35.2959 51.485 35.5463 51.6432C35.8163 51.814 36.1738 51.7297 36.3392 51.4565L41.0764 43.631L39.9143 41.9014Z" fill="#2B586B"/>
<path d="M40.1748 48.8188C40.325 51.3674 40.4978 60.8893 40.546 63.6749C40.5536 64.1109 40.8934 64.468 41.3283 64.4978C41.7976 64.5301 42.202 64.1709 42.2252 63.7011L42.8904 50.2474L40.1748 48.8188Z" fill="#2B586B"/>
<path d="M45.4158 48.8188C45.2655 51.3674 45.0927 60.8893 45.0446 63.6749C45.037 64.1109 44.6972 64.468 44.2622 64.4978C43.7929 64.5301 43.3886 64.1709 43.3654 63.7011L42.7002 50.2474L45.4158 48.8188Z" fill="#2B586B"/>
<path d="M45.6494 41.8428C46.3817 43.4143 49.3498 49.1603 50.2195 50.8405C50.3556 51.1035 50.2678 51.4264 50.0174 51.5847C49.7474 51.7554 49.3899 51.6711 49.2245 51.3979L44.4873 43.5724L45.6494 41.8428Z" fill="#2B586B"/>
<path d="M61.3946 38.0283C61.5912 36.8173 60.7688 35.6762 59.5578 35.4797C58.3468 35.2831 57.2057 36.1055 57.0092 37.3165C56.8126 38.5276 57.635 39.6686 58.846 39.8651C60.0571 40.0617 61.1981 39.2393 61.3946 38.0283Z" fill="#2B586B"/>
<path d="M56.5562 48.7754C56.5842 51.3283 56.3005 60.8475 56.2152 63.6321C56.2019 64.068 56.5242 64.4409 56.9573 64.4917C57.4245 64.5464 57.8456 64.2069 57.8913 63.7389L59.2003 51.6727L56.5562 48.7754Z" fill="#2B586B"/>
<path d="M61.8452 48.7759C61.8172 51.3287 62.1009 60.848 62.1862 63.6326C62.1995 64.0685 61.8772 64.4414 61.4441 64.4921C60.9769 64.5469 60.5558 64.2074 60.5101 63.7393L59.2012 51.6732L61.8452 48.7759Z" fill="#2B586B"/>
<path d="M55.9621 41.2437C55.6992 42.9573 54.4591 49.3047 54.0947 51.1613C54.0377 51.4519 54.2125 51.7373 54.4972 51.819C54.8042 51.9073 55.1238 51.7263 55.2061 51.4176L57.5621 42.5785L55.9621 41.2437Z" fill="#2B586B"/>
<path d="M62.4369 41.2437C62.6997 42.9573 63.9399 49.3047 64.3042 51.1613C64.3613 51.4519 64.1864 51.7373 63.9018 51.819C63.5948 51.9073 63.2752 51.7263 63.1929 51.4176L60.8369 42.5786L62.4369 41.2437Z" fill="#2B586B"/>
<path d="M61.8451 48.7756H56.557L55.9297 41.4886C55.9297 40.9947 56.3301 40.5942 56.8241 40.5942H61.578C62.0719 40.5942 62.4724 40.9946 62.4724 41.4886L61.8451 48.7756Z" fill="#2B586B"/>
<path d="M61.845 50.3161L59.2017 51.6731L56.5576 50.3161V48.7759H61.845V50.3161Z" fill="#2B586B"/>
<path d="M8.13349 40.2772C9.36033 40.2772 10.3549 39.2827 10.3549 38.0559C10.3549 36.829 9.36033 35.8345 8.13349 35.8345C6.90666 35.8345 5.91211 36.829 5.91211 38.0559C5.91211 39.2827 6.90666 40.2772 8.13349 40.2772Z" fill="#2B586B"/>
<path d="M12.1567 53.0383H4.11132C3.89244 53.0383 3.72306 52.8467 3.74987 52.6295L4.96855 42.7663C5.11359 41.5928 6.11049 40.7114 7.29295 40.7114H8.97514C10.1576 40.7114 11.1546 41.5928 11.2995 42.7663L12.5182 52.6295C12.545 52.8467 12.3756 53.0383 12.1567 53.0383Z" fill="#2B586B"/>
<path d="M5.25318 41.9019C4.52087 43.4734 1.55275 49.2194 0.683045 50.8996C0.546884 51.1626 0.634787 51.4855 0.885133 51.6437C1.15517 51.8144 1.51267 51.7301 1.6781 51.4569L6.41526 43.6315L5.25318 41.9019Z" fill="#2B586B"/>
<path d="M5.51367 48.8193C5.6639 51.3679 5.83671 60.8898 5.88488 63.6754C5.89244 64.1114 6.23227 64.4684 6.66722 64.4983C7.13644 64.5306 7.54088 64.1714 7.56409 63.7016L8.22924 50.2478L5.51367 48.8193Z" fill="#2B586B"/>
<path d="M10.7546 48.8188C10.6044 51.3674 10.4316 60.8893 10.3834 63.6749C10.3759 64.1109 10.036 64.468 9.60109 64.4978C9.13178 64.5301 8.72743 64.1709 8.70422 63.7011L8.03906 50.2474L10.7546 48.8188Z" fill="#2B586B"/>
<path d="M10.9873 41.8433C11.7196 43.4148 14.6877 49.1608 15.5574 50.841C15.6935 51.104 15.6057 51.4269 15.3553 51.5851C15.0853 51.7559 14.7278 51.6716 14.5623 51.3984L9.8252 43.5729L10.9873 41.8433Z" fill="#2B586B"/>
<path d="M26.7335 38.0288C26.93 36.8178 26.1077 35.6767 24.8966 35.4802C23.6856 35.2836 22.5446 36.106 22.3481 37.317C22.1515 38.528 22.9739 39.6691 24.1849 39.8656C25.3959 40.0622 26.537 39.2398 26.7335 38.0288Z" fill="#2B586B"/>
<path d="M21.8961 48.7764C21.924 51.3292 21.6404 60.8485 21.5551 63.6331C21.5417 64.0689 21.8641 64.4419 22.2972 64.4926C22.7644 64.5474 23.1854 64.2079 23.2311 63.7398L24.5402 51.6737L21.8961 48.7764Z" fill="#2B586B"/>
<path d="M27.1841 48.7764C27.1561 51.3292 27.4398 60.8485 27.525 63.6331C27.5384 64.0689 27.2161 64.4419 26.783 64.4926C26.3158 64.5474 25.8947 64.2079 25.849 63.7398L24.54 51.6737L27.1841 48.7764Z" fill="#2B586B"/>
<path d="M21.3009 41.2441C21.0381 42.9578 19.798 49.3052 19.4336 51.1617C19.3766 51.4523 19.5514 51.7378 19.836 51.8195C20.1431 51.9078 20.4627 51.7268 20.545 51.4181L22.9009 42.579L21.3009 41.2441Z" fill="#2B586B"/>
<path d="M27.7758 41.2441C28.0386 42.9578 29.2787 49.3052 29.6431 51.1617C29.7001 51.4523 29.5253 51.7378 29.2407 51.8195C28.9336 51.9078 28.614 51.7268 28.5317 51.4181L26.1758 42.5791L27.7758 41.2441Z" fill="#2B586B"/>
<path d="M27.184 48.7761H21.8958L21.2686 41.4891C21.2686 40.9952 21.6689 40.5947 22.163 40.5947H26.9168C27.4107 40.5947 27.8112 40.9951 27.8112 41.4891L27.184 48.7761Z" fill="#2B586B"/>
<path d="M27.1838 50.3166L24.5406 51.6736L21.8965 50.3166V48.7764H27.1838V50.3166Z" fill="#2B586B"/>
<path d="M8.13349 5.90273C9.36033 5.90273 10.3549 4.90818 10.3549 3.68134C10.3549 2.45451 9.36033 1.45996 8.13349 1.45996C6.90666 1.45996 5.91211 2.45451 5.91211 3.68134C5.91211 4.90818 6.90666 5.90273 8.13349 5.90273Z" fill="#2B586B"/>
<path d="M12.1567 18.6638H4.11132C3.89244 18.6638 3.72306 18.4722 3.74987 18.255L4.96855 8.39181C5.11359 7.21831 6.11049 6.33691 7.29295 6.33691H8.97514C10.1576 6.33691 11.1546 7.21831 11.2995 8.39181L12.5182 18.255C12.545 18.4722 12.3756 18.6638 12.1567 18.6638Z" fill="#2B586B"/>
<path d="M5.25318 7.52686C4.52087 9.09838 1.55275 14.8444 0.683045 16.5246C0.546884 16.7876 0.634787 17.1105 0.885133 17.2687C1.15517 17.4394 1.51267 17.3551 1.6781 17.0819L6.41526 9.25651L5.25318 7.52686Z" fill="#2B586B"/>
<path d="M5.51367 14.4448C5.6639 16.9934 5.83671 26.5152 5.88488 29.3009C5.89244 29.7369 6.23227 30.0939 6.66722 30.1238C7.13644 30.1561 7.54088 29.7969 7.56409 29.3271L8.22924 15.8733L5.51367 14.4448Z" fill="#2B586B"/>
<path d="M10.7546 14.4443C10.6044 16.9929 10.4316 26.5148 10.3834 29.3004C10.3759 29.7364 10.036 30.0934 9.60109 30.1233C9.13178 30.1556 8.72743 29.7964 8.70422 29.3266L8.03906 15.8728L10.7546 14.4443Z" fill="#2B586B"/>
<path d="M10.9882 7.46875C11.7206 9.04027 14.6887 14.7863 15.5584 16.4664C15.6945 16.7295 15.6066 17.0524 15.3563 17.2106C15.0863 17.3813 14.7288 17.297 14.5633 17.0238L9.82617 9.19841L10.9882 7.46875Z" fill="#2B586B"/>
<path d="M26.7335 3.65426C26.93 2.44325 26.1077 1.3022 24.8966 1.10566C23.6856 0.909125 22.5446 1.73152 22.3481 2.94253C22.1515 4.15354 22.9739 5.29458 24.1849 5.49112C25.3959 5.68766 26.537 4.86527 26.7335 3.65426Z" fill="#2B586B"/>
<path d="M21.8961 14.4014C21.924 16.9542 21.6404 26.4735 21.5551 29.2581C21.5417 29.6939 21.8641 30.0669 22.2972 30.1176C22.7644 30.1724 23.1854 29.8329 23.2311 29.3648L24.5402 17.2987L21.8961 14.4014Z" fill="#2B586B"/>
<path d="M27.1841 14.4019C27.1561 16.9547 27.4398 26.4739 27.525 29.2586C27.5384 29.6944 27.2161 30.0674 26.783 30.1181C26.3158 30.1729 25.8947 29.8334 25.849 29.3653L24.54 17.2992L27.1841 14.4019Z" fill="#2B586B"/>
<path d="M21.3009 6.86963C21.0381 8.58329 19.798 14.9306 19.4336 16.7872C19.3766 17.0778 19.5514 17.3633 19.836 17.445C20.1431 17.5333 20.4627 17.3523 20.545 17.0436L22.9009 8.20452L21.3009 6.86963Z" fill="#2B586B"/>
<path d="M27.7758 6.86963C28.0386 8.58329 29.2787 14.9306 29.6431 16.7872C29.7001 17.0778 29.5253 17.3633 29.2407 17.445C28.9336 17.5333 28.614 17.3523 28.5317 17.0436L26.1758 8.2046L27.7758 6.86963Z" fill="#2B586B"/>
<path d="M27.184 14.4016H21.8958L21.2686 7.11462C21.2686 6.6207 21.6689 6.22021 22.163 6.22021H26.9168C27.4107 6.22021 27.8112 6.62061 27.8112 7.11462L27.184 14.4016Z" fill="#2B586B"/>
<path d="M27.1838 15.9421L24.5406 17.2991L21.8965 15.9421V14.4019H27.1838V15.9421Z" fill="#2B586B"/>
</svg>
