<svg width="57" height="65" viewBox="0 0 57 65" fill="none" xmlns="http://www.w3.org/2000/svg">
<path d="M53.3217 30.621H48.0239C48.0239 26.6407 48.0239 12.2387 48.0239 12.2301C48.0239 12.2255 48.0239 12.2209 48.0238 12.2163C48.0221 12.1435 48.0075 12.071 47.9815 12.003C47.9492 11.9184 47.8987 11.8403 47.8342 11.7767L44.0423 7.98478V2.66207C44.0423 1.60775 43.1846 0.75 42.1302 0.75H11.0197C9.9654 0.75 9.10766 1.60775 9.10766 2.66207V23.7829H3.80992C1.805 23.7829 0.179688 25.4082 0.179688 27.4132V60.8698C0.179688 62.8747 1.805 64.5 3.80992 64.5H53.3217C55.3266 64.5 56.9519 62.8747 56.9519 60.8698V34.2512C56.9519 32.2463 55.3266 30.621 53.3217 30.621ZM46.7492 30.621H31.1531C30.1303 30.621 29.155 30.1895 28.4669 29.4327L24.4111 24.9712C23.7231 24.2144 22.7478 23.783 21.725 23.783H14.364V6.47447C14.364 6.12305 14.6499 5.83712 15.0013 5.83712H39.7184V10.9555C39.7184 12.0098 40.5761 12.8676 41.6305 12.8676H46.7492V30.621ZM42.9549 8.70006L45.8477 11.5929H41.6305C41.279 11.5929 40.9931 11.307 40.9931 10.9555V6.7383L42.9538 8.69892C42.9541 8.6993 42.9545 8.69968 42.9549 8.70006ZM10.3823 2.66207C10.3823 2.31066 10.6682 2.02473 11.0197 2.02473H42.1302C42.4817 2.02473 42.7675 2.31066 42.7675 2.66207V6.71005L40.8064 4.74891C40.6853 4.62788 40.5149 4.55935 40.3438 4.56236C40.3429 4.56236 40.3421 4.56232 40.3412 4.56236H15.0013C13.947 4.56236 13.0892 5.42011 13.0892 6.47443V23.7829H10.3823V2.66207Z" fill="#2B586B"/>
<path d="M17.0713 16.0426C17.0713 16.3946 17.3566 16.68 17.7086 16.68H43.4053C43.7573 16.68 44.0426 16.3946 44.0426 16.0426C44.0426 15.6906 43.7573 15.4053 43.4053 15.4053H17.7086C17.3566 15.4053 17.0713 15.6906 17.0713 16.0426Z" fill="#2B586B"/>
<path d="M43.4053 19.6411H17.7086C17.3566 19.6411 17.0713 19.9265 17.0713 20.2785C17.0713 20.6305 17.3566 20.9158 17.7086 20.9158H43.4053C43.7573 20.9158 44.0426 20.6305 44.0426 20.2785C44.0426 19.9265 43.7573 19.6411 43.4053 19.6411Z" fill="#2B586B"/>
</svg>
