<svg width="58" height="58" viewBox="0 0 58 58" fill="none" xmlns="http://www.w3.org/2000/svg">
<path d="M36.0004 33.9746C29.5924 33.9746 16.8004 37.1666 16.8004 43.5746V48.3746H55.2004V43.5746C55.2004 37.1666 42.4084 33.9746 36.0004 33.9746ZM14.4004 24.3746V17.1746H9.60039V24.3746H2.40039V29.1746H9.60039V36.3746H14.4004V29.1746H21.6004V24.3746M36.0004 29.1746C38.5465 29.1746 40.9883 28.1632 42.7886 26.3628C44.589 24.5625 45.6004 22.1207 45.6004 19.5746C45.6004 17.0285 44.589 14.5867 42.7886 12.7864C40.9883 10.986 38.5465 9.97461 36.0004 9.97461C33.4543 9.97461 31.0125 10.986 29.2122 12.7864C27.4118 14.5867 26.4004 17.0285 26.4004 19.5746C26.4004 22.1207 27.4118 24.5625 29.2122 26.3628C31.0125 28.1632 33.4543 29.1746 36.0004 29.1746Z" fill="#2B586B"/>
</svg>
