<svg width="68" height="68" viewBox="0 0 68 68" fill="none" xmlns="http://www.w3.org/2000/svg">
<path fill-rule="evenodd" clip-rule="evenodd" d="M17.0003 29.75C16.2489 29.75 15.5282 30.0485 14.9969 30.5799C14.4655 31.1112 14.167 31.8319 14.167 32.5833V35.4167C14.167 36.1681 14.4655 36.8888 14.9969 37.4201C15.5282 37.9515 16.2489 38.25 17.0003 38.25H19.8337C20.5851 38.25 21.3058 37.9515 21.8371 37.4201C22.3685 36.8888 22.667 36.1681 22.667 35.4167V32.5833C22.667 31.8319 22.3685 31.1112 21.8371 30.5799C21.3058 30.0485 20.5851 29.75 19.8337 29.75H17.0003ZM17.0003 32.5833V35.4167H19.8337V32.5833H17.0003ZM25.5003 32.5833C25.5003 31.8319 25.7988 31.1112 26.3302 30.5799C26.8615 30.0485 27.5822 29.75 28.3337 29.75H31.167C31.9184 29.75 32.6391 30.0485 33.1705 30.5799C33.7018 31.1112 34.0003 31.8319 34.0003 32.5833V35.4167C34.0003 36.1681 33.7018 36.8888 33.1705 37.4201C32.6391 37.9515 31.9184 38.25 31.167 38.25H28.3337C27.5822 38.25 26.8615 37.9515 26.3302 37.4201C25.7988 36.8888 25.5003 36.1681 25.5003 35.4167V32.5833ZM28.3337 32.5833H31.167V35.4167H28.3337V32.5833ZM39.667 29.75C38.9155 29.75 38.1949 30.0485 37.6635 30.5799C37.1322 31.1112 36.8337 31.8319 36.8337 32.5833V35.4167C36.8337 36.1681 37.1322 36.8888 37.6635 37.4201C38.1949 37.9515 38.9155 38.25 39.667 38.25H42.5003C43.2518 38.25 43.9724 37.9515 44.5038 37.4201C45.0351 36.8888 45.3337 36.1681 45.3337 35.4167V32.5833C45.3337 31.8319 45.0351 31.1112 44.5038 30.5799C43.9724 30.0485 43.2518 29.75 42.5003 29.75H39.667ZM39.667 32.5833V35.4167H42.5003V32.5833H39.667ZM14.167 43.9167C14.167 43.1652 14.4655 42.4446 14.9969 41.9132C15.5282 41.3818 16.2489 41.0833 17.0003 41.0833H19.8337C20.5851 41.0833 21.3058 41.3818 21.8371 41.9132C22.3685 42.4446 22.667 43.1652 22.667 43.9167V46.75C22.667 47.5014 22.3685 48.2221 21.8371 48.7535C21.3058 49.2848 20.5851 49.5833 19.8337 49.5833H17.0003C16.2489 49.5833 15.5282 49.2848 14.9969 48.7535C14.4655 48.2221 14.167 47.5014 14.167 46.75V43.9167ZM19.8337 43.9167V46.75H17.0003V43.9167H19.8337ZM28.3337 41.0833C27.5822 41.0833 26.8615 41.3818 26.3302 41.9132C25.7988 42.4446 25.5003 43.1652 25.5003 43.9167V46.75C25.5003 47.5014 25.7988 48.2221 26.3302 48.7535C26.8615 49.2848 27.5822 49.5833 28.3337 49.5833H31.167C31.9184 49.5833 32.6391 49.2848 33.1705 48.7535C33.7018 48.2221 34.0003 47.5014 34.0003 46.75V43.9167C34.0003 43.1652 33.7018 42.4446 33.1705 41.9132C32.6391 41.3818 31.9184 41.0833 31.167 41.0833H28.3337ZM31.167 43.9167H28.3337V46.75H31.167V43.9167Z" fill="#375C71"/>
<path d="M51.0003 46.0417C51.0003 45.6659 50.8511 45.3056 50.5854 45.0399C50.3197 44.7743 49.9594 44.625 49.5837 44.625C49.2079 44.625 48.8476 44.7743 48.5819 45.0399C48.3162 45.3056 48.167 45.6659 48.167 46.0417V50.1698L49.9987 52.0016C50.2659 52.2596 50.6238 52.4024 50.9952 52.3992C51.3667 52.396 51.722 52.247 51.9847 51.9843C52.2473 51.7217 52.3963 51.3663 52.3995 50.9949C52.4028 50.6235 52.26 50.2656 52.0019 49.9984L51.0003 48.9968V46.0417Z" fill="#375C71"/>
<path fill-rule="evenodd" clip-rule="evenodd" d="M17 9.91667C17 9.54094 17.1493 9.18061 17.4149 8.91493C17.6806 8.64926 18.0409 8.5 18.4167 8.5C18.7924 8.5 19.1527 8.64926 19.4184 8.91493C19.6841 9.18061 19.8333 9.54094 19.8333 9.91667V17C19.8333 17.3757 19.9826 17.7361 20.2483 18.0017C20.5139 18.2674 20.8743 18.4167 21.25 18.4167C21.6257 18.4167 21.9861 18.2674 22.2517 18.0017C22.5174 17.7361 22.6667 17.3757 22.6667 17V12.75H36.8333V9.91667C36.8333 9.54094 36.9826 9.18061 37.2483 8.91493C37.5139 8.64926 37.8743 8.5 38.25 8.5C38.6257 8.5 38.9861 8.64926 39.2517 8.91493C39.5174 9.18061 39.6667 9.54094 39.6667 9.91667V17C39.6667 17.3757 39.8159 17.7361 40.0816 18.0017C40.3473 18.2674 40.7076 18.4167 41.0833 18.4167C41.4591 18.4167 41.8194 18.2674 42.0851 18.0017C42.3507 17.7361 42.5 17.3757 42.5 17V12.75H46.75C47.8772 12.75 48.9582 13.1978 49.7552 13.9948C50.5522 14.7918 51 15.8728 51 17V39.7658C53.4814 40.1245 55.7348 41.4095 57.307 43.3625C58.8792 45.3155 59.6534 47.7914 59.4739 50.2921C59.2943 52.7928 58.1744 55.1327 56.3394 56.8411C54.5044 58.5495 52.0905 59.4995 49.5833 59.5C47.9844 59.5013 46.4089 59.1154 44.9916 58.3753C43.5743 57.6352 42.3573 56.5628 41.4446 55.25H12.75C11.6228 55.25 10.5418 54.8022 9.7448 54.0052C8.94777 53.2082 8.5 52.1272 8.5 51V17C8.5 15.8728 8.94777 14.7918 9.7448 13.9948C10.5418 13.1978 11.6228 12.75 12.75 12.75H17V9.91667ZM39.6667 49.5833C39.6661 47.1983 40.5251 44.8929 42.0862 43.0898C43.6474 41.2866 45.8061 40.1066 48.1667 39.7658V25.5H11.3333V51C11.3333 51.3757 11.4826 51.7361 11.7483 52.0017C12.0139 52.2674 12.3743 52.4167 12.75 52.4167H40.0775C39.8042 51.4971 39.6658 50.5427 39.6667 49.5833ZM56.6667 49.5833C56.6667 51.4619 55.9204 53.2636 54.592 54.592C53.2636 55.9204 51.4619 56.6667 49.5833 56.6667C47.7047 56.6667 45.903 55.9204 44.5747 54.592C43.2463 53.2636 42.5 51.4619 42.5 49.5833C42.5 47.7047 43.2463 45.903 44.5747 44.5747C45.903 43.2463 47.7047 42.5 49.5833 42.5C51.4619 42.5 53.2636 43.2463 54.592 44.5747C55.9204 45.903 56.6667 47.7047 56.6667 49.5833Z" fill="#375C71"/>
</svg>
