<svg width="98" height="98" viewBox="0 0 98 98" fill="none" xmlns="http://www.w3.org/2000/svg">
<rect x="1.79476" y="1.79525" width="94.4098" height="94.4098" rx="13.7526" stroke="#375C71" stroke-width="2.23015"/>
<path d="M24.0209 70.2711C27.904 74.8422 33.1478 78.3731 39.8241 80.2892C46.4354 82.1867 56.2123 83.3498 62.9221 81.5713C84.1127 75.9544 83.135 53.5189 81.0159 46.4387C78.1054 36.7141 78.1509 22.286 66.6082 18.8064C63.35 17.8242 59.6851 17.6111 56.302 17.6752C44.7419 17.8944 25.3414 15.618 18.6391 28.1978C16.5965 32.0318 16.1497 36.6823 15.7495 40.9729C14.7781 51.3867 17.2711 62.3253 24.0209 70.2711Z" fill="#F4F7FA"/>
<path d="M80.0049 48.9063C80.0475 49.3266 79.76 49.6633 79.3618 49.6578L75.4602 49.6038C75.0533 49.5982 74.6944 49.2478 74.6554 48.8219L74.5874 48.079C74.5486 47.6549 74.8432 47.3179 75.2486 47.3259L79.1377 47.402C79.5344 47.4098 79.8882 47.7548 79.9306 48.1733L80.0049 48.9063Z" fill="#97A6B7"/>
<path d="M31.7405 48.1443C31.7464 48.6157 31.3413 48.9927 30.8388 48.9858L25.8986 48.9174C25.3837 48.9103 24.9604 48.5159 24.9604 48.0373V47.203C24.9604 46.7267 25.38 46.3494 25.8925 46.3594L30.8099 46.4557C31.3101 46.4655 31.7236 46.8532 31.7294 47.3224L31.7405 48.1443Z" fill="#97A6B7"/>
<path d="M55.7247 74.9668C51.9967 75.1485 48.2842 74.5581 44.7109 73.1981C41.2214 71.87 38.0367 69.8777 35.2681 67.2817C32.4913 64.6781 30.2958 61.6199 28.7552 58.2123C27.169 54.704 26.3632 51.0063 26.3536 47.2465C26.3441 43.5382 27.1101 40.0145 28.6083 36.7821C30.0284 33.7181 32.0388 31.0543 34.5634 28.8572C37.0367 26.7047 39.879 25.1091 43.0027 24.0969C46.1739 23.0693 49.5069 22.6883 52.9143 22.9462C56.2673 23.1999 59.5102 24.0587 62.5707 25.4911C65.4985 26.8613 68.156 28.705 70.4857 30.9765C72.8097 33.2422 74.707 35.8357 76.1343 38.6991C77.6194 41.6781 78.5388 44.8419 78.8647 48.1213C79.1945 51.4409 78.8985 54.7004 77.9697 57.8195C77.0569 60.8848 75.5714 63.6978 73.5358 66.1773C71.459 68.7071 68.9125 70.765 65.955 72.2774C62.8297 73.8757 59.3872 74.7884 55.7247 74.9668ZM52.9409 23.4376C38.9585 22.3958 26.9173 32.7423 26.971 47.2568C27.0277 62.5934 40.3854 75.0969 55.6927 74.3728C69.9517 73.6983 79.7164 61.6559 78.3829 48.1133C77.1128 35.2147 66.0488 24.4143 52.9409 23.4376Z" fill="#97A6B7"/>
<path d="M54.2235 26.63C54.2467 27.0417 53.9257 27.3538 53.4926 27.3255L52.728 27.2756C52.2924 27.2471 51.9157 26.8876 51.8943 26.4737L51.6884 22.4923C51.6674 22.0854 52.0115 21.7843 52.4428 21.8181L53.1893 21.8765C53.6182 21.91 53.9784 22.2644 54.0011 22.6693L54.2235 26.63Z" fill="#D8DEE8"/>
<path d="M56.9615 75.3853C56.9891 75.8776 56.6424 76.2966 56.1717 76.321L55.3405 76.3644C54.8668 76.389 54.4552 76.0071 54.4296 75.5116L54.1833 70.7485C54.1582 70.2621 54.5303 69.854 54.9989 69.837L55.8097 69.8076C56.2754 69.7906 56.6685 70.1685 56.6957 70.6519L56.9615 75.3853Z" fill="#D8DEE8"/>
<path d="M80.0049 48.4821C80.0475 48.9024 79.76 49.2391 79.3618 49.2336L75.4602 49.1796C75.0533 49.174 74.6944 48.8236 74.6554 48.3977L74.5874 47.6548C74.5486 47.2307 74.8432 46.8937 75.2486 46.9017L79.1377 46.9778C79.5344 46.9856 79.8882 47.3306 79.9306 47.7491L80.0049 48.4821Z" fill="#D8DEE8"/>
<path d="M31.7405 47.72C31.7464 48.1914 31.3413 48.5685 30.8388 48.5615L25.8986 48.4932C25.3837 48.486 24.9604 48.0916 24.9604 47.6131V46.7787C24.9604 46.3025 25.38 45.9252 25.8925 45.9352L30.8099 46.0315C31.3101 46.0412 31.7236 46.429 31.7294 46.8981L31.7405 47.72Z" fill="#D8DEE8"/>
<path d="M73.3488 37.8415C71.0017 33.8715 67.5792 30.539 63.5241 28.2841C60.3764 26.5322 56.8141 25.4098 53.0327 25.1434C49.1818 24.8721 45.5221 25.5171 42.2697 26.9116C37.9289 28.7703 34.3033 31.9685 31.9569 36.0945C30.1082 39.3417 29.06 43.1508 29.0915 47.2921C29.1235 51.4978 30.2641 55.5206 32.2597 59.0775C34.8666 63.7287 38.8888 67.5068 43.6944 69.8317C47.3441 71.5994 51.4034 72.5061 55.5819 72.329C59.6783 72.1554 63.3965 70.9598 66.5296 69.0238C70.5043 66.5704 73.534 62.928 75.2402 58.6472C76.5235 55.4319 77.0666 51.8414 76.7083 48.0854C76.3549 44.3807 75.1611 40.9043 73.3488 37.8415ZM60.4121 57.3696C58.8341 58.3674 56.9399 58.9548 54.8605 58.9762C52.7602 58.9979 50.7466 58.4396 48.9829 57.4444C47.2192 56.4489 45.716 55.0218 44.6344 53.3145C43.5497 51.6019 42.8955 49.6183 42.8264 47.5209C42.7578 45.4397 43.2746 43.5197 44.2245 41.9009C45.1602 40.3067 46.5146 39.008 48.1424 38.1323C49.759 37.2629 51.6458 36.81 53.6676 36.8959C55.6701 36.9809 57.5607 37.5844 59.2039 38.5638C60.8329 39.5349 62.2272 40.881 63.2504 42.4688C64.2793 44.066 64.939 45.9167 65.0851 47.8917C65.2323 49.8813 64.8407 51.7544 64.0282 53.3761C63.2106 55.0075 61.965 56.3873 60.4121 57.3696Z" fill="white"/>
<path d="M63.5239 28.284C62.1147 31.6373 60.6749 35.063 59.2038 38.5637C57.5605 37.5843 55.67 36.9808 53.6675 36.8957C51.6456 36.8098 49.7589 37.2627 48.1422 38.1322C46.1742 34.3719 44.2167 30.6318 42.2695 26.9114C45.5219 25.5169 49.1817 24.8719 53.0325 25.1432C56.8139 25.4097 60.3762 26.5321 63.5239 28.284Z" fill="url(#paint0_linear_3562_3000)"/>
<path d="M66.5296 69.0238C63.3965 70.9598 59.6783 72.1554 55.5819 72.329C51.4033 72.5061 47.3441 71.5994 43.6943 69.8317C45.4992 65.6042 47.2615 61.4763 48.9829 57.4444C50.7466 58.4396 52.7602 58.9978 54.8605 58.9762C56.9398 58.9547 58.8341 58.3673 60.412 57.3695C62.4402 61.2333 64.4793 65.118 66.5296 69.0238Z" fill="url(#paint1_linear_3562_3000)"/>
<path d="M76.7085 48.0857C77.0667 51.8417 76.5236 55.4321 75.2404 58.6474C71.5456 56.9105 67.8085 55.1535 64.0284 53.3764C64.8409 51.7547 65.2325 49.8816 65.0853 47.892C64.9392 45.917 64.2795 44.0662 63.2505 42.4691C66.6965 40.89 70.0617 39.348 73.3489 37.8417C75.1613 40.9046 76.3551 44.381 76.7085 48.0857Z" fill="url(#paint2_linear_3562_3000)"/>
<path d="M42.8264 47.521C42.8955 49.6183 43.5497 51.6019 44.6344 53.3145C40.6167 55.1856 36.4932 57.1059 32.2597 59.0775C30.2641 55.5206 29.1235 51.4978 29.0915 47.2922C29.06 43.1508 30.1082 39.3417 31.9569 36.0945C36.095 38.0532 40.1839 39.9885 44.2245 41.901C43.2746 43.5198 42.7578 45.4398 42.8264 47.521Z" fill="url(#paint3_linear_3562_3000)"/>
<path opacity="0.2" d="M73.3488 37.8412C71.0017 33.8712 67.5792 30.5387 63.5241 28.2839C60.3764 26.532 56.8141 25.4095 53.0327 25.1431C49.1818 24.8718 45.5221 25.5168 42.2697 26.9113C37.9289 28.77 34.3033 31.9682 31.9569 36.0942C30.1082 39.3414 29.06 43.1505 29.0915 47.2919C29.1235 51.4975 30.2641 55.5203 32.2597 59.0772C34.8666 63.7285 38.8888 67.5066 43.6944 69.8314C47.3441 71.5991 51.4034 72.5058 55.5819 72.3287C59.6783 72.1551 63.3965 70.9595 66.5296 69.0235C70.5043 66.5701 73.534 62.9277 75.2402 58.6469C76.5235 55.4316 77.0666 51.8412 76.7083 48.0851C76.3549 44.3804 75.1611 40.904 73.3488 37.8412ZM69.3306 55.5678C68.0547 58.6033 65.8369 61.1545 62.9675 62.8399C60.7225 64.1605 58.0792 64.9504 55.1871 65.0222C52.2544 65.095 49.4195 64.4211 46.8778 63.161C43.543 61.5102 40.7475 58.8689 38.9195 55.6354C37.5177 53.1592 36.6964 50.3567 36.6331 47.4175C36.5705 44.5099 37.2577 41.8196 38.5104 39.5088C40.1109 36.5518 42.6311 34.226 45.6862 32.8424C47.9917 31.7964 50.6053 31.2856 53.3728 31.4392C56.1042 31.5907 58.6875 32.3733 60.975 33.625C63.9302 35.2399 66.4223 37.6554 68.1186 40.5442C69.4273 42.7704 70.2752 45.2963 70.5006 47.9817C70.7284 50.694 70.2968 53.2733 69.3306 55.5678Z" fill="url(#paint4_linear_3562_3000)"/>
<path d="M77.838 68.0609C78.1478 68.2182 78.5369 68.0738 78.7072 67.7384C78.8775 67.403 78.7644 67.0036 78.4547 66.8463C78.4386 66.8382 78.4223 66.8313 78.4058 66.8248C78.4634 66.6392 78.5068 66.4521 78.5359 66.265C78.5536 66.265 78.5714 66.2647 78.5895 66.2631C78.943 66.2316 79.2234 65.9068 79.216 65.5377C79.2086 65.1686 78.9161 64.8949 78.5627 64.9264C78.5443 64.9281 78.5261 64.931 78.5081 64.9342C78.4712 64.7513 78.4206 64.5726 78.3568 64.3997C78.373 64.3902 78.3892 64.3803 78.405 64.3693C78.7073 64.1574 78.804 63.7393 78.6209 63.4355C78.4378 63.1316 78.0443 63.0569 77.7419 63.2688C77.7264 63.2796 77.7118 63.2913 77.6974 63.3033C77.578 63.1712 77.447 63.0489 77.3053 62.9372C77.3153 62.9209 77.325 62.9044 77.3339 62.887C77.5042 62.5516 77.7267 62.1852 77.4145 62.0328C76.6923 61.6802 76.3824 61.982 76.2122 62.3174C76.2033 62.3348 76.1957 62.3525 76.1884 62.3701C76.0147 62.3216 75.8386 62.2881 75.6615 62.2696C75.6627 62.2509 75.6635 62.2322 75.6631 62.2133C75.6557 61.8442 75.7653 61.6445 75.4105 61.6376C74.637 61.6225 74.376 61.9583 74.3834 62.3274C74.3838 62.3467 74.3854 62.3655 74.3873 62.3843C74.21 62.4348 74.0359 62.4994 73.8664 62.5775C73.8584 62.5611 73.85 62.5447 73.8405 62.5288C73.6574 62.2249 73.2638 62.1503 72.9614 62.3621C72.6591 62.574 72.5624 62.992 72.7455 63.2959C72.7549 63.3115 72.7652 63.326 72.7756 63.3404C72.6417 63.4743 72.5163 63.6197 72.4005 63.7757C72.3855 63.7663 72.3703 63.7571 72.3542 63.749C72.0445 63.5917 71.6553 63.7361 71.485 64.0715C71.3148 64.4069 71.4278 64.8063 71.7376 64.9636C71.7536 64.9717 71.77 64.9786 71.7864 64.9851C71.7289 65.1707 71.6855 65.3577 71.6564 65.5449C71.6386 65.5449 71.6208 65.5452 71.6027 65.5468C71.2493 65.5783 70.9688 65.9031 70.9762 66.2722C70.9836 66.6413 71.2761 66.9149 71.6295 66.8835C71.648 66.8818 71.6661 66.8789 71.6842 66.8757C71.7211 67.0586 71.7716 67.2373 71.8355 67.4102C71.8192 67.4197 71.803 67.4296 71.7872 67.4406C71.4849 67.6525 71.3882 68.0705 71.5713 68.3744C71.7544 68.6783 72.3606 68.8195 72.663 68.6077C72.6785 68.5968 72.4804 68.5186 72.4948 68.5067C72.6142 68.6387 72.7452 68.761 72.8869 68.8727C72.877 68.889 72.8672 68.9056 72.8584 68.923C72.6881 69.2583 72.8011 69.6577 73.1109 69.815C73.4206 69.9723 73.8098 69.8279 73.9801 69.4925C73.9889 69.4751 73.9965 69.4575 74.0038 69.4398C74.1776 69.4883 74.3537 69.5219 74.5307 69.5404C74.5296 69.559 74.5288 69.5777 74.5291 69.5966C74.5365 69.9657 74.829 70.2394 75.1824 70.2079C75.5358 70.1764 75.8163 69.8516 75.8089 69.4825C75.8085 69.4632 75.8069 69.4444 75.805 69.4256C75.9823 69.3751 76.1564 69.3105 76.3258 69.2324C76.3339 69.2488 76.3422 69.2652 76.3518 69.2811C76.5349 69.585 76.9284 69.6596 77.2308 69.4478C77.5332 69.2359 77.6298 68.8179 77.4467 68.514C77.4373 68.4984 77.427 68.4838 77.4166 68.4695C77.5505 68.3356 77.6759 68.1902 77.7918 68.0342C77.8068 68.0436 77.822 68.0527 77.838 68.0609ZM73.9766 68.1099C72.852 67.5389 72.4415 66.0888 73.0598 64.871C73.6781 63.6533 75.091 63.129 76.2156 63.7C77.3403 64.271 77.7508 65.7211 77.1325 66.9388C76.5142 68.1566 75.1013 68.6809 73.9766 68.1099Z" fill="url(#paint5_linear_3562_3000)"/>
<path d="M78.5894 66.263C78.9428 66.2315 79.2233 65.9068 79.2159 65.5377C79.2085 65.1686 78.916 64.8949 78.5626 64.9264C78.5441 64.928 78.526 64.931 78.5079 64.9342C78.471 64.7512 78.4204 64.5726 78.3566 64.3996C78.3729 64.3901 78.3891 64.3803 78.4049 64.3692C78.7072 64.1574 79.0813 63.6455 78.868 63.362C78.4631 62.8239 78.0441 63.0569 77.7418 63.2687C77.7263 63.2795 77.7117 63.2913 77.6973 63.3031C77.5779 63.1711 77.4469 63.0488 77.3052 62.9371C77.3151 62.9208 77.3249 62.9042 77.3337 62.8869C77.4264 62.7043 77.4346 62.5031 77.3734 62.332C77.0813 62.846 76.7932 63.3621 76.5103 63.8811C77.4075 64.5386 77.6931 65.8342 77.1323 66.9388C76.6571 67.8749 75.7124 68.4004 74.79 68.3346C74.7488 68.4413 74.7084 68.5486 74.6644 68.6543C74.5448 68.941 74.409 69.222 74.2729 69.5025C74.3585 69.5186 74.4444 69.5313 74.5306 69.5403C74.5295 69.559 74.5286 69.5776 74.529 69.5966C74.5364 69.9657 74.7605 70.2793 75.401 70.2453C75.7553 70.2265 75.8162 69.8516 75.8088 69.4825C75.8084 69.4632 75.8068 69.4443 75.8048 69.4256C75.9821 69.3751 76.1562 69.3105 76.3257 69.2323C76.3337 69.2488 76.3421 69.2651 76.3516 69.281C76.5347 69.585 77.17 69.7141 77.4723 69.5022C77.7747 69.2904 77.6296 68.8179 77.4466 68.5139C77.4372 68.4984 77.4269 68.4838 77.4165 68.4694C77.5503 68.3355 77.6757 68.1901 77.7916 68.0342C77.8066 68.0436 77.8218 68.0528 77.8378 68.0609C78.1476 68.2182 78.5367 68.0737 78.707 67.7383C78.8773 67.403 78.7643 67.0036 78.4545 66.8463C78.4385 66.8381 78.4221 66.8313 78.4057 66.8248C78.4632 66.6392 78.5066 66.4521 78.5357 66.265C78.5535 66.2649 78.5713 66.2646 78.5894 66.263Z" fill="url(#paint6_linear_3562_3000)"/>
<path d="M78.171 68.0987C78.4808 68.2559 78.8699 68.1115 79.0402 67.7761C79.2105 67.4407 79.0975 67.0413 78.7877 66.8841C78.7717 66.8759 78.7553 66.8691 78.7388 66.8625C78.7964 66.6769 78.8398 66.4899 78.8689 66.3028C78.8866 66.3027 78.9044 66.3024 78.9225 66.3008C79.276 66.2693 79.5564 65.9446 79.549 65.5755C79.5416 65.2064 79.2491 64.9327 78.8957 64.9642C78.8773 64.9659 78.8591 64.9688 78.8411 64.972C78.8042 64.7891 78.7536 64.6104 78.6898 64.4374C78.706 64.4279 78.7222 64.4181 78.738 64.407C79.0404 64.1952 79.137 63.7771 78.9539 63.4732C78.7708 63.1693 78.3773 63.0946 78.0749 63.3065C78.0594 63.3174 78.0449 63.3291 78.0304 63.341C77.911 63.2089 77.78 63.0866 77.6383 62.9749C77.6483 62.9586 77.6581 62.9421 77.6669 62.9247C77.8372 62.5893 77.7241 62.1899 77.4144 62.0326C77.1046 61.8753 76.7154 62.0197 76.5452 62.3551C76.5363 62.3725 76.5287 62.3902 76.5214 62.4078C76.3477 62.3593 76.1716 62.3258 75.9946 62.3073C75.9956 62.2886 75.9965 62.2699 75.9961 62.251C75.9887 61.8819 75.6963 61.6082 75.3428 61.6397C74.9894 61.6712 74.709 61.996 74.7164 62.3651C74.7168 62.3844 74.7184 62.4032 74.7203 62.422C74.543 62.4725 74.3689 62.5371 74.1994 62.6152C74.1914 62.5988 74.183 62.5824 74.1735 62.5665C73.9903 62.2626 73.5968 62.188 73.2944 62.3998C72.9921 62.6116 72.8954 63.0297 73.0785 63.3336C73.0879 63.3492 73.0982 63.3638 73.1086 63.3781C72.9747 63.512 72.8493 63.6574 72.7335 63.8134C72.7185 63.804 72.7033 63.7948 72.6873 63.7867C72.3775 63.6294 71.9883 63.7738 71.8181 64.1092C71.6478 64.4446 71.7608 64.844 72.0706 65.0013C72.0866 65.0094 72.103 65.0163 72.1194 65.0228C72.0619 65.2084 72.0185 65.3954 71.9894 65.5825C71.9716 65.5826 71.9538 65.5829 71.9357 65.5845C71.5823 65.616 71.3018 65.9408 71.3092 66.3099C71.3166 66.679 71.6091 66.9526 71.9625 66.9211C71.981 66.9195 71.9991 66.9166 72.0172 66.9134C72.0541 67.0963 72.1047 67.275 72.1685 67.4479C72.1522 67.4574 72.136 67.4672 72.1202 67.4783C71.8179 67.6901 71.7212 68.1082 71.9043 68.4121C72.0874 68.716 72.481 68.7907 72.7833 68.5788C72.7988 68.568 72.8134 68.5562 72.8278 68.5443C72.9472 68.6764 73.0782 68.7987 73.2199 68.9104C73.2099 68.9267 73.2002 68.9432 73.1914 68.9606C73.0211 69.296 73.1341 69.6954 73.4439 69.8527C73.7536 70.0099 74.1428 69.8655 74.3131 69.5301C74.3219 69.5128 74.3295 69.4951 74.3368 69.4775C74.5106 69.526 74.6867 69.5595 74.8637 69.578C74.8626 69.5967 74.8617 69.6154 74.8621 69.6343C74.8695 70.0034 75.162 70.2771 75.5154 70.2456C75.8688 70.2141 76.1493 69.8893 76.1419 69.5202C76.1415 69.5009 76.1399 69.4821 76.138 69.4633C76.3152 69.4128 76.4893 69.3482 76.6588 69.27C76.6668 69.2865 76.6752 69.3029 76.6848 69.3187C76.8679 69.6226 77.2614 69.6973 77.5638 69.4854C77.8661 69.2736 77.9628 68.8555 77.7797 68.5516C77.7703 68.5361 77.76 68.5215 77.7496 68.5071C77.8835 68.3732 78.0089 68.2278 78.1248 68.0719C78.1398 68.0813 78.155 68.0905 78.171 68.0987ZM74.3097 68.1477C73.185 67.5767 72.7745 66.1266 73.3928 64.9088C74.0111 63.691 75.424 63.1667 76.5487 63.7377C77.6733 64.3088 78.0838 65.7588 77.4655 66.9766C76.8472 68.1944 75.4343 68.7187 74.3097 68.1477Z" fill="url(#paint7_linear_3562_3000)"/>
<path d="M67.5439 77.3211C68.1506 77.6291 68.9129 77.3463 69.2465 76.6893C69.5801 76.0323 69.3586 75.2499 68.7518 74.9418C68.7204 74.9259 68.6883 74.9125 68.6561 74.8996C68.7689 74.5361 68.8539 74.1697 68.9108 73.8032C68.9456 73.8031 68.9805 73.8025 69.016 73.7993C69.7083 73.7376 70.2577 73.1015 70.2432 72.3784C70.2287 71.6554 69.6558 71.1193 68.9635 71.181C68.9273 71.1842 68.8918 71.1899 68.8564 71.1962C68.7841 70.8379 68.685 70.4879 68.56 70.1491C68.5919 70.1305 68.6236 70.1112 68.6545 70.0896C69.2468 69.6746 69.4361 68.8556 69.0774 68.2603C68.7187 67.665 67.9478 67.5188 67.3556 67.9337C67.3252 67.955 67.2967 67.978 67.2684 68.0013C67.0345 67.7427 66.7779 67.503 66.5003 67.2843C66.5199 67.2523 66.5389 67.2199 66.5563 67.1858C66.8898 66.5288 67.3257 65.8111 66.7142 65.5126C65.2996 64.822 64.6925 65.4132 64.3589 66.0702C64.3417 66.1043 64.3268 66.1388 64.3124 66.1734C63.972 66.0784 63.6272 66.0127 63.2803 65.9764C63.2825 65.9399 63.2842 65.9033 63.2835 65.8662C63.269 65.1432 63.4835 64.7519 62.7886 64.7384C61.2733 64.709 60.762 65.3667 60.7766 66.0897C60.7773 66.1275 60.7805 66.1644 60.7842 66.2011C60.437 66.3001 60.0959 66.4266 59.764 66.5797C59.7482 66.5475 59.7318 66.5154 59.7131 66.4843C59.3544 65.889 58.5835 65.7428 57.9912 66.1578C57.3989 66.5728 57.2096 67.3917 57.5683 67.987C57.5866 68.0175 57.6068 68.046 57.6272 68.0742C57.3649 68.3365 57.1193 68.6213 56.8923 68.9268C56.8629 68.9084 56.8332 68.8904 56.8017 68.8745C56.1949 68.5664 55.4326 68.8493 55.0991 69.5063C54.7655 70.1633 54.987 70.9457 55.5937 71.2537C55.6252 71.2697 55.6573 71.2831 55.6894 71.296C55.5767 71.6595 55.4917 72.0259 55.4347 72.3924C55.3999 72.3925 55.365 72.3931 55.3296 72.3963C54.6373 72.458 54.0879 73.0941 54.1023 73.8172C54.1168 74.5402 54.6898 75.0763 55.3821 75.0146C55.4182 75.0114 55.4538 75.0057 55.4891 74.9994C55.5614 75.3577 55.6605 75.7077 55.7855 76.0465C55.7537 76.0651 55.722 76.0844 55.691 76.106C55.0987 76.521 54.9094 77.34 55.2681 77.9353C55.6268 78.5306 56.8143 78.8071 57.4066 78.3922C57.4369 78.3709 57.0489 78.2176 57.0771 78.1943C57.311 78.4529 57.5676 78.6925 57.8452 78.9113C57.8257 78.9433 57.8066 78.9757 57.7893 79.0097C57.4557 79.6667 57.6772 80.4491 58.284 80.7572C58.8907 81.0652 59.653 80.7824 59.9866 80.1254C60.0039 80.0913 60.0188 80.0568 60.0331 80.0221C60.3735 80.1172 60.7184 80.1829 61.0652 80.2192C61.0631 80.2557 61.0614 80.2923 61.0621 80.3293C61.0766 81.0523 61.6496 81.5885 62.3418 81.5268C63.0341 81.4651 63.5835 80.8289 63.569 80.1059C63.5683 80.0681 63.5651 80.0311 63.5614 79.9944C63.9087 79.8955 64.2497 79.7689 64.5816 79.6158C64.5974 79.6481 64.6138 79.6802 64.6325 79.7112C64.9912 80.3065 65.7621 80.4528 66.3544 80.0378C66.9467 79.6228 67.136 78.8039 66.7774 78.2086C66.759 78.1781 66.7389 78.1496 66.7184 78.1214C66.9807 77.8591 67.2263 77.5743 67.4533 77.2688C67.4827 77.2871 67.5124 77.3051 67.5439 77.3211ZM59.9798 77.417C57.7767 76.2985 56.9727 73.458 58.1838 71.0725C59.395 68.687 62.1627 67.66 64.3658 68.7785C66.5689 69.8971 67.3729 72.7376 66.1618 75.1231C64.9506 77.5086 62.1829 78.5356 59.9798 77.417Z" fill="url(#paint8_linear_3562_3000)"/>
<path d="M69.016 73.7994C69.7083 73.7377 70.2577 73.1015 70.2432 72.3785C70.2287 71.6555 69.6557 71.1194 68.9635 71.1811C68.9273 71.1843 68.8918 71.19 68.8564 71.1963C68.7841 70.838 68.685 70.488 68.56 70.1492C68.5919 70.1306 68.6235 70.1113 68.6545 70.0897C69.2467 69.6747 69.9795 68.6721 69.5616 68.1167C68.7686 67.0627 67.9478 67.5189 67.3555 67.9339C67.3252 67.9551 67.2966 67.9781 67.2684 68.0014C67.0345 67.7428 66.7779 67.5031 66.5003 67.2844C66.5198 67.2524 66.5389 67.22 66.5562 67.186C66.7378 66.8284 66.7538 66.4342 66.6339 66.099C66.0618 67.1059 65.4975 68.117 64.9432 69.1336C66.7008 70.4214 67.2603 72.9595 66.1617 75.1232C65.2308 76.9568 63.3803 77.9864 61.5733 77.8573C61.4927 78.0664 61.4136 78.2766 61.3273 78.4836C61.0931 79.0454 60.827 79.5956 60.5605 80.1451C60.7281 80.1767 60.8964 80.2016 61.0652 80.2192C61.063 80.2558 61.0613 80.2924 61.0621 80.3294C61.0766 81.0525 61.5155 81.6668 62.7702 81.6002C63.4642 81.5634 63.5835 80.829 63.569 80.106C63.5682 80.0682 63.5651 80.0312 63.5613 79.9945C63.9086 79.8956 64.2496 79.769 64.5816 79.6159C64.5973 79.6482 64.6137 79.6802 64.6325 79.7113C64.9912 80.3066 66.2355 80.5596 66.8278 80.1446C67.4201 79.7296 67.136 78.804 66.7773 78.2087C66.7589 78.1782 66.7388 78.1496 66.7184 78.1215C66.9806 77.8592 67.2263 77.5744 67.4532 77.2688C67.4826 77.2873 67.5124 77.3052 67.5438 77.3212C68.1506 77.6293 68.9129 77.3464 69.2465 76.6894C69.58 76.0324 69.3586 75.25 68.7518 74.9419C68.7204 74.926 68.6883 74.9126 68.6561 74.8998C68.7688 74.5362 68.8538 74.1698 68.9108 73.8033C68.9456 73.8031 68.9805 73.8025 69.016 73.7994Z" fill="url(#paint9_linear_3562_3000)"/>
<path d="M68.1966 77.3955C68.8034 77.7035 69.5657 77.4207 69.8993 76.7637C70.2329 76.1066 70.0114 75.3243 69.4046 75.0162C69.3732 75.0003 69.3411 74.9868 69.3089 74.974C69.4217 74.6105 69.5067 74.2441 69.5637 73.8775C69.5984 73.8774 69.6333 73.8768 69.6688 73.8737C70.3611 73.812 70.9105 73.1758 70.896 72.4528C70.8815 71.7297 70.3086 71.1937 69.6163 71.2554C69.5801 71.2586 69.5446 71.2643 69.5092 71.2706C69.4369 70.9123 69.3378 70.5623 69.2128 70.2235C69.2447 70.2049 69.2764 70.1856 69.3073 70.1639C69.8996 69.749 70.089 68.93 69.7303 68.3347C69.3716 67.7394 68.6007 67.5932 68.0084 68.0082C67.978 68.0294 67.9495 68.0524 67.9213 68.0757C67.6873 67.8171 67.4308 67.5775 67.1532 67.3587C67.1727 67.3267 67.1918 67.2943 67.2091 67.2603C67.5427 66.6033 67.3212 65.8209 66.7144 65.5128C66.1076 65.2048 65.3453 65.4876 65.0118 66.1446C64.9945 66.1787 64.9796 66.2132 64.9653 66.2479C64.6249 66.1528 64.28 66.0871 63.9332 66.0508C63.9353 66.0143 63.937 65.9777 63.9363 65.9407C63.9218 65.2176 63.3488 64.6815 62.6566 64.7432C61.9643 64.8049 61.4149 65.4411 61.4294 66.1641C61.4301 66.2019 61.4333 66.2388 61.437 66.2755C61.0898 66.3745 60.7487 66.5011 60.4168 66.6541C60.401 66.6219 60.3846 66.5898 60.3659 66.5587C60.0072 65.9634 59.2363 65.8172 58.644 66.2322C58.0517 66.6472 57.8624 67.4661 58.2211 68.0614C58.2394 68.0919 58.2596 68.1204 58.28 68.1486C58.0177 68.4109 57.7721 68.6957 57.5451 69.0013C57.5158 68.9829 57.486 68.9649 57.4545 68.9489C56.8478 68.6408 56.0855 68.9237 55.7519 69.5807C55.4183 70.2377 55.6398 71.0201 56.2465 71.3281C56.278 71.3441 56.3101 71.3575 56.3422 71.3703C56.2295 71.7339 56.1445 72.1003 56.0875 72.4668C56.0527 72.4669 56.0178 72.4675 55.9824 72.4706C55.2901 72.5324 54.7407 73.1685 54.7552 73.8916C54.7696 74.6146 55.3426 75.1507 56.0349 75.089C56.071 75.0857 56.1066 75.08 56.1419 75.0738C56.2142 75.4321 56.3133 75.7821 56.4383 76.1208C56.4065 76.1395 56.3748 76.1587 56.3438 76.1804C55.7516 76.5954 55.5622 77.4143 55.9209 78.0096C56.2796 78.6049 57.0505 78.7511 57.6428 78.3362C57.6731 78.3149 57.7017 78.292 57.7299 78.2687C57.9638 78.5273 58.2204 78.7669 58.498 78.9857C58.4785 79.0177 58.4594 79.0501 58.4421 79.0841C58.1085 79.7411 58.33 80.5235 58.9368 80.8316C59.5435 81.1396 60.3058 80.8568 60.6394 80.1998C60.6567 80.1657 60.6716 80.1312 60.6859 80.0965C61.0263 80.1916 61.3712 80.2573 61.718 80.2935C61.7158 80.3301 61.7142 80.3667 61.7149 80.4037C61.7294 81.1267 62.3023 81.6629 62.9946 81.6012C63.6869 81.5394 64.2363 80.9033 64.2218 80.1803C64.2211 80.1425 64.2179 80.1055 64.2142 80.0688C64.5614 79.9699 64.9025 79.8433 65.2344 79.6902C65.2502 79.7225 65.2666 79.7545 65.2853 79.7856C65.644 80.3809 66.4149 80.5272 67.0072 80.1122C67.5995 79.6972 67.7888 78.8783 67.4302 78.2829C67.4118 78.2525 67.3916 78.2239 67.3712 78.1958C67.6335 77.9335 67.8791 77.6487 68.1061 77.3431C68.1354 77.3615 68.1652 77.3795 68.1966 77.3955ZM60.6326 77.4914C58.4296 76.3729 57.6254 73.5323 58.8366 71.1469C60.0478 68.7614 62.8155 67.7344 65.0186 68.8529C67.2217 69.9714 68.0257 72.812 66.8146 75.1975C65.6034 77.583 62.8357 78.61 60.6326 77.4914Z" fill="url(#paint10_linear_3562_3000)"/>
<path d="M48.6879 78.7109C43.9559 81.3355 36.0737 79.0877 30.5236 76.036C28.8943 75.1398 27.3387 74.0612 25.8824 72.8002C14.1458 62.6394 12.7803 44.0449 22.8392 31.3518C27.8284 25.0549 34.7923 21.1733 42.4487 20.4205C43.3873 20.328 44.1952 21.0519 44.2512 22.038C44.3081 23.0233 43.5918 23.8974 42.6523 23.9899C35.9278 24.651 29.8099 28.0608 25.4267 33.5922C16.5915 44.7425 17.7907 61.0788 28.1008 70.0048C28.6956 70.5198 29.3101 71.0256 29.9414 71.45H29.9398C29.9398 71.45 38.197 78.9341 48.6794 78.7151C48.6819 78.7151 48.6853 78.7109 48.6879 78.7109Z" fill="url(#paint11_linear_3562_3000)"/>
<path d="M35.7192 28.6205L41.5435 22.2586L35.8236 16.4319L40.8835 16.3055L46.4462 22.1242L40.6253 28.3585L35.7192 28.6205Z" fill="url(#paint12_linear_3562_3000)"/>
<path d="M49.3665 78.7957C44.6346 81.4203 36.7524 79.1725 31.2023 76.1208C29.5729 75.2247 28.0174 74.146 26.5611 72.885C14.8245 62.7242 13.459 44.1297 23.5179 31.4366C28.5071 25.1398 35.471 21.2581 43.1274 20.5053C44.066 20.4129 44.8739 21.1367 44.9299 22.1229C44.9868 23.1081 44.2705 23.9822 43.3311 24.0747C36.6065 24.7358 30.4887 28.1456 26.1054 33.677C17.2702 44.8273 18.4693 61.1636 28.7795 70.0896C29.3743 70.6047 29.9888 71.1104 30.6201 71.5348H30.6184C30.6184 71.5348 38.8757 79.0189 49.3581 78.7999C49.3606 78.7999 49.364 78.7957 49.3665 78.7957Z" fill="url(#paint13_linear_3562_3000)"/>
<path d="M36.3979 28.5776L42.2222 22.3432L36.473 16.4154L41.3899 16.2913L47.1249 22.2088L41.304 28.4431L36.3979 28.5776Z" fill="url(#paint14_linear_3562_3000)"/>
<path d="M27.7954 38.6813C27.7954 38.6813 28.1389 38.055 28.3681 37.8692C28.5973 37.6833 28.5765 36.8867 28.6798 36.2737C28.7832 35.6607 28.3412 36.496 28.2398 36.6846C28.1384 36.8732 27.747 38.0423 27.1821 38.314L27.7954 38.6813Z" fill="url(#paint15_linear_3562_3000)"/>
<path d="M27.3475 38.0334C27.5829 38.1822 27.8182 38.331 28.0536 38.4797C27.1294 39.8204 26.0201 41.911 26.4474 44.1712C26.8798 46.4592 28.1086 47.5108 27.9388 49.2722C27.7507 51.2239 26.5457 54.0195 25.1021 53.4588C23.38 52.7899 22.4221 46.7596 23.7312 43.3038C24.6937 40.7633 26.2585 39.037 27.3475 38.0334Z" fill="url(#paint16_linear_3562_3000)"/>
<path d="M29.4971 44.8118C29.723 44.3335 29.8218 44.3334 29.8735 44.0829C29.9912 43.5121 29.6247 42.8017 29.3311 42.8001C29.1419 42.7991 29.1346 43.0935 28.7475 43.5631C28.2732 44.1384 27.9735 44.0733 27.6989 44.5687C27.6346 44.6846 27.3455 45.2063 27.5433 45.5838C27.7957 46.0656 28.7379 46.1161 29.1201 45.7279C29.3013 45.5438 29.2189 45.401 29.4971 44.8118Z" fill="url(#paint17_linear_3562_3000)"/>
<path d="M28.8071 45.3407C28.8071 45.3407 29.0006 46.2318 28.902 46.9637C28.8128 47.6252 27.6127 48.3441 27.3845 48.5469C27.1564 48.7497 28.0162 48.9381 28.7966 48.8132C29.5768 48.6883 31.7016 47.9407 32.0165 47.549C32.3315 47.1572 31.6316 47.3658 31.0363 47.3104C30.441 47.2549 29.8464 46.277 29.8146 45.7701C29.7827 45.2632 28.8071 45.3407 28.8071 45.3407Z" fill="url(#paint18_linear_3562_3000)"/>
<path d="M29.0817 46.0021C29.0817 46.0021 29.6888 46.2482 30.2077 45.8083C30.6723 45.4145 29.9319 44.2666 29.4478 44.2656C29.2863 44.2652 29.0541 44.3876 28.9198 44.5607C28.8406 44.6629 28.8376 44.7296 28.7048 44.8942C28.5824 45.0459 28.527 45.0609 28.5099 45.1334C28.4883 45.224 28.534 45.3732 28.867 45.6224C28.7039 45.5971 28.5652 45.6439 28.5138 45.74C28.5056 45.7554 28.489 45.803 28.4957 45.8515C28.5202 46.0273 28.7528 46.1023 29.0817 46.0021Z" fill="url(#paint19_linear_3562_3000)"/>
<path d="M43.7324 43.0828C43.7324 43.0828 44.0857 42.9843 43.8812 42.3117C43.7209 41.7845 43.7632 41.5943 43.9032 41.6728C44.0433 41.7512 44.103 42.0603 44.103 42.0603C44.103 42.0603 44.514 41.6022 44.6355 41.0579C44.757 40.5136 44.9385 40.9339 45.0142 41.1877C45.09 41.4415 44.8841 42.289 44.7268 42.4629C44.5695 42.6369 44.399 43.3334 44.399 43.3334L43.7324 43.0828Z" fill="url(#paint20_linear_3562_3000)"/>
<path d="M35.8753 81.6884C35.6993 82.0748 35.7564 82.2371 35.805 82.3078C35.9474 82.5153 36.2699 82.3063 37.1298 82.3832C37.2306 82.3923 37.4232 82.4127 37.6609 82.3495C37.8646 82.2953 38.1032 82.1792 38.0913 82.1246C38.087 82.1047 38.0503 82.0977 38.0364 82.0952C37.7972 82.0513 36.2954 81.637 36.2954 81.637L35.8753 81.6884Z" fill="url(#paint21_linear_3562_3000)"/>
<path d="M35.5308 80.9352L35.8023 81.5998C35.8439 81.7018 35.9408 81.7708 36.0508 81.7759C36.1625 81.781 36.2828 81.7456 36.2939 81.5731C36.3091 81.3373 36.1665 80.7452 36.1665 80.7452L35.5308 80.9352Z" fill="url(#paint22_linear_3562_3000)"/>
<path d="M25.5025 80.0982L25.1714 81.0893L24.647 81.0211L24.742 80.1094L25.5025 80.0982Z" fill="url(#paint23_linear_3562_3000)"/>
<path d="M25.0245 81.6344C24.7632 81.3418 24.5384 81.3755 24.487 81.1707C24.4466 81.0099 24.5401 80.8085 24.6875 80.7288C24.8947 80.6168 25.154 80.775 25.2126 80.8107C25.6107 81.0536 25.5156 81.4539 25.8891 81.6157C25.9642 81.6482 26.0828 81.6817 26.21 81.7942C26.264 81.842 26.3978 81.9603 26.3697 82.0453C26.3372 82.1436 26.1047 82.1469 25.8838 82.15C25.6186 82.1538 25.486 82.1557 25.3563 82.0798C25.1765 81.9746 25.2261 81.8602 25.0245 81.6344Z" fill="url(#paint24_linear_3562_3000)"/>
<path d="M25.7384 59.597C25.4898 61.566 25.4759 63.2818 25.5546 64.6963C25.6394 66.218 25.7818 66.5007 25.722 67.5347C25.592 69.7847 24.8285 69.9921 24.3112 72.4783C23.7399 75.2235 24.1371 77.5365 24.2971 78.4202C24.437 79.1927 24.6106 79.8258 24.7463 80.2679C24.966 80.5282 25.367 80.5031 25.7889 80.4829C26.3263 77.9958 26.878 75.6623 27.4154 73.1753C28.4831 69.4738 29.5507 65.7724 30.6184 62.071C28.9917 61.2463 27.365 60.4218 25.7384 59.597Z" fill="url(#paint25_linear_3562_3000)"/>
<path opacity="0.3" d="M25.7892 80.4829C26.3266 77.9958 26.8783 75.6623 27.4157 73.1753C28.4833 69.4738 29.551 65.7724 30.6187 62.071C28.992 61.2463 27.3653 60.4218 25.7386 59.597C25.7222 59.7274 25.7094 59.8536 25.6949 59.9819C27.7768 62.4393 27.9925 64.1651 27.7953 65.2893C27.5562 66.6527 26.7038 67.2156 26.5444 69.2213C26.4305 70.6554 26.8183 70.9709 26.621 72.2505C26.367 73.8981 25.5171 74.7156 25.026 75.6147C24.5514 76.4837 24.2321 77.7689 24.5896 79.7218C24.6446 79.9263 24.698 80.1098 24.7466 80.2679C24.9663 80.5282 25.3673 80.5031 25.7892 80.4829Z" fill="url(#paint26_linear_3562_3000)"/>
<path d="M28.5972 61.901C28.6626 62.8402 28.8598 64.2585 29.5164 65.831C30.3966 67.9389 31.3091 68.424 31.7318 70.1947C32.1732 72.0437 31.4829 72.7921 31.4958 74.506C31.5078 76.1111 32.1353 78.3883 34.9972 81.1689C35.4465 81.1151 35.8959 81.0612 36.3453 81.0074C35.9442 79.6315 35.4023 77.4833 35.0834 74.7848C34.9237 73.4331 34.879 72.4434 34.8599 72.0728C34.7441 69.8255 34.3148 66.0111 32.9251 59.1466C31.4825 60.0647 30.0398 60.9828 28.5972 61.901Z" fill="url(#paint27_linear_3562_3000)"/>
<path d="M45.217 42.8372C44.1282 44.9902 43.3729 46.6365 42.6966 47.8764C41.7749 49.5652 40.9993 50.5004 39.7288 50.9383C38.3371 51.4178 36.9038 51.5366 35.9091 52.8588C34.5242 54.6986 34.8535 57.7164 34.9586 58.6813C35.1683 60.5975 35.68 61.1644 35.2472 62.1641C34.6634 63.5126 33.1112 64.0209 32.1132 64.3476C32.0292 64.3748 31.8552 64.4308 31.6125 64.4962C31.537 64.5174 31.4546 64.5386 31.3664 64.5598C31.228 64.5946 31.0753 64.6302 30.9098 64.665C30.8165 64.6845 30.7197 64.7032 30.6196 64.7219C30.5925 64.7261 30.5653 64.7312 30.5381 64.7363C30.4406 64.7533 30.3395 64.7703 30.236 64.7855C30.2122 64.7889 30.1885 64.7923 30.1647 64.7957C29.9678 64.8246 29.7616 64.8483 29.5495 64.8661C29.5283 64.867 29.5071 64.8687 29.4858 64.8712C29.1328 64.8984 28.7636 64.9077 28.3911 64.8891C28.2255 64.8814 28.0584 64.8678 27.8929 64.8466C27.4287 64.7906 26.967 64.6837 26.5334 64.5064C26.5028 64.4936 26.4714 64.48 26.4409 64.4673C25.9622 64.2611 25.5201 63.9649 25.1468 63.555C24.3507 62.6809 24.2175 61.6719 23.9977 60.006C23.878 59.0963 23.8805 58.3555 24.4245 54.0961C24.8506 50.7652 24.9524 50.4113 25.2528 49.9404C26.3959 48.1472 28.5345 47.6083 29.7616 47.3164C33.6586 46.3905 35.7445 47.5268 38.674 47.1314C40.614 46.87 40.8474 45.6488 43.9322 42.4375C44.2233 42.5928 44.9259 42.6819 45.217 42.8372Z" fill="url(#paint28_linear_3562_3000)"/>
<g opacity="0.3">
<path d="M42.6964 47.8765C41.7747 49.5653 40.9991 50.5005 39.7286 50.9384C38.3369 51.4179 36.9036 51.5367 35.9089 52.8589C34.524 54.6987 34.8533 57.7165 34.9585 58.6814C35.1681 60.5976 35.6798 61.1645 35.247 62.1642C34.6632 63.5126 33.111 64.021 32.113 64.3477C32.029 64.3749 31.855 64.4309 31.6123 64.4962C31.5368 64.5166 31.4544 64.5387 31.3662 64.5599C31.2278 64.5947 31.0751 64.6303 30.9096 64.6651C30.8171 64.6838 30.7204 64.7033 30.6194 64.7219C30.5923 64.7262 30.5651 64.7313 30.5379 64.7364C30.4404 64.7533 30.3394 64.7695 30.2359 64.7856C30.2121 64.789 30.1883 64.7924 30.1646 64.7958C29.9677 64.8238 29.7615 64.8476 29.5493 64.8662C29.5281 64.8671 29.5069 64.8688 29.4857 64.8713C29.1326 64.8977 28.7634 64.907 28.3909 64.8891C28.2254 64.8806 28.059 64.8662 27.8927 64.8467C27.4285 64.7899 26.9678 64.6829 26.5333 64.5064C26.5027 64.4937 26.4713 64.4801 26.4408 64.4674C26.1946 64.3605 25.9587 64.2307 25.7363 64.0736C26.0173 63.4838 26.405 62.8923 26.9524 62.3696C28.1168 61.257 28.8314 61.5676 29.5357 60.6909C31.1625 58.6644 28.564 55.4786 29.9965 53.8747C31.1439 52.5898 33.4428 53.9222 34.6912 52.4031C35.5195 51.3958 34.7234 50.548 35.455 49.5093C36.5964 47.8884 39.267 48.911 42.6964 47.8765Z" fill="url(#paint29_linear_3562_3000)"/>
</g>
<defs>
<linearGradient id="paint0_linear_3562_3000" x1="37.5826" y1="66.5933" x2="72.7895" y2="-23.057" gradientUnits="userSpaceOnUse">
<stop stop-color="#375C71"/>
<stop offset="0.9964" stop-color="#00425F"/>
</linearGradient>
<linearGradient id="paint1_linear_3562_3000" x1="52.0913" y1="77.1195" x2="93.7858" y2="-29.0509" gradientUnits="userSpaceOnUse">
<stop stop-color="#375C71"/>
<stop offset="0.9964" stop-color="#00425F"/>
</linearGradient>
<linearGradient id="paint2_linear_3562_3000" x1="59.083" y1="76.4361" x2="95.117" y2="-15.3202" gradientUnits="userSpaceOnUse">
<stop stop-color="#375C71"/>
<stop offset="0.9964" stop-color="#00425F"/>
</linearGradient>
<linearGradient id="paint3_linear_3562_3000" x1="28.9791" y1="68.1255" x2="70.044" y2="-36.4416" gradientUnits="userSpaceOnUse">
<stop stop-color="#375C71"/>
<stop offset="0.9964" stop-color="#00425F"/>
</linearGradient>
<linearGradient id="paint4_linear_3562_3000" x1="29.0908" y1="48.7164" x2="76.8164" y2="48.7164" gradientUnits="userSpaceOnUse">
<stop stop-color="#375C71"/>
<stop offset="0.9964" stop-color="#00425F"/>
</linearGradient>
<linearGradient id="paint5_linear_3562_3000" x1="85.3141" y1="68.7578" x2="75.6419" y2="66.0208" gradientUnits="userSpaceOnUse">
<stop stop-color="#311944"/>
<stop offset="1" stop-color="#A03976"/>
</linearGradient>
<linearGradient id="paint6_linear_3562_3000" x1="85.2887" y1="68.8474" x2="75.6164" y2="66.1103" gradientUnits="userSpaceOnUse">
<stop stop-color="#311944"/>
<stop offset="1" stop-color="#A03976"/>
</linearGradient>
<linearGradient id="paint7_linear_3562_3000" x1="75.3883" y1="62.6454" x2="75.5396" y2="74.8593" gradientUnits="userSpaceOnUse">
<stop stop-color="#00425F"/>
<stop offset="1" stop-color="#43E3E0"/>
</linearGradient>
<linearGradient id="paint8_linear_3562_3000" x1="82.1887" y1="78.6863" x2="63.242" y2="73.3248" gradientUnits="userSpaceOnUse">
<stop stop-color="#311944"/>
<stop offset="1" stop-color="#A03976"/>
</linearGradient>
<linearGradient id="paint9_linear_3562_3000" x1="82.139" y1="78.8619" x2="63.1922" y2="73.5004" gradientUnits="userSpaceOnUse">
<stop stop-color="#311944"/>
<stop offset="1" stop-color="#A03976"/>
</linearGradient>
<linearGradient id="paint10_linear_3562_3000" x1="64.1941" y1="53.7641" x2="62.3271" y2="80.2416" gradientUnits="userSpaceOnUse">
<stop stop-color="#00425F"/>
<stop offset="1" stop-color="#45D5DF"/>
</linearGradient>
<linearGradient id="paint11_linear_3562_3000" x1="12.6643" y1="87.9156" x2="61.7154" y2="17.988" gradientUnits="userSpaceOnUse">
<stop stop-color="#444B8C"/>
<stop offset="0.9964" stop-color="#26264F"/>
</linearGradient>
<linearGradient id="paint12_linear_3562_3000" x1="-0.919493" y1="79.231" x2="48.5965" y2="8.6407" gradientUnits="userSpaceOnUse">
<stop stop-color="#2B586B"/>
<stop offset="0.9964" stop-color="#00425F"/>
</linearGradient>
<linearGradient id="paint13_linear_3562_3000" x1="13.3429" y1="88.0004" x2="62.3941" y2="18.0728" gradientUnits="userSpaceOnUse">
<stop stop-color="#2B586B"/>
<stop offset="0.9964" stop-color="#00425F"/>
</linearGradient>
<linearGradient id="paint14_linear_3562_3000" x1="0.122337" y1="78.7265" x2="49.1736" y2="8.79876" gradientUnits="userSpaceOnUse">
<stop stop-color="#2B586B"/>
<stop offset="0.9964" stop-color="#00425F"/>
</linearGradient>
<linearGradient id="paint15_linear_3562_3000" x1="24.7943" y1="41.9629" x2="28.1746" y2="37.418" gradientUnits="userSpaceOnUse">
<stop stop-color="#AB316D"/>
<stop offset="1" stop-color="#792D3D"/>
</linearGradient>
<linearGradient id="paint16_linear_3562_3000" x1="26.2344" y1="45.8634" x2="20.064" y2="59.6744" gradientUnits="userSpaceOnUse">
<stop stop-color="#FF9085"/>
<stop offset="1" stop-color="#FB6FBB"/>
</linearGradient>
<linearGradient id="paint17_linear_3562_3000" x1="28.6849" y1="45.3576" x2="28.6879" y2="41.8875" gradientUnits="userSpaceOnUse">
<stop stop-color="#444B8C"/>
<stop offset="0.9964" stop-color="#26264F"/>
</linearGradient>
<linearGradient id="paint18_linear_3562_3000" x1="29.2887" y1="40.1923" x2="29.8519" y2="50.3717" gradientUnits="userSpaceOnUse">
<stop stop-color="#AB316D"/>
<stop offset="1" stop-color="#792D3D"/>
</linearGradient>
<linearGradient id="paint19_linear_3562_3000" x1="26.7338" y1="43.7858" x2="30.157" y2="45.7537" gradientUnits="userSpaceOnUse">
<stop stop-color="#AB316D"/>
<stop offset="1" stop-color="#792D3D"/>
</linearGradient>
<linearGradient id="paint20_linear_3562_3000" x1="44.0606" y1="45.5318" x2="44.3368" y2="42.3601" gradientUnits="userSpaceOnUse">
<stop stop-color="#AB316D"/>
<stop offset="1" stop-color="#792D3D"/>
</linearGradient>
<linearGradient id="paint21_linear_3562_3000" x1="37.6979" y1="84.5801" x2="35.7828" y2="78.5861" gradientUnits="userSpaceOnUse">
<stop stop-color="#444B8C"/>
<stop offset="0.9964" stop-color="#26264F"/>
</linearGradient>
<linearGradient id="paint22_linear_3562_3000" x1="36.4157" y1="83.3835" x2="34.3117" y2="73.9413" gradientUnits="userSpaceOnUse">
<stop stop-color="#AB316D"/>
<stop offset="1" stop-color="#792D3D"/>
</linearGradient>
<linearGradient id="paint23_linear_3562_3000" x1="25.1009" y1="82.3245" x2="24.9577" y2="72.6512" gradientUnits="userSpaceOnUse">
<stop stop-color="#AB316D"/>
<stop offset="1" stop-color="#792D3D"/>
</linearGradient>
<linearGradient id="paint24_linear_3562_3000" x1="25.779" y1="82.6804" x2="23.8639" y2="76.6865" gradientUnits="userSpaceOnUse">
<stop stop-color="#444B8C"/>
<stop offset="0.9964" stop-color="#26264F"/>
</linearGradient>
<linearGradient id="paint25_linear_3562_3000" x1="27.8801" y1="62.0934" x2="23.2691" y2="81.5643" gradientUnits="userSpaceOnUse">
<stop stop-color="#444B8C"/>
<stop offset="0.9964" stop-color="#26264F"/>
</linearGradient>
<linearGradient id="paint26_linear_3562_3000" x1="27.8804" y1="62.0934" x2="23.2694" y2="81.5642" gradientUnits="userSpaceOnUse">
<stop stop-color="#444B8C"/>
<stop offset="0.9964" stop-color="#26264F"/>
</linearGradient>
<linearGradient id="paint27_linear_3562_3000" x1="44.5139" y1="70.481" x2="24.793" y2="69.8769" gradientUnits="userSpaceOnUse">
<stop stop-color="#444B8C"/>
<stop offset="0.9964" stop-color="#26264F"/>
</linearGradient>
<linearGradient id="paint28_linear_3562_3000" x1="34.351" y1="50.6897" x2="36.5237" y2="59.5414" gradientUnits="userSpaceOnUse">
<stop stop-color="#FF9085"/>
<stop offset="1" stop-color="#FB6FBB"/>
</linearGradient>
<linearGradient id="paint29_linear_3562_3000" x1="32.6647" y1="53.6138" x2="37.7147" y2="61.2986" gradientUnits="userSpaceOnUse">
<stop stop-color="#FF9085"/>
<stop offset="1" stop-color="#FB6FBB"/>
</linearGradient>
</defs>
</svg>
