<svg xmlns="http://www.w3.org/2000/svg" xmlns:xlink="http://www.w3.org/1999/xlink" width="181.013" height="35.683" viewBox="0 0 181.013 35.683"><defs><clipPath id="clip-path"><rect id="Rectangle_8405" data-name="Rectangle 8405" width="181.013" height="35.683" transform="translate(0 0)" fill="none"></rect></clipPath></defs><g id="Group_42441" data-name="Group 42441" transform="translate(0 0)"><g id="Group_42440" data-name="Group 42440" clip-path="url(#clip-path)"><path id="Path_48889" data-name="Path 48889" d="M12.862,25.866A11.915,11.915,0,0,0,.211,35.683H6.3a5.939,5.939,0,0,1,11.267,0h6.075a11.9,11.9,0,0,0-10.782-9.817" fill="#06d665"></path><path id="Path_48890" data-name="Path 48890" d="M20.786,19.938A11.933,11.933,0,0,0,22.744,6.879l-3.211,1.5a3.123,3.123,0,0,0,.4-5.3,11.934,11.934,0,1,0,.848,16.856M9.195,6.621a5.979,5.979,0,0,1,6.542.977,3.139,3.139,0,0,0,3.645.856L17.148,9.5A5.981,5.981,0,1,1,9.195,6.621" fill="#06d665"></path><path id="Path_48891" data-name="Path 48891" d="M168.666,7.1l3.615,8.777h.736L176.632,7.1h4.381L176.6,17.53v.555l4.411,10.49h-4.381l-3.615-8.837h-.736l-3.615,8.837h-4.381l4.411-10.49V17.53L164.285,7.1Z" fill="#093a51" fill-rule="evenodd"></path><rect id="Rectangle_8404" data-name="Rectangle 8404" width="4.036" height="21.469" transform="translate(153.122 7.104)" fill="#093a51"></rect><path id="Path_48892" data-name="Path 48892" d="M132.193,7.073h13.772v3.871h-9.724v4.921h9.527V19.75h-9.527V28.6H132.19Z" fill="#093a51" fill-rule="evenodd"></path><path id="Path_48893" data-name="Path 48893" d="M103.282,28.556V7.117h6.676l4.171,16.833h.135l4.081-16.833h6.707V28.556h-3.931V11.576h-.135l-4.381,16.98h-4.876l-4.381-16.98h-.12v16.98Z" fill="#093a51" fill-rule="evenodd"></path><path id="Path_48894" data-name="Path 48894" d="M91.041,7.073H83.419L78.287,28.6h4.246l1.051-4.623H90.89L91.94,28.6h4.216ZM84.424,20.128,86.945,9.1H87.5l2.49,11.013Z" fill="#093a51" fill-rule="evenodd"></path><path id="Path_48895" data-name="Path 48895" d="M57.148,7.088H70.726v3.871H61.2V15.88h9.152v3.855H61.2v4.981h9.886v3.87H57.148Z" fill="#093a51" fill-rule="evenodd"></path><path id="Path_48896" data-name="Path 48896" d="M45.774,13.825a2.912,2.912,0,0,0-.976-2.161,3.755,3.755,0,0,0-2.7-.915,4.04,4.04,0,0,0-2.326.6,1.885,1.885,0,0,0-.855,1.635,2.125,2.125,0,0,0,.21.96,1.955,1.955,0,0,0,.721.764,5.719,5.719,0,0,0,1.35.6,21.227,21.227,0,0,0,2.145.51,10.871,10.871,0,0,1,4.966,1.98,5.044,5.044,0,0,1,1.724,4.11v.36a6.273,6.273,0,0,1-.528,2.611,5.768,5.768,0,0,1-1.483,1.99,6.811,6.811,0,0,1-2.356,1.276,11.412,11.412,0,0,1-6.722-.135,7.332,7.332,0,0,1-2.58-1.592,6.706,6.706,0,0,1-1.559-2.4,8.194,8.194,0,0,1-.528-3V20.14h3.9v.69a4.065,4.065,0,0,0,1.08,2.972,4.5,4.5,0,0,0,3.345,1.11,3.763,3.763,0,0,0,2.626-.781,2.388,2.388,0,0,0,.856-1.829,2.6,2.6,0,0,0-.18-.96,1.986,1.986,0,0,0-.615-.825,4.142,4.142,0,0,0-1.215-.659,10.785,10.785,0,0,0-1.95-.511,20.438,20.438,0,0,1-2.868-.691,8.056,8.056,0,0,1-2.264-1.139,4.875,4.875,0,0,1-1.485-1.771,5.8,5.8,0,0,1-.528-2.61v-.18a5.346,5.346,0,0,1,.528-2.356,5.711,5.711,0,0,1,1.441-1.876,7.044,7.044,0,0,1,2.235-1.215,9.7,9.7,0,0,1,2.943-.452,9.453,9.453,0,0,1,3.24.528,6.884,6.884,0,0,1,2.386,1.41,5.741,5.741,0,0,1,1.44,2.038,5.811,5.811,0,0,1,.481,2.415v1.066h-3.9v-.69Z" fill="#093a51" fill-rule="evenodd"></path></g></g></svg>