<svg width="32" height="7" viewBox="0 0 32 7" fill="none" xmlns="http://www.w3.org/2000/svg">
<g clip-path="url(#clip0_2868_45226)">
<mask id="mask0_2868_45226" style="mask-type:luminance" maskUnits="userSpaceOnUse" x="0" y="0" width="32" height="7">
<path d="M31.3757 0.527344H0.875977V6.53974H31.3757V0.527344Z" fill="white"/>
</mask>
<g mask="url(#mask0_2868_45226)">
<path d="M3.04373 4.8857C2.54644 4.84736 2.05267 4.99551 1.65862 5.30129C1.26458 5.60706 0.998458 6.04857 0.912109 6.53982H1.93807C2.00455 6.34066 2.13198 6.16745 2.30233 6.04472C2.47268 5.92198 2.67733 5.85594 2.88729 5.85594C3.09725 5.85594 3.30189 5.92198 3.47224 6.04472C3.6426 6.16745 3.77003 6.34066 3.8365 6.53982H4.86011C4.78364 6.10166 4.56366 5.70136 4.23478 5.40191C3.9059 5.10246 3.48679 4.92087 3.0434 4.8857" fill="#06D665"/>
<path d="M4.37816 3.88675C4.64362 3.59317 4.81652 3.22778 4.87521 2.83636C4.9339 2.44493 4.87576 2.0449 4.70807 1.68638L4.16703 1.93912C4.24674 1.89786 4.31456 1.8369 4.36406 1.76204C4.41356 1.68718 4.44309 1.6009 4.44985 1.51141C4.4566 1.42192 4.44035 1.33218 4.40265 1.25074C4.36495 1.1693 4.30704 1.09885 4.23443 1.0461C3.93944 0.779367 3.57198 0.606102 3.17851 0.548212C2.78505 0.490323 2.38325 0.550409 2.02393 0.720873C1.66462 0.891336 1.36392 1.16452 1.15986 1.50588C0.955807 1.84724 0.857558 2.24145 0.87754 2.63864C0.897523 3.03584 1.03484 3.4182 1.27213 3.73735C1.50941 4.05651 1.83601 4.29814 2.21062 4.43168C2.58523 4.56522 2.99103 4.58468 3.37669 4.48759C3.76236 4.3905 4.11058 4.18123 4.37731 3.88624M2.42514 1.6429C2.60468 1.55884 2.80504 1.52962 3.00112 1.5589C3.1972 1.58818 3.38028 1.67467 3.52743 1.80752C3.60073 1.89435 3.70003 1.95526 3.81065 1.98123C3.92127 2.00721 4.03731 1.99687 4.14159 1.95176L3.76517 2.128C3.84973 2.3085 3.87887 2.51001 3.84889 2.70707C3.81892 2.90412 3.73119 3.08786 3.59679 3.23506C3.46239 3.38225 3.28736 3.48628 3.09383 3.53399C2.90031 3.58171 2.69698 3.57096 2.50956 3.50312C2.32214 3.43527 2.15905 3.31337 2.04091 3.15283C1.92277 2.9923 1.85489 2.80033 1.84586 2.60122C1.83682 2.4021 1.88703 2.20478 1.99014 2.0342C2.09325 1.86362 2.24463 1.72745 2.42514 1.6429Z" fill="#06D665"/>
<path fill-rule="evenodd" clip-rule="evenodd" d="M29.2952 1.72375L29.9043 3.20263H30.0283L30.6374 1.72375H31.3756L30.632 3.48115V3.57467L31.3752 5.34218H30.637L30.0279 3.85319H29.9039L29.2948 5.34218H28.5566L29.2999 3.57467V3.48115L28.557 1.72375H29.2952Z" fill="#093A51"/>
<path d="M27.3558 1.72443H26.6758V5.34184H27.3558V1.72443Z" fill="#093A51"/>
<path fill-rule="evenodd" clip-rule="evenodd" d="M23.1499 1.71918H25.4704V2.37142H23.832V3.20058H25.4372V3.85518H23.832V5.34636H23.1494L23.1499 1.71918Z" fill="#093A51"/>
<path fill-rule="evenodd" clip-rule="evenodd" d="M18.2783 5.33898V1.72662H19.4032L20.106 4.56289H20.1287L20.8164 1.72662H21.9464V5.33898H21.2841V2.47794H21.2613L20.5232 5.33898H19.7016L18.9634 2.47794H18.9432V5.33898H18.2783Z" fill="#093A51"/>
<path fill-rule="evenodd" clip-rule="evenodd" d="M16.2164 1.71918H14.9321L14.0674 5.34636H14.7828L14.9599 4.56741H16.1909L16.3678 5.34636H17.0782L16.2164 1.71918ZM15.1014 3.91887L15.5262 2.06072H15.6197L16.0393 3.91635L15.1014 3.91887Z" fill="#093A51"/>
<path fill-rule="evenodd" clip-rule="evenodd" d="M10.5049 1.72174H12.7927V2.37398H11.1876V3.20315H12.7297V3.85269H11.1876V4.69196H12.8534V5.34404H10.5049V1.72174Z" fill="#093A51"/>
<path fill-rule="evenodd" clip-rule="evenodd" d="M8.58769 2.85688C8.58735 2.78804 8.57253 2.72005 8.5442 2.65732C8.51587 2.59459 8.47465 2.53852 8.42323 2.49276C8.29775 2.38356 8.13431 2.32818 7.9683 2.33859C7.83043 2.33177 7.69375 2.36703 7.57638 2.43968C7.53077 2.46941 7.49357 2.51035 7.46834 2.5586C7.44311 2.60684 7.43071 2.66076 7.43232 2.71517C7.43131 2.77111 7.44343 2.82651 7.4677 2.87693C7.49569 2.93012 7.53771 2.97463 7.58919 3.00566C7.66032 3.04905 7.73678 3.08303 7.81665 3.10675C7.93556 3.14164 8.05619 3.17032 8.17807 3.19269C8.48041 3.23251 8.76802 3.34718 9.01482 3.5263C9.11305 3.61177 9.19033 3.71866 9.2407 3.83874C9.29106 3.95881 9.31317 4.08885 9.3053 4.21882V4.27948C9.30749 4.4308 9.27715 4.58083 9.21634 4.71942C9.15836 4.84799 9.0731 4.96241 8.96646 5.05472C8.84968 5.15196 8.71474 5.22504 8.56949 5.26972C8.19823 5.37605 7.80356 5.36812 7.43687 5.24697C7.27486 5.18882 7.12679 5.09745 7.00215 4.97873C6.88651 4.8644 6.79691 4.72647 6.73947 4.57434C6.67848 4.41289 6.6483 4.24143 6.6505 4.06886V3.92092H7.30763V4.03718C7.30297 4.12857 7.31668 4.21997 7.34793 4.30598C7.37919 4.39199 7.42736 4.47087 7.48961 4.53795C7.56613 4.60544 7.6555 4.6568 7.75234 4.68893C7.84919 4.72107 7.95152 4.73333 8.05322 4.72498C8.21201 4.73827 8.36997 4.69129 8.49569 4.59338C8.54078 4.55567 8.57706 4.50853 8.60198 4.45529C8.6269 4.40205 8.63985 4.34399 8.63992 4.2852C8.64012 4.22985 8.62983 4.17497 8.60959 4.12345C8.58786 4.06881 8.55212 4.02087 8.50597 3.98444C8.44443 3.93622 8.37522 3.89869 8.30124 3.8734C8.19465 3.83451 8.08465 3.80568 7.97268 3.7873C7.80901 3.76018 7.6475 3.72127 7.48944 3.67087C7.35295 3.62743 7.2242 3.56266 7.10797 3.47896C7.00185 3.40098 6.91603 3.29864 6.85775 3.18055C6.79439 3.04285 6.76393 2.89229 6.76879 2.74078V2.71045C6.76778 2.57308 6.79821 2.43729 6.85775 2.31348C6.91574 2.19232 6.99844 2.08465 7.10055 1.99738C7.21262 1.90685 7.34022 1.83748 7.47714 1.79266C7.63753 1.74191 7.80479 1.71622 7.97302 1.7165C8.15879 1.71409 8.34355 1.7442 8.51894 1.80547C8.66767 1.85659 8.80445 1.93742 8.92097 2.04305C9.02604 2.13834 9.10888 2.25557 9.1636 2.38644C9.21937 2.51473 9.24701 2.65348 9.24465 2.79335V2.97297H8.58752V2.85671L8.58769 2.85688Z" fill="#093A51"/>
</g>
</g>
<rect x="1.37598" y="1.0274" width="29.4997" height="5.01239" stroke="black"/>
<defs>
<clipPath id="clip0_2868_45226">
<rect x="0.875977" y="0.527405" width="30.4997" height="6.01239" fill="white"/>
</clipPath>
</defs>
</svg>
