<svg width="156" height="157" viewBox="0 0 156 157" fill="none" xmlns="http://www.w3.org/2000/svg">
<circle cx="77.9351" cy="78.9038" r="76.4351" fill="white" stroke="#2B586B" stroke-width="3"/>
<path d="M48 79C48 74.85 48.788 70.95 50.364 67.3C51.94 63.65 54.077 60.475 56.775 57.775C59.473 55.075 62.648 52.938 66.3 51.364C69.952 49.79 73.852 49.002 78 49C84.35 49 90.013 50.75 94.989 54.25C99.965 57.75 103.577 62.275 105.825 67.825C106.175 68.675 106.188 69.525 105.864 70.375C105.54 71.225 104.952 71.8 104.1 72.1C103.3 72.35 102.538 72.275 101.814 71.875C101.09 71.475 100.577 70.875 100.275 70.075C99.075 67.075 97.35 64.425 95.1 62.125C92.85 59.825 90.15 58.05 87 56.8V58C87 59.65 86.413 61.063 85.239 62.239C84.065 63.415 82.652 64.002 81 64H75V70C75 70.85 74.712 71.563 74.136 72.139C73.56 72.715 72.848 73.002 72 73H66V79H69C69.85 79 70.563 79.288 71.139 79.864C71.715 80.44 72.002 81.152 72 82V88H69L54.6 73.6C54.45 74.5 54.313 75.4 54.189 76.3C54.065 77.2 54.002 78.1 54 79C54 85.1 56.013 90.425 60.039 94.975C64.065 99.525 69.127 102.15 75.225 102.85C76.025 102.95 76.688 103.288 77.214 103.864C77.74 104.44 78.002 105.152 78 106C77.998 106.848 77.71 107.561 77.136 108.139C76.562 108.717 75.875 108.954 75.075 108.85C67.425 108.1 61 104.9 55.8 99.25C50.6 93.6 48 86.85 48 79ZM103.2 105.4L95.7 97.9C94.65 98.5 93.525 99 92.325 99.4C91.125 99.8 89.85 100 88.5 100C84.75 100 81.563 98.688 78.939 96.064C76.315 93.44 75.002 90.252 75 86.5C74.998 82.748 76.311 79.561 78.939 76.939C81.567 74.317 84.754 73.004 88.5 73C92.246 72.996 95.434 74.309 98.064 76.939C100.694 79.569 102.006 82.756 102 86.5C102 87.85 101.8 89.125 101.4 90.325C101 91.525 100.5 92.65 99.9 93.7L107.4 101.2C107.95 101.75 108.225 102.45 108.225 103.3C108.225 104.15 107.95 104.85 107.4 105.4C106.85 105.95 106.15 106.225 105.3 106.225C104.45 106.225 103.75 105.95 103.2 105.4ZM88.5 94C90.6 94 92.375 93.275 93.825 91.825C95.275 90.375 96 88.6 96 86.5C96 84.4 95.275 82.625 93.825 81.175C92.375 79.725 90.6 79 88.5 79C86.4 79 84.625 79.725 83.175 81.175C81.725 82.625 81 84.4 81 86.5C81 88.6 81.725 90.375 83.175 91.825C84.625 93.275 86.4 94 88.5 94Z" fill="#2B586B"/>
</svg>
