<svg width="156" height="157" viewBox="0 0 156 157" fill="none" xmlns="http://www.w3.org/2000/svg">
<circle cx="77.9351" cy="78.9038" r="76.4351" fill="white" stroke="#2B586B" stroke-width="3"/>
<path d="M101.333 85.6663V58.9997C101.333 55.333 98.333 52.333 94.6663 52.333H47.9997C44.333 52.333 41.333 55.333 41.333 58.9997V85.6663C41.333 89.333 44.333 92.333 47.9997 92.333H94.6663C98.333 92.333 101.333 89.333 101.333 85.6663ZM94.6663 85.6663H47.9997V58.9997H94.6663V85.6663ZM71.333 62.333C65.7997 62.333 61.333 66.7997 61.333 72.333C61.333 77.8663 65.7997 82.333 71.333 82.333C76.8663 82.333 81.333 77.8663 81.333 72.333C81.333 66.7997 76.8663 62.333 71.333 62.333ZM114.666 62.333V98.9997C114.666 102.666 111.666 105.666 108 105.666H51.333V98.9997H108V62.333H114.666Z" fill="#2B586B"/>
</svg>
