<svg width="40" height="11" viewBox="0 0 40 11" fill="none" xmlns="http://www.w3.org/2000/svg">
<g clip-path="url(#clip0_2868_45253)">
<path d="M14.6122 2.57463C14.5502 2.48507 14.463 2.41589 14.3618 2.3758C14.257 2.33432 14.1452 2.31338 14.0325 2.31413C13.964 2.31413 13.8987 2.32087 13.8335 2.33806C13.772 2.35183 13.7137 2.37747 13.662 2.41355C13.6106 2.44775 13.5693 2.4924 13.5385 2.54733C13.5058 2.60721 13.4893 2.67457 13.4905 2.74278C13.4905 2.85601 13.5282 2.94161 13.6073 3.00008C13.6861 3.05821 13.7821 3.1096 13.8987 3.15425C14.0229 3.20124 14.1487 3.24362 14.276 3.28129C14.4132 3.32241 14.54 3.37733 14.6568 3.44928C14.7732 3.52227 14.8726 3.61937 14.9483 3.73404C15.027 3.85401 15.0647 4.00835 15.0647 4.20717C15.0647 4.38561 15.0305 4.53995 14.9653 4.67356C14.9038 4.80219 14.8134 4.91491 14.7013 5.00297C14.587 5.09216 14.4565 5.15852 14.3171 5.19842C14.1668 5.24279 14.0108 5.26471 13.8541 5.26346C13.6518 5.2642 13.451 5.22942 13.2608 5.16068C13.0721 5.0921 12.9075 4.97534 12.7705 4.81426L13.2162 4.38561C13.2883 4.4953 13.3808 4.58106 13.4976 4.63936C13.614 4.70103 13.7375 4.73203 13.8679 4.73203C13.9365 4.73203 14.0051 4.72158 14.0735 4.70457C14.1407 4.68661 14.2045 4.65757 14.2622 4.61863C14.3171 4.58106 14.365 4.53304 14.3993 4.47474C14.4337 4.41644 14.4509 4.35123 14.4509 4.27592C14.4509 4.15578 14.4132 4.05974 14.3343 3.99453C14.2555 3.92932 14.1594 3.87456 14.0428 3.82991C13.9187 3.78179 13.7928 3.73834 13.6654 3.69967C13.5332 3.66092 13.4065 3.60561 13.2883 3.53505C13.172 3.46332 13.0726 3.36733 12.9968 3.25366C12.9178 3.13723 12.88 2.97935 12.88 2.7839C12.88 2.61237 12.9144 2.46494 12.9863 2.34143C13.0585 2.21809 13.1476 2.11177 13.2644 2.02938C13.3825 1.94471 13.5149 1.88198 13.6553 1.8442C13.8015 1.80309 13.9526 1.78234 14.1045 1.78253C14.2794 1.78253 14.4474 1.80983 14.6122 1.86139C14.7768 1.91278 14.9242 2.00191 15.0545 2.12205L14.6258 2.57479H14.6122V2.57463ZM16.3889 1.86459H15.799V5.1745H16.3888L16.3889 1.86459ZM20.1922 4.93423C19.7841 5.15377 19.328 5.26009 18.8238 5.26009C18.5666 5.26009 18.3334 5.21898 18.1207 5.13659C17.9081 5.05436 17.7229 4.93776 17.5686 4.78679C17.4142 4.63599 17.2943 4.45418 17.2051 4.24154C17.1192 4.0289 17.0747 3.79571 17.0747 3.53505C17.0747 3.27438 17.1194 3.02737 17.2049 2.81136C17.2859 2.60374 17.4098 2.41557 17.5686 2.2592C17.7229 2.10486 17.9081 1.98827 18.1207 1.90587C18.3334 1.82365 18.5701 1.78253 18.8238 1.78253C19.0776 1.78253 19.3142 1.81337 19.5337 1.87521C19.7545 1.93522 19.9578 2.04685 20.127 2.20091L19.6914 2.63983C19.5851 2.53705 19.4582 2.45803 19.3074 2.39973C19.1536 2.34334 18.9911 2.31437 18.8272 2.31413C18.6592 2.31413 18.5013 2.34497 18.3608 2.40681C18.2237 2.46831 18.1035 2.5507 18.0041 2.66039C17.9026 2.76983 17.8234 2.89804 17.7709 3.03782C17.7153 3.18574 17.6874 3.34264 17.6885 3.50067C17.6885 3.67911 17.716 3.84019 17.7709 3.99099C17.8259 4.14196 17.9012 4.26901 18.0041 4.3787C18.1046 4.48751 18.2259 4.57501 18.3608 4.63599C18.498 4.69766 18.6557 4.72866 18.8272 4.72866C18.9782 4.72866 19.1187 4.71484 19.2491 4.68738C19.373 4.66282 19.4922 4.6188 19.6023 4.55697V3.77515H18.9233V3.24355H20.1888V4.93423H20.1922ZM21.0289 1.86459H21.8109L23.4158 4.32377H23.4227V1.86459H24.0126V5.1745H23.265L21.6291 2.63646H21.6188V5.1745H21.0289V1.86459ZM25.9643 1.86459H26.4754L27.902 5.17433H27.2299L26.9212 4.41627H25.4841L25.1859 5.17416H24.5272L25.9677 1.86459H25.9643ZM26.7119 3.91214L26.2009 2.56418L25.6831 3.91214H26.7119ZM28.6563 2.39973H27.6412V1.86459H30.2614V2.39973H29.2462V5.17416H28.6563V2.39973ZM33.4546 3.96016C33.4546 4.15898 33.4202 4.34096 33.3516 4.50204C33.2876 4.65633 33.1918 4.79539 33.0704 4.91013C32.9484 5.02398 32.8051 5.11256 32.6487 5.17079C32.4874 5.23263 32.3091 5.26346 32.1204 5.26346C31.9319 5.26346 31.7534 5.23263 31.5922 5.17079C31.4358 5.11256 31.2925 5.02398 31.1705 4.91013C31.0491 4.79539 30.9532 4.65633 30.8892 4.50204C30.8207 4.34079 30.7897 4.16252 30.7897 3.96016V1.86459H31.3796V3.9396C31.3796 4.02183 31.3934 4.10422 31.4173 4.19335C31.4414 4.28266 31.4825 4.36488 31.5408 4.44037C31.5991 4.51568 31.6746 4.57752 31.7706 4.62554C31.8667 4.67356 31.9833 4.69749 32.1238 4.69749C32.2645 4.69749 32.3811 4.67356 32.4771 4.62554C32.5669 4.58213 32.6455 4.51873 32.707 4.4402C32.7642 4.367 32.8061 4.28306 32.8303 4.19335C32.8539 4.11078 32.8666 4.02547 32.868 3.9396V1.86459H33.4579V3.96016H33.4546ZM34.3186 1.86459H35.4676C35.6255 1.86459 35.7796 1.87841 35.9272 1.90924C36.0747 1.94008 36.2049 1.9881 36.3217 2.06021C36.4371 2.13163 36.5317 2.23216 36.596 2.35171C36.6646 2.47168 36.6988 2.62602 36.6988 2.81473C36.6988 3.05467 36.6337 3.25703 36.4999 3.41828C36.3662 3.57953 36.1776 3.67894 35.9306 3.71314L36.8086 5.1777H36.0986L35.3304 3.77498H34.9018V5.1777H34.3119V1.86459H34.3186ZM35.3648 3.26731C35.447 3.26731 35.5328 3.26394 35.6185 3.2572C35.6985 3.25025 35.7771 3.23175 35.8517 3.20227C35.9201 3.17261 35.9793 3.12527 36.0233 3.06511C36.0678 3.00328 36.0883 2.92105 36.0883 2.81119C36.0883 2.71515 36.0678 2.6363 36.0266 2.578C35.9868 2.5203 35.9324 2.47415 35.8689 2.44421C35.8037 2.41338 35.7318 2.39619 35.6528 2.38591C35.5754 2.37634 35.4975 2.37178 35.4196 2.37226H34.9085V3.27085H35.3682L35.3648 3.26731ZM37.4051 1.86459H39.5967V2.39973H37.9916V3.21255H39.5109V3.74415H37.9916V4.64256H39.6789V5.17416H37.4051V1.86476V1.86459ZM12.9899 6.40906H14.2794C14.4029 6.40906 14.5264 6.42271 14.6497 6.45354C14.7658 6.48241 14.8761 6.53115 14.9756 6.5976C15.0716 6.66618 15.1471 6.75195 15.2088 6.85826C15.2671 6.96458 15.2981 7.09146 15.2981 7.24243C15.2981 7.42761 15.2465 7.58195 15.1402 7.70546C15.0341 7.82542 14.8967 7.91456 14.7252 7.96612V7.97623C14.828 7.99004 14.924 8.01751 15.0133 8.06216C15.1861 8.14791 15.3198 8.29624 15.3872 8.47699C15.425 8.56967 15.442 8.66908 15.442 8.7754C15.442 8.9572 15.4078 9.10817 15.3358 9.22814C15.266 9.34589 15.1697 9.4457 15.0545 9.51964C14.9311 9.59547 14.7953 9.64887 14.6533 9.67735C14.5023 9.70835 14.348 9.72537 14.1936 9.72537H13.0002V6.4158L12.9899 6.40906ZM13.5796 7.75685H14.1183C14.3138 7.75685 14.4612 7.7191 14.5606 7.64362C14.66 7.56813 14.708 7.46535 14.708 7.34185C14.708 7.19778 14.6566 7.09146 14.5572 7.02288C14.4544 6.95431 14.2932 6.91673 14.0703 6.91673H13.5833V7.75685H13.5796ZM13.5796 9.21433H14.1217C14.1972 9.21433 14.276 9.21096 14.3618 9.20085C14.4437 9.19211 14.5236 9.17003 14.5983 9.13547C14.6693 9.10219 14.7307 9.05147 14.7768 8.98804C14.8248 8.92283 14.8453 8.83723 14.8453 8.72738C14.8453 8.55248 14.7871 8.43251 14.6738 8.36393C14.5606 8.29536 14.3823 8.26098 14.1422 8.26098H13.5762V9.21449L13.5796 9.21433ZM17.229 6.40906H17.7401L19.1669 9.71863H18.4946L18.1859 8.96057H16.7524L16.4541 9.71863H15.7955L17.2361 6.40906H17.229ZM17.9768 8.45644L17.4658 7.10848L16.9478 8.45644H17.9768ZM19.6744 6.40906H20.4564L22.0579 8.86807H22.0682V6.40906H22.6581V9.722H21.9105L20.2746 7.1806H20.2643V9.72217H19.6744V6.40906ZM23.5365 6.40906H24.1264V7.81178H24.1537L25.5255 6.40906H26.3178L24.771 7.93865L26.4208 9.722H25.5941L24.1572 8.09299H24.1264V9.722H23.5365V6.40906Z" fill="#6C1D45"/>
<path d="M4.59766 4.80851C4.59766 4.99722 4.752 5.15493 4.94054 5.15493H5.56145C5.81699 5.15516 6.062 5.25677 6.2427 5.43747C6.4234 5.61816 6.52501 5.86318 6.52523 6.11872C6.52497 6.37424 6.42333 6.61921 6.24264 6.79987C6.06195 6.98053 5.81696 7.08212 5.56145 7.08234V7.77166C6.47368 7.77166 7.21438 7.03095 7.21438 6.11872C7.21438 5.20632 6.47368 4.46545 5.56145 4.46545H4.94071C4.74863 4.46545 4.59766 4.6198 4.59766 4.81188" fill="#B9975B"/>
<path d="M4.94492 6.46149H5.56566C5.61119 6.46162 5.6563 6.45275 5.69839 6.43539C5.74048 6.41803 5.77872 6.39252 5.81092 6.36032C5.84311 6.32813 5.86862 6.28988 5.88599 6.24779C5.90335 6.2057 5.91222 6.1606 5.91208 6.11506C5.91208 5.92298 5.75774 5.77201 5.56566 5.77201H4.94492C4.68938 5.77179 4.44437 5.67017 4.26367 5.48948C4.08297 5.30878 3.98136 5.06376 3.98114 4.80822C3.9814 4.55271 4.08304 4.30773 4.26373 4.12707C4.44442 3.94641 4.68941 3.84482 4.94492 3.8446V3.15546C4.03269 3.15546 3.29199 3.89616 3.29199 4.80839C3.29199 5.72062 4.03269 6.46149 4.94492 6.46149Z" fill="#B9975B"/>
<path d="M9.1455 6.11501C9.1455 8.09381 7.54043 9.69889 5.56162 9.69889H4.94089C2.96192 9.69889 1.35701 8.09381 1.35701 6.11501V5.77196H0.670898V6.11501C0.670898 8.47461 2.58466 10.3882 4.94426 10.3882H5.56499C7.92459 10.3882 9.83835 8.47461 9.83835 6.11501V5.77196H9.14904V6.11501H9.1455ZM5.56499 0.534973H4.94426C2.58466 0.534973 0.670898 2.44874 0.670898 4.80833V5.15476H1.36038V4.80833C1.36038 2.82936 2.96546 1.22445 4.94426 1.22445H5.56499C7.54396 1.22445 9.14887 2.82936 9.14887 4.80833V5.15476H9.83835V4.80833C9.83498 2.44874 7.92459 0.534973 5.56499 0.534973Z" fill="#B9975B"/>
<path d="M1.98145 4.80836V6.11858C1.98145 7.75449 3.30868 9.08172 4.94459 9.08172H5.56533C7.20141 9.08172 8.52847 7.75449 8.52847 6.11858V4.80836C8.52847 3.17245 7.20124 1.84521 5.56533 1.84521H4.94459C3.30851 1.84521 1.98145 3.17245 1.98145 4.80836ZM2.67076 4.80836C2.67076 3.55308 3.68931 2.53453 4.94459 2.53453H5.56533C6.56686 2.53453 7.42079 3.18273 7.72256 4.08468C7.4459 3.78992 7.11171 3.55506 6.74066 3.39462C6.3696 3.23418 5.96958 3.15157 5.56533 3.15189V3.8412C6.82061 3.8412 7.83916 4.85992 7.83916 6.11504C7.83916 7.37032 6.82061 8.38887 5.56533 8.38887H4.94459C3.94306 8.38887 3.08913 7.7373 2.78736 6.83535C3.06402 7.1301 3.39821 7.36496 3.76926 7.52541C4.14031 7.68585 4.54034 7.76846 4.94459 7.76814V7.07899C3.68931 7.07899 2.67076 6.06028 2.67076 4.80499V4.80836Z" fill="#B9975B"/>
</g>
<defs>
<clipPath id="clip0_2868_45253">
<rect width="39.2592" height="9.94118" fill="white" transform="translate(0.519531 0.505493)"/>
</clipPath>
</defs>
</svg>
