<svg width="97" height="97" viewBox="0 0 97 97" fill="none" xmlns="http://www.w3.org/2000/svg">
<rect x="1.11504" y="1.11504" width="94.4068" height="94.4068" rx="13.7522" stroke="#375C71" stroke-width="2.23008"/>
<path d="M48.0003 79.2779C64.2211 79.2779 77.3707 71.686 77.3707 62.3209C77.3707 52.9559 64.2211 45.364 48.0003 45.364C31.7795 45.364 18.6299 52.9559 18.6299 62.3209C18.6299 71.686 31.7795 79.2779 48.0003 79.2779Z" fill="#F5F5F5"/>
<path d="M27.6165 65.6848C29.4122 65.6848 30.8678 64.8444 30.8678 63.8078C30.8678 62.7711 29.4122 61.9307 27.6165 61.9307C25.8209 61.9307 24.3652 62.7711 24.3652 63.8078C24.3652 64.8444 25.8209 65.6848 27.6165 65.6848Z" fill="#E6E6E6"/>
<path d="M52.6543 53.7458L31.2868 66.0824C30.9324 66.287 30.9324 66.7985 31.2868 67.0031L43.8446 74.2535C44.4872 74.6244 45.2788 74.6244 45.9214 74.2535L67.2889 61.9169C67.6433 61.7123 67.6433 61.2008 67.2889 60.9962L54.7311 53.7458C54.0885 53.3748 53.2969 53.3748 52.6543 53.7458Z" fill="#E6E6E6"/>
<path d="M46.2385 53.8661L37.6837 58.8052C36.9309 59.2399 36.9309 60.3265 37.6837 60.761L41.9916 63.2482C42.5714 63.5829 43.2858 63.5829 43.8657 63.2482L52.4205 58.309C53.1733 57.8743 53.1733 56.7877 52.4205 56.3531L48.1127 53.866C47.5329 53.5314 46.8184 53.5314 46.2385 53.8661Z" fill="#E6E6E6"/>
<path d="M27.7879 58.95C27.7879 58.95 25.7787 56.9881 26.9222 53.7015C27.5631 51.8595 29.6863 50.507 30.8957 50.3798C30.8957 50.3798 30.2397 51.1357 29.9508 51.9731L28.428 52.9856L29.8278 52.5472L29.5298 53.7455C29.5298 53.7455 28.2277 54.5329 28.0349 54.7046L29.4384 54.3378C29.4382 54.3378 29.3306 57.7303 27.7879 58.95Z" fill="#00425F"/>
<path opacity="0.4" d="M27.7879 58.95C27.7879 58.95 25.7787 56.9881 26.9222 53.7015C27.5631 51.8595 29.6863 50.507 30.8957 50.3798C30.8957 50.3798 30.2397 51.1357 29.9508 51.9731L28.428 52.9856L29.8278 52.5472L29.5298 53.7455C29.5298 53.7455 28.2277 54.5329 28.0349 54.7046L29.4384 54.3378C29.4382 54.3378 29.3306 57.7303 27.7879 58.95Z" fill="black"/>
<path d="M27.7876 58.9502C27.7876 58.9502 26.7473 54.8445 28.2865 52.4503C28.2865 52.4503 26.4822 54.5629 27.7876 58.9502Z" fill="white"/>
<path d="M30.0871 59.5059L27.6289 59.4751V59.4748L27.6164 59.4749L27.6038 59.4748V59.4751L25.1456 59.5059C25.1456 59.5059 25.1183 62.5343 26.051 63.7665C26.3085 64.0941 26.9124 64.3241 27.6164 64.3241C28.3215 64.3241 28.9261 64.0933 29.1829 63.7648C30.1143 62.5315 30.0871 59.5059 30.0871 59.5059Z" fill="#2B586B"/>
<path d="M27.6164 60.8324C28.9811 60.8324 30.0873 60.2386 30.0873 59.506C30.0873 58.7734 28.9811 58.1795 27.6164 58.1795C26.2518 58.1795 25.1455 58.7734 25.1455 59.506C25.1455 60.2386 26.2518 60.8324 27.6164 60.8324Z" fill="#375C71"/>
<path d="M27.6164 59.1542C28.4665 59.1542 29.1864 59.4269 29.44 59.8044C29.5031 59.7104 29.5384 59.6103 29.5384 59.5059C29.5384 58.982 28.6779 58.5573 27.6164 58.5573C26.5548 58.5573 25.6943 58.982 25.6943 59.5059C25.6943 59.6103 25.7297 59.7104 25.7928 59.8044C26.0464 59.4269 26.7663 59.1542 27.6164 59.1542Z" fill="#263238"/>
<path d="M27.6165 59.1542C26.7665 59.1542 26.0465 59.4269 25.793 59.8045C26.0465 60.1821 26.7665 60.4547 27.6165 60.4547C28.4666 60.4547 29.1866 60.182 29.4401 59.8045C29.1866 59.4269 28.4666 59.1542 27.6165 59.1542Z" fill="#E0E0E0"/>
<path d="M27.6465 59.9682C27.6465 59.9682 26.6942 59.9312 25.8776 58.6665C25.5407 58.145 25.3783 57.8709 25.3783 57.8709L26.7051 57.7721L25.2187 57.4005L24.5164 56.326L25.7507 56.2344C25.7507 56.2344 24.8313 55.9123 24.1749 55.9082C24.1749 55.9082 23.0366 53.8974 22.7036 53.6108C22.7036 53.6108 25.329 53.6324 27.2002 55.845C29.0714 58.0576 27.9241 60.0248 27.6465 59.9682Z" fill="#00425F"/>
<path d="M27.6465 59.9683C27.6465 59.9683 28.2421 56.3812 24.4414 54.2234C24.4414 54.2234 28.386 56.1181 27.6465 59.9683Z" fill="white"/>
<path d="M27.6468 59.9681C27.6468 59.9681 28.5094 60.0244 29.3653 58.9603C29.7184 58.5214 29.8907 58.2896 29.8907 58.2896L28.703 58.0755L30.0789 57.8803L30.8138 56.977L29.7087 56.7781C29.7087 56.7781 30.5685 56.5741 31.1611 56.6321C31.1611 56.6321 32.3774 54.9251 32.7048 54.6979C32.7048 54.6979 30.3341 54.4703 28.4375 56.2902C26.5409 58.1101 27.391 59.9931 27.6468 59.9681Z" fill="#00425F"/>
<path opacity="0.2" d="M27.6468 59.9681C27.6468 59.9681 28.5094 60.0244 29.3653 58.9603C29.7184 58.5214 29.8907 58.2896 29.8907 58.2896L28.703 58.0755L30.0789 57.8803L30.8138 56.977L29.7087 56.7781C29.7087 56.7781 30.5685 56.5741 31.1611 56.6321C31.1611 56.6321 32.3774 54.9251 32.7048 54.6979C32.7048 54.6979 30.3341 54.4703 28.4375 56.2902C26.5409 58.1101 27.391 59.9931 27.6468 59.9681Z" fill="black"/>
<path d="M27.6471 59.9682C27.6471 59.9682 27.4475 56.6757 31.0797 55.0869C31.0797 55.0869 27.3424 56.4249 27.6471 59.9682Z" fill="white"/>
<path d="M32.0156 30.7601V37.3178L26.3364 40.5967V34.039L32.0156 30.7601Z" fill="#FAFAFA"/>
<path d="M31.4005 31.1153V36.963L26.3362 39.8869V34.0392L31.4005 31.1153ZM31.708 30.5828L26.0288 33.8616V40.4194L26.3362 40.5969L32.0154 37.3181V30.7603L31.708 30.5828Z" fill="#E0E0E0"/>
<path d="M31.7082 31.2926V37.1403L26.6439 40.0642V34.2165L31.7082 31.2926ZM32.0156 30.7601L26.3364 34.039V40.5967L32.0156 37.3178V30.7601Z" fill="#EBEBEB"/>
<path d="M31.1821 35.8179L26.8857 38.2985L28.1551 34.996L29.0339 36.0398L29.9326 34.7601L31.1821 35.8179Z" fill="#E0E0E0"/>
<path d="M29.6915 33.758C29.6915 34.0078 29.5161 34.3118 29.2996 34.4367C29.0831 34.5617 28.9077 34.4603 28.9077 34.2105C28.9077 33.9606 29.0831 33.6566 29.2996 33.5317C29.5161 33.4067 29.6915 33.5079 29.6915 33.758Z" fill="#E0E0E0"/>
<path d="M33.9105 22.5959V27.8201L29.3862 30.4322V25.208L33.9105 22.5959Z" fill="#FAFAFA"/>
<path d="M33.4206 22.8787V27.5374L29.3861 29.8667V25.2081L33.4206 22.8787ZM33.6654 22.4546L29.1411 25.0666V30.2908L29.386 30.4321L33.9103 27.82V22.596L33.6654 22.4546Z" fill="#E0E0E0"/>
<path d="M33.6655 23.02V27.6787L29.6311 30.008V25.3494L33.6655 23.02ZM33.9105 22.5959L29.3862 25.208V30.4322L33.9105 27.8201V22.5959Z" fill="#EBEBEB"/>
<path d="M33.2464 26.6252L29.8237 28.6012L30.835 25.9703L31.5351 26.802L32.2511 25.7825L33.2464 26.6252Z" fill="#E0E0E0"/>
<path d="M32.0589 24.9841C32.0589 25.1831 31.9191 25.4252 31.7468 25.5249C31.5744 25.6244 31.4346 25.5437 31.4346 25.3445C31.4346 25.1454 31.5744 24.9034 31.7468 24.8037C31.9191 24.7042 32.0589 24.7849 32.0589 24.9841Z" fill="#E0E0E0"/>
<path d="M43.5317 52.795L45.3681 64.0004C45.3958 64.1693 45.5418 64.2934 45.713 64.2934C45.9215 64.2934 46.0836 64.1122 46.0605 63.9052L44.7721 52.3452L43.5317 52.795Z" fill="#263238"/>
<path d="M49.8706 49.0263L51.707 60.2317C51.7347 60.4006 51.8807 60.5247 52.0519 60.5247C52.2603 60.5247 52.4224 60.3436 52.3993 60.1365L51.111 48.5765L49.8706 49.0263Z" fill="#263238"/>
<path d="M40.7127 50.1748L38.9006 59.8311C38.875 59.9708 38.7541 60.0712 38.6112 60.0712C38.4323 60.0712 38.2944 59.9111 38.32 59.734L39.6586 50.7844L40.7127 50.1748Z" fill="#263238"/>
<path d="M47.1233 46.5726L45.3215 56.1692C45.2961 56.3089 45.175 56.4093 45.0321 56.4093C44.8532 56.4093 44.7153 56.2492 44.7409 56.0722L46.0692 47.1806L47.1233 46.5726Z" fill="#263238"/>
<path d="M46.6006 45.8422C45.755 45.4652 45.1755 44.6681 45.0839 43.7467C44.7916 40.8065 43.7562 34.7475 40.247 36.7644C35.9157 39.254 37.4664 46.4832 38.0962 48.8014C38.2382 49.3244 38.5104 49.8013 38.8922 50.1859C39.6747 50.9742 41.2947 52.3316 44.0498 53.4873C44.3877 53.629 44.7643 53.6513 45.1168 53.5509C46.4856 53.1609 50.0617 51.9634 51.8447 49.6835C52.0555 49.414 52.0097 49.0249 51.7418 48.8119C51.0195 48.2377 49.3878 47.0847 46.6006 45.8422Z" fill="#00425F"/>
<path opacity="0.5" d="M46.6006 45.8422C45.755 45.4652 45.1755 44.6681 45.0839 43.7467C44.7916 40.8065 43.7562 34.7475 40.247 36.7644C35.9157 39.254 37.4664 46.4832 38.0962 48.8014C38.2382 49.3244 38.5104 49.8013 38.8922 50.1859C39.6747 50.9742 41.2947 52.3316 44.0498 53.4873C44.3877 53.629 44.7643 53.6513 45.1168 53.5509C46.4856 53.1609 50.0617 51.9634 51.8447 49.6835C52.0555 49.414 52.0097 49.0249 51.7418 48.8119C51.0195 48.2377 49.3878 47.0847 46.6006 45.8422Z" fill="black"/>
<path d="M51.9736 49.2684C51.9809 49.4129 51.9408 49.5606 51.8447 49.6835C51.7495 49.8052 51.6483 49.9231 51.5434 50.0387L51.5433 50.0389C51.486 50.1021 51.4273 50.1643 51.3675 50.2256C51.3663 50.2268 51.3651 50.2281 51.3639 50.2293C51.3045 50.2901 51.2441 50.3498 51.1824 50.4087C51.1806 50.4104 51.1789 50.4122 51.177 50.4139C51.1154 50.4727 51.0525 50.5307 50.9888 50.5877C50.9872 50.5892 50.9856 50.5906 50.984 50.5919C50.9197 50.6495 50.8544 50.706 50.7881 50.7618C50.7873 50.7625 50.7864 50.7633 50.7856 50.7639C49.7745 51.6131 48.5474 52.2591 47.4503 52.7255C47.4488 52.7261 47.4475 52.7266 47.446 52.7273C47.3777 52.7563 47.3101 52.7846 47.2429 52.8122C47.2359 52.8151 47.2288 52.818 47.2218 52.8209C47.1588 52.8466 47.0965 52.8718 47.0347 52.8964C47.0239 52.9007 47.0129 52.9051 47.0021 52.9093C46.9434 52.9326 46.8853 52.9553 46.8277 52.9774C46.8144 52.9826 46.8011 52.9877 46.7877 52.9928C46.733 53.0137 46.6787 53.0342 46.6251 53.0541C46.6093 53.0599 46.5937 53.0659 46.578 53.0716C46.5274 53.0903 46.4774 53.1085 46.428 53.1263C46.4098 53.1329 46.3917 53.1394 46.3737 53.1459C46.3269 53.1626 46.2806 53.179 46.2351 53.195C46.2157 53.2017 46.1968 53.2083 46.1776 53.2149C46.1343 53.23 46.0914 53.2447 46.0493 53.259C46.0286 53.266 46.0084 53.2727 45.988 53.2796C45.9486 53.2928 45.9096 53.3059 45.8714 53.3184C45.849 53.3258 45.8273 53.3328 45.8053 53.3399C45.7702 53.3513 45.7352 53.3627 45.7013 53.3736C45.6772 53.3812 45.6541 53.3885 45.6308 53.3959C45.6004 53.4055 45.5698 53.4152 45.5403 53.4243C45.5143 53.4323 45.4895 53.4398 45.4643 53.4476C45.4388 53.4554 45.4128 53.4635 45.3883 53.4709C45.3562 53.4805 45.3258 53.4895 45.2954 53.4986C45.2798 53.5032 45.2633 53.5082 45.2481 53.5127C45.2024 53.5262 45.1583 53.5388 45.1166 53.5507C44.7642 53.6512 44.3876 53.6289 44.0497 53.4871C41.2946 52.3314 39.6745 50.9741 38.892 50.1858C38.5103 49.8011 38.2381 49.3242 38.0961 48.8012C37.4663 46.483 35.9156 39.2538 40.2469 36.7643C40.3237 36.7202 40.3988 36.6812 40.4733 36.6447C40.4895 36.6368 40.5057 36.6287 40.5218 36.6211C40.5951 36.5865 40.6674 36.5548 40.7385 36.5275C40.7454 36.5248 40.7523 36.5226 40.7592 36.5201C40.8273 36.4943 40.8942 36.4723 40.9603 36.453C40.9705 36.4501 40.9808 36.4468 40.9908 36.444C41.062 36.4242 41.1319 36.4081 41.2006 36.3956C41.2065 36.3945 41.2123 36.3938 41.2181 36.3927C41.3616 36.3679 41.5 36.3584 41.6333 36.3635C41.6359 36.3637 41.6384 36.3638 41.6411 36.3639C41.7774 36.3697 41.9086 36.3903 42.0347 36.4249C41.3427 36.1192 40.4981 36.1331 39.6605 36.6145C35.3292 39.104 36.8801 46.3332 37.5097 48.6514L37.6163 49.0496C37.8313 49.8539 38.3066 50.5643 38.9681 51.0699L40.0919 51.929V51.9284C41.0019 52.6283 42.2929 53.4446 44.045 54.18C44.384 54.3223 44.7617 54.3463 45.1153 54.2456C46.4834 53.8559 50.0608 52.6584 51.8443 50.378C51.9237 50.2763 51.9647 50.1579 51.9724 50.0385H51.9752V49.2664L51.9736 49.2684Z" fill="#00425F"/>
<path opacity="0.6" d="M51.9736 49.2684C51.9809 49.4129 51.9408 49.5606 51.8447 49.6835C51.7495 49.8052 51.6483 49.9231 51.5434 50.0387L51.5433 50.0389C51.486 50.1021 51.4273 50.1643 51.3675 50.2256C51.3663 50.2268 51.3651 50.2281 51.3639 50.2293C51.3045 50.2901 51.2441 50.3498 51.1824 50.4087C51.1806 50.4104 51.1789 50.4122 51.177 50.4139C51.1154 50.4727 51.0525 50.5307 50.9888 50.5877C50.9872 50.5892 50.9856 50.5906 50.984 50.5919C50.9197 50.6495 50.8544 50.706 50.7881 50.7618C50.7873 50.7625 50.7864 50.7633 50.7856 50.7639C49.7745 51.6131 48.5474 52.2591 47.4503 52.7255C47.4488 52.7261 47.4475 52.7266 47.446 52.7273C47.3777 52.7563 47.3101 52.7846 47.2429 52.8122C47.2359 52.8151 47.2288 52.818 47.2218 52.8209C47.1588 52.8466 47.0965 52.8718 47.0347 52.8964C47.0239 52.9007 47.0129 52.9051 47.0021 52.9093C46.9434 52.9326 46.8853 52.9553 46.8277 52.9774C46.8144 52.9826 46.8011 52.9877 46.7877 52.9928C46.733 53.0137 46.6787 53.0342 46.6251 53.0541C46.6093 53.0599 46.5937 53.0659 46.578 53.0716C46.5274 53.0903 46.4774 53.1085 46.428 53.1263C46.4098 53.1329 46.3917 53.1394 46.3737 53.1459C46.3269 53.1626 46.2806 53.179 46.2351 53.195C46.2157 53.2017 46.1968 53.2083 46.1776 53.2149C46.1343 53.23 46.0914 53.2447 46.0493 53.259C46.0286 53.266 46.0084 53.2727 45.988 53.2796C45.9486 53.2928 45.9096 53.3059 45.8714 53.3184C45.849 53.3258 45.8273 53.3328 45.8053 53.3399C45.7702 53.3513 45.7352 53.3627 45.7013 53.3736C45.6772 53.3812 45.6541 53.3885 45.6308 53.3959C45.6004 53.4055 45.5698 53.4152 45.5403 53.4243C45.5143 53.4323 45.4895 53.4398 45.4643 53.4476C45.4388 53.4554 45.4128 53.4635 45.3883 53.4709C45.3562 53.4805 45.3258 53.4895 45.2954 53.4986C45.2798 53.5032 45.2633 53.5082 45.2481 53.5127C45.2024 53.5262 45.1583 53.5388 45.1166 53.5507C44.7642 53.6512 44.3876 53.6289 44.0497 53.4871C41.2946 52.3314 39.6745 50.9741 38.892 50.1858C38.5103 49.8011 38.2381 49.3242 38.0961 48.8012C37.4663 46.483 35.9156 39.2538 40.2469 36.7643C40.3237 36.7202 40.3988 36.6812 40.4733 36.6447C40.4895 36.6368 40.5057 36.6287 40.5218 36.6211C40.5951 36.5865 40.6674 36.5548 40.7385 36.5275C40.7454 36.5248 40.7523 36.5226 40.7592 36.5201C40.8273 36.4943 40.8942 36.4723 40.9603 36.453C40.9705 36.4501 40.9808 36.4468 40.9908 36.444C41.062 36.4242 41.1319 36.4081 41.2006 36.3956C41.2065 36.3945 41.2123 36.3938 41.2181 36.3927C41.3616 36.3679 41.5 36.3584 41.6333 36.3635C41.6359 36.3637 41.6384 36.3638 41.6411 36.3639C41.7774 36.3697 41.9086 36.3903 42.0347 36.4249C41.3427 36.1192 40.4981 36.1331 39.6605 36.6145C35.3292 39.104 36.8801 46.3332 37.5097 48.6514L37.6163 49.0496C37.8313 49.8539 38.3066 50.5643 38.9681 51.0699L40.0919 51.929V51.9284C41.0019 52.6283 42.2929 53.4446 44.045 54.18C44.384 54.3223 44.7617 54.3463 45.1153 54.2456C46.4834 53.8559 50.0608 52.6584 51.8443 50.378C51.9237 50.2763 51.9647 50.1579 51.9724 50.0385H51.9752V49.2664L51.9736 49.2684Z" fill="black"/>
<path d="M54.3636 57.5406C54.0673 55.6552 53.689 52.6401 53.472 50.8573C53.4577 50.7401 53.4381 50.6242 53.413 50.5099C53.1956 49.5147 52.5438 48.6686 51.6685 48.1476L47.2257 45.5027L44.2094 43.9163C44.2094 43.9163 43.4066 46.2423 44.3393 47.6643C45.1156 48.8478 48.5422 50.3157 49.5604 50.81C50.5787 51.3042 50.6007 51.439 50.5795 52.0999C50.5582 52.7608 50.5576 53.6029 51.8093 56.2409C52.169 56.9988 52.4197 57.5659 52.5946 58.0003C53.0307 58.0382 53.6782 57.9844 54.3636 57.5406Z" fill="#00425F"/>
<path opacity="0.7" d="M54.364 57.5408C54.0677 55.6554 53.6894 52.6403 53.4723 50.8575C53.451 50.6818 53.4173 50.5087 53.372 50.3396C53.1248 49.4164 52.4975 48.6411 51.6763 48.1521L47.2262 45.5028L44.2099 43.9164C44.2099 43.9164 43.4071 46.2424 44.3398 47.6644C45.1161 48.8479 48.5427 50.3157 49.5609 50.8101C50.5792 51.3043 50.6012 51.4391 50.58 52.1C50.5587 52.7609 50.558 53.6029 51.8098 56.241C52.1695 56.9989 52.4202 57.566 52.5951 58.0004C53.0311 58.0384 53.6785 57.9845 54.364 57.5408Z" fill="black"/>
<path d="M52.9894 59.5377C52.9874 59.6165 53.0055 59.6934 53.0431 59.7627C53.126 59.915 53.3154 60.2006 53.7114 60.558C54.3099 61.0977 56.294 63.2102 56.9916 61.8988C56.9916 61.8988 54.942 59.9356 54.6703 59.1281C54.5931 58.8987 54.4852 58.3142 54.3637 57.5408C53.6782 57.9846 53.0307 58.0385 52.5947 58.0006C52.9791 58.9551 52.9961 59.2663 52.9894 59.5377Z" fill="#FFA8A7"/>
<path d="M55.1224 59.4093L55.0655 59.2391C55.0213 59.1067 54.8796 59.0339 54.7464 59.075L53.9158 59.3311C53.8088 59.3641 53.7358 59.4631 53.7358 59.5751V59.6582C53.7358 59.7401 53.6694 59.8065 53.5874 59.8065C53.4116 59.8065 53.2412 59.7453 53.1055 59.6335L52.9895 59.5378V59.2475C52.8369 59.3468 52.7484 59.5197 52.7579 59.7015C52.7682 59.8984 52.7779 60.1389 52.7706 60.2345C52.7573 60.4079 52.5941 61.1345 52.7884 61.3492C52.9829 61.564 53.4177 61.5895 53.9562 61.5314C54.4948 61.4733 55.0842 62.0033 55.5833 62.1994C56.0823 62.3956 58.1492 62.8189 58.1441 61.4975C58.1427 61.161 57.8098 61.0237 57.483 60.9042C57.1563 60.7848 55.9765 60.3694 55.6741 60.1199C55.5356 60.0056 55.4209 59.8849 55.3373 59.7877C55.2415 59.6764 55.169 59.5486 55.1224 59.4093Z" fill="#375C71"/>
<path d="M55.5831 62.1992C55.084 62.0031 54.4946 61.4731 53.956 61.5312C53.4175 61.5893 52.9825 61.5638 52.7882 61.349C52.7298 61.2843 52.7039 61.1728 52.6965 61.0444C52.6865 61.2477 52.7023 61.443 52.7882 61.5381C52.9827 61.7528 53.4175 61.7783 53.956 61.7202C54.4946 61.6621 55.084 62.1921 55.5831 62.3883C56.0822 62.5844 58.1492 63.0077 58.1439 61.6863C58.1437 61.6658 58.1389 61.6483 58.1364 61.6291C58.0057 62.7889 56.0647 62.3885 55.5831 62.1992Z" fill="#263238"/>
<path d="M50.3276 59.83C50.0313 57.9446 49.653 54.9296 49.436 53.1467C49.3218 52.2095 48.8591 51.3506 48.1399 50.739L42.8079 46.2057L39.9586 46.1566C39.9586 46.1566 39.3708 48.5317 40.3036 49.9537C41.0798 51.1372 44.5064 52.6052 45.5247 53.0994C46.5429 53.5936 46.5651 53.7284 46.5437 54.3893C46.5225 55.0503 46.5218 55.8923 47.7736 58.5303C48.1333 59.2882 48.3839 59.8553 48.5588 60.2897C48.9947 60.3276 49.6422 60.2738 50.3276 59.83Z" fill="#00425F"/>
<path opacity="0.7" d="M50.3276 59.83C50.0313 57.9446 49.653 54.9296 49.436 53.1467C49.3218 52.2095 48.8591 51.3506 48.1399 50.739L42.8079 46.2057L39.9586 46.1566C39.9586 46.1566 39.3708 48.5317 40.3036 49.9537C41.0798 51.1372 44.5064 52.6052 45.5247 53.0994C46.5429 53.5936 46.5651 53.7284 46.5437 54.3893C46.5225 55.0503 46.5218 55.8923 47.7736 58.5303C48.1333 59.2882 48.3839 59.8553 48.5588 60.2897C48.9947 60.3276 49.6422 60.2738 50.3276 59.83Z" fill="black"/>
<path d="M48.9518 61.6571C48.9498 61.7359 48.8972 61.9701 49.007 62.0517C49.1463 62.155 49.2793 62.4896 49.6753 62.847C50.2738 63.3867 50.9058 62.2246 50.6342 61.4171C50.5569 61.1877 50.4491 60.6032 50.3275 59.8298C49.642 60.2736 48.9946 60.3275 48.5586 60.2896C48.943 61.2441 48.9586 61.3857 48.9518 61.6571Z" fill="#FFA8A7"/>
<path d="M45.4282 36.3206C46.2705 36.1891 47.0898 36.6808 47.3571 37.4903C47.5177 37.9766 47.6617 38.57 47.7175 39.2344C47.8713 41.0627 47.914 41.9769 47.914 41.9769L49.7507 42.81C49.7507 42.81 48.7588 42.8577 48.826 44.2582L46.5385 43.6815L45.4282 36.3206Z" fill="#FFA8A7"/>
<path d="M47.9819 40.8719C47.7113 38.8911 47.6038 37.8559 47.3715 37.364C47.0075 36.5933 46.2705 36.1892 45.4282 36.3206L46.1198 41.7591L46.2089 41.7504C46.8215 41.6905 47.3987 41.4353 47.8554 41.0225L47.9819 40.8719Z" fill="#00425F"/>
<path opacity="0.2" d="M47.9819 40.8719C47.7113 38.8911 47.6038 37.8559 47.3715 37.364C47.0075 36.5933 46.2705 36.1892 45.4282 36.3206L46.1198 41.7591L46.2089 41.7504C46.8215 41.6905 47.3987 41.4353 47.8554 41.0225L47.9819 40.8719Z" fill="black"/>
<path d="M47.9141 41.9768C47.9141 41.9768 47.5638 42.0794 47.3716 42.31C47.3716 42.31 47.5931 41.8889 47.9029 41.7589L47.9141 41.9768Z" fill="#F28F8F"/>
<path d="M41.0167 37.9238L43.071 36.9289L44.7635 36.3448C44.7635 36.3448 46.1194 35.9122 46.4665 37.7193C46.7517 39.2047 46.7891 44.8483 46.7891 44.8483L46.7588 45.466C46.7588 45.466 45.9758 47.6592 43.1786 47.8407C40.3814 48.0222 39.837 46.8427 39.837 46.8427C39.837 46.8427 39.5537 39.3756 41.0167 37.9238Z" fill="#00425F"/>
<path d="M47.489 31.8906C47.489 31.8906 48.124 33.5179 47.247 34.2344C46.37 34.9509 46.674 32.072 46.674 32.072L47.489 31.8906Z" fill="#263238"/>
<path d="M45.9419 73.7939C45.7429 73.9088 45.4201 73.9088 45.2211 73.7939C45.022 73.6789 45.022 73.4926 45.2211 73.3777C45.4201 73.2627 45.7429 73.2627 45.9419 73.3777C46.141 73.4926 46.141 73.679 45.9419 73.7939Z" fill="#375C71"/>
<path d="M46.0923 61.304H45.0728V73.5744H46.0923V61.304Z" fill="#2B586B"/>
<path d="M33.9903 67.0739C34.2718 67.0739 34.5 66.9421 34.5 66.7795C34.5 66.617 34.2718 66.4852 33.9903 66.4852C33.7087 66.4852 33.4805 66.617 33.4805 66.7795C33.4805 66.9421 33.7087 67.0739 33.9903 67.0739Z" fill="#375C71"/>
<path d="M34.501 54.4974H33.4814V66.7678H34.501V54.4974Z" fill="#263238"/>
<path d="M64.9439 62.7848C64.7448 62.8998 64.4221 62.8998 64.223 62.7848C64.024 62.6699 64.024 62.4836 64.223 62.3686C64.4221 62.2537 64.7448 62.2537 64.9439 62.3686C65.1429 62.4836 65.1429 62.6699 64.9439 62.7848Z" fill="#375C71"/>
<path d="M65.0943 50.2949H64.0747V62.5654H65.0943V50.2949Z" fill="#2B586B"/>
<path d="M52.4828 53.4993C52.3042 53.6024 52.0147 53.6024 51.8361 53.4993C51.6575 53.3962 51.6575 53.2291 51.8361 53.126C52.0147 53.0229 52.3042 53.0229 52.4828 53.126C52.6612 53.229 52.6612 53.3962 52.4828 53.4993Z" fill="#375C71"/>
<path d="M52.6176 43.0623H51.7031V53.3023H52.6176V43.0623Z" fill="#375C71"/>
<path d="M33.4805 52.4649V54.9061L45.5835 61.8938V59.4525L33.4805 52.4649Z" fill="#263238"/>
<path d="M65.0942 48.1881L45.5835 59.4525V61.8938L65.0942 50.6293V48.1881Z" fill="#2B586B"/>
<path d="M52.9911 41.2004L33.4805 52.4649L45.5835 59.4524L65.0942 48.1881L52.9911 41.2004Z" fill="#375C71"/>
<path d="M43.2026 48.8019L47.6405 51.364L55.0186 47.0972L50.5814 44.4828L43.2026 48.8019Z" fill="#EBEBEB"/>
<path d="M47.1631 48.0728L48.828 47.1115L47.7844 46.5091L46.1196 47.4703L47.1631 48.0728Z" fill="#E0E0E0"/>
<path d="M47.8292 50.7242L45.5864 49.4042L49.9695 46.7514L47.8292 50.7242Z" fill="#E0E0E0"/>
<path d="M49.0845 42.4929L50.8599 43.3255C51.5713 43.4924 52.4276 43.81 52.4276 43.81C52.4276 43.81 53.6627 44.3149 53.7191 44.646C53.7755 44.9772 52.7922 45.7752 51.9283 45.387C51.754 45.3087 51.4396 45.1505 51.2078 45.126C50.9759 45.1013 50.2874 44.9929 49.7889 44.5176L47.7169 43.9787C47.7169 43.9787 47.6136 42.6989 49.0845 42.4929Z" fill="#FFA8A7"/>
<path d="M50.2339 44.9694C50.4395 45.1894 51.0257 45.7451 51.1536 45.9057C51.2816 46.0662 51.5837 45.6534 51.054 45.0383C51.054 45.0383 50.3487 44.7945 49.7749 44.342C49.7749 44.342 50.0282 44.7493 50.2339 44.9694Z" fill="#FFA8A7"/>
<path d="M45.1787 34.3785H43.0713V36.9287H45.1787V34.3785Z" fill="#FFA8A7"/>
<path d="M45.1786 36.9287C44.4338 36.6412 43.6556 36.0643 43.2427 35.0876V34.3785H45.1786V36.9287Z" fill="#F28F8F"/>
<path d="M45.8872 31.0117C45.8872 31.0117 47.804 31.2423 47.3644 34.5167C47.1612 36.031 46.7566 36.7966 45.589 36.667C44.266 36.5202 42.4385 35.4927 42.7217 32.8981C43.005 30.3035 45.8872 31.0117 45.8872 31.0117Z" fill="#FFA8A7"/>
<path d="M45.9947 33.9316L45.9253 35.0622L46.5999 34.8996L45.9947 33.9316Z" fill="#F28F8F"/>
<path d="M44.9912 33.8294C44.9834 33.9566 45.0801 34.0661 45.2074 34.0739C45.3346 34.0816 45.4441 33.9849 45.4518 33.8576C45.4596 33.7304 45.3629 33.621 45.2356 33.6132C45.1085 33.6054 44.9989 33.7023 44.9912 33.8294Z" fill="#263238"/>
<path d="M46.5166 33.7618C46.5088 33.8891 46.6055 33.9985 46.7328 34.0063C46.86 34.0141 46.9694 33.9173 46.9772 33.7901C46.985 33.6628 46.8883 33.5534 46.761 33.5456C46.6338 33.5378 46.5243 33.6346 46.5166 33.7618Z" fill="#263238"/>
<path d="M47.0571 33.3133L46.623 33.0181C46.623 33.0181 46.8071 32.849 46.9725 32.9676C47.138 33.0861 47.0571 33.3133 47.0571 33.3133Z" fill="#263238"/>
<path d="M45.1516 33.2617L44.6826 33.4973C44.6826 33.4973 44.6244 33.2544 44.8084 33.1674C44.9924 33.0806 45.1516 33.2617 45.1516 33.2617Z" fill="#263238"/>
<path d="M45.9586 35.5218C45.9586 35.5218 45.519 35.5348 45.2291 35.2777C45.2291 35.2777 45.1546 35.6651 45.4772 35.7599C45.7998 35.8548 45.9586 35.5218 45.9586 35.5218Z" fill="#F28F8F"/>
<path d="M43.048 33.9052C43.048 33.9052 43.3431 34.5181 43.5246 34.4968C43.7061 34.4756 43.5246 32.1471 43.9026 32.1321C44.2807 32.1169 46.0617 33.0021 47.6373 31.8599C48.2421 31.4214 48.363 30.3025 48.0001 30.4084C47.6373 30.5143 47.1474 30.8317 46.4852 30.7865C45.8228 30.741 43.5095 29.6676 42.9349 31.1795C42.9349 31.1795 41.6537 31.0751 42.135 33.6177C42.2544 34.2489 42.6325 35.8154 43.071 35.9696L43.048 33.9052Z" fill="#263238"/>
<path d="M43.1521 34.4643C43.1574 34.2727 43.1267 34.08 43.0482 33.9051C42.9603 33.7091 42.805 33.5111 42.5354 33.5037C41.9435 33.4875 41.8637 34.0573 41.8716 34.2602C41.8926 34.7929 42.3238 35.3685 43.1267 35.3905L43.1521 34.4643Z" fill="#FFA8A7"/>
<path d="M43.3352 45.8759L44.8449 47.072C44.8449 47.072 45.3225 47.118 45.611 47.2046C45.8996 47.2912 46.6577 47.57 46.8583 47.6133C47.0588 47.6567 46.7996 48.002 46.2751 47.8765C46.2751 47.8765 47.3757 48.6307 47.3609 48.9664C47.3462 49.3021 46.2165 49.8745 45.4541 49.3124C45.3003 49.199 45.0264 48.9782 44.8049 48.9052C44.5834 48.8322 43.9333 48.5807 43.5464 48.0109L42.2263 47.3226C42.2263 47.3226 41.854 45.7667 43.3352 45.8759Z" fill="#FFA8A7"/>
<path d="M41.687 37.5991C41.687 37.5991 42.5684 38.2822 42.0269 40.403C41.4853 42.5238 41.1961 44.3526 41.1961 44.3526L43.3352 45.8756C43.3352 45.8756 42.4308 46.197 42.2261 47.3223C42.2261 47.3223 38.8544 45.9968 38.7865 45.1462C38.7185 44.2956 39.4896 40.6114 39.607 39.9343C39.7242 39.2571 40.3235 37.9197 41.687 37.5991Z" fill="#FFA8A7"/>
<path d="M41.1962 44.353C41.1962 44.353 40.7624 44.2604 40.3896 44.3606C40.3896 44.3606 40.7202 44.1564 41.2144 44.156L41.1962 44.353Z" fill="#F28F8F"/>
<path d="M56.0475 42.2086L55.276 47.2585C55.2755 47.2621 55.2734 47.2651 55.2703 47.2668L47.6069 51.7117C47.5985 51.7165 47.5879 51.7095 47.5895 51.6998L48.3378 46.8028C48.3702 46.5915 48.4938 46.4051 48.6761 46.2933L55.7065 41.9821C55.8701 41.8815 56.0766 42.0185 56.0475 42.2086Z" fill="#FAFAFA"/>
<path d="M47.6068 51.7115L43.5131 49.3404C43.321 49.2291 43.2026 49.0238 43.2026 48.8018L47.6406 51.3639L47.6068 51.7115Z" fill="#E0E0E0"/>
<path d="M51.6123 47.0752C51.6123 47.4358 51.8655 47.582 52.1779 47.4017C52.4902 47.2214 52.7435 46.7828 52.7435 46.422C52.7435 46.0614 52.4904 45.9152 52.1779 46.0955C51.8655 46.2759 51.6123 46.7145 51.6123 47.0752Z" fill="#E0E0E0"/>
<path d="M43.138 31.9234C43.138 31.9234 42.7903 31.4093 43.0019 31.243C43.2136 31.0766 43.3799 31.6058 43.138 31.9234Z" fill="#263238"/>
<path d="M43.1968 32.0308C43.1968 32.0308 42.5808 31.9541 42.595 31.6853C42.6091 31.4165 43.1169 31.6397 43.1968 32.0308Z" fill="#263238"/>
<path d="M43.0713 36.9288C43.0713 36.9288 43.5234 38.12 44.5666 37.9687C45.6099 37.8175 45.1785 36.9288 45.1785 36.9288H43.0713Z" fill="#FFA8A7"/>
<path d="M41.6868 37.5991C41.6868 37.5991 42.3736 37.9277 42.2679 39.309C42.162 40.6902 41.6178 43.4724 41.6178 43.4724C41.6178 43.4724 39.1602 44.4668 38.9265 43.0641C38.866 42.7013 39.4859 39.3446 40.0151 38.6339C40.5443 37.9234 41.1422 37.6965 41.6868 37.5991Z" fill="#00425F"/>
<path opacity="0.2" d="M41.6868 37.5991C41.6868 37.5991 42.3736 37.9277 42.2679 39.309C42.162 40.6902 41.6178 43.4724 41.6178 43.4724C41.6178 43.4724 39.1602 44.4668 38.9265 43.0641C38.866 42.7013 39.4859 39.3446 40.0151 38.6339C40.5443 37.9234 41.1422 37.6965 41.6868 37.5991Z" fill="black"/>
<path d="M49.0074 61.7245C49.0074 61.7245 49.1604 61.9655 49.4088 62.0047C49.5573 62.0282 49.2561 61.6414 49.6156 61.4865C49.9752 61.3315 50.7973 61.1175 50.8704 61.4269L50.9615 61.8124C51.0477 62.1768 51.2217 62.5142 51.4685 62.7958C51.7152 63.0771 52.0347 63.4125 52.2823 63.5725C52.7517 63.8757 53.5237 64.608 52.5327 65.2316C51.5418 65.8551 50.3235 65.329 50.0851 64.6193C49.8466 63.9098 49.5944 63.7047 49.4673 63.587C49.3401 63.4692 49.0433 63.2842 48.9316 62.8055C48.8591 62.4949 48.8177 62.0967 48.7976 61.8557C48.7867 61.7242 48.8494 61.5981 48.9608 61.5272L49.0074 61.7245Z" fill="#375C71"/>
<path d="M52.5328 65.2317C51.5419 65.8554 50.3236 65.3291 50.0852 64.6196C49.8467 63.9101 49.5945 63.7049 49.4674 63.5872C49.3534 63.4817 49.1044 63.3203 48.9731 62.9441C48.9749 62.9636 48.9771 62.9837 48.9783 63.0028C49.0162 63.617 49.3925 63.7609 49.5196 63.8787C49.6467 63.9964 49.8549 64.191 50.0933 64.9005C50.3318 65.61 51.5885 66.0523 52.5794 65.4287C53.0604 65.1261 53.1255 64.7979 53.0121 64.5055C53.0303 64.7436 52.9082 64.9955 52.5328 65.2317Z" fill="#263238"/>
<path d="M47.7699 55.8093L44.6121 57.6324L40.6265 55.3314L43.7908 53.5045C43.8746 53.4561 43.9778 53.4561 44.0616 53.5045L47.7699 55.6456C47.8329 55.6819 47.8329 55.7728 47.7699 55.8093Z" fill="#00425F"/>
<path opacity="0.7" d="M47.7699 55.8093L44.6121 57.6324L40.6265 55.3314L43.7908 53.5045C43.8746 53.4561 43.9778 53.4561 44.0616 53.5045L47.7699 55.6456C47.8329 55.6819 47.8329 55.7728 47.7699 55.8093Z" fill="black"/>
<path d="M47.5512 55.7422L44.6119 57.4392L40.9023 55.2975L43.8475 53.5971C43.9255 53.552 44.0216 53.552 44.0996 53.5971L47.5511 55.5897C47.6098 55.6235 47.6098 55.7083 47.5512 55.7422Z" fill="white"/>
<path d="M44.6118 57.439V57.1081L47.595 55.3857V55.6677L44.6118 57.439Z" fill="white"/>
<path d="M44.6118 57.439V57.1081L40.9023 54.9664V55.2973L44.6118 57.439Z" fill="#E0E0E0"/>
<path d="M47.7699 55.2853L44.6121 57.1085L40.6265 54.8075L43.7908 52.9806C43.8746 52.9323 43.9778 52.9323 44.0616 52.9806L47.7699 55.1217C47.8329 55.158 47.8329 55.2489 47.7699 55.2853Z" fill="#00425F"/>
<path opacity="0.5" d="M47.7699 55.2853L44.6121 57.1085L40.6265 54.8075L43.7908 52.9806C43.8746 52.9323 43.9778 52.9323 44.0616 52.9806L47.7699 55.1217C47.8329 55.158 47.8329 55.2489 47.7699 55.2853Z" fill="black"/>
<path d="M44.2004 57.3944C44.1812 57.4019 44.16 57.4011 44.1411 57.3911C44.1175 57.3784 44.1033 57.3549 44.1033 57.328V57.0286C44.1033 56.8912 44.1769 56.7622 44.295 56.6923L44.3062 56.6855C44.3222 56.6762 44.3365 56.6822 44.3417 56.6853C44.3472 56.6883 44.3596 56.6974 44.3596 56.716C44.3596 56.7503 44.3874 56.7781 44.4216 56.7781C44.4559 56.7781 44.4836 56.7502 44.4836 56.716C44.4836 56.6581 44.4535 56.6062 44.4031 56.5776C44.3527 56.5488 44.2928 56.5493 44.2429 56.5789L44.2317 56.5855C44.0758 56.6777 43.979 56.8475 43.979 57.0286V57.328C43.979 57.4003 44.0186 57.4664 44.0824 57.5005C44.1113 57.5159 44.1429 57.5236 44.1746 57.5236C44.2126 57.5236 44.2505 57.5125 44.2834 57.4906C44.2959 57.4823 44.3036 57.4699 44.3076 57.4564L44.2004 57.3944Z" fill="white"/>
<path d="M43.6105 57.0539C43.5914 57.0614 43.5701 57.0606 43.5513 57.0506C43.5276 57.0379 43.5135 57.0144 43.5135 56.9876V56.6883C43.5135 56.5509 43.587 56.422 43.7052 56.3519L43.7164 56.3453C43.7324 56.336 43.7466 56.342 43.7519 56.3451C43.7573 56.3481 43.7697 56.3572 43.7697 56.3758C43.7697 56.4101 43.7976 56.4379 43.8318 56.4379C43.8661 56.4379 43.8938 56.41 43.8938 56.3758C43.8938 56.3179 43.8637 56.266 43.8133 56.2373C43.7629 56.2086 43.7031 56.2091 43.653 56.2387L43.6418 56.2454C43.4859 56.3377 43.3892 56.5074 43.3892 56.6885V56.9879C43.3892 57.0602 43.4288 57.1262 43.4925 57.1604C43.5214 57.1759 43.5531 57.1835 43.5848 57.1835C43.6228 57.1835 43.6607 57.1724 43.6936 57.1505C43.7061 57.1422 43.7137 57.1298 43.7177 57.1163L43.6105 57.0539Z" fill="white"/>
<path d="M43.0201 56.7135C43.0009 56.721 42.9797 56.7202 42.9608 56.7102C42.9372 56.6975 42.923 56.674 42.923 56.6472V56.3478C42.923 56.2104 42.9966 56.0816 43.1147 56.0115L43.1259 56.0047C43.1419 55.9954 43.1562 56.0015 43.1614 56.0045C43.1668 56.0075 43.1793 56.0166 43.1793 56.0352C43.1793 56.0696 43.207 56.0973 43.2413 56.0973C43.2756 56.0973 43.3033 56.0694 43.3033 56.0352C43.3033 55.9772 43.2732 55.9254 43.2228 55.8968C43.1724 55.868 43.1126 55.8685 43.0627 55.8981L43.0515 55.9048C42.8956 55.9971 42.7988 56.1668 42.7988 56.3479V56.6473C42.7988 56.7197 42.8384 56.7857 42.9022 56.8199C42.9311 56.8353 42.9628 56.8429 42.9945 56.8429C43.0325 56.8429 43.0704 56.8319 43.1032 56.8099C43.1158 56.8016 43.1234 56.7892 43.1274 56.7758L43.0201 56.7135Z" fill="white"/>
<path d="M42.4302 56.3729C42.4111 56.3804 42.3898 56.3796 42.3709 56.3696C42.3473 56.3569 42.3332 56.3334 42.3332 56.3066V56.0073C42.3332 55.8698 42.4067 55.7409 42.525 55.6709L42.5362 55.6642C42.5522 55.6548 42.5664 55.6609 42.5717 55.6639C42.5771 55.667 42.5895 55.6761 42.5895 55.6947C42.5895 55.729 42.6173 55.7567 42.6516 55.7567C42.6859 55.7567 42.7136 55.729 42.7136 55.6947C42.7136 55.6366 42.6835 55.5849 42.6331 55.5562C42.5827 55.5276 42.5227 55.528 42.4729 55.5575L42.4616 55.5643C42.3057 55.6565 42.209 55.8264 42.209 56.0074V56.3068C42.209 56.3791 42.2486 56.4452 42.3123 56.4793C42.3412 56.4947 42.3729 56.5024 42.4046 56.5024C42.4426 56.5024 42.4805 56.4913 42.5134 56.4694C42.5259 56.4611 42.5336 56.4485 42.5375 56.4352L42.4302 56.3729Z" fill="white"/>
<path d="M41.84 56.0323C41.8209 56.0399 41.7996 56.0391 41.7807 56.0289C41.7571 56.0162 41.743 55.9927 41.743 55.9658V55.6664C41.743 55.529 41.8165 55.4 41.9348 55.3301L41.946 55.3235C41.962 55.3141 41.9762 55.3201 41.9815 55.3232C41.9869 55.3263 41.9993 55.3354 41.9993 55.354C41.9993 55.3882 42.0272 55.416 42.0614 55.416C42.0956 55.416 42.1234 55.3882 42.1234 55.354C42.1234 55.2959 42.0933 55.2442 42.0429 55.2154C41.9925 55.1866 41.9325 55.1871 41.8827 55.2167L41.8713 55.2234C41.7154 55.3157 41.6187 55.4856 41.6187 55.6666V55.9659C41.6187 56.0383 41.6583 56.1044 41.722 56.1385C41.7509 56.1539 41.7826 56.1616 41.8143 56.1616C41.8523 56.1616 41.8902 56.1505 41.923 56.1286C41.9356 56.1201 41.9432 56.1077 41.9472 56.0944L41.84 56.0323Z" fill="white"/>
<path d="M41.2502 55.6917C41.231 55.6993 41.2098 55.6985 41.1909 55.6883C41.1673 55.6756 41.1532 55.6521 41.1532 55.6254V55.326C41.1532 55.1886 41.2267 55.0596 41.3448 54.9896L41.356 54.9829C41.372 54.9735 41.3863 54.9795 41.3915 54.9826C41.397 54.9857 41.4094 54.9948 41.4094 55.0134C41.4094 55.0476 41.4372 55.0754 41.4714 55.0754C41.5057 55.0754 41.5334 55.0476 41.5334 55.0134C41.5334 54.9553 41.5033 54.9036 41.4529 54.8748C41.4025 54.846 41.3426 54.8466 41.2927 54.8761L41.2815 54.8827C41.1256 54.975 41.0288 55.1447 41.0288 55.3258V55.6252C41.0288 55.6976 41.0684 55.7637 41.1322 55.7977C41.1611 55.8132 41.1928 55.8208 41.2244 55.8208C41.2624 55.8208 41.3003 55.8098 41.3332 55.7878C41.3457 55.7794 41.3534 55.767 41.3574 55.7537L41.2502 55.6917Z" fill="white"/>
<path d="M48.1772 54.4611L44.7632 56.4323L40.3203 53.8673L43.7344 51.8961L48.1772 54.4611Z" fill="#E6E6E6"/>
<path d="M48.3734 54.3967L44.8063 56.0749L40.5938 53.1468L44.1609 51.4685L48.3734 54.3967Z" fill="#FAFAFA"/>
<path d="M40.4098 49.1547H38.9668H37.5127L37.7726 52.2214H37.7737C37.789 52.3847 37.9033 52.5456 38.1194 52.6704C38.5844 52.9388 39.3384 52.9388 39.8034 52.6704C40.0195 52.5456 40.1338 52.3848 40.1491 52.2214H40.1499L40.4098 49.1547Z" fill="#00425F"/>
<path d="M40.5952 48.9874V48.7443H40.538C40.4662 48.5898 40.3268 48.4435 40.1168 48.3222C39.4787 47.9538 38.4442 47.9538 37.8061 48.3222C37.5961 48.4435 37.4566 48.5898 37.3849 48.7443H37.3276V48.9892C37.3276 49.2306 37.4871 49.4721 37.8061 49.6562C38.4442 50.0246 39.4787 50.0246 40.1168 49.6562C40.4366 49.4717 40.596 49.2294 40.5952 48.9874Z" fill="#E0E0E0"/>
<path d="M40.1169 49.4257C39.4788 49.7941 38.4443 49.7941 37.8062 49.4257C37.1681 49.0573 37.1681 48.4601 37.8062 48.0917C38.4443 47.7233 39.4788 47.7233 40.1169 48.0917C40.7548 48.46 40.755 49.0573 40.1169 49.4257Z" fill="#EBEBEB"/>
<path d="M40.2706 48.6576V48.4629H40.2248C40.1672 48.3391 40.0555 48.2219 39.8872 48.1247C39.376 47.8296 38.547 47.8296 38.0358 48.1247C37.8675 48.2219 37.7558 48.3391 37.6983 48.4629H37.6523V48.6592C37.6523 48.8526 37.7801 49.0461 38.0358 49.1937C38.547 49.4888 39.3759 49.4888 39.8871 49.1937C40.1436 49.0456 40.2712 48.8515 40.2706 48.6576Z" fill="#E0E0E0"/>
<path d="M39.8871 49.0087C39.3758 49.3038 38.547 49.3038 38.0358 49.0087C37.5245 48.7135 37.5245 48.2349 38.0358 47.9397C38.547 47.6446 39.3758 47.6446 39.8872 47.9397C40.3983 48.235 40.3983 48.7135 39.8871 49.0087Z" fill="#F5F5F5"/>
<path d="M39.6737 48.8529C39.2811 49.08 38.6425 49.08 38.2485 48.8529C37.8677 48.6333 37.8545 48.2816 38.2089 48.0546C38.2221 48.0457 38.2353 48.037 38.2485 48.0296C38.3305 47.9828 38.4243 47.9446 38.5239 47.9169C38.8989 47.8129 39.3631 47.8496 39.6737 48.0296C40.0677 48.2568 40.0677 48.6259 39.6737 48.8529Z" fill="#F0F0F0"/>
<path d="M38.2487 48.1471C38.6423 47.9198 39.2804 47.9198 39.674 48.1471C39.8451 48.2458 39.9416 48.3712 39.964 48.5001C39.9932 48.3323 39.8967 48.1587 39.674 48.0302C39.2804 47.8029 38.6421 47.8029 38.2487 48.0302C38.0261 48.1586 37.9296 48.3323 37.9587 48.5001C37.9811 48.3712 38.0777 48.2458 38.2487 48.1471Z" fill="#E0E0E0"/>
<path d="M38.7875 48.1864L38.4946 48.3724L38.209 48.1674V48.0547C38.2222 48.0458 38.2354 48.0371 38.2486 48.0297C38.3306 47.9829 38.4244 47.9447 38.5239 47.917V48.0019L38.7875 48.1864Z" fill="#E0E0E0"/>
<path d="M73.1943 30.1728L56.7628 20.6861C56.5743 20.5773 56.4047 20.5853 56.2846 20.6851L55.7158 21.0785L56.1038 21.558V34.8089C56.1038 35.2942 56.3989 35.8581 56.7628 36.0683L73.0309 45.4606L73.0611 45.9774L73.6604 45.5666C73.7798 45.4764 73.8534 45.2993 73.8534 45.0567V31.4323C73.8534 30.9468 73.5584 30.383 73.1943 30.1728Z" fill="#00425F"/>
<path opacity="0.3" d="M73.1943 30.1728L56.7628 20.6861C56.5743 20.5773 56.4047 20.5853 56.2846 20.6851L55.7158 21.0785L56.1038 21.558V34.8089C56.1038 35.2942 56.3989 35.8581 56.7628 36.0683L73.0309 45.4606L73.0611 45.9774L73.6604 45.5666C73.7798 45.4764 73.8534 45.2993 73.8534 45.0567V31.4323C73.8534 30.9468 73.5584 30.383 73.1943 30.1728Z" fill="black"/>
<path d="M72.6346 45.9403L56.2032 36.4536C55.8391 36.2434 55.5439 35.6795 55.5439 35.1941V21.5696C55.5439 21.0843 55.8391 20.8612 56.2032 21.0713L72.6346 30.558C72.9987 30.7682 73.2939 31.3321 73.2939 31.8175V45.442C73.2937 45.9273 72.9987 46.1504 72.6346 45.9403Z" fill="#00425F"/>
<path d="M72.6346 45.9403L56.2032 36.4536C55.8391 36.2434 55.5439 35.6795 55.5439 35.1941V21.5696C55.5439 21.0843 55.8391 20.8612 56.2032 21.0713L72.6346 30.558C72.9987 30.7682 73.2939 31.3321 73.2939 31.8175V45.442C73.2937 45.9273 72.9987 46.1504 72.6346 45.9403Z" fill="#00425F"/>
<path d="M72.6346 30.558L56.2032 21.0713C55.8391 20.8612 55.5439 21.0843 55.5439 21.5696V22.2357L73.2937 32.4835V31.8175C73.2937 31.3321 72.9987 30.7682 72.6346 30.558Z" fill="#375C71"/>
<path d="M55.9419 21.1242C56.0004 21.1242 56.0679 21.1455 56.1375 21.1856L72.569 30.6723C72.8906 30.8579 73.1621 31.3824 73.1621 31.8174V45.4419C73.1621 45.7125 73.0579 45.8873 72.8966 45.8873C72.8374 45.8873 72.7715 45.8666 72.701 45.8259L56.2695 36.3392C55.948 36.1536 55.6763 35.6292 55.6763 35.1941V21.5697C55.6763 21.2991 55.7806 21.1242 55.9419 21.1242ZM55.9419 20.9922C55.708 20.9922 55.5444 21.2082 55.5444 21.5696V35.1941C55.5444 35.6795 55.8396 36.2434 56.2036 36.4535L72.6351 45.9402C72.7281 45.994 72.8166 46.0193 72.8968 46.0193C73.1307 46.0193 73.2942 45.8034 73.2942 45.4419V31.8176C73.2942 31.3322 72.9991 30.7683 72.6351 30.5582L56.2035 21.0714C56.1106 21.0177 56.022 20.9922 55.9419 20.9922Z" fill="#00425F"/>
<path d="M63.161 28.2055C63.1372 28.2055 63.1132 28.1996 63.0912 28.1868L56.8365 24.5756C56.7697 24.5371 56.7467 24.4516 56.7854 24.3846C56.8239 24.318 56.9093 24.2949 56.9764 24.3334L63.2311 27.9446C63.2979 27.9832 63.3208 28.0686 63.2823 28.1356C63.2564 28.1804 63.2094 28.2055 63.161 28.2055Z" fill="white"/>
<path d="M71.9614 33.2866C71.9376 33.2866 71.9136 33.2806 71.8916 33.2679L67.2584 30.5929C67.1916 30.5544 67.1686 30.4688 67.2073 30.4019C67.2457 30.3351 67.3313 30.312 67.3983 30.3508L72.0315 33.0258C72.0983 33.0643 72.1212 33.1499 72.0826 33.2168C72.0567 33.2616 72.0098 33.2866 71.9614 33.2866Z" fill="white"/>
<path d="M66.3239 30.0317C66.3001 30.0317 66.2761 30.0256 66.2541 30.0129L64.3722 28.9264C64.3054 28.8878 64.2824 28.8024 64.3209 28.7354C64.3596 28.6686 64.4452 28.6455 64.5119 28.6842L66.3939 29.7707C66.4607 29.8094 66.4836 29.8948 66.4451 29.9617C66.4192 30.0066 66.3722 30.0317 66.3239 30.0317Z" fill="white"/>
<path d="M63.161 36.966C63.1372 36.966 63.1132 36.9599 63.0912 36.9472L56.8365 33.3361C56.7697 33.2976 56.7467 33.212 56.7854 33.1451C56.8239 33.0783 56.9093 33.0555 56.9764 33.0939L63.2311 36.705C63.2979 36.7437 63.3208 36.8291 63.2823 36.896C63.2564 36.9409 63.2094 36.966 63.161 36.966Z" fill="white"/>
<path d="M71.9614 42.0472C71.9376 42.0472 71.9136 42.0413 71.8916 42.0285L67.2584 39.3533C67.1916 39.3147 67.1686 39.2293 67.2073 39.1623C67.2457 39.0955 67.3313 39.0723 67.3983 39.1113L72.0315 41.7862C72.0983 41.8248 72.1212 41.9103 72.0826 41.9772C72.0567 42.0221 72.0098 42.0472 71.9614 42.0472Z" fill="white"/>
<path d="M66.3239 38.792C66.3001 38.792 66.2761 38.7861 66.2541 38.7733L64.3722 37.6868C64.3054 37.6482 64.2824 37.5627 64.3209 37.4958C64.3596 37.429 64.4452 37.406 64.5119 37.4445L66.3939 38.531C66.4607 38.5697 66.4836 38.6551 66.4451 38.722C66.4192 38.7669 66.3722 38.792 66.3239 38.792Z" fill="white"/>
<path d="M63.161 39.0257C63.1373 39.0257 63.1132 39.0198 63.0912 39.007L56.8365 35.3959C56.7697 35.3573 56.7468 35.2718 56.7853 35.2049C56.824 35.1381 56.9093 35.1151 56.9763 35.1536L63.231 38.7648C63.2978 38.8033 63.3208 38.8889 63.2822 38.9558C63.2565 39.0007 63.2095 39.0257 63.161 39.0257Z" fill="white"/>
<path d="M69.9895 42.9684C69.9657 42.9684 69.9417 42.9624 69.9196 42.9496L67.2584 41.4133C67.1916 41.3747 67.1686 41.2892 67.2072 41.2223C67.2459 41.1555 67.3314 41.1324 67.3982 41.1712L70.0594 42.7075C70.1262 42.7461 70.1492 42.8316 70.1106 42.8985C70.0848 42.9433 70.0379 42.9684 69.9895 42.9684Z" fill="white"/>
<path d="M66.3239 40.852C66.3001 40.852 66.2761 40.8461 66.2541 40.8332L64.3722 39.7468C64.3054 39.7081 64.2824 39.6225 64.3209 39.5558C64.3596 39.489 64.4452 39.466 64.5119 39.5045L66.3939 40.591C66.4607 40.6296 66.4836 40.7151 66.4451 40.782C66.4192 40.8269 66.3722 40.852 66.3239 40.852Z" fill="white"/>
<path d="M60.0418 27.4931C60.0181 27.4931 59.994 27.4872 59.972 27.4744L56.8365 25.6641C56.7697 25.6256 56.7467 25.54 56.7854 25.4731C56.8239 25.4064 56.9093 25.3832 56.9764 25.422L60.1118 27.2323C60.1786 27.2708 60.2016 27.3563 60.163 27.4233C60.1371 27.468 60.0901 27.4931 60.0418 27.4931Z" fill="white"/>
<path d="M69.0752 32.7087C69.0514 32.7087 69.0274 32.7027 69.0054 32.6899L64.3722 30.0149C64.3054 29.9764 64.2824 29.8909 64.3209 29.8239C64.3596 29.7572 64.4452 29.7343 64.5119 29.7727L69.1451 32.4477C69.2119 32.4863 69.2349 32.5718 69.1964 32.6387C69.1705 32.6836 69.1235 32.7087 69.0752 32.7087Z" fill="white"/>
<path d="M63.2046 29.3193C63.1809 29.3193 63.1569 29.3134 63.1348 29.3006L61.253 28.2141C61.1862 28.1755 61.1633 28.09 61.2018 28.0231C61.2405 27.9563 61.3258 27.9332 61.3928 27.972L63.2746 29.0585C63.3414 29.097 63.3644 29.1825 63.3257 29.2495C63.2999 29.2942 63.253 29.3193 63.2046 29.3193Z" fill="white"/>
<path d="M63.161 30.3828C63.1373 30.3828 63.1132 30.3769 63.0912 30.364L56.8365 26.7529C56.7697 26.7142 56.7468 26.6288 56.7853 26.5619C56.824 26.4951 56.9093 26.4723 56.9763 26.5107L63.231 30.1218C63.2978 30.1605 63.3208 30.2459 63.2822 30.3128C63.2565 30.3577 63.2095 30.3828 63.161 30.3828Z" fill="white"/>
<path d="M68.5624 33.5013C68.5386 33.5013 68.5146 33.4954 68.4926 33.4826L67.2584 32.77C67.1916 32.7315 67.1686 32.6458 67.2073 32.579C67.2457 32.5124 67.3313 32.4893 67.3983 32.5278L68.6325 33.2404C68.6993 33.2789 68.7222 33.3644 68.6836 33.4314C68.6577 33.4762 68.6108 33.5013 68.5624 33.5013Z" fill="white"/>
<path d="M60.6591 30.0265C60.6353 30.0265 60.6113 30.0206 60.5893 30.0078L59.3551 29.2952C59.2883 29.2567 59.2653 29.1712 59.3039 29.1042C59.3425 29.0373 59.4278 29.0144 59.4949 29.053L60.7291 29.7656C60.7959 29.8041 60.8188 29.8896 60.7803 29.9566C60.7544 30.0014 60.7074 30.0265 60.6591 30.0265Z" fill="white"/>
<path d="M66.3239 32.2088C66.3001 32.2088 66.2761 32.2029 66.2541 32.1901L64.3722 31.1036C64.3054 31.065 64.2824 30.9795 64.3209 30.9126C64.3596 30.8458 64.4452 30.8228 64.5119 30.8613L66.3939 31.9478C66.4607 31.9864 66.4836 32.0719 66.4451 32.1388C66.4192 32.1837 66.3722 32.2088 66.3239 32.2088Z" fill="white"/>
<path d="M58.9112 29.0174C58.8874 29.0174 58.8634 29.0114 58.8413 28.9986L56.8365 27.8412C56.7697 27.8027 56.7468 27.7172 56.7853 27.6502C56.824 27.5834 56.9093 27.5605 56.9763 27.599L58.9811 28.7564C59.0479 28.7951 59.0709 28.8805 59.0323 28.9474C59.0065 28.9923 58.9595 29.0174 58.9112 29.0174Z" fill="white"/>
<path d="M63.2046 31.4964C63.1809 31.4964 63.1569 31.4905 63.1348 31.4777L61.253 30.3912C61.1862 30.3526 61.1633 30.2671 61.2018 30.2002C61.2405 30.1334 61.3258 30.1103 61.3928 30.1491L63.2746 31.2356C63.3414 31.2741 63.3644 31.3597 63.3257 31.4266C63.2999 31.4713 63.253 31.4964 63.2046 31.4964Z" fill="white"/>
<path d="M63.161 32.639C63.1373 32.639 63.1132 32.6331 63.0912 32.6203L56.8365 29.0092C56.7697 28.9706 56.7468 28.8851 56.7853 28.8182C56.824 28.7515 56.9093 28.7283 56.9763 28.767L63.231 32.3781C63.2978 32.4168 63.3208 32.5022 63.2822 32.5691C63.2565 32.614 63.2095 32.639 63.161 32.639Z" fill="white"/>
<path d="M71.9614 37.7203C71.9376 37.7203 71.9136 37.7144 71.8916 37.7016L67.2584 35.0266C67.1916 34.988 67.1686 34.9025 67.2073 34.8356C67.2457 34.7689 67.3313 34.7456 67.3983 34.7845L72.0315 37.4595C72.0983 37.498 72.1212 37.5836 72.0826 37.6505C72.0567 37.6952 72.0098 37.7203 71.9614 37.7203Z" fill="white"/>
<path d="M66.3239 34.4652C66.3001 34.4652 66.2761 34.4593 66.2541 34.4465L64.3722 33.36C64.3054 33.3214 64.2824 33.2359 64.3209 33.169C64.3596 33.1022 64.4452 33.0793 64.5119 33.1178L66.3939 34.2043C66.4607 34.2429 66.4836 34.3283 66.4451 34.3953C66.4192 34.4401 66.3722 34.4652 66.3239 34.4652Z" fill="white"/>
<path d="M60.0417 31.9266C60.018 31.9266 59.994 31.9207 59.9719 31.9079L56.8365 30.0977C56.7697 30.059 56.7468 29.9736 56.7853 29.9066C56.824 29.8399 56.9092 29.817 56.9763 29.8554L60.1117 31.6657C60.1785 31.7042 60.2015 31.7898 60.1629 31.8567C60.137 31.9016 60.0901 31.9266 60.0417 31.9266Z" fill="white"/>
<path d="M69.0752 37.1423C69.0514 37.1423 69.0274 37.1364 69.0054 37.1236L64.3722 34.4486C64.3054 34.4101 64.2824 34.3245 64.3209 34.2576C64.3596 34.1908 64.4452 34.1678 64.5119 34.2064L69.1451 36.8814C69.2119 36.9199 69.2349 37.0054 69.1964 37.0724C69.1705 37.1172 69.1235 37.1423 69.0752 37.1423Z" fill="white"/>
<path d="M63.2046 33.7529C63.1809 33.7529 63.1569 33.747 63.1348 33.7342L61.253 32.6477C61.1862 32.6092 61.1633 32.5236 61.2018 32.4567C61.2405 32.3899 61.3258 32.3668 61.3928 32.4055L63.2746 33.492C63.3414 33.5305 63.3644 33.616 63.3257 33.683C63.2999 33.7279 63.253 33.7529 63.2046 33.7529Z" fill="white"/>
<path d="M63.161 34.8161C63.1373 34.8161 63.1132 34.8102 63.0912 34.7974L56.8365 31.1863C56.7697 31.1476 56.7468 31.0622 56.7853 30.9953C56.824 30.9285 56.9093 30.9055 56.9763 30.9441L63.231 34.5552C63.2978 34.5937 63.3208 34.6793 63.2822 34.7462C63.2565 34.7911 63.2095 34.8161 63.161 34.8161Z" fill="white"/>
<path d="M68.5624 37.9347C68.5386 37.9347 68.5146 37.9287 68.4926 37.9159L67.2584 37.2034C67.1916 37.1647 67.1686 37.0792 67.2073 37.0124C67.2457 36.9457 67.3313 36.9225 67.3983 36.9612L68.6325 37.6737C68.6993 37.7123 68.7222 37.7978 68.6836 37.8647C68.6577 37.9097 68.6108 37.9347 68.5624 37.9347Z" fill="white"/>
<path d="M60.6591 34.4601C60.6353 34.4601 60.6113 34.4542 60.5892 34.4414L59.355 33.7289C59.2882 33.6903 59.2653 33.6048 59.3039 33.5379C59.3425 33.4712 59.4279 33.4478 59.4949 33.4868L60.7292 34.1993C60.7959 34.238 60.8189 34.3234 60.7802 34.3903C60.7544 34.4351 60.7074 34.4601 60.6591 34.4601Z" fill="white"/>
<path d="M66.3239 36.6423C66.3001 36.6423 66.2761 36.6364 66.2541 36.6236L64.3722 35.5371C64.3054 35.4984 64.2824 35.4129 64.3209 35.3461C64.3596 35.2793 64.4452 35.2565 64.5119 35.2949L66.3939 36.3814C66.4607 36.4199 66.4836 36.5055 66.4451 36.5724C66.4192 36.6173 66.3722 36.6423 66.3239 36.6423Z" fill="white"/>
<path d="M58.9112 33.451C58.8874 33.451 58.8634 33.4449 58.8413 33.4323L56.8365 32.2749C56.7697 32.2364 56.7468 32.1508 56.7853 32.0839C56.824 32.0171 56.9093 31.9941 56.9763 32.0327L58.9811 33.1901C59.0479 33.2286 59.0709 33.3141 59.0323 33.3811C59.0065 33.4259 58.9595 33.451 58.9112 33.451Z" fill="white"/>
<path d="M63.2046 35.9301C63.1809 35.9301 63.1569 35.9241 63.1348 35.9113L61.253 34.8248C61.1862 34.7863 61.1633 34.7007 61.2018 34.6338C61.2405 34.567 61.3258 34.5441 61.3928 34.5826L63.2746 35.6692C63.3414 35.7078 63.3644 35.7933 63.3257 35.8602C63.2999 35.905 63.253 35.9301 63.2046 35.9301Z" fill="white"/>
<path d="M60.6591 36.5467C60.6353 36.5467 60.6113 36.5408 60.5893 36.528L59.3551 35.8155C59.2883 35.7769 59.2653 35.6914 59.3039 35.6245C59.3425 35.5578 59.4278 35.5347 59.4949 35.5732L60.7291 36.2858C60.7959 36.3243 60.8188 36.4099 60.7803 36.4768C60.7544 36.5218 60.7074 36.5467 60.6591 36.5467Z" fill="white"/>
<path d="M58.9112 35.5377C58.8874 35.5377 58.8634 35.5318 58.8413 35.519L56.8365 34.3616C56.7697 34.323 56.7468 34.2375 56.7853 34.1706C56.824 34.1038 56.9093 34.0807 56.9763 34.1195L58.9811 35.2769C59.0479 35.3154 59.0709 35.401 59.0323 35.4679C59.0065 35.5126 58.9595 35.5377 58.9112 35.5377Z" fill="white"/>
<path d="M63.2046 38.0167C63.1809 38.0167 63.1569 38.0107 63.1348 37.998L61.253 36.9115C61.1862 36.8729 61.1633 36.7874 61.2018 36.7205C61.2405 36.6537 61.3258 36.6307 61.3928 36.6693L63.2746 37.7558C63.3414 37.7943 63.3644 37.8798 63.3257 37.9468C63.2999 37.9916 63.253 38.0167 63.2046 38.0167Z" fill="white"/>
<path d="M58.1449 25.9332V30.9946C58.1449 31.0758 58.1151 31.1304 58.0694 31.1482L58.0681 31.1486L58.0678 31.1489L57.8741 31.255L57.8751 31.0825L57.8477 25.8788L58.1014 25.7506C58.1286 25.8088 58.1449 25.8732 58.1449 25.9332Z" fill="#263238"/>
<path d="M58.1014 25.7509L57.8477 25.8791L51.7107 22.2816L51.5645 22.1964L51.7665 22.0827L51.7724 22.0792C51.8046 22.0598 51.8468 22.061 51.8933 22.0878L57.9622 25.5846C58.0179 25.6168 58.0678 25.6789 58.1014 25.7509Z" fill="#2B586B"/>
<path d="M57.9248 26.0436V31.0715C57.9248 31.1415 57.9025 31.1916 57.867 31.2151L57.8554 31.2215C57.8245 31.2361 57.7857 31.233 57.7435 31.2085L51.7109 27.7327C51.6107 27.6749 51.5293 27.5195 51.5293 27.3861V22.3583C51.5293 22.2907 51.55 22.2418 51.5836 22.2172C51.5892 22.213 51.5954 22.2094 51.602 22.2068C51.6324 22.1939 51.67 22.1977 51.7109 22.2212L57.7435 25.6971C57.7968 25.7279 57.8447 25.7864 57.8778 25.8543C57.907 25.9139 57.9248 25.9811 57.9248 26.0436Z" fill="#375C71"/>
<path d="M56.54 27.8538V27.6603L55.191 26.0881V26.3977L56.2258 27.5708L56.2174 27.5466V27.595L56.2258 27.5804L55.191 27.5587V27.8683L56.54 27.8538ZM53.9088 24.6125L54.6001 27.977L54.8263 28.1076L54.1351 24.7431L53.9088 24.6125ZM52.1957 25.3455L53.5446 26.9177V26.6081L52.5099 25.435L52.5183 25.4592V25.4108L52.5099 25.4253L53.5446 25.4471V25.1375L52.1957 25.152V25.3455Z" fill="#FAFAFA"/>
<path d="M51.6146 22.2123C51.6315 22.2123 51.6503 22.2181 51.6703 22.2297L57.7393 25.7265C57.785 25.7528 57.8293 25.8052 57.861 25.8704C57.8892 25.928 57.9049 25.9904 57.9049 26.046V31.1042C57.9049 31.1602 57.8892 31.2026 57.8643 31.2192L57.8543 31.2247C57.8463 31.2284 57.8376 31.2303 57.8282 31.2303C57.8115 31.2303 57.7929 31.2245 57.7729 31.213L51.704 27.7162C51.6141 27.6643 51.5381 27.5179 51.5381 27.3966V22.3384C51.5381 22.2844 51.553 22.2425 51.579 22.2234C51.5827 22.2206 51.5862 22.2186 51.5907 22.2169C51.598 22.2139 51.606 22.2123 51.6146 22.2123ZM51.6146 22.1786C51.6014 22.1786 51.5889 22.1812 51.5775 22.186C51.5709 22.1886 51.5647 22.1922 51.5589 22.1965C51.5252 22.2212 51.5044 22.2704 51.5044 22.3385V27.3965C51.5044 27.5309 51.5862 27.687 51.6871 27.7452L57.756 31.242C57.7817 31.2568 57.8061 31.2639 57.8282 31.2639C57.8428 31.2639 57.8564 31.2609 57.8686 31.2551L57.8804 31.2486C57.9162 31.225 57.9386 31.1745 57.9386 31.1041V26.0459C57.9386 25.9829 57.9207 25.9154 57.8912 25.8555C57.858 25.7871 57.8098 25.7283 57.756 25.6974L51.6871 22.2004C51.6612 22.1856 51.6368 22.1786 51.6146 22.1786Z" fill="#2B586B"/>
<path d="M57.1685 22.3427C57.1685 22.4867 57.0674 22.5451 56.9426 22.4731C56.8179 22.401 56.7168 22.226 56.7168 22.082C56.7168 21.938 56.8179 21.8796 56.9426 21.9516C57.0674 22.0237 57.1685 22.1987 57.1685 22.3427Z" fill="white"/>
<path d="M58.0079 22.8609C58.0079 23.0049 57.9067 23.0632 57.782 22.9913C57.6573 22.9194 57.5562 22.7442 57.5562 22.6002C57.5562 22.4562 57.6573 22.3978 57.782 22.4698C57.9069 22.5418 58.0079 22.7169 58.0079 22.8609Z" fill="white"/>
<path d="M58.8472 23.379C58.8472 23.523 58.7461 23.5813 58.6214 23.5094C58.4966 23.4374 58.3955 23.2623 58.3955 23.1183C58.3955 22.9742 58.4966 22.9159 58.6214 22.9878C58.7461 23.0598 58.8472 23.2349 58.8472 23.379Z" fill="white"/>
</svg>
