<svg width="273" height="273" viewBox="0 0 273 273" fill="none" xmlns="http://www.w3.org/2000/svg">
<rect width="273" height="273" rx="136.5" fill="#375C71" fill-opacity="0.15"/>
<path d="M64.3431 223.593C24.4921 200.585 24.4921 163.281 64.3431 140.273C104.194 117.265 168.806 117.265 208.657 140.273C248.509 163.281 248.509 200.585 208.657 223.593C168.806 246.601 104.194 246.601 64.3431 223.593Z" fill="#F5F5F5"/>
<path d="M96.2346 224.702C113.526 224.702 127.543 216.609 127.543 206.625C127.543 196.642 113.526 188.549 96.2346 188.549C78.9431 188.549 64.9257 196.642 64.9257 206.625C64.9257 216.609 78.9431 224.702 96.2346 224.702Z" fill="#E0E0E0"/>
<path d="M168.607 198.188C190.319 186.478 203.197 168.226 197.37 157.422C191.543 146.617 169.218 147.351 147.505 159.061C125.792 170.771 112.914 189.022 118.741 199.827C124.568 210.631 146.894 209.897 168.607 198.188Z" fill="#E0E0E0"/>
<path d="M190.206 172.515C194.548 167.339 201.349 163.966 208.996 161.977C216.546 160.012 217.9 155.367 212.895 153.86C207.222 152.151 200.143 155.291 195.578 159.658C187.622 167.27 186.625 173.095 186.625 173.095L190.206 172.515Z" fill="#27DEBF"/>
<path opacity="0.15" d="M190.206 172.515C194.548 167.339 201.349 163.966 208.996 161.977C216.546 160.012 217.9 155.367 212.895 153.86C207.222 152.151 200.143 155.291 195.578 159.658C187.622 167.27 186.625 173.095 186.625 173.095L190.206 172.515Z" fill="black"/>
<path d="M187.97 172.212C187.937 172.212 187.905 172.205 187.873 172.19C187.764 172.136 187.718 172.005 187.772 171.895C194.216 158.674 208.476 155.421 211.942 155.666C212.063 155.675 212.154 155.781 212.146 155.902C212.137 156.024 212.025 156.114 211.91 156.106C208.525 155.846 194.513 159.071 188.168 172.088C188.13 172.167 188.051 172.212 187.97 172.212Z" fill="white"/>
<path d="M186.625 173.89C186.625 174.825 187.638 175.392 188.445 174.921C192.482 172.57 198.372 171.272 207.902 173.984C212.969 175.425 215.463 174.461 216.532 172.397C217.719 170.105 215.204 167.891 212.342 166.845C202.589 163.281 193.786 165.715 186.624 172.825L186.625 173.89Z" fill="#27DEBF"/>
<path d="M187.18 174.079C187.119 174.079 187.059 174.054 187.015 174.006C186.934 173.915 186.942 173.776 187.033 173.694C195.453 166.168 208.501 167.633 213.439 170.569C213.543 170.631 213.577 170.766 213.515 170.871C213.453 170.975 213.318 171.009 213.213 170.948C208.375 168.072 195.587 166.64 187.326 174.023C187.285 174.061 187.232 174.079 187.18 174.079Z" fill="white"/>
<path d="M92.3886 191.441C88.6872 185.789 82.3321 181.638 74.9725 178.76C67.7068 175.918 66.9108 171.146 72.0587 170.239C77.8942 169.212 84.5535 173.166 88.5709 178.041C95.5726 186.537 95.8754 192.44 95.8754 192.44L92.3886 191.441Z" fill="#27DEBF"/>
<path opacity="0.15" d="M92.3886 191.441C88.6872 185.789 82.3321 181.638 74.9725 178.76C67.7068 175.918 66.9108 171.146 72.0587 170.239C77.8942 169.212 84.5535 173.166 88.5709 178.041C95.5726 186.537 95.8754 192.44 95.8754 192.44L92.3886 191.441Z" fill="black"/>
<path d="M94.6443 191.405C94.677 191.408 94.71 191.405 94.7426 191.394C94.8581 191.353 94.9185 191.228 94.8784 191.113C90.0394 177.224 76.263 172.311 72.7917 172.146C72.67 172.14 72.5673 172.235 72.5616 172.356C72.5563 172.478 72.6572 172.581 72.7723 172.586C76.1643 172.728 89.6978 177.583 94.4623 191.258C94.491 191.341 94.5637 191.395 94.6443 191.405Z" fill="white"/>
<path d="M95.908 192.171C95.7458 193.534 94.2041 194.242 93.0639 193.477C89.3281 190.974 83.761 189.351 74.6424 190.812C69.4407 191.646 67.0779 190.394 66.2599 188.219C65.3515 185.803 68.1101 183.9 71.075 183.2C81.1809 180.811 89.6353 184.266 95.908 192.171Z" fill="#27DEBF"/>
<path d="M95.209 193.352C95.2694 193.359 95.332 193.341 95.3809 193.298C95.4722 193.217 95.4805 193.078 95.3999 192.987C87.9261 184.519 74.7972 184.435 69.5474 186.768C69.4364 186.817 69.3861 186.948 69.4355 187.059C69.4853 187.17 69.6153 187.22 69.7264 187.171C74.8695 184.885 87.7375 184.972 95.0693 193.279C95.1072 193.321 95.157 193.346 95.209 193.352Z" fill="white"/>
<path d="M194.16 90.7376L194.161 90.7345L194.092 90.6988C194.089 90.6975 194.087 90.6962 194.084 90.6948L177.283 81.0231C177.278 81.0204 177.273 81.0178 177.267 81.0147L177.169 80.9645L177.167 80.9689C169.319 77.0096 158.846 78.197 147.582 85.4804C124.953 100.113 107.709 133.794 109.067 160.708C109.744 174.124 114.916 183.323 122.735 187.367L122.733 187.37L122.803 187.405C122.806 187.407 122.808 187.408 122.811 187.409L139.616 197.083C139.618 197.084 139.621 197.085 139.623 197.087L139.706 197.129L139.707 197.126C147.558 201.097 158.039 199.913 169.313 192.623C191.942 177.99 209.186 144.31 207.828 117.396C207.151 103.98 201.978 94.781 194.16 90.7376Z" fill="#344055"/>
<path d="M139.044 196.777L122.817 187.408C122.804 187.408 122.804 187.408 122.804 187.408L122.729 187.363C114.914 183.309 109.745 174.11 109.069 160.713C108.463 148.71 111.564 135.369 117.176 122.978L117.29 122.706L133.983 132.648C128.359 145.039 125.27 158.381 125.875 170.384C126.537 183.511 131.505 192.598 139.044 196.777Z" fill="#263238"/>
<path d="M169.313 192.623C191.942 177.99 209.185 144.31 207.827 117.395C206.47 90.4815 187.024 80.5255 164.395 95.1587C141.766 109.792 124.522 143.472 125.88 170.386C127.238 197.301 146.684 207.256 169.313 192.623Z" fill="#375C71"/>
<path d="M188.476 88.6498L160.116 147.066L154.011 140.45C152.128 138.404 149.443 137.231 146.647 137.231C144.116 137.231 141.696 138.174 139.832 139.889C135.773 143.639 135.52 149.999 139.268 154.065L155.349 171.485C157.13 173.413 159.555 174.553 162.178 174.695C162.363 174.705 162.548 174.71 162.734 174.71C163.213 174.71 163.699 174.675 164.187 174.606C167.478 174.117 170.304 172.044 171.746 169.062L204.273 102.065C200.952 94.6369 195.396 90.0174 188.476 88.6498Z" fill="#344055"/>
<path d="M211.509 69.4059C211.332 69.3041 211.151 69.2075 210.964 69.1172C206.634 67.0236 201.41 68.8294 199.32 73.1465L163.229 147.483L161.179 145.262C160.568 144.599 159.877 144.054 159.133 143.628C158.056 143.011 153.482 140.361 152.742 139.934C149.534 138.083 145.349 138.432 142.469 141.08C138.945 144.336 138.725 149.858 141.979 153.388L158.061 170.809C158.672 171.471 159.373 172.025 160.137 172.46C161.187 173.057 165.745 175.7 166.491 176.133C167.667 176.815 168.996 177.215 170.39 177.291C170.964 177.321 171.541 177.298 172.134 177.214C174.989 176.789 177.445 174.989 178.697 172.401L221.393 84.4583C223.398 80.3197 221.834 75.3621 217.917 73.1055C217.738 73.0019 212.65 70.0622 211.509 69.4059Z" fill="#43E3E0"/>
<path opacity="0.15" d="M211.509 69.4059C211.332 69.3041 211.151 69.2075 210.964 69.1172C206.634 67.0236 201.41 68.8294 199.32 73.1465L163.229 147.483L161.179 145.262C160.568 144.599 159.877 144.054 159.133 143.628C158.056 143.011 153.482 140.361 152.742 139.934C149.534 138.083 145.349 138.432 142.469 141.08C138.945 144.336 138.725 149.858 141.979 153.388L158.061 170.809C158.672 171.471 159.373 172.025 160.137 172.46C161.187 173.057 165.745 175.7 166.491 176.133C167.667 176.815 168.996 177.215 170.39 177.291C170.964 177.321 171.541 177.298 172.134 177.214C174.989 176.789 177.445 174.989 178.697 172.401L221.393 84.4583C223.398 80.3197 221.834 75.3621 217.917 73.1055C217.738 73.0019 212.65 70.0622 211.509 69.4059Z" fill="black"/>
<path opacity="0.15" d="M166.49 176.132C165.747 175.701 161.187 173.058 160.136 172.458C159.373 172.023 158.671 171.469 158.059 170.808L141.978 153.389C141.248 152.592 140.698 151.69 140.316 150.741L146.711 154.431C147.089 155.383 147.647 156.286 148.381 157.083L164.462 174.502C165.061 175.151 165.743 175.697 166.49 176.132Z" fill="black"/>
<path opacity="0.15" d="M207.739 74.1611C206.919 74.8919 206.229 75.7945 205.72 76.8413L168.6 153.303L163.231 147.483L199.322 73.1474C199.826 72.0966 200.524 71.198 201.345 70.4672L207.739 74.1611Z" fill="black"/>
<path d="M217.365 72.8133C213.035 70.7198 207.811 72.5255 205.721 76.8422L168.599 153.303L161.179 145.262C157.937 141.74 152.415 141.516 148.87 144.776C145.346 148.032 145.127 153.553 148.381 157.084L164.462 174.504C166.007 176.177 168.112 177.167 170.39 177.291C170.965 177.321 171.542 177.298 172.134 177.214C174.99 176.789 177.446 174.989 178.698 172.401L221.394 84.4583C223.489 80.1306 221.684 74.9073 217.365 72.8133Z" fill="#43E3E0"/>
<path d="M95.611 81.4007C92.2495 81.4007 89.947 82.276 87.559 85.6773C85.3689 88.7969 79.3435 99.1981 79.3435 99.1981C79.3435 99.1981 74.9497 90.1566 74.4931 88.3526C74.0365 86.5491 74.077 85.7482 74.5112 84.965C75.0458 84.0002 75.5227 83.1549 75.624 81.8639C75.7942 79.6985 76.3261 77.843 75.8396 77.7813C74.4935 77.7042 74.4428 79.4301 73.7363 80.4513C73.4842 80.8154 72.66 80.8687 72.3819 80.3028C72.0848 79.699 72.2448 78.7086 72.1007 77.9946C72.1651 77.3771 72.221 77.1775 72.2911 76.8156C72.6701 76.9038 73.2215 76.9143 73.8337 76.8588C74.4146 77.772 74.8135 78.1559 75.624 77.7853C75.7311 77.6142 75.2758 76.4436 74.7487 75.5996C74.6654 75.466 74.5385 75.3647 74.3869 75.3228C73.5724 75.098 72.649 75.0429 71.3977 75.2408C71.2501 75.2642 71.098 75.3299 71.0147 75.4537C70.548 76.1457 70.2685 76.8465 70.1548 77.2026C70.0949 77.3903 69.9212 77.3855 69.8776 77.2229C69.4478 75.0945 69.4417 72.0723 69.4417 70.6548C69.4417 69.5415 67.8122 69.3665 67.7554 70.9616C67.6972 72.5955 67.6549 75.6199 67.8656 77.3846C67.8907 77.5768 67.6734 77.6689 67.5945 77.4582C67.3107 76.7019 66.6191 74.425 66.3291 70.494C66.2511 69.4379 64.541 69.2634 64.5538 70.7496C64.5886 74.8221 65.5327 78.5768 65.5327 78.5768C65.5825 78.7633 65.4137 78.9263 65.2845 78.7152C64.716 77.7853 63.8217 75.4753 63.3691 73.886C63.0063 72.6109 61.3015 72.9344 61.5995 74.5246C62.1341 77.3767 62.9808 80.9855 64.2417 83.5617C65.5904 86.3172 66.7575 87.6954 67.4257 89.86C68.0939 92.0249 70.8688 104.283 73.8342 109.06C76.1573 112.803 78.8155 112.459 81.6742 110.485C84.5329 108.51 94.7547 94.2679 94.7547 94.2679L95.611 81.4007Z" fill="#9E6767"/>
<path d="M79.3435 99.1976C79.3435 99.1976 80.7773 101.629 80.995 103.57C80.995 103.57 81.6874 100.79 79.9844 98.0962L79.3435 99.1976Z" fill="#874C4C"/>
<path d="M96.3251 81.4117C94.615 81.2359 92.4892 81.1768 90.114 82.6696C87.7389 84.1624 86.9151 86.2467 85.7656 88.0657C84.6162 89.8851 80.6384 96.335 80.6384 96.335C80.6384 96.335 82.0969 102.457 87.8997 103.719L96.5869 91.9315L96.3251 81.4117Z" fill="#375C71"/>
<path d="M104.116 189.049C104.54 188.995 105.14 190.496 105.149 190.986C105.157 191.476 104.666 192.529 104.016 193.515C103.365 194.502 102.465 195.723 101.88 197.317C101.382 198.675 100.922 199.566 99.5358 201.343C97.991 203.324 94.3707 206.635 88.8679 205.193C87.525 204.842 86.8533 204.418 86.3671 203.93C85.9568 203.518 85.762 202.849 85.9824 202.247L104.116 189.049Z" fill="#2B586B"/>
<path d="M93.309 187.332C93.3046 187.347 93.3006 187.363 93.2971 187.379C93.2019 187.783 93.2825 188.205 93.3337 188.618C93.5135 190.064 93.3209 191.556 92.7788 192.909C92.4143 193.819 91.8929 194.665 91.2476 195.402C90.5904 196.152 89.515 196.945 88.6763 197.481C85.8886 199.26 85.5893 200.449 85.982 202.246C86.9142 204.34 93.2327 205.614 96.8649 202.495C98.2841 201.276 99.3613 200.206 100.322 197.794C100.998 196.098 101.503 195.138 102.154 193.916C102.858 192.595 104.19 191.103 104.229 189.741C104.25 188.992 103.509 187.6 102.789 186.453C102.128 185.4 101.448 184.399 100.853 184.517L101.017 185.112C100.522 185.626 99.8029 185.818 99.3688 186.422C98.8333 187.168 98.8527 188.169 98.5195 189.024C98.4873 189.107 98.4424 189.196 98.3577 189.222C98.2678 189.249 98.17 189.187 98.1259 189.104C98.0818 189.021 98.0778 188.923 98.0748 188.829C98.062 188.401 98.0488 187.974 98.036 187.546C98.0285 187.302 98.0131 187.035 97.8504 186.852C97.5066 186.463 96.6586 186.509 96.1879 186.489C95.5422 186.463 94.9283 186.563 94.2892 186.604C94.0516 186.618 93.8736 186.604 93.6713 186.767C93.4958 186.909 93.3698 187.115 93.309 187.332Z" fill="#37474F"/>
<path d="M83.9714 161.708C85.44 166.533 92.3011 183.24 92.7132 184.246C93.1257 185.251 94.0782 187.562 94.0782 187.562C94.0782 187.562 95.199 188.023 96.865 187.678C97.0091 189.278 97.2507 191.787 97.3459 193.053C97.3776 194.521 97.5054 196.333 97.1898 197.784C96.9205 199.02 96.6094 200.315 96.3762 201.553C96.2731 202.101 96.17 202.649 96.0875 203.201C95.9998 203.784 95.9434 204.415 96.2255 204.932C96.3577 205.175 96.5565 205.375 96.7698 205.551C97.7205 206.333 99 206.665 100.227 206.566C100.877 206.513 101.53 206.338 102.06 205.959C103.126 205.195 103.501 203.868 104.044 202.74C104.633 201.517 104.442 201.383 104.492 200.072C104.527 199.156 104.781 196.828 105.148 194.396C105.515 191.964 107.093 183.413 107.85 174.892C108.374 168.993 107.85 163.522 107.85 163.522C113.871 147.164 116.551 137.44 117.339 132.007C118.138 126.488 117.755 124.525 117.654 121.348L88.3758 122.053C86.0222 137.186 82.0013 155.236 83.9714 161.708Z" fill="#9E6767"/>
<path d="M83.5143 149.629C84.1172 144.067 88.2775 122.685 88.2775 122.685H117.774C117.774 122.685 117.961 126.79 117.908 128.675C117.854 130.559 117.249 134.007 116.193 138.363C115.137 142.719 111.236 155.061 110.483 156.883C109.729 158.706 108.268 163.967 108.268 163.967C108.992 173.859 107.111 182.735 105.7 194.532C105.7 194.532 105.292 196.125 101.112 195.81C97.0492 195.503 96.2294 194.006 96.2294 194.006L95.9575 183.826C95.9575 183.826 93.7361 184.508 92.4319 184.196C92.4319 184.196 83.7012 162.642 83.2789 161.344C82.858 160.045 82.9109 155.191 83.5143 149.629Z" fill="#27DEBF"/>
<path opacity="0.45" d="M83.5143 149.629C84.1172 144.067 88.2775 122.685 88.2775 122.685H117.774C117.774 122.685 117.961 126.79 117.908 128.675C117.854 130.559 117.249 134.007 116.193 138.363C115.137 142.719 111.236 155.061 110.483 156.883C109.729 158.706 108.268 163.967 108.268 163.967C108.992 173.859 107.111 182.735 105.7 194.532C105.7 194.532 105.292 196.125 101.112 195.81C97.0492 195.503 96.2294 194.006 96.2294 194.006L95.9575 183.826C95.9575 183.826 93.7361 184.508 92.4319 184.196C92.4319 184.196 83.7012 162.642 83.2789 161.344C82.858 160.045 82.9109 155.191 83.5143 149.629Z" fill="black"/>
<path opacity="0.2" d="M96.0245 136.624C91.848 132.857 90.9193 129.861 90.9193 129.861C94.0323 133.535 98.2741 135.755 98.2741 135.755C98.2741 135.755 94.3082 156.7 94.5969 161.006C94.8852 165.313 95.9588 183.826 95.9588 183.826C95.9667 184.004 93.1469 164.247 93.0666 162.667C92.8555 158.508 96.0245 136.624 96.0245 136.624Z" fill="black"/>
<path d="M105.218 205.02C105.629 205.137 105.578 206.364 105.392 206.819C105.206 207.274 104.474 208.143 103.486 208.795C102.499 209.447 101.58 210.36 100.689 211.808C100.056 212.837 98.4609 214.795 96.3034 216.089C94.1464 217.382 90.958 217.834 88.5894 217.161C85.8224 216.375 85.5646 215.697 85.5906 214.653L105.218 205.02Z" fill="#2B586B"/>
<path d="M96.6565 198.611C95.931 202.154 94.6656 204.726 91.7316 206.906C89.3987 208.64 87.7036 209.521 85.8423 211.07C85.0494 211.73 84.9829 213.137 85.5907 214.654C86.8486 215.664 88.638 216.242 91.0418 216.238C93.7282 216.234 94.7617 215.761 96.3035 214.705C97.1911 214.097 97.8051 213.542 98.4089 212.936C99.6994 211.641 100.599 210.043 101.531 209.016C102.462 207.989 104.477 206.941 105.05 205.702C105.365 205.021 105.231 203.447 105.021 202.108C104.827 200.878 105.204 198.719 104.611 198.593C104.623 198.596 104.53 199.473 104.53 199.473C104.482 199.673 104.357 199.773 103.942 199.917C103.664 200.013 103.097 199.999 102.807 199.951C102.468 199.895 102.274 199.9 102.049 200.166C101.651 200.635 101.545 201.294 101.035 201.681C100.999 201.709 100.961 201.734 100.917 201.744C100.873 201.754 100.822 201.744 100.794 201.709C100.762 201.67 100.766 201.614 100.771 201.565C100.82 201.126 100.87 200.686 100.919 200.247C100.934 200.114 100.948 199.98 100.93 199.848C100.895 199.602 100.709 199.393 100.504 199.268C100.145 199.05 99.7237 198.889 99.3195 198.776C98.8906 198.657 98.449 198.593 98.0061 198.553C97.5609 198.512 97.0964 198.503 96.6565 198.611Z" fill="#375C71"/>
<path d="M115.109 82.6696C115.109 82.6696 116.324 84.3387 117.297 87.7721C117.297 87.7721 119.149 95.6223 119.149 104.926C119.149 112.711 118.098 125.331 118.098 125.331C109.06 129.861 94.4796 127.182 88.0632 122.764C88.3228 121.361 88.5432 113.993 89.0474 109.132C89.3894 100.791 89.6706 96.4214 89.7297 92.7116C89.8474 85.2978 93.5373 81.469 96.3246 81.4122L103.403 81.5228L115.109 82.6696Z" fill="#27DEBF"/>
<path d="M117.339 123.042C115.996 124.148 113.357 126.274 112.874 127.344C112.322 128.57 111.978 130.416 111.619 131.128C111.259 131.841 111.81 132.174 112.585 131.925C113.359 131.677 113.825 131.015 114.423 129.411C115.021 127.808 116.688 126.553 116.688 126.553L117.339 123.042Z" fill="#874C4C"/>
<path d="M112.432 137.471C112.752 138.091 113.504 138.094 114.2 138.15C115.19 138.23 115.75 138.161 116.699 137.866C117.647 137.571 118.532 137.009 119.101 136.194C119.78 135.219 119.953 133.992 120.34 132.869C121.154 130.509 123.57 128.81 123.964 126.311C124.126 125.277 124.128 124.062 124.421 123.421C124.593 123.044 128.564 116.207 129.98 113.246C131.341 110.399 132.359 109.06 131.125 105.637C129.891 102.215 125.688 90.18 122.716 85.9982C121.029 83.6256 118.353 82.95 115.109 82.6688C112.641 89.0988 115.514 95.7387 115.514 95.7387L122.042 108.334C122.042 108.334 119.504 117.007 117.918 121.831C117.477 123.171 116.586 123.998 115.585 125.484C115.151 126.129 114.151 127.258 113.795 127.95C113.338 128.841 113.35 129.411 113.135 130.659C112.793 132.648 112.279 137.175 112.432 137.471Z" fill="#9E6767"/>
<path d="M114.761 82.6353C116.466 82.7036 118.916 82.9918 120.382 83.7318C121.848 84.4718 122.862 85.3864 124.549 88.7612C126.236 92.1364 128.692 98.6952 128.692 98.6952C128.692 98.6952 127.877 103.644 120.051 104.928L114.761 95.1754C114.761 95.1754 112.404 89.0992 114.761 82.6353Z" fill="#375C71"/>
<path d="M94.4285 66.8821C94.6837 67.2541 94.8257 67.7622 95.0271 68.1686C95.3105 68.7407 95.5943 69.3203 96.0161 69.806C97.0303 70.9744 98.457 71.8308 99.7537 72.6576C100.541 73.1601 101.44 73.6325 102.402 73.4946C103.379 73.3544 104.435 73.5664 105.43 73.6555C106.586 73.759 107.741 73.8626 108.897 73.9662L108.702 77.6129C108.702 77.6129 109.131 76.6459 109.719 75.4929C110.224 74.5017 112.33 69.4697 112.338 69.4507C113.382 66.9574 114.622 63.6355 113.372 61.0162C113.077 60.3982 112.641 59.8222 112.016 59.4612C112.142 58.9804 112.181 58.6458 112.131 58.2196C111.963 56.8101 111.246 56.004 110.289 55.3001C109.333 54.5962 108.175 54.219 107.018 53.9528C105.467 53.5962 103.876 53.4199 102.285 53.4261C100.702 53.4322 99.1943 53.6976 97.6412 53.9594C96.7857 54.1035 95.9222 54.2198 95.0535 54.2295C94.689 54.2335 94.2844 54.2577 93.9331 54.1762C93.4779 54.0704 93.0217 53.847 92.5818 53.6883C92.5034 53.6601 92.4148 53.6323 92.3403 53.6689C92.2645 53.7059 92.2319 53.7954 92.2098 53.8769C91.9313 54.8964 92.2817 56.2217 92.93 57.0561C92.6651 57.0226 92.4602 56.9326 92.3566 56.8895C92.1424 56.8 91.9568 56.677 91.7611 56.5549C91.4094 56.3354 91.1939 56.0802 90.9246 55.7567C90.8871 55.7118 90.8448 55.6637 90.7871 55.6536C90.6998 55.6382 90.6253 55.7144 90.5729 55.7858C90.0704 56.4721 89.9448 57.3879 90.1145 58.2218C90.2842 59.0553 90.7245 59.8138 91.2613 60.474C90.6853 61.33 90.6765 62.4935 91.1053 63.4319C91.2957 63.8484 91.565 64.2248 91.8841 64.5523C92.2795 64.9578 92.7484 65.2892 93.1645 65.6665C93.5889 66.0521 94.1006 66.4043 94.4285 66.8821Z" fill="#37474F"/>
<path d="M104.991 60.8095C105.001 61.7813 105.138 62.4601 105.241 62.7593C105.446 63.357 105.788 63.7514 106.225 64.2085C106.673 64.677 107.228 65.0503 107.59 65.588C108.084 66.3219 108.253 67.2677 108.357 68.1263C108.42 68.6486 108.581 69.2176 109.028 69.4944C109.971 70.0775 110.536 68.9465 111.039 68.3916C111.687 67.7918 113.61 67.061 114.5 69.1048C115.422 71.2221 113.723 74.0257 112.175 74.4567C109.507 75.1998 108.928 73.3848 108.928 73.3848L108.417 82.905C106.91 85.7579 103.376 86.6632 101.053 86.2093C99.0484 85.8174 97.9466 84.4128 99.8321 82.3739L99.9339 79.4746C99.9339 79.4746 97.5292 79.7603 96.3674 79.5416C94.4347 79.178 93.4765 77.5362 92.9556 75.4145C92.119 72.0071 91.7364 68.4256 92.7709 60.7539C93.246 60.4921 95.1522 61.9779 98.0387 62.1771C100.907 62.3754 103.552 61.605 104.991 60.8095Z" fill="#9E6767"/>
<path d="M99.9343 79.4751C99.9343 79.4751 104.298 78.7426 105.84 77.9858C106.873 77.4794 107.738 76.5719 108.003 75.9808C108.003 75.9808 107.677 77.2581 106.733 78.3873C105.579 79.7686 99.8969 80.6285 99.8969 80.6285L99.9343 79.4751Z" fill="#874C4C"/>
<path d="M102.188 64.1997L104.219 64.8212C104.378 64.242 104.051 63.6333 103.49 63.4614C102.929 63.2896 102.346 63.6201 102.188 64.1997Z" fill="#2B586B"/>
<path d="M101.482 73.8428L98.4913 74.8556C98.7562 75.712 99.6404 76.1792 100.466 75.8998C101.292 75.6203 101.747 74.6992 101.482 73.8428Z" fill="#874C4C"/>
<path d="M101.24 74.5749C100.414 74.5749 99.7259 75.1457 99.535 75.9126C99.829 76.0034 100.152 76.0064 100.466 75.9002C101.046 75.7036 101.437 75.1889 101.53 74.6044C101.435 74.5886 101.339 74.5749 101.24 74.5749Z" fill="#F28F8F"/>
<path d="M93.1191 64.5408L95.1822 64.2689C95.1209 63.7078 94.6092 63.3138 94.0394 63.3887C93.4699 63.4636 93.0578 63.9793 93.1191 64.5408Z" fill="#2B586B"/>
<path d="M105.825 65.4214L112.641 67.7574C112.641 67.7574 111.573 67.671 110.677 68.7544L105.849 66.9204L105.825 65.4214Z" fill="#2B586B"/>
<path d="M94.1336 68.0805C94.1187 68.5477 94.4708 68.9373 94.9208 68.9505C95.3704 68.9637 95.7477 68.5961 95.7626 68.1285C95.7781 67.6613 95.4255 67.2717 94.9759 67.258C94.5259 67.2448 94.1491 67.6128 94.1336 68.0805Z" fill="#2B586B"/>
<path d="M101.923 68.0844C101.908 68.5516 102.261 68.9413 102.711 68.9545C103.16 68.9677 103.537 68.6001 103.552 68.1325C103.568 67.6653 103.215 67.2752 102.766 67.262C102.316 67.2492 101.939 67.6173 101.923 68.0844Z" fill="#2B586B"/>
<path d="M90.1132 65.9159C90.1432 66.3302 90.4076 66.7155 90.5434 66.8768C90.6148 66.9618 90.6809 67.0738 90.7161 67.2192C90.8753 67.8746 91.011 69.1167 91.3217 69.8144C91.6338 70.5112 92.2848 71.6166 94.1152 71.6584C94.4713 71.6673 94.7864 71.6382 95.0659 71.5782C95.0901 71.5738 95.1144 71.5676 95.1377 71.5628C95.4335 71.494 95.6887 71.3891 95.9103 71.2587C95.9258 71.2494 95.9416 71.2397 95.9562 71.23C95.9791 71.2168 96.0007 71.2032 96.0223 71.1882C96.0417 71.1758 96.0606 71.1622 96.1052 71.1309C96.1316 71.1124 96.1567 71.0934 96.1818 71.0731C96.2109 71.0511 96.2383 71.0286 96.2656 71.0048C96.2929 70.9823 96.3194 70.959 96.3458 70.9339C96.3983 70.8854 96.4472 70.8351 96.4952 70.7827C96.7658 70.4887 96.9611 70.144 97.1158 69.7958C97.5186 68.8888 97.4142 67.6194 98.0771 67.4727C98.1017 67.4674 98.1291 67.463 98.1564 67.4612C98.1837 67.4581 98.2124 67.4577 98.2423 67.4577C99.1437 67.4709 99.0432 68.8535 99.5478 69.8404C100.051 70.829 100.885 71.7929 102.84 71.8202C102.927 71.822 103.012 71.8202 103.093 71.818C103.162 71.8149 103.229 71.8114 103.294 71.8043C103.462 71.7924 103.619 71.7686 103.765 71.7378C103.816 71.7263 103.865 71.7157 103.913 71.7034C103.961 71.6911 104.009 71.6765 104.054 71.6633C104.084 71.6554 104.114 71.6452 104.144 71.6351C104.343 71.5659 104.518 71.4826 104.673 71.3865C104.735 71.3477 104.793 71.3085 104.851 71.2671C104.962 71.1846 105.061 71.0974 105.157 70.9986C105.45 70.6936 105.627 70.3565 105.749 70.0814C106.053 69.3961 106.132 68.1545 106.283 67.5079C106.323 67.336 106.376 67.2166 106.432 67.1337C106.559 66.9464 106.861 66.6211 106.873 66.2064C106.885 65.7917 106.592 65.4302 106.328 65.3919C106.175 65.3699 106.014 65.3483 105.849 65.328C104.306 65.1411 102.295 65.0587 101.091 65.3853C99.5827 65.7978 99.0595 66.2813 98.2181 66.2694C97.4314 66.2509 96.9205 65.7493 95.4916 65.2826C94.3514 64.9119 92.4712 64.9229 91.0352 65.0543C90.8814 65.0684 90.7329 65.0838 90.5905 65.101C90.3437 65.1288 90.0832 65.5016 90.1132 65.9159ZM100.038 66.8596C100.118 66.7424 100.268 66.6211 100.467 66.5088C100.492 66.4929 100.517 66.4792 100.545 66.4656C100.559 66.4572 100.573 66.4501 100.588 66.4431C100.655 66.4083 100.726 66.3743 100.8 66.3426C100.863 66.3153 100.929 66.2879 100.997 66.2619C101.195 66.1852 101.414 66.1169 101.641 66.0592C101.725 66.038 101.811 66.0173 101.897 65.9997C102.116 65.9525 102.338 65.9182 102.56 65.8952C102.614 65.8895 102.666 65.8842 102.715 65.8829C104.168 65.7648 105.074 66.1072 105.404 66.4052C105.746 66.7146 105.591 68.0562 105.453 68.7376C105.449 68.7544 105.446 68.7711 105.442 68.7883C105.439 68.805 105.435 68.8231 105.432 68.8412C105.415 68.9236 105.395 69.017 105.37 69.1162C105.355 69.1709 105.339 69.2286 105.322 69.2868C105.321 69.2899 105.321 69.2921 105.32 69.2938C105.293 69.3859 105.261 69.4807 105.223 69.5786V69.5794C105.211 69.6112 105.197 69.6447 105.183 69.6768C105.176 69.6958 105.167 69.7152 105.157 69.735C105.148 69.7566 105.139 69.7778 105.127 69.7998C105.115 69.8267 105.101 69.8545 105.087 69.8813C105.072 69.9118 105.056 69.9422 105.038 69.9717C105.021 70.0034 105.002 70.0352 104.98 70.0678C104.961 70.0991 104.939 70.1321 104.917 70.1643C104.556 70.6857 103.946 71.1251 102.886 71.1221C101.838 71.1198 101.169 70.7593 100.741 70.3045L100.74 70.304C100.316 69.8505 100.127 69.3053 100.037 68.9276C99.8581 68.1629 99.7545 67.2743 100.038 66.8596ZM91.4936 66.1487C91.5738 66.072 91.6915 65.9935 91.8484 65.9239C91.8581 65.919 91.8665 65.9155 91.8762 65.9115C91.9247 65.8895 91.9762 65.8692 92.0331 65.8498C92.0635 65.8397 92.0966 65.8282 92.1292 65.819C92.1547 65.8115 92.1825 65.8027 92.209 65.7965C92.227 65.7903 92.2455 65.7868 92.2623 65.7824C92.2698 65.7798 92.2768 65.7784 92.283 65.7776C92.3086 65.7709 92.3355 65.7652 92.3619 65.759C92.465 65.7361 92.577 65.7181 92.696 65.7039C92.7546 65.6965 92.815 65.6898 92.8771 65.6863C92.9124 65.6828 92.949 65.681 92.9864 65.6784C93.0146 65.6766 93.0424 65.6757 93.0706 65.6749C93.1451 65.6731 93.2227 65.6713 93.302 65.6727C93.3302 65.6731 93.3584 65.6731 93.3875 65.674C93.4131 65.6744 93.44 65.6753 93.4669 65.6762C93.6744 65.6841 93.8979 65.7048 94.1363 65.7392C95.1721 65.8891 96.2541 66.369 96.5362 66.7948C96.8183 67.2201 96.7553 68.1051 96.62 68.8632C96.5926 69.0131 96.5525 69.1872 96.489 69.371C96.4855 69.3833 96.4798 69.3965 96.4754 69.4106C96.4697 69.4274 96.4639 69.4446 96.4569 69.4622C96.4525 69.4737 96.4489 69.4851 96.4441 69.4966C96.4362 69.5169 96.4282 69.5376 96.4185 69.5574C96.4009 69.6002 96.3824 69.6411 96.3626 69.683C96.3462 69.7183 96.3277 69.7549 96.3088 69.7901C96.3017 69.8033 96.2947 69.8161 96.2876 69.828C96.2744 69.8509 96.2603 69.8756 96.2449 69.8999C96.233 69.9201 96.2202 69.9408 96.2061 69.962C96.2048 69.9651 96.2026 69.9686 96.2004 69.9721C95.8398 70.5244 95.1963 71.0004 94.0433 70.9572C93.6088 70.9431 93.2496 70.8457 92.9565 70.6963C91.9273 70.1731 91.6642 69.0162 91.5417 68.4798C91.3878 67.7944 91.1864 66.4448 91.4936 66.1487Z" fill="#2B586B"/>
<path d="M98.4914 67.5053L98.3371 73.1711L95.1752 72.2583L98.1224 67.4586C98.2591 67.4449 98.3803 67.4648 98.4914 67.5053Z" fill="#874C4C"/>
<path d="M142.679 68.2263C151.698 68.2263 159.009 61.8226 159.009 53.9232C159.009 46.0238 151.698 39.6201 142.679 39.6201C133.66 39.6201 126.349 46.0238 126.349 53.9232C126.349 61.8226 133.66 68.2263 142.679 68.2263Z" fill="#2B586B"/>
<path d="M129.644 62.1929C129.555 64.1119 127.933 67.54 124.999 68.7874C124.814 68.8658 124.836 69.1316 125.033 69.1726C126.635 69.5062 130.913 69.9095 134.068 65.7502L129.644 62.1929Z" fill="#2B586B"/>
<path d="M131.608 52.7883C131.642 52.1461 131.782 51.5414 132.029 50.9741C132.275 50.4065 132.625 49.9137 133.078 49.4954C133.531 49.0772 134.081 48.7448 134.729 48.498C135.376 48.2512 136.124 48.1282 136.973 48.1282C137.809 48.1282 138.555 48.2512 139.208 48.498C139.861 48.7448 140.415 49.0772 140.868 49.4954C141.32 49.9137 141.67 50.4065 141.917 50.9741C142.164 51.5414 142.304 52.1461 142.338 52.7883C142.361 53.281 142.372 53.7971 142.372 54.3357C142.372 54.8752 142.361 55.379 142.338 55.8492C142.304 56.4914 142.164 57.0961 141.917 57.6634C141.67 58.231 141.32 58.7269 140.868 59.1509C140.415 59.5753 139.862 59.9076 139.208 60.1487C138.555 60.3894 137.809 60.5097 136.973 60.5097C136.124 60.5097 135.376 60.3894 134.729 60.1487C134.081 59.9076 133.531 59.5753 133.078 59.1509C132.625 58.7269 132.275 58.231 132.029 57.6634C131.782 57.0961 131.642 56.4914 131.608 55.8492C131.584 55.3794 131.573 54.8752 131.573 54.3357C131.573 53.7971 131.584 53.281 131.608 52.7883ZM139.157 55.7633C139.168 55.5566 139.18 55.3278 139.191 55.0753C139.202 54.8236 139.208 54.5658 139.208 54.3018C139.208 54.0378 139.202 53.783 139.191 53.5366C139.18 53.2898 139.168 53.0694 139.157 52.8742C139.133 52.5882 139.073 52.3241 138.976 52.0835C138.879 51.8424 138.741 51.6335 138.563 51.4554C138.385 51.2783 138.165 51.1372 137.901 51.0345C137.637 50.9314 137.328 50.8794 136.973 50.8794C136.617 50.8794 136.308 50.9309 136.045 51.0345C135.781 51.1372 135.56 51.2783 135.382 51.4554C135.205 51.6335 135.067 51.8424 134.97 52.0835C134.872 52.3241 134.812 52.5882 134.789 52.8742C134.766 53.0694 134.751 53.2898 134.746 53.5366C134.74 53.7835 134.737 54.0382 134.737 54.3018C134.737 54.5658 134.74 54.8236 134.746 55.0753C134.751 55.3278 134.766 55.557 134.789 55.7633C134.835 56.3367 135.033 56.8123 135.382 57.1904C135.732 57.5686 136.262 57.7577 136.973 57.7577C137.683 57.7577 138.211 57.5686 138.555 57.1904C138.899 56.8123 139.099 56.3363 139.157 55.7633Z" fill="#FAFAFA"/>
<path d="M154.548 59.7697C154.582 59.8155 154.599 59.8786 154.599 59.9588C154.599 60.0619 154.562 60.1509 154.487 60.225C154.412 60.2999 154.324 60.3369 154.221 60.3369H151.487C151.326 60.3369 151.194 60.3026 151.091 60.2338C150.988 60.165 150.885 60.0676 150.781 59.9416L147.531 55.8488V59.8728C147.531 59.9993 147.485 60.1082 147.393 60.1994C147.302 60.2915 147.193 60.3374 147.067 60.3374H144.814C144.688 60.3374 144.579 60.2915 144.488 60.1994C144.396 60.1082 144.35 59.9993 144.35 59.8728V48.7642C144.35 48.6382 144.396 48.5293 144.488 48.4376C144.579 48.346 144.688 48.2997 144.814 48.2997H147.067C147.193 48.2997 147.302 48.3455 147.393 48.4376C147.485 48.5293 147.531 48.6382 147.531 48.7642V52.3925L150.558 48.6779C150.615 48.6091 150.69 48.5289 150.781 48.4372C150.873 48.3455 151.028 48.2993 151.246 48.2993H153.928C154.031 48.2993 154.121 48.3367 154.195 48.4112C154.269 48.4857 154.306 48.5743 154.306 48.6774C154.306 48.7581 154.289 48.8207 154.255 48.8669L150.007 54.0598L154.548 59.7697Z" fill="#FAFAFA"/>
<path d="M184.813 67.4444L182.343 68.1884L180.556 62.2269L183.022 61.4833L184.813 67.4444Z" fill="#E0E0E0"/>
<path d="M192.534 62.1498C192.63 62.4697 192.313 63.1586 191.833 63.3036C191.833 63.3036 192.063 63.5469 192.18 63.9348C192.322 64.3962 191.944 65.0168 191.202 65.2381C190.463 65.4593 185.547 66.9398 185.547 66.9398L183.883 61.4027L183.879 61.4022C183.879 61.4022 184.839 58.953 184.886 58.5846C184.942 58.2218 184.368 56.8573 184.291 56.6008C184.228 56.3918 185.128 56.0119 185.852 56.3037C186.019 56.372 186.177 56.4734 186.313 56.6228C186.597 56.9331 186.809 57.2372 186.962 57.5514C187.206 58.0367 187.306 58.5418 187.306 59.1148L190.722 58.0869C191.007 58.0014 191.256 58.0261 191.453 58.1099C191.758 58.2355 191.954 58.4968 192.017 58.708C192.174 59.2073 191.883 59.5908 191.727 59.7398C191.727 59.7398 192.455 59.6798 192.661 60.3674C192.777 60.7526 192.585 61.2621 192.097 61.5129C192.097 61.5129 192.39 61.6715 192.534 62.1498Z" fill="#E0E0E0"/>
<path d="M220.244 129.277L217.075 128.515L218.922 120.872L222.087 121.632L220.244 129.277Z" fill="#E0E0E0"/>
<path d="M232.041 128.417C231.942 128.828 231.158 129.377 230.542 129.23C230.542 129.23 230.638 129.642 230.518 130.139C230.379 130.733 229.572 131.17 228.621 130.939C227.674 130.71 221.366 129.194 221.366 129.194L223.078 122.092L223.074 122.089C223.074 122.089 225.681 120.027 225.967 119.655C226.259 119.295 226.502 117.441 226.582 117.112C226.647 116.844 227.87 117.002 228.474 117.782C228.613 117.963 228.721 118.174 228.775 118.424C228.886 118.944 228.924 119.41 228.89 119.851C228.847 120.536 228.635 121.15 228.27 121.776L232.653 122.83C233.018 122.919 233.275 123.104 233.436 123.321C233.688 123.653 233.735 124.062 233.669 124.333C233.523 124.979 232.961 125.211 232.695 125.274C232.695 125.274 233.528 125.673 233.315 126.554C233.196 127.048 232.663 127.482 231.97 127.445C231.971 127.445 232.189 127.804 232.041 128.417Z" fill="#E0E0E0"/>
<path d="M60.1729 124.704L63.6318 125.745L66.1348 117.397L62.6811 116.356L60.1729 124.704Z" fill="#E0E0E0"/>
<path d="M49.3614 117.289C49.2269 117.737 49.6703 118.702 50.342 118.905C50.342 118.905 50.0194 119.245 49.8568 119.788C49.658 120.435 50.186 121.304 51.2257 121.614C52.2602 121.924 59.1446 123.997 59.1446 123.997L61.4749 116.243L61.4802 116.242C61.4802 116.242 60.1363 112.812 60.0706 112.296C59.9926 111.788 60.7961 109.877 60.9037 109.518C60.9914 109.225 59.7317 108.694 58.7176 109.102C58.484 109.198 58.2623 109.34 58.0714 109.549C57.6747 109.984 57.3777 110.41 57.1639 110.85C56.8219 111.529 56.6817 112.236 56.6817 113.039L51.8974 111.599C51.4977 111.48 51.149 111.514 50.8731 111.632C50.4465 111.807 50.1728 112.173 50.0842 112.469C49.8643 113.169 50.272 113.706 50.491 113.915C50.491 113.915 49.4707 113.831 49.182 114.793C49.0202 115.333 49.2882 116.046 49.9718 116.397C49.9718 116.397 49.5624 116.619 49.3614 117.289Z" fill="#E0E0E0"/>
</svg>
