<svg width="72" height="72" viewBox="0 0 72 72" fill="none" xmlns="http://www.w3.org/2000/svg">
<path opacity="0.2" d="M63 42.75V56.25C63 56.8467 62.7629 57.419 62.341 57.841C61.919 58.2629 61.3467 58.5 60.75 58.5H11.25C10.6533 58.5 10.081 58.2629 9.65901 57.841C9.23705 57.419 9 56.8467 9 56.25V42.75H63Z" fill="#375C71"/>
<path d="M60.75 15.75H49.5V13.5C49.5 11.7098 48.7888 9.9929 47.523 8.72703C46.2571 7.46116 44.5402 6.75 42.75 6.75H29.25C27.4598 6.75 25.7429 7.46116 24.477 8.72703C23.2112 9.9929 22.5 11.7098 22.5 13.5V15.75H11.25C10.0565 15.75 8.91193 16.2241 8.06802 17.068C7.22411 17.9119 6.75 19.0565 6.75 20.25V56.25C6.75 57.4435 7.22411 58.5881 8.06802 59.432C8.91193 60.2759 10.0565 60.75 11.25 60.75H60.75C61.9435 60.75 63.0881 60.2759 63.932 59.432C64.7759 58.5881 65.25 57.4435 65.25 56.25V20.25C65.25 19.0565 64.7759 17.9119 63.932 17.068C63.0881 16.2241 61.9435 15.75 60.75 15.75ZM27 13.5C27 12.9033 27.2371 12.331 27.659 11.909C28.081 11.4871 28.6533 11.25 29.25 11.25H42.75C43.3467 11.25 43.919 11.4871 44.341 11.909C44.7629 12.331 45 12.9033 45 13.5V15.75H27V13.5ZM60.75 20.25V40.5H11.25V20.25H60.75ZM60.75 56.25H11.25V45H60.75V56.25Z" fill="#375C71"/>
</svg>
