<svg width="40" height="40" viewBox="0 0 40 40" fill="none" xmlns="http://www.w3.org/2000/svg">
<path d="M31.6663 23.3333C34.1497 20.9 36.6663 17.9833 36.6663 14.1667C36.6663 11.7355 35.7006 9.40394 33.9815 7.68485C32.2624 5.96577 29.9308 5 27.4997 5C24.5663 5 22.4997 5.83333 19.9997 8.33333C17.4997 5.83333 15.433 5 12.4997 5C10.0685 5 7.73695 5.96577 6.01786 7.68485C4.29878 9.40394 3.33301 11.7355 3.33301 14.1667C3.33301 18 5.83301 20.9167 8.33301 23.3333L19.9997 35L31.6663 23.3333Z" stroke="#416879" stroke-width="2" stroke-linecap="round" stroke-linejoin="round"/>
<path d="M20 8.33325L15.0667 13.2666C14.728 13.6028 14.4593 14.0026 14.2759 14.4431C14.0925 14.8836 13.998 15.3561 13.998 15.8333C13.998 16.3104 14.0925 16.7829 14.2759 17.2234C14.4593 17.6639 14.728 18.0637 15.0667 18.3999C16.4333 19.7666 18.6167 19.8166 20.0667 18.5166L23.5167 15.3499C24.3814 14.5652 25.5073 14.1306 26.675 14.1306C27.8427 14.1306 28.9686 14.5652 29.8333 15.3499L34.7667 19.7833M30 24.9999L26.6667 21.6666M25 29.9999L21.6667 26.6666" stroke="#416879" stroke-width="2" stroke-linecap="round" stroke-linejoin="round"/>
</svg>
