<svg width="24" height="25" viewBox="0 0 24 25" fill="none" xmlns="http://www.w3.org/2000/svg">
<path fill-rule="evenodd" clip-rule="evenodd" d="M11.3896 0.531188C13.8296 0.381203 15.9896 1.00114 17.6596 1.89105C20.9396 3.63088 23.2996 6.83056 23.8996 10.6302C23.9696 11.0401 23.6896 11.4301 23.2796 11.4901C22.8596 11.5601 22.4796 11.2801 22.4196 10.8702C21.8696 7.3805 19.6196 4.47079 16.5296 3.01094L15.1996 4.34081L11.3896 0.531188ZM1.5796 14.1198C2.1296 17.6095 4.3796 20.5192 7.4696 21.979L8.7996 20.6492L12.6096 24.4688C10.1696 24.6188 8.0096 23.9988 6.3396 23.1089C3.0596 21.3691 0.699598 18.1694 0.0995983 14.3598C0.0295983 13.9498 0.309598 13.5599 0.719598 13.4999C1.1396 13.4299 1.5196 13.7099 1.5796 14.1198Z" fill="white"/>
</svg>
