<svg width="65" height="65" viewBox="0 0 65 65" fill="none" xmlns="http://www.w3.org/2000/svg">
<path d="M42.7956 5.90175C44.0224 5.90175 45.017 4.9072 45.017 3.68037C45.017 2.45353 44.0224 1.45898 42.7956 1.45898C41.5688 1.45898 40.5742 2.45353 40.5742 3.68037C40.5742 4.9072 41.5688 5.90175 42.7956 5.90175Z" fill="white"/>
<path d="M46.8178 18.6629H38.7725C38.5536 18.6629 38.3842 18.4712 38.411 18.254L39.6297 8.39083C39.7747 7.21734 40.7716 6.33594 41.9541 6.33594H43.6363C44.8187 6.33594 45.8157 7.21734 45.9607 8.39083L47.1794 18.254C47.2061 18.4712 47.0367 18.6629 46.8178 18.6629Z" fill="white"/>
<path d="M39.9143 7.52637C39.182 9.09789 36.2139 14.8439 35.3442 16.5241C35.208 16.7871 35.2959 17.11 35.5463 17.2682C35.8163 17.439 36.1738 17.3547 36.3392 17.0815L41.0764 9.25602L39.9143 7.52637Z" fill="white"/>
<path d="M40.1748 14.4434C40.325 16.9919 40.4978 26.5138 40.546 29.2994C40.5536 29.7354 40.8934 30.0925 41.3283 30.1224C41.7976 30.1546 42.202 29.7954 42.2252 29.3256L42.8904 15.8719L40.1748 14.4434Z" fill="white"/>
<path d="M45.4158 14.4443C45.2655 16.9929 45.0927 26.5148 45.0446 29.3004C45.037 29.7364 44.6972 30.0934 44.2622 30.1233C43.7929 30.1556 43.3886 29.7964 43.3654 29.3266L42.7002 15.8728L45.4158 14.4443Z" fill="white"/>
<path d="M45.6484 7.46875C46.3807 9.04027 49.3488 14.7863 50.2185 16.4664C50.3546 16.7295 50.2668 17.0524 50.0164 17.2106C49.7464 17.3813 49.3889 17.297 49.2235 17.0238L44.4863 9.19841L45.6484 7.46875Z" fill="white"/>
<path d="M61.3946 3.65377C61.5912 2.44276 60.7688 1.30172 59.5578 1.10518C58.3468 0.908637 57.2057 1.73103 57.0092 2.94204C56.8126 4.15305 57.635 5.29409 58.846 5.49063C60.0571 5.68717 61.1981 4.86478 61.3946 3.65377Z" fill="white"/>
<path d="M56.5572 14.4014C56.5851 16.9542 56.3015 26.4735 56.2162 29.2581C56.2029 29.6939 56.5252 30.0669 56.9583 30.1176C57.4255 30.1724 57.8465 29.8329 57.8923 29.3648L59.2013 17.2987L56.5572 14.4014Z" fill="white"/>
<path d="M61.8452 14.4014C61.8172 16.9542 62.1009 26.4735 62.1862 29.2581C62.1995 29.6939 61.8772 30.0669 61.4441 30.1176C60.9769 30.1724 60.5558 29.8329 60.5101 29.3648L59.2012 17.2987L61.8452 14.4014Z" fill="white"/>
<path d="M55.9621 6.86914C55.6992 8.5828 54.4591 14.9302 54.0947 16.7867C54.0377 17.0773 54.2125 17.3628 54.4972 17.4445C54.8042 17.5328 55.1238 17.3518 55.2061 17.0431L57.5621 8.20403L55.9621 6.86914Z" fill="white"/>
<path d="M62.4369 6.86914C62.6997 8.5828 63.9399 14.9302 64.3042 16.7867C64.3613 17.0773 64.1864 17.3628 63.9018 17.4445C63.5948 17.5328 63.2752 17.3518 63.1929 17.0431L60.8369 8.20412L62.4369 6.86914Z" fill="white"/>
<path d="M61.8451 14.4011H56.557L55.9297 7.11413C55.9297 6.62021 56.3301 6.21973 56.8241 6.21973H61.578C62.0719 6.21973 62.4724 6.62012 62.4724 7.11413L61.8451 14.4011Z" fill="white"/>
<path d="M61.844 15.9416L59.2007 17.2986L56.5566 15.9416V14.4014H61.844V15.9416Z" fill="white"/>
<path d="M42.7956 40.2768C44.0224 40.2768 45.017 39.2822 45.017 38.0554C45.017 36.8285 44.0224 35.834 42.7956 35.834C41.5688 35.834 40.5742 36.8285 40.5742 38.0554C40.5742 39.2822 41.5688 40.2768 42.7956 40.2768Z" fill="white"/>
<path d="M46.8178 53.0379H38.7725C38.5536 53.0379 38.3842 52.8462 38.411 52.629L39.6297 42.7658C39.7747 41.5923 40.7716 40.7109 41.9541 40.7109H43.6363C44.8187 40.7109 45.8157 41.5923 45.9607 42.7658L47.1794 52.629C47.2061 52.8462 47.0367 53.0379 46.8178 53.0379Z" fill="white"/>
<path d="M39.9143 41.9014C39.182 43.4729 36.2139 49.2189 35.3442 50.8991C35.208 51.1621 35.2959 51.485 35.5463 51.6432C35.8163 51.814 36.1738 51.7297 36.3392 51.4565L41.0764 43.631L39.9143 41.9014Z" fill="white"/>
<path d="M40.1748 48.8184C40.325 51.3669 40.4978 60.8888 40.546 63.6744C40.5536 64.1104 40.8934 64.4675 41.3283 64.4974C41.7976 64.5296 42.202 64.1704 42.2252 63.7006L42.8904 50.2469L40.1748 48.8184Z" fill="white"/>
<path d="M45.4158 48.8184C45.2655 51.3669 45.0927 60.8888 45.0446 63.6744C45.037 64.1104 44.6972 64.4675 44.2622 64.4974C43.7929 64.5296 43.3886 64.1704 43.3654 63.7006L42.7002 50.2469L45.4158 48.8184Z" fill="white"/>
<path d="M45.6494 41.8428C46.3817 43.4143 49.3498 49.1603 50.2195 50.8405C50.3556 51.1035 50.2678 51.4264 50.0174 51.5847C49.7474 51.7554 49.3899 51.6711 49.2245 51.3979L44.4873 43.5724L45.6494 41.8428Z" fill="white"/>
<path d="M61.3946 38.0288C61.5912 36.8178 60.7688 35.6767 59.5578 35.4802C58.3468 35.2836 57.2057 36.106 57.0092 37.317C56.8126 38.528 57.635 39.6691 58.846 39.8656C60.0571 40.0622 61.1981 39.2398 61.3946 38.0288Z" fill="white"/>
<path d="M56.5562 48.7754C56.5842 51.3283 56.3005 60.8475 56.2152 63.6321C56.2019 64.068 56.5242 64.4409 56.9573 64.4917C57.4245 64.5464 57.8456 64.2069 57.8913 63.7389L59.2003 51.6727L56.5562 48.7754Z" fill="white"/>
<path d="M61.8452 48.7754C61.8172 51.3283 62.1009 60.8475 62.1862 63.6321C62.1995 64.068 61.8772 64.4409 61.4441 64.4917C60.9769 64.5464 60.5558 64.2069 60.5101 63.7389L59.2012 51.6727L61.8452 48.7754Z" fill="white"/>
<path d="M55.9621 41.2432C55.6992 42.9568 54.4591 49.3042 54.0947 51.1608C54.0377 51.4514 54.2125 51.7368 54.4972 51.8185C54.8042 51.9068 55.1238 51.7258 55.2061 51.4171L57.5621 42.5781L55.9621 41.2432Z" fill="white"/>
<path d="M62.4369 41.2432C62.6997 42.9568 63.9399 49.3042 64.3042 51.1608C64.3613 51.4514 64.1864 51.7368 63.9018 51.8185C63.5948 51.9068 63.2752 51.7258 63.1929 51.4171L60.8369 42.5781L62.4369 41.2432Z" fill="white"/>
<path d="M61.8451 48.7751H56.557L55.9297 41.4882C55.9297 40.9942 56.3301 40.5938 56.8241 40.5938H61.578C62.0719 40.5938 62.4724 40.9941 62.4724 41.4882L61.8451 48.7751Z" fill="white"/>
<path d="M61.845 50.3156L59.2017 51.6727L56.5576 50.3156V48.7754H61.845V50.3156Z" fill="white"/>
<path d="M8.13349 40.2777C9.36033 40.2777 10.3549 39.2832 10.3549 38.0563C10.3549 36.8295 9.36033 35.835 8.13349 35.835C6.90666 35.835 5.91211 36.8295 5.91211 38.0563C5.91211 39.2832 6.90666 40.2777 8.13349 40.2777Z" fill="white"/>
<path d="M12.1567 53.0388H4.11132C3.89244 53.0388 3.72306 52.8472 3.74987 52.63L4.96855 42.7668C5.11359 41.5933 6.11049 40.7119 7.29295 40.7119H8.97514C10.1576 40.7119 11.1546 41.5933 11.2995 42.7668L12.5182 52.63C12.545 52.8472 12.3756 53.0388 12.1567 53.0388Z" fill="white"/>
<path d="M5.25318 41.9023C4.52087 43.4739 1.55275 49.2199 0.683045 50.9C0.546884 51.163 0.634787 51.486 0.885133 51.6442C1.15517 51.8149 1.51267 51.7306 1.6781 51.4574L6.41526 43.632L5.25318 41.9023Z" fill="white"/>
<path d="M5.51367 48.8203C5.6639 51.3689 5.83671 60.8907 5.88488 63.6764C5.89244 64.1124 6.23227 64.4694 6.66722 64.4993C7.13644 64.5316 7.54088 64.1724 7.56409 63.7026L8.22924 50.2488L5.51367 48.8203Z" fill="white"/>
<path d="M10.7546 48.8193C10.6044 51.3679 10.4316 60.8898 10.3834 63.6754C10.3759 64.1114 10.036 64.4684 9.60109 64.4983C9.13178 64.5306 8.72743 64.1714 8.70422 63.7016L8.03906 50.2478L10.7546 48.8193Z" fill="white"/>
<path d="M10.9873 41.8438C11.7196 43.4153 14.6877 49.1613 15.5574 50.8414C15.6935 51.1045 15.6057 51.4274 15.3553 51.5856C15.0853 51.7563 14.7278 51.672 14.5623 51.3988L9.8252 43.5734L10.9873 41.8438Z" fill="white"/>
<path d="M26.7335 38.0297C26.93 36.8187 26.1077 35.6777 24.8966 35.4812C23.6856 35.2846 22.5446 36.107 22.3481 37.318C22.1515 38.529 22.9739 39.6701 24.1849 39.8666C25.3959 40.0631 26.537 39.2408 26.7335 38.0297Z" fill="white"/>
<path d="M21.8961 48.7773C21.924 51.3302 21.6404 60.8494 21.5551 63.6341C21.5417 64.0699 21.8641 64.4429 22.2972 64.4936C22.7644 64.5484 23.1854 64.2089 23.2311 63.7408L24.5402 51.6747L21.8961 48.7773Z" fill="white"/>
<path d="M27.1841 48.7773C27.1561 51.3302 27.4398 60.8494 27.525 63.6341C27.5384 64.0699 27.2161 64.4429 26.783 64.4936C26.3158 64.5484 25.8947 64.2089 25.849 63.7408L24.54 51.6747L27.1841 48.7773Z" fill="white"/>
<path d="M21.3009 41.2441C21.0381 42.9578 19.798 49.3052 19.4336 51.1617C19.3766 51.4523 19.5514 51.7378 19.836 51.8195C20.1431 51.9078 20.4627 51.7268 20.545 51.4181L22.9009 42.579L21.3009 41.2441Z" fill="white"/>
<path d="M27.7758 41.2441C28.0386 42.9578 29.2787 49.3052 29.6431 51.1617C29.7001 51.4523 29.5253 51.7378 29.2407 51.8195C28.9336 51.9078 28.614 51.7268 28.5317 51.4181L26.1758 42.5791L27.7758 41.2441Z" fill="white"/>
<path d="M27.184 48.7761H21.8958L21.2686 41.4891C21.2686 40.9952 21.6689 40.5947 22.163 40.5947H26.9168C27.4107 40.5947 27.8112 40.9951 27.8112 41.4891L27.184 48.7761Z" fill="white"/>
<path d="M27.1838 50.3176L24.5406 51.6746L21.8965 50.3176V48.7773H27.1838V50.3176Z" fill="white"/>
<path d="M8.13349 5.90273C9.36033 5.90273 10.3549 4.90818 10.3549 3.68134C10.3549 2.45451 9.36033 1.45996 8.13349 1.45996C6.90666 1.45996 5.91211 2.45451 5.91211 3.68134C5.91211 4.90818 6.90666 5.90273 8.13349 5.90273Z" fill="white"/>
<path d="M12.1567 18.6638H4.11132C3.89244 18.6638 3.72306 18.4722 3.74987 18.255L4.96855 8.39181C5.11359 7.21831 6.11049 6.33691 7.29295 6.33691H8.97514C10.1576 6.33691 11.1546 7.21831 11.2995 8.39181L12.5182 18.255C12.545 18.4722 12.3756 18.6638 12.1567 18.6638Z" fill="white"/>
<path d="M5.25318 7.52734C4.52087 9.09886 1.55275 14.8449 0.683045 16.525C0.546884 16.788 0.634787 17.111 0.885133 17.2692C1.15517 17.4399 1.51267 17.3556 1.6781 17.0824L6.41526 9.257L5.25318 7.52734Z" fill="white"/>
<path d="M5.51367 14.4453C5.6639 16.9939 5.83671 26.5157 5.88488 29.3014C5.89244 29.7374 6.23227 30.0944 6.66722 30.1243C7.13644 30.1566 7.54088 29.7974 7.56409 29.3276L8.22924 15.8738L5.51367 14.4453Z" fill="white"/>
<path d="M10.7546 14.4443C10.6044 16.9929 10.4316 26.5148 10.3834 29.3004C10.3759 29.7364 10.036 30.0934 9.60109 30.1233C9.13178 30.1556 8.72743 29.7964 8.70422 29.3266L8.03906 15.8728L10.7546 14.4443Z" fill="white"/>
<path d="M10.9882 7.46875C11.7206 9.04027 14.6887 14.7863 15.5584 16.4664C15.6945 16.7295 15.6066 17.0524 15.3563 17.2106C15.0863 17.3813 14.7288 17.297 14.5633 17.0238L9.82617 9.19841L10.9882 7.46875Z" fill="white"/>
<path d="M26.7335 3.65475C26.93 2.44374 26.1077 1.30269 24.8966 1.10615C23.6856 0.909613 22.5446 1.732 22.3481 2.94301C22.1515 4.15402 22.9739 5.29507 24.1849 5.49161C25.3959 5.68815 26.537 4.86576 26.7335 3.65475Z" fill="white"/>
<path d="M21.8961 14.4014C21.924 16.9542 21.6404 26.4735 21.5551 29.2581C21.5417 29.6939 21.8641 30.0669 22.2972 30.1176C22.7644 30.1724 23.1854 29.8329 23.2311 29.3648L24.5402 17.2987L21.8961 14.4014Z" fill="white"/>
<path d="M27.1841 14.4023C27.1561 16.9552 27.4398 26.4744 27.525 29.2591C27.5384 29.6949 27.2161 30.0679 26.783 30.1186C26.3158 30.1734 25.8947 29.8339 25.849 29.3658L24.54 17.2997L27.1841 14.4023Z" fill="white"/>
<path d="M21.3009 6.86914C21.0381 8.5828 19.798 14.9302 19.4336 16.7867C19.3766 17.0773 19.5514 17.3628 19.836 17.4445C20.1431 17.5328 20.4627 17.3518 20.545 17.0431L22.9009 8.20403L21.3009 6.86914Z" fill="white"/>
<path d="M27.7758 6.86914C28.0386 8.5828 29.2787 14.9302 29.6431 16.7867C29.7001 17.0773 29.5253 17.3628 29.2407 17.4445C28.9336 17.5328 28.614 17.3518 28.5317 17.0431L26.1758 8.20412L27.7758 6.86914Z" fill="white"/>
<path d="M27.184 14.4011H21.8958L21.2686 7.11413C21.2686 6.62021 21.6689 6.21973 22.163 6.21973H26.9168C27.4107 6.21973 27.8112 6.62012 27.8112 7.11413L27.184 14.4011Z" fill="white"/>
<path d="M27.1838 15.9426L24.5406 17.2996L21.8965 15.9426V14.4023H27.1838V15.9426Z" fill="white"/>
</svg>
