<svg width="36" height="39" viewBox="0 0 36 39" fill="none" xmlns="http://www.w3.org/2000/svg">
<path d="M13.4424 14.479C12.7636 14.0458 10.5111 12.5488 10.5111 12.5488C12.4117 9.9471 14.9181 8.93386 18.3849 8.93386C20.8361 8.93386 22.9177 9.72087 24.4034 11.2155C25.8892 12.7101 26.7364 14.8472 26.93 17.5789C27.7546 17.911 28.513 18.2993 29.2052 18.7438C31.9932 20.5368 33.5268 23.2203 33.5268 26.2938C33.5268 32.8305 27.9306 38.508 17.7992 38.508C9.10074 38.508 0.0654297 33.6632 0.0654297 19.2396C0.0654297 4.89533 8.81917 0 17.774 0C21.9121 0 31.6161 0.58484 35.2614 12.1204L31.8424 12.97C29.0166 4.75093 23.1012 3.44165 17.6785 3.44165C8.7161 3.44165 3.64536 8.66671 3.64536 19.7835C3.64536 29.7547 9.31192 35.0495 17.7992 35.0495C24.7805 35.0495 29.9845 31.5766 29.9845 26.4911C29.9845 23.0302 26.9476 21.372 26.7917 21.372C26.1984 24.3419 24.6096 29.3383 17.6307 29.3383C13.5631 29.3383 10.0561 26.6476 10.0561 23.1241C10.0561 18.094 15.0438 16.272 18.9808 16.272C20.454 16.272 22.2339 16.3683 23.1615 16.5464C23.1615 15.0133 21.804 12.3875 18.3849 12.3875C15.2424 12.3875 14.448 13.3623 13.4399 14.4766L13.4424 14.479ZM19.4634 19.7113C14.3349 19.7113 13.6712 21.8052 13.6712 23.1193C13.6712 25.2324 16.2933 25.9303 17.6936 25.9303C20.2579 25.9303 22.89 25.2516 23.3048 20.0988C22.0461 19.8176 20.7557 19.6875 19.4634 19.7113Z" fill="#E1FFFD"/>
</svg>
