<svg width="749" height="420" viewBox="0 0 749 420" fill="none" xmlns="http://www.w3.org/2000/svg">
<g clip-path="url(#clip0_6439_7925)">
<rect y="0.96875" width="749" height="419" rx="20" fill="#2B586B"/>
<path d="M523.275 404.666C447.05 467.355 306.676 479.714 211.071 393.865C98.5023 292.818 106.703 130.474 197.421 40.4494C306.395 -67.7245 473.394 -53.1936 563.382 52.5305C652.302 157.086 628.26 291.816 569.28 359.793C565.853 359.459 563.494 357.121 561.135 355.061C541.362 337.802 519.736 322.659 501.649 303.451C496.256 297.773 495.751 294.711 500.132 288.086C509.794 273.499 516.31 257.743 520.298 240.707C524.117 224.395 524.679 208.027 523.05 191.492C519.511 154.97 502.772 124.962 476.989 99.2407C461.542 83.8191 443.286 73.5195 422.952 65.9479C401.269 57.8195 379.025 54.7018 356.051 57.5968C315.326 62.6631 281.117 80.0333 254.323 111.322C240.224 127.801 230.956 146.73 224.665 167.162C220.452 180.747 220.845 194.888 220.396 208.973C219.497 240.262 229.552 268.21 246.909 293.486C262.075 315.533 282.016 332.624 307.013 343.815C317.573 348.547 328.414 353.001 339.592 355.005C356.781 358.067 373.914 360.684 391.945 357.176C412.111 353.279 431.153 347.601 448.959 337.635C451.431 336.243 453.79 334.684 456.093 333.014C460.418 329.785 464.07 330.342 467.44 334.462C479.461 349.215 491.594 363.969 503.671 378.722C509.063 385.292 514.4 391.861 519.792 398.486C521.197 400.212 522.657 401.994 523.219 404.722L523.275 404.666ZM496.312 209.808C496.593 136.375 440.309 83.7077 371.554 84.3202C301.62 84.9882 248.65 135.818 247.414 207.08C246.291 272.497 301.733 332.29 370.712 329.896C442.78 332.179 496.088 272.553 496.312 209.808ZM428.794 137.878C446.432 150.627 455.925 168.777 462.89 188.541C463.733 190.935 463.508 193.774 463.227 196.335C462.778 200.177 459.913 202.293 456.318 202.794C452.891 203.239 450.701 201.123 449.409 198.061C446.151 190.323 444.746 181.916 440.702 174.4C431.378 157.308 417.335 145.839 399.303 138.546C387.451 133.703 375.206 132.701 362.679 133.09C359.534 133.202 356.613 132.533 355.208 129.082C353.973 126.131 354.534 123.57 356.388 121.12C357.905 119.116 360.095 118.615 362.454 118.559C366.443 118.559 370.431 118.559 374.419 118.559C395.147 117.669 412.616 126.131 428.85 137.822L428.794 137.878ZM463.283 230.63C462.609 236.532 460.531 242.211 457.273 247.388C455.194 250.673 452.273 252.287 448.622 250.729C444.915 249.114 441.994 245.774 443.567 241.765C446.095 235.363 445.87 227.958 451.038 221.945C459.407 218.716 464.294 221.945 463.227 230.63H463.283Z" fill="white" fill-opacity="0.4"/>
<rect x="319" y="154.969" width="112" height="112" rx="56" fill="black" fill-opacity="0.5"/>
<path d="M356.333 191.572V230.366C356.333 233.324 359.599 235.121 362.114 233.511L392.668 214.114C394.995 212.654 394.995 209.284 392.668 207.786L362.114 188.427C359.599 186.816 356.333 188.614 356.333 191.572Z" fill="white"/>
</g>
<defs>
<clipPath id="clip0_6439_7925">
<rect width="749" height="419" fill="white" transform="translate(0 0.96875)"/>
</clipPath>
</defs>
</svg>
