<svg width="42" height="39" viewBox="0 0 42 39" fill="none" xmlns="http://www.w3.org/2000/svg">
<path d="M20.9108 38.508C32.0184 38.508 41.0228 29.8877 41.0228 19.254C41.0228 8.62031 32.0184 0 20.9108 0C9.80327 0 0.798828 8.62031 0.798828 19.254C0.798828 29.8877 9.80327 38.508 20.9108 38.508Z" fill="#E1FFFD"/>
<path fill-rule="evenodd" clip-rule="evenodd" d="M30.1421 27.0767L23.1282 17.8392L23.1401 17.8479L29.4642 11.2271H27.3509L22.1991 16.6159L18.108 11.2271H12.5654L19.1136 19.8514L19.1128 19.8507L12.2065 27.0767H14.3199L20.0475 21.0812L24.5996 27.0767H30.1421ZM17.2706 12.6679L27.1116 25.6358H25.4369L15.5879 12.6679H17.2706Z" fill="#00425F"/>
</svg>
