<svg width="25" height="11" viewBox="0 0 25 11" fill="none" xmlns="http://www.w3.org/2000/svg">
<g clip-path="url(#clip0_2868_45259)">
<path d="M0.268555 3.32015V7.63199C0.268555 7.74709 0.330419 7.85334 0.431357 7.9105L4.20837 10.0668C4.30931 10.124 4.43303 10.124 4.53398 10.0668L8.31098 7.9105C8.41192 7.85334 8.47378 7.74709 8.47378 7.63199V3.32015C8.47378 3.20505 8.41192 3.0988 8.31098 3.04165L4.53398 0.885329C4.43303 0.828181 4.30931 0.828181 4.20837 0.885329L0.431357 3.04085C0.330419 3.098 0.268555 3.20505 0.268555 3.31934" fill="#753BBD"/>
<path d="M4.37618 7.45546C4.30129 7.45546 4.24023 7.39511 4.24023 7.32104V5.48025C4.24023 5.4062 4.30129 5.34583 4.37618 5.34583C4.45107 5.34583 4.51212 5.4062 4.51212 5.48025V7.32104C4.51212 7.39511 4.45107 7.45546 4.37618 7.45546Z" fill="white"/>
<path d="M5.04944 7.06841C5.00223 7.06841 4.95666 7.04427 4.93143 7.00162C4.89397 6.93721 4.91595 6.85513 4.98106 6.81811L5.85207 6.32067V2.79843L4.37545 1.9549L2.89884 2.79843V3.83513C2.89884 3.9092 2.83779 3.96955 2.7629 3.96955C2.688 3.96955 2.62695 3.9092 2.62695 3.83513V2.72036C2.62695 2.67207 2.653 2.6278 2.69452 2.60365L4.30708 1.68284C4.34939 1.6587 4.40069 1.6587 4.44302 1.68284L6.05556 2.60365C6.09789 2.6278 6.12312 2.67207 6.12312 2.72036V6.39714C6.12312 6.44543 6.09708 6.4897 6.05556 6.51305L5.1162 7.04911C5.09503 7.06118 5.07144 7.06681 5.04863 7.06681" fill="white"/>
<path d="M5.97451 8.38551C5.9509 8.38551 5.92728 8.37988 5.90695 8.36781L2.68671 6.52943C2.64437 6.50529 2.61914 6.46102 2.61914 6.41271V5.31645C2.61914 5.2424 2.68019 5.18203 2.75508 5.18203C2.82998 5.18203 2.89103 5.2424 2.89103 5.31645V6.33544L5.97532 8.09656L7.45194 7.25304V5.56678L6.47348 5.00817C6.40836 4.97115 6.38639 4.88904 6.42385 4.82466C6.46128 4.76025 6.54431 4.73852 6.60942 4.77554L7.65626 5.37279C7.69859 5.39693 7.72382 5.44121 7.72382 5.48949V7.33111C7.72382 7.3794 7.69776 7.42367 7.65626 7.44781L6.0437 8.36862C6.02253 8.38069 5.99892 8.38632 5.97613 8.38632" fill="white"/>
<path d="M2.76623 8.37162C2.74262 8.37162 2.71903 8.36599 2.69867 8.35392L1.08612 7.43311C1.04379 7.40897 1.01855 7.3647 1.01855 7.31641V5.47479C1.01855 5.42651 1.0446 5.38223 1.08612 5.35809L4.30635 3.51971C4.34868 3.49555 4.39996 3.49555 4.44229 3.51971L5.40282 4.06784C5.46793 4.10486 5.48991 4.18695 5.45247 4.25136C5.41502 4.31574 5.33199 4.33747 5.26687 4.30045L4.37472 3.79096L1.28962 5.55287V7.23913L2.76623 8.08267L3.74467 7.52407C3.80981 7.48705 3.89283 7.50878 3.93027 7.57316C3.96773 7.63757 3.94573 7.71965 3.88061 7.75668L2.8338 8.35392C2.81264 8.36599 2.78902 8.37162 2.76623 8.37162Z" fill="white"/>
<path d="M4.37171 5.6098C4.34811 5.6098 4.3245 5.60417 4.30414 5.5921L2.69484 4.67383C2.62972 4.63681 2.60775 4.55473 2.6452 4.49034C2.68264 4.42596 2.76567 4.40423 2.83078 4.44125L4.37252 5.32089L5.9224 4.44044C5.98752 4.40342 6.07055 4.42596 6.10801 4.49034C6.14544 4.55473 6.12266 4.63681 6.05754 4.67383L4.43927 5.59291C4.41811 5.60498 4.39532 5.61061 4.37171 5.61061" fill="white"/>
<path d="M15.1326 7.09432C14.2258 7.09432 13.4883 6.36509 13.4883 5.46844C13.4883 4.57177 14.2258 3.84253 15.1326 3.84253C16.0394 3.84253 16.7769 4.57177 16.7769 5.46844C16.7769 6.36509 16.0394 7.09432 15.1326 7.09432ZM15.1326 4.47759C14.5799 4.47759 14.1305 4.9219 14.1305 5.46844C14.1305 6.01495 14.5799 6.45926 15.1326 6.45926C15.6853 6.45926 16.1346 6.01495 16.1346 5.46844C16.1346 4.9219 15.6853 4.47759 15.1326 4.47759Z" fill="#160846"/>
<path d="M19.1075 3.84562C18.7192 3.8247 18.3586 3.94221 18.0721 4.15311C18.0721 3.98085 17.9313 3.84161 17.7571 3.84161H17.4307V6.98394C17.4307 7.05073 17.4852 7.10386 17.5528 7.10386H17.9508C18.0184 7.10386 18.0721 7.04994 18.0721 6.98394V5.43773C18.0721 4.93063 18.4701 4.49681 18.983 4.47827C19.5202 4.45897 19.9631 4.88556 19.9631 5.41278V6.98394C19.9631 7.05073 20.0176 7.10386 20.0843 7.10386H20.4824C20.5499 7.10386 20.6037 7.04994 20.6037 6.98394V5.44658C20.6037 4.60868 19.9533 3.89312 19.1067 3.84643" fill="#160846"/>
<path d="M24.5171 5.68313C24.5416 5.50122 24.5359 5.31045 24.4927 5.11406C24.3461 4.45164 23.7853 3.94375 23.1056 3.8568C22.0392 3.72078 21.1365 4.60214 21.2545 5.65253C21.3311 6.33429 21.9782 6.98948 22.6652 7.07963C23.3352 7.16737 23.9415 6.85184 24.2713 6.34555C24.3226 6.26588 24.2632 6.16123 24.1671 6.16123H23.603C23.4207 6.34474 23.1675 6.45986 22.8874 6.45986C22.4471 6.45986 22.0726 6.17733 21.9383 5.78616L24.3958 5.78857C24.4568 5.78857 24.5091 5.7443 24.5171 5.68392M22.8874 4.47819C23.3278 4.47819 23.7024 4.76072 23.8357 5.15189H21.9383C22.0726 4.76072 22.4471 4.47819 22.8874 4.47819Z" fill="#160846"/>
<path d="M12.996 3.85779H10.5458C10.4782 3.85779 10.4237 3.91172 10.4237 3.97854V4.37212C10.4237 4.43893 10.4782 4.49287 10.5458 4.49287H11.8905L10.3887 7.0951H12.8519C12.9194 7.0951 12.9731 7.04117 12.9731 6.97516V6.58158C12.9731 6.51477 12.9186 6.46164 12.8519 6.46164H11.4933L12.9951 3.85941L12.996 3.85779Z" fill="#160846"/>
</g>
<defs>
<clipPath id="clip0_2868_45259">
<rect width="24.2632" height="9.2672" fill="white" transform="translate(0.268555 0.842468)"/>
</clipPath>
</defs>
</svg>
